<svg width="36" height="24" viewBox="0 0 36 24" fill="none" xmlns="http://www.w3.org/2000/svg">
<path d="M34.938 11.0376L27.3999 0.298659C27.293 0.146349 27.1301 0.0427217 26.9468 0.0105632C26.7635 -0.0215952 26.575 0.0203479 26.4226 0.12717L22.3668 2.97506C22.2912 3.02778 22.2267 3.09491 22.177 3.1726C22.1274 3.25029 22.0935 3.33701 22.0775 3.42779C22.0614 3.51858 22.0634 3.61165 22.0833 3.70166C22.1032 3.79168 22.1407 3.87688 22.1936 3.95238L23.1535 5.3193C22.6407 5.72638 22.0446 6.12181 21.8315 6.14095C21.5593 6.15843 20.0367 5.6731 18.7589 5.20442C18.5691 5.10785 17.1439 4.41857 16.0483 4.97799C15.7811 5.11451 15.3516 5.5782 14.8987 6.13429C13.4419 5.8013 12.5886 5.12034 12.2631 4.81316L12.87 3.95238C12.9768 3.80003 13.0187 3.61149 12.9866 3.42821C12.9544 3.24494 12.8508 3.08194 12.6985 2.97506L8.641 0.128003C8.48864 0.0211805 8.3001 -0.0207626 8.11683 0.0113959C7.93356 0.0435544 7.77056 0.147181 7.66367 0.299492L0.125633 11.0384C0.0195437 11.1911 -0.0217142 11.3795 0.0108969 11.5626C0.043508 11.7456 0.14733 11.9082 0.29962 12.0149L4.35543 14.8619C4.47287 14.9447 4.613 14.9892 4.75668 14.9893C4.79797 14.989 4.83917 14.9854 4.87988 14.9785C4.97066 14.9628 5.05743 14.9293 5.13516 14.8798C5.2129 14.8304 5.28005 14.766 5.33275 14.6904L6.29342 13.3202C6.67503 14.045 7.11609 14.737 7.61206 15.3889L6.87699 16.2214C6.61188 16.5238 6.47725 16.9188 6.50252 17.3202C6.52779 17.7215 6.71091 18.0966 7.01185 18.3633L7.14088 18.4765C7.41671 18.72 7.77194 18.8544 8.13985 18.8545C8.20077 18.8542 8.26163 18.8506 8.32216 18.8437C8.23607 19.0734 8.19975 19.3189 8.2156 19.5637C8.22928 19.7903 8.28784 20.012 8.38787 20.2158C8.48791 20.4195 8.62743 20.6014 8.79833 20.7508L8.93153 20.8682C9.2473 21.1464 9.65368 21.2999 10.0745 21.2999C10.4953 21.2999 10.9017 21.1464 11.2175 20.8682C11.2671 21.2011 11.4328 21.5057 11.6853 21.7282L11.7561 21.7898C12.0173 22.0212 12.3545 22.1486 12.7035 22.1477C12.9125 22.1478 13.119 22.1023 13.3087 22.0145C13.3323 22.3186 13.4736 22.6014 13.7024 22.8029L13.7574 22.8512C13.9715 23.0403 14.2475 23.1446 14.5332 23.1442C14.559 23.1442 14.5848 23.1442 14.6098 23.1442C14.7642 23.1352 14.9153 23.0955 15.0542 23.0274C15.1932 22.9594 15.3172 22.8644 15.419 22.7479L15.6845 22.4466L16.656 23.5213C16.8727 23.7878 17.1863 23.9574 17.5279 23.993C17.8696 24.0286 18.2114 23.9272 18.4783 23.7111L18.5874 23.6229C18.7198 23.5159 18.8296 23.3837 18.9105 23.2339C18.9914 23.0842 19.0417 22.9198 19.0586 22.7504V22.7463C19.2024 22.807 19.355 22.8447 19.5106 22.8578C19.5505 22.8578 19.5938 22.8578 19.6296 22.8578C19.9745 22.8585 20.3082 22.7357 20.5703 22.5115L20.6952 22.405C20.9779 22.1628 21.1567 21.8213 21.1947 21.451C21.4582 21.5784 21.7526 21.6283 22.0435 21.5947C22.3343 21.5611 22.6096 21.4454 22.8372 21.2612L23.0303 21.1038C23.1934 20.9716 23.3277 20.8074 23.4247 20.6213C23.5218 20.4351 23.5797 20.231 23.5947 20.0216C23.7834 20.0999 23.9857 20.1401 24.1899 20.1398C24.5073 20.1401 24.8169 20.0415 25.0757 19.8576L25.6418 19.4564C25.9744 19.2193 26.1997 18.8603 26.2684 18.4578C26.3372 18.0552 26.2439 17.6417 26.0089 17.3077L25.7683 16.9689L29.4312 14.2501L29.7392 14.6879C29.7919 14.7635 29.859 14.8279 29.9368 14.8773C30.0145 14.9268 30.1013 14.9603 30.192 14.976C30.2328 14.9829 30.274 14.9865 30.3153 14.9868C30.4589 14.9867 30.5991 14.9422 30.7165 14.8594L34.764 12.0149C34.9163 11.908 35.0199 11.745 35.0521 11.5617C35.0842 11.3785 35.0423 11.1899 34.9355 11.0376H34.938ZM4.84992 14.3533C4.83233 14.3778 4.80587 14.3945 4.77617 14.3998C4.74647 14.4051 4.71588 14.3985 4.69091 14.3816L0.632609 11.5337C0.620342 11.525 0.609909 11.514 0.601909 11.5013C0.593909 11.4886 0.588499 11.4744 0.585991 11.4596C0.581607 11.4304 0.58845 11.4007 0.605137 11.3764L8.14234 0.637475C8.16008 0.612904 8.18669 0.596207 8.21652 0.590923C8.24636 0.585639 8.27709 0.592185 8.30218 0.609172L12.358 3.45706C12.3703 3.46573 12.3807 3.47674 12.3887 3.48945C12.3967 3.50217 12.4021 3.51634 12.4046 3.53115C12.4072 3.5456 12.4068 3.56042 12.4035 3.57473C12.4002 3.58903 12.3941 3.60252 12.3855 3.6144L4.84992 14.3533ZM7.52881 18.0395L7.39978 17.9254C7.21478 17.7623 7.1021 17.5324 7.08649 17.2863C7.07088 17.0401 7.15362 16.7978 7.31653 16.6126L9.28117 14.3824C9.44477 14.1982 9.67454 14.0861 9.92043 14.0705C10.1663 14.0549 10.4084 14.1371 10.594 14.2992L10.723 14.4124C10.908 14.5755 11.0207 14.8054 11.0363 15.0516C11.0519 15.2977 10.9692 15.54 10.8063 15.7252L8.84245 17.9554C8.76173 18.0472 8.66371 18.1222 8.554 18.1761C8.44429 18.23 8.32504 18.2617 8.20305 18.2695C8.08106 18.2773 7.95873 18.261 7.84305 18.2216C7.72736 18.1821 7.62058 18.1202 7.52881 18.0395ZM9.31946 20.4312L9.18627 20.3138C8.96047 20.1132 8.8231 19.8315 8.80408 19.5301C8.78505 19.2287 8.88592 18.932 9.0847 18.7046L11.5305 15.9275C11.6356 15.8082 11.7633 15.7108 11.9062 15.641C12.049 15.5711 12.2043 15.5301 12.363 15.5204C12.527 15.5104 12.6913 15.5335 12.8462 15.5883C13.001 15.643 13.1433 15.7284 13.2645 15.8393C13.5051 16.0525 13.6515 16.3523 13.6717 16.6731C13.692 16.994 13.5845 17.3098 13.3728 17.5517L10.9261 20.3288C10.7262 20.5547 10.445 20.6923 10.1439 20.7115C9.84285 20.7307 9.54643 20.6299 9.31946 20.4312ZM12.1432 21.3469L12.0733 21.2845C11.9054 21.1361 11.8031 20.9273 11.7889 20.7036C11.7747 20.48 11.8497 20.2599 11.9975 20.0915L13.3253 18.5839C13.4737 18.4158 13.6827 18.3133 13.9065 18.2991C14.1303 18.2849 14.3506 18.3601 14.5191 18.5082L14.5898 18.5706C14.7576 18.7191 14.8597 18.928 14.8738 19.1516C14.8878 19.3752 14.8127 19.5952 14.6648 19.7635L13.3328 21.2711C13.1849 21.4383 12.977 21.5404 12.7543 21.5552C12.5315 21.5701 12.3119 21.4964 12.1432 21.3502V21.3469ZM14.9736 22.3542C14.8699 22.471 14.7241 22.5421 14.5682 22.552C14.4122 22.5618 14.2587 22.5095 14.1411 22.4066L14.0862 22.3583C13.9691 22.2547 13.8979 22.109 13.8881 21.9529C13.8782 21.7969 13.9306 21.6434 14.0338 21.5259L14.8379 20.6102C14.9418 20.4936 15.0874 20.4226 15.2432 20.4126C15.399 20.4026 15.5525 20.4545 15.6704 20.5569L15.7253 20.6052C15.8424 20.7088 15.9136 20.8546 15.9235 21.0106C15.9333 21.1666 15.8809 21.3201 15.7778 21.4376L14.9736 22.3542ZM25.2963 18.976L24.7302 19.3773C24.5223 19.5225 24.2654 19.5794 24.0157 19.5353C23.766 19.4913 23.5439 19.3501 23.3982 19.1425L23.3833 19.1225C23.3444 19.0574 23.301 18.9951 23.2534 18.9361C23.2402 18.9199 23.2254 18.9051 23.2093 18.8919L21.0548 16.0391C21.0078 15.9769 20.938 15.936 20.8608 15.9253C20.7836 15.9146 20.7053 15.935 20.6432 15.982C20.581 16.0291 20.5401 16.0988 20.5294 16.176C20.5187 16.2532 20.5391 16.3315 20.5861 16.3937L22.8879 19.4414C22.9974 19.6376 23.0343 19.8661 22.9921 20.0868C22.95 20.3076 22.8314 20.5064 22.6573 20.6485L22.465 20.805C22.2683 20.9642 22.0165 21.0389 21.7647 21.0127C21.513 20.9865 21.2819 20.8615 21.1223 20.6651L19.1135 18.1977C19.0631 18.1415 18.993 18.107 18.9178 18.1011C18.8426 18.0952 18.768 18.1185 18.7095 18.1661C18.651 18.2137 18.613 18.282 18.6034 18.3568C18.5939 18.4317 18.6135 18.5073 18.6581 18.5681L20.3622 20.6659C20.3734 20.6921 20.3882 20.7165 20.4063 20.7384C20.5547 20.9138 20.6278 21.1408 20.6095 21.3699C20.5913 21.5989 20.4832 21.8115 20.3089 21.9613L20.1849 22.0662C20.0094 22.2146 19.7825 22.2876 19.5534 22.2694C19.3243 22.2511 19.1117 22.1431 18.962 21.9688L17.9097 20.7317L17.8465 20.6543C17.8394 20.6464 17.8319 20.6389 17.824 20.6318L17.5568 20.318C17.5321 20.2875 17.5015 20.2623 17.467 20.2439C17.4324 20.2254 17.3945 20.214 17.3554 20.2105C17.3164 20.2069 17.277 20.2111 17.2397 20.223C17.2023 20.2348 17.1677 20.2541 17.1379 20.2795C17.108 20.3049 17.0836 20.3361 17.066 20.3711C17.0484 20.4061 17.038 20.4443 17.0354 20.4834C17.0327 20.5226 17.038 20.5618 17.0507 20.5989C17.0635 20.6359 17.0836 20.67 17.1097 20.6992L17.4652 21.1155L18.3185 22.1669C18.4368 22.3133 18.4922 22.5006 18.4727 22.6878C18.4532 22.8751 18.3603 23.0469 18.2144 23.1658L18.1062 23.2541C18.0326 23.313 17.9481 23.3567 17.8575 23.3828C17.7669 23.4088 17.6721 23.4167 17.5785 23.406C17.4848 23.3952 17.3943 23.366 17.312 23.3201C17.2296 23.2742 17.1572 23.2124 17.0989 23.1384L16.0733 22.0021L16.2215 21.8356C16.3241 21.7194 16.4027 21.5841 16.453 21.4375C16.5032 21.2909 16.524 21.1358 16.5142 20.9811C16.5043 20.8265 16.4641 20.6753 16.3957 20.5362C16.3274 20.3971 16.2322 20.2729 16.1158 20.1706L16.0617 20.1223C15.8564 19.9408 15.5938 19.8373 15.3199 19.8301C15.4553 19.5485 15.4952 19.2304 15.4335 18.9241C15.3717 18.6177 15.2117 18.3399 14.9778 18.1327L14.907 18.0711C14.6515 17.8462 14.3242 17.7199 13.9838 17.7148C14.1949 17.378 14.2899 16.9814 14.2542 16.5855C14.2185 16.1896 14.0541 15.8163 13.7862 15.5227C13.5183 15.2291 13.1615 15.0313 12.7706 14.9597C12.3796 14.888 11.9759 14.9463 11.6212 15.1258C11.624 14.908 11.5797 14.6921 11.4914 14.493C11.403 14.2938 11.2727 14.1161 11.1093 13.972L10.9802 13.8588C10.6774 13.5948 10.2825 13.4612 9.88164 13.4871C9.48074 13.513 9.10632 13.6963 8.83996 13.997L8.00748 14.9435C7.39645 14.1468 6.86616 13.1562 6.67553 12.7791L11.9251 5.29932C12.3172 5.65645 13.1522 6.27914 14.5058 6.6396C13.7391 7.63358 13.0198 8.69748 13.0073 8.71662C12.7309 9.13286 12.8283 10.2059 13.2571 10.5206L13.3112 10.5614C13.6308 10.8011 14.3801 11.3639 15.4107 10.5089C15.8069 10.1809 16.1799 9.80883 16.5095 9.48C16.7901 9.19946 17.1372 8.85398 17.2721 8.78572C17.5909 8.834 19.3316 9.4517 20.2365 10.4074C20.6977 10.8935 21.8373 12.4295 22.9004 13.9038C22.9088 13.9415 22.9246 13.9772 22.947 14.0087L25.5277 17.6499C25.6733 17.8566 25.731 18.1126 25.6882 18.3617C25.6455 18.6109 25.5057 18.833 25.2996 18.9793L25.2963 18.976ZM25.4511 16.4678C24.6678 15.3548 21.5385 10.9302 20.6569 9.99946C19.6521 8.94222 17.6558 8.19216 17.2438 8.19216C16.9691 8.19216 16.691 8.45856 16.0875 9.06127C15.767 9.38094 15.4032 9.74306 15.0286 10.0536C14.3543 10.6122 13.9505 10.3091 13.6566 10.0885L13.595 10.0428C13.4535 9.93703 13.3511 9.23858 13.4843 9.03879C14.0879 8.13389 15.8152 5.75219 16.3147 5.49745C17.1913 5.05041 18.4891 5.72305 18.5016 5.72971L18.5383 5.74553C19.1943 5.98695 21.3778 6.77446 21.8848 6.72285C22.3144 6.68289 23.0777 6.1243 23.4906 5.79797L29.0857 13.7681L25.4511 16.4678ZM34.4726 11.4563C34.4701 11.4711 34.4647 11.4853 34.4567 11.498C34.4487 11.5107 34.4383 11.5217 34.426 11.5304L30.3694 14.3774C30.3444 14.3944 30.3138 14.4009 30.2841 14.3956C30.2544 14.3903 30.2279 14.3736 30.2104 14.3491L22.6723 3.61023C22.6558 3.58583 22.6493 3.55606 22.654 3.52699C22.6565 3.51218 22.6619 3.49801 22.6699 3.48529C22.6779 3.47258 22.6884 3.46157 22.7006 3.4529L26.7564 0.605009C26.7756 0.592002 26.7982 0.585043 26.8214 0.58503H26.8422C26.872 0.590268 26.8986 0.607006 26.9163 0.631648L34.4543 11.3705C34.4638 11.3831 34.4706 11.3975 34.4743 11.4128C34.478 11.4282 34.4786 11.4441 34.476 11.4596L34.4726 11.4563Z" fill="white"/>
</svg>
