<svg xmlns="http://www.w3.org/2000/svg" width="236" height="196" fill="none"><path stroke="url(#a)" stroke-linecap="round" stroke-linejoin="round" stroke-width="12" d="M6 94h224"/><path stroke="url(#b)" stroke-linecap="round" stroke-linejoin="round" stroke-width="12" d="M214 158v24a8 8 0 0 1-8 8h-24a8 8 0 0 1-8-8v-24"/><path stroke="url(#c)" stroke-linecap="round" stroke-linejoin="round" stroke-width="12" d="M62 158v24a8 8 0 0 1-8 8H30a8 8 0 0 1-8-8v-24"/><path stroke="url(#d)" stroke-linecap="round" stroke-linejoin="round" stroke-width="12" d="M54 126h16"/><path stroke="url(#e)" stroke-linecap="round" stroke-linejoin="round" stroke-width="12" d="M166 126h16"/><path stroke="url(#f)" stroke-linecap="round" stroke-linejoin="round" stroke-width="12" d="m214 94-29.7-52a7.9 7.9 0 0 0-6.9-4H58.6a7.9 7.9 0 0 0-6.9 4L22 94v64h192z"/><path stroke="url(#g)" stroke-linecap="round" stroke-linejoin="round" stroke-width="12" d="M94 6h48"/><defs><linearGradient id="a" x1="6" x2="230" y1="94.5" y2="94.5" gradientUnits="userSpaceOnUse"><stop stop-color="#715126"/><stop offset="1" stop-color="#D0B672"/></linearGradient><linearGradient id="b" x1="174" x2="214" y1="174" y2="174" gradientUnits="userSpaceOnUse"><stop stop-color="#715126"/><stop offset="1" stop-color="#D0B672"/></linearGradient><linearGradient id="c" x1="22" x2="62" y1="174" y2="174" gradientUnits="userSpaceOnUse"><stop stop-color="#715126"/><stop offset="1" stop-color="#D0B672"/></linearGradient><linearGradient id="d" x1="54" x2="70" y1="126.5" y2="126.5" gradientUnits="userSpaceOnUse"><stop stop-color="#715126"/><stop offset="1" stop-color="#D0B672"/></linearGradient><linearGradient id="e" x1="166" x2="182" y1="126.5" y2="126.5" gradientUnits="userSpaceOnUse"><stop stop-color="#715126"/><stop offset="1" stop-color="#D0B672"/></linearGradient><linearGradient id="f" x1="22" x2="214" y1="98" y2="98" gradientUnits="userSpaceOnUse"><stop stop-color="#715126"/><stop offset="1" stop-color="#D0B672"/></linearGradient><linearGradient id="g" x1="94" x2="142" y1="6.5" y2="6.5" gradientUnits="userSpaceOnUse"><stop stop-color="#715126"/><stop offset="1" stop-color="#D0B672"/></linearGradient></defs></svg>