<svg width="90" height="28" viewBox="0 0 90 28" fill="none" xmlns="http://www.w3.org/2000/svg">
<path d="M16.2899 15.6595C18.9759 15.6595 21.1619 17.8455 21.1619 20.5305C21.1619 23.2175 18.9759 25.4015 16.2899 25.4015C13.6039 25.4015 11.4189 23.2165 11.4189 20.5305C11.4189 17.8455 13.6039 15.6595 16.2899 15.6595ZM16.2899 14.0355C12.7029 14.0355 9.79492 16.9435 9.79492 20.5305C9.79492 24.1185 12.7029 27.0255 16.2899 27.0255C19.8769 27.0255 22.7849 24.1185 22.7849 20.5305C22.7849 16.9445 19.8769 14.0355 16.2899 14.0355Z" fill="white"/>
<path d="M70.7758 15.6595C73.4628 15.6595 75.6468 17.8455 75.6468 20.5305C75.6468 23.2175 73.4618 25.4015 70.7758 25.4015C68.0898 25.4015 65.9048 23.2165 65.9048 20.5305C65.9048 17.8455 68.0908 15.6595 70.7758 15.6595ZM70.7758 14.0355C67.1888 14.0355 64.2808 16.9435 64.2808 20.5305C64.2808 24.1185 67.1888 27.0255 70.7758 27.0255C74.3638 27.0255 77.2708 24.1185 77.2708 20.5305C77.2708 16.9445 74.3638 14.0355 70.7758 14.0355Z" fill="white"/>
<path d="M89.996 14.5095C89.996 12.5615 88.588 8.66454 86.856 7.68954C85.124 6.71554 73.541 3.79254 63.907 1.30254C54.272 -1.18746 41.609 0.517544 39.334 1.30254C35.881 2.49354 27.171 6.56654 24.938 7.37854C22.161 8.38854 8.754 8.73154 5.115 9.89554C1.758 10.9685 0 14.6995 0 18.5415C0 24.5905 3.727 23.4115 8.741 23.5135C8.375 22.5895 8.171 21.5835 8.171 20.5315C8.171 16.0545 11.813 12.4125 16.29 12.4125C20.767 12.4125 24.409 16.0555 24.409 20.5315C24.409 21.5775 24.208 22.5765 23.847 23.4955C24.966 23.7795 58.545 23.4955 62.608 23.4955C62.802 23.4955 63.005 23.4935 63.218 23.4895C62.858 22.5725 62.657 21.5755 62.657 20.5315C62.657 16.0545 66.3 12.4125 70.776 12.4125C75.252 12.4125 78.895 16.0555 78.895 20.5315C78.895 21.1265 78.829 21.7065 78.707 22.2645C82.771 21.8065 86.224 21.3215 87.397 21.0045C90.213 20.2465 89.996 16.4585 89.996 14.5095ZM65.1 6.29554C63.91 7.21554 57.038 7.72054 50.811 7.97354C43.014 8.29054 28.782 8.73154 28.782 8.73154C34.411 4.72654 38.417 2.83154 42.043 2.12754C45.669 1.42354 52.922 1.09954 58.605 2.12754C64.289 3.15654 66.345 3.75154 66.454 4.45554C66.563 5.15954 66.291 5.37554 65.1 6.29554Z" fill="white"/>
</svg>
