<svg width="20" height="24" viewBox="0 0 20 24" fill="none" xmlns="http://www.w3.org/2000/svg">
<path d="M18.7815 12.6526C18.3076 12.1844 17.6967 12.213 17.5562 12.2267L13.4816 12.2746C13.3697 10.7011 13.4337 8.17171 13.4348 8.14423C13.4348 8.12824 13.4348 8.11225 13.4325 8.09627C13.3343 7.22724 12.9895 6.58775 12.4094 6.19608C11.3907 5.50862 10.0341 5.87404 9.97704 5.89004C9.84571 5.92658 9.74865 6.03735 9.72923 6.17209L9.12971 10.42C9.02009 10.7101 8.00603 13.2075 5.27117 14.3859V14.2625C5.27117 13.6961 4.80983 13.2348 4.24343 13.2348H1.02774C0.461335 13.2348 0 13.6961 0 14.2625V22.7701C0 23.3365 0.461335 23.7978 1.02774 23.7978H4.24343C4.77329 23.7978 5.20609 23.3936 5.26091 22.8774L9.93945 23.9908C9.96572 23.9965 9.99198 24 10.0182 24L15.4504 23.9977C17.0309 24.0399 17.6818 23.0556 17.812 22.5109L19.2771 14.9832C19.4221 13.9052 19.2554 13.1208 18.7815 12.6526ZM4.58597 22.7701C4.58597 22.9585 4.43181 23.1127 4.24338 23.1127H1.02769C0.839268 23.1127 0.685099 22.9585 0.685099 22.7701V14.2625C0.685099 14.0741 0.839259 13.9199 1.02769 13.9199H4.24338C4.4318 13.9199 4.58597 14.0741 4.58597 14.2625V22.7701ZM18.6009 14.8735L17.1426 22.3669C17.1403 22.3772 16.8925 23.357 15.4605 23.3136L10.0582 23.3159L5.27115 22.1763V15.1272C8.65932 13.8196 9.74301 10.748 9.78745 10.6152C9.7943 10.5947 9.79887 10.5741 9.80229 10.5524L10.3733 6.50768C10.733 6.44944 11.4752 6.3912 12.0279 6.7669C12.4276 7.03868 12.6708 7.50344 12.7485 8.15093C12.7405 8.45698 12.68 11.1474 12.825 12.6547C12.8421 12.8305 12.9894 12.9641 13.1664 12.9641H13.171L17.5824 12.9127C17.5949 12.9127 17.612 12.9116 17.6246 12.9093C17.6406 12.907 18.0243 12.8625 18.3063 13.1457C18.6101 13.4517 18.7105 14.0559 18.6009 14.8735Z" fill="white"/>
<path d="M7.50696 4.57683C7.57433 4.64421 7.66112 4.67732 7.74905 4.67732C7.83698 4.67732 7.92491 4.64421 7.99114 4.57683C8.12474 4.44322 8.12474 4.22626 7.99114 4.09266L6.204 2.30553C6.07039 2.17192 5.85343 2.17192 5.71983 2.30553C5.58623 2.43913 5.58623 2.6561 5.71983 2.78969L7.50696 4.57683Z" fill="white"/>
<path d="M15.8442 7.76422C15.8442 7.95378 15.9973 8.10681 16.1868 8.10681H18.7151C18.9046 8.10681 19.0577 7.95379 19.0577 7.76422C19.0577 7.57466 18.9046 7.42163 18.7151 7.42163H16.1868C15.9973 7.42163 15.8442 7.57465 15.8442 7.76422Z" fill="white"/>
<path d="M11.0804 3.21342C11.2699 3.21342 11.423 3.0604 11.423 2.87083V0.342588C11.423 0.153026 11.27 0 11.0804 0C10.8908 0 10.7378 0.15302 10.7378 0.342588V2.87083C10.7378 3.06039 10.8908 3.21342 11.0804 3.21342Z" fill="white"/>
<path d="M3.65851 8.32019H6.18675C6.37631 8.32019 6.52933 8.16717 6.52933 7.9776C6.52933 7.78804 6.37631 7.63501 6.18675 7.63501H3.65851C3.46894 7.63501 3.31592 7.78803 3.31592 7.9776C3.31592 8.16716 3.47008 8.32019 3.65851 8.32019Z" fill="white"/>
<path d="M14.4697 4.53352C14.5577 4.53352 14.6456 4.50041 14.7118 4.43303L16.499 2.6459C16.6326 2.51229 16.6326 2.29533 16.499 2.16173C16.3653 2.02812 16.1484 2.02812 16.0148 2.16173L14.2276 3.94887C14.094 4.08247 14.094 4.29944 14.2276 4.43303C14.295 4.50041 14.3818 4.53352 14.4697 4.53352Z" fill="white"/>
</svg>
