<svg width="76" height="76" viewBox="0 0 76 76" fill="none" xmlns="http://www.w3.org/2000/svg">
<path d="M48.3488 60.508C46.6621 61.351 44.8811 62.016 43.0145 62.4989L42.3859 62.6615L42.2787 63.3019L41.1522 70.0329C41.1521 70.0334 41.1521 70.0339 41.152 70.0344C41.0207 70.7999 40.3424 71.364 39.579 71.364H36.197H32.815C32.0278 71.364 31.3743 70.8069 31.2419 70.0339C31.2419 70.0336 31.2418 70.0332 31.2418 70.0329L30.1153 63.3019L30.0078 62.6599L29.3772 62.4983C26.9722 61.8821 24.6509 60.9133 22.5339 59.6783L21.9761 59.3528L21.45 59.7274L15.8475 63.7159C15.8471 63.7162 15.8467 63.7165 15.8463 63.7168C15.2055 64.1681 14.3464 64.0882 13.8101 63.5519L11.4331 61.1749L9.05611 58.7979C8.51922 58.261 8.43979 57.4034 8.89075 56.7624C8.89119 56.7618 8.89163 56.7612 8.89208 56.7605L12.8194 51.2493L13.1961 50.7207L12.8666 50.1615C11.5978 48.0073 10.5699 45.6552 9.92613 43.1666L9.76403 42.5399L9.126 42.4312L2.33111 41.2732C2.33107 41.2732 2.33104 41.2732 2.331 41.2732C1.56482 41.1425 1 40.4639 1 39.7V36.318V32.936C1 32.1485 1.55752 31.4948 2.33084 31.3628C2.33093 31.3628 2.33102 31.3628 2.33111 31.3628L9.00253 30.236L9.64942 30.1268L9.8068 29.4899C10.4232 26.9954 11.3915 24.6464 12.6557 22.4703L12.9794 21.9131L12.6056 21.388L8.61708 15.7855C8.61671 15.785 8.61634 15.7844 8.61598 15.7839C8.16495 15.1431 8.24489 14.2843 8.78111 13.7481L11.1581 11.3711L13.5351 8.99411C14.071 8.45817 14.9265 8.37807 15.5672 8.82637L21.0446 12.8126L21.5751 13.1987L22.1405 12.8656C24.2947 11.5968 26.6468 10.5689 29.1354 9.92513L29.762 9.76304L29.8708 9.12502L31.0288 2.33111C31.1594 1.56487 31.8381 1 32.602 1H35.983H39.365C40.1525 1 40.8062 1.55749 40.9382 2.3308C40.9382 2.3309 40.9382 2.33101 40.9382 2.33111L42.065 9.00253L42.1752 9.65502L42.8188 9.80867C45.3984 10.4245 47.8024 11.421 50.0015 12.7405L50.5621 13.0769L51.0951 12.6982L56.6685 8.73908C56.669 8.73875 56.6695 8.73842 56.6699 8.73809C57.3103 8.28723 58.1683 8.36649 58.7059 8.90311L48.3488 60.508ZM48.3488 60.508L42.7317 54.7465C40.6907 55.4636 38.4963 55.854 36.212 55.854C25.3467 55.854 16.539 47.0463 16.539 36.181C16.539 25.3157 25.3467 16.508 36.212 16.508C47.0773 16.508 55.885 25.3157 55.885 36.181C55.885 38.4652 55.4948 40.6599 54.7778 42.7015L60.6406 48.1442C61.4492 46.5005 62.0893 44.7675 62.5589 42.9534L62.7216 42.3249L63.3619 42.2177L70.0929 41.0912C70.0934 41.0911 70.0939 41.0911 70.0944 41.091C70.8671 40.9585 71.424 40.3051 71.424 39.518V36.136V32.7821C71.3759 32.0289 70.7996 31.3722 70.0609 31.2416C70.0599 31.2414 70.0589 31.2412 70.0579 31.2411L63.3309 30.1153L62.6905 30.0081L62.5279 29.3794C61.8807 26.8777 60.9114 24.5289 59.6205 22.3581L59.2878 21.7986L59.6648 21.2679L63.6239 15.6945C63.6242 15.6941 63.6244 15.6938 63.6247 15.6934C64.0763 15.0523 63.997 14.1942 63.4599 13.6571L61.0829 11.2801L58.7063 8.90351L48.3488 60.508ZM46.7086 42.2305L46.7355 42.2598L46.7646 42.2869L73.4212 67.0334C74.9757 68.6033 74.9553 71.1448 73.3287 72.8518C71.6412 74.4601 69.098 74.4359 67.5119 72.786L67.5069 72.7808L42.4309 47.0668L42.4199 47.0555L42.4084 47.0445C41.3196 45.9966 40.3554 45.2105 39.3745 44.7862C38.3271 44.3332 37.3211 44.3164 36.237 44.661L36.2175 44.6672L36.1983 44.6742C34.716 45.2131 32.5806 45.2268 30.5581 43.9016L30.552 43.8976C28.3494 42.477 27.3071 40.431 26.8139 38.6937C26.5747 37.8514 26.4687 37.0937 26.4232 36.5391C26.7654 36.7584 27.1549 37.0078 27.5523 37.2616C28.656 37.9666 29.864 38.7345 30.2512 38.9644C30.7679 39.3458 31.7758 39.8458 33.0275 39.7446C34.3869 39.6347 35.8119 38.8355 37.0536 36.9314C38.3424 35.017 38.5244 33.3328 38.173 32.0036C37.8373 30.7334 37.0388 29.8894 36.5138 29.5605L36.4971 29.55L36.48 29.5402C36.2354 29.4002 35.0193 28.6098 33.8147 27.8204C33.4052 27.5521 33.0039 27.2885 32.6543 27.0585C33.1654 26.8786 33.8764 26.6709 34.7146 26.5393C36.4215 26.2711 38.5987 26.3251 40.7092 27.5052C40.7128 27.509 40.7162 27.5127 40.7195 27.5161C40.8006 27.6023 40.8915 27.6789 40.9635 27.7366C41.1131 27.8566 41.3034 27.9913 41.4819 28.1153C41.5698 28.1763 41.6556 28.2353 41.7381 28.2921C42.0197 28.4859 42.2619 28.6527 42.4135 28.7772C43.8077 30.0329 44.4679 31.319 44.7386 32.5451C45.0144 33.794 44.9008 35.0488 44.6391 36.2454L44.639 36.2453L44.6369 36.2555C44.3796 37.4933 44.3427 38.4935 44.7336 39.4907C45.1006 40.4268 45.8103 41.2526 46.7086 42.2305ZM67.7549 72.4321L67.7677 72.4449L67.781 72.4573C69.1767 73.7552 71.4796 74.1065 72.9887 72.5133C74.4403 71.1425 74.389 68.6765 72.9888 67.2775C71.5501 65.8372 69.2635 65.874 67.781 67.2527L67.753 67.2788L67.727 67.3069C66.4346 68.7077 66.3954 71.0726 67.7549 72.4321Z" stroke="url(#paint0_linear_739_3)" stroke-width="2"/>
<defs>
<linearGradient id="paint0_linear_739_3" x1="-4.5341" y1="-2.62644" x2="109.968" y2="25.9216" gradientUnits="userSpaceOnUse">
<stop stop-color="#BBA061"/>
<stop offset="1" stop-color="#F6D787"/>
</linearGradient>
</defs>
</svg>
