<svg width="50" height="51" viewBox="0 0 50 51" fill="none" xmlns="http://www.w3.org/2000/svg">
<path d="M45.9677 11.6995H43.5484V13.3355H45.9677C47.3016 13.3355 48.3871 14.4366 48.3871 15.7896V37.8762H36.9065L33.6806 39.5122H1.6129V15.7896C1.6129 14.4366 2.69839 13.3355 4.03226 13.3355H6.45161V11.6995H4.03226C1.80887 11.6995 0 13.5343 0 15.7896V41.9663C0 44.2216 1.80887 46.0564 4.03226 46.0564H14.5161V49.3285H11.2903V50.9645H38.7097V49.3285H35.4839V46.0564H45.9677C48.1911 46.0564 50 44.2216 50 41.9663V15.7896C50 13.5343 48.1911 11.6995 45.9677 11.6995ZM33.871 49.3285H16.129V46.0564H33.871V49.3285ZM45.9677 44.4203H4.03226C2.69839 44.4203 1.6129 43.3193 1.6129 41.9663V41.1483H34.0613L37.2871 39.5122H48.3871V41.9663C48.3871 43.3193 47.3016 44.4203 45.9677 44.4203Z" fill="white"/>
<path d="M43.5484 41.1483H41.9355V42.7844H43.5484V41.1483Z" fill="white"/>
<path d="M46.775 41.1483H45.1621V42.7844H46.775V41.1483Z" fill="white"/>
<path d="M40.3219 41.1483H38.709V42.7844H40.3219V41.1483Z" fill="white"/>
<path d="M24.193 16.4571V19.8797H25.8059V16.4571C26.7422 16.1184 27.4188 15.2186 27.4188 14.1535C27.4188 12.8005 26.3333 11.6995 24.9994 11.6995C23.6656 11.6995 22.5801 12.8005 22.5801 14.1535C22.5801 15.2186 23.2567 16.1184 24.193 16.4571ZM24.9994 13.3355C25.4446 13.3355 25.8059 13.7028 25.8059 14.1535C25.8059 14.6043 25.4446 14.9716 24.9994 14.9716C24.5543 14.9716 24.193 14.6043 24.193 14.1535C24.193 13.7028 24.5543 13.3355 24.9994 13.3355Z" fill="white"/>
<path d="M19.3551 31.3321H20.968V37.8763H29.0325V31.3321H30.6454V20.4066C31.6519 19.1427 32.2583 17.537 32.2583 15.7897V10.8815C32.2583 9.81647 31.5817 8.91665 30.6454 8.57799V5.97341C30.6454 2.81584 28.1123 0.247253 25.0003 0.247253C21.8882 0.247253 19.3551 2.81584 19.3551 5.97341V8.57799C18.4188 8.91665 17.7422 9.81647 17.7422 10.8815V15.7897C17.7422 17.5378 18.3486 19.1427 19.3551 20.4066V31.3321ZM20.968 21.9068C22.122 22.6921 23.5091 23.1519 25.0003 23.1519C26.4914 23.1519 27.8785 22.6921 29.0325 21.9068V26.424H27.2817C26.9486 25.4718 26.0519 24.7879 25.0003 24.7879C23.9486 24.7879 23.0519 25.4718 22.7188 26.424H20.968V21.9068ZM27.4196 36.2402H22.5809V31.3321H24.1938V34.6042H25.8067V31.3321H27.4196V36.2402ZM20.968 29.696V28.06H24.1938V27.242C24.1938 26.7912 24.5551 26.424 25.0003 26.424C25.4454 26.424 25.8067 26.7912 25.8067 27.242V28.06H29.0325V29.696H20.968ZM25.0003 1.8833C27.2236 1.8833 29.0325 3.71812 29.0325 5.97341V8.42747H20.968V5.97341C20.968 3.71812 22.7769 1.8833 25.0003 1.8833ZM19.3551 10.8815C19.3551 10.4308 19.7164 10.0635 20.1615 10.0635H29.839C30.2841 10.0635 30.6454 10.4308 30.6454 10.8815V15.7897C30.6454 18.9472 28.1123 21.5158 25.0003 21.5158C21.8882 21.5158 19.3551 18.9472 19.3551 15.7897V10.8815Z" fill="white"/>
<path d="M41.9356 10.0635H33.8711V11.6996H41.9356V10.0635Z" fill="white"/>
<path d="M41.6356 3.57713L33.5703 6.84656L34.1689 8.36579L42.2342 5.09636L41.6356 3.57713Z" fill="white"/>
<path d="M34.1713 13.3933L33.5723 14.9124L41.6367 18.1844L42.2358 16.6654L34.1713 13.3933Z" fill="white"/>
<path d="M16.129 10.0635H8.06445V11.6996H16.129V10.0635Z" fill="white"/>
<path d="M8.36466 3.57755L7.76562 5.09662L15.8301 8.36869L16.4291 6.84962L8.36466 3.57755Z" fill="white"/>
<path d="M15.831 13.3946L7.76562 16.664L8.36417 18.1832L16.4295 14.9138L15.831 13.3946Z" fill="white"/>
<path d="M3.22656 37.8763H17.7427V26.424H3.22656V37.8763ZM4.83947 28.0601H16.1298V36.2403H4.83947V28.0601Z" fill="white"/>
<path d="M14.5157 32.9681H6.45117V34.6042H14.5157V32.9681Z" fill="white"/>
<path d="M14.5157 29.696H6.45117V31.3321H14.5157V29.696Z" fill="white"/>
<path d="M32.2578 36.2402H46.774V24.7878H32.2578V36.2402ZM33.8707 26.4239H45.1611V34.6041H33.8707V26.4239Z" fill="white"/>
<path d="M43.5489 31.3321H35.4844V32.9681H43.5489V31.3321Z" fill="white"/>
<path d="M43.5489 28.06H35.4844V29.696H43.5489V28.06Z" fill="white"/>
</svg>
