<svg width="18" height="20" viewBox="0 0 18 20" fill="none" xmlns="http://www.w3.org/2000/svg">
<path d="M3.31769 20C2.74952 20 2.26591 19.8005 1.86684 19.4014C1.46777 19.0023 1.26823 18.5191 1.26823 17.9518V2.24477H0V0.976538H5.07292V0H12.6823V0.976538H17.7552V2.24477H16.487V17.9518C16.487 18.5352 16.2917 19.0226 15.9011 19.4141C15.5105 19.8055 15.0226 20.0008 14.4375 20H3.31769ZM15.2188 2.24477H2.53646V17.9518C2.53646 18.1792 2.6096 18.3661 2.75586 18.5124C2.90213 18.6586 3.08941 18.7318 3.31769 18.7318H14.4388C14.6333 18.7318 14.8121 18.6506 14.9753 18.4883C15.1384 18.3259 15.2196 18.1467 15.2188 17.9505V2.24477ZM6.09765 16.1953H7.36588V4.78123H6.09765V16.1953ZM10.3893 16.1953H11.6576V4.78123H10.3893V16.1953Z" fill="white"/>
</svg>
