<svg width="33" height="33" viewBox="0 0 33 33" fill="none" xmlns="http://www.w3.org/2000/svg">
<path d="M17.5946 16.2568L22.2973 12.6892L30.8919 6.04054C30.8108 6.04054 30.7297 6 30.6486 6H1.78376C1.70268 6 1.66214 6.04054 1.58105 6.04054L14.8784 16.2568C15.6081 16.8243 16.8243 16.8243 17.5946 16.2568Z" fill="#BBA061"/>
<path d="M9.2027 13.9051L0.243243 6.93213C0.121622 7.17537 0 7.41862 0 7.74294V25.2159C0 25.4186 0.0405406 25.6213 0.121622 25.7835L10.7838 15.0402L9.2027 13.9051Z" fill="#BBA061"/>
<path d="M32.1892 6.93213L21.6082 15.0808L32.3109 25.824C32.3919 25.6213 32.4325 25.4592 32.4325 25.2565V7.74294C32.4325 7.45916 32.3514 7.17537 32.1892 6.93213Z" fill="#BBA061"/>
<path d="M18.527 17.4731C17.8378 17.9596 17.027 18.2029 16.2162 18.2029C15.4054 18.2029 14.5946 17.9596 13.9459 17.4326L12.0405 15.9731L1.21619 26.8785C1.37835 26.9596 1.58105 27.0002 1.78375 27.0002H30.6486C30.8513 27.0002 31.054 26.9191 31.2162 26.8785L20.3919 16.0137L18.527 17.4731Z" fill="#BBA061"/>
</svg>
