<svg xmlns="http://www.w3.org/2000/svg" width="183" height="182" fill="none"><path fill="url(#a)" d="M82.306 82.636a12.83 12.83 0 0 1 2.644-7.74 50.2 50.2 0 0 1 7.805-8A54.8 54.8 0 0 0 99.9 59.49a10.7 10.7 0 0 0 1.991-6.477A10.55 10.55 0 0 0 95.314 43a10.6 10.6 0 0 0-4.149-.783 11.23 11.23 0 0 0-7.675 2.931 19.3 19.3 0 0 0-5.16 8.54l-11.64-5.069a27.14 27.14 0 0 1 9.325-14.337 25.06 25.06 0 0 1 15.686-5.004 26.9 26.9 0 0 1 12.369 2.867 22.53 22.53 0 0 1 8.93 8.07 21.4 21.4 0 0 1 3.31 11.74 19.87 19.87 0 0 1-2.91 10.607 47.5 47.5 0 0 1-8.865 10.067 75 75 0 0 0-7.345 7.135 8.28 8.28 0 0 0-2.05 5.398c.037 1.218.219 2.426.541 3.6H83.782a14.75 14.75 0 0 1-1.477-6.126m7.934 37.613a10.03 10.03 0 0 1-7.34-2.931 9.88 9.88 0 0 1-2.98-7.336 10.1 10.1 0 0 1 2.98-7.406 9.942 9.942 0 0 1 7.34-3.001 10.13 10.13 0 0 1 7.403 2.989 10.08 10.08 0 0 1 2.922 7.418 9.896 9.896 0 0 1-2.974 7.336 10.074 10.074 0 0 1-7.35 2.931"/><path fill="url(#b)" d="M7.973 182a8 8 0 0 1-3.386-.756 7.9 7.9 0 0 1-3.354-2.924A7.87 7.87 0 0 1 0 174.049V19.281A19.28 19.28 0 0 1 5.665 5.654 19.36 19.36 0 0 1 19.32 0h144.36a19.36 19.36 0 0 1 13.655 5.654A19.29 19.29 0 0 1 183 19.28v110.203a19.28 19.28 0 0 1-5.667 13.624 19.36 19.36 0 0 1-13.653 5.652H55.656a13.84 13.84 0 0 0-8.854 3.206l-33.75 28.177A7.94 7.94 0 0 1 7.971 182M19.32 10.796a8.52 8.52 0 0 0-6.009 2.488 8.5 8.5 0 0 0-2.493 5.997v148.647l29.045-24.242a24.7 24.7 0 0 1 15.793-5.722H163.68a8.51 8.51 0 0 0 6.009-2.485 8.48 8.48 0 0 0 2.494-5.995V19.281a8.5 8.5 0 0 0-2.494-5.997 8.52 8.52 0 0 0-6.009-2.488z"/><defs><linearGradient id="a" x1="66.69" x2="116.312" y1="74.761" y2="74.761" gradientUnits="userSpaceOnUse"><stop stop-color="#715126"/><stop offset="1" stop-color="#D0B672"/></linearGradient><linearGradient id="b" x1="0" x2="183" y1="91" y2="91" gradientUnits="userSpaceOnUse"><stop stop-color="#715126"/><stop offset="1" stop-color="#D0B672"/></linearGradient></defs></svg>