<svg width="263" height="24" viewBox="0 0 263 24" fill="none" xmlns="http://www.w3.org/2000/svg">
<path d="M12.6966 4.34017H3.55256V9.45217H11.6646V12.0922H3.55256V18.5242H0.43256V1.72417H12.6966V4.34017ZM17.1834 3.59617C16.0794 3.59617 15.2634 2.80417 15.2634 1.79617C15.2634 0.788169 16.0794 -0.00383043 17.1834 -0.00383043C18.2874 -0.00383043 19.1034 0.740169 19.1034 1.72417C19.1034 2.78017 18.3114 3.59617 17.1834 3.59617ZM15.6714 18.5242V5.70817H18.6714V18.5242H15.6714ZM30.3609 5.56417C33.4329 5.56417 35.7129 7.31617 35.7129 11.1802V18.5242H32.7129V11.5642C32.7129 9.28417 31.5849 8.18017 29.6649 8.18017C27.5289 8.18017 26.0889 9.47617 26.0889 12.0442V18.5242H23.0889V5.70817H25.9449V7.36417C26.9289 6.18817 28.4889 5.56417 30.3609 5.56417ZM49.9798 5.70817H52.8358V16.5802C52.8358 21.2362 50.4118 23.3482 45.9238 23.3482C43.5238 23.3482 41.1478 22.7242 39.6838 21.5242L41.0278 19.2682C42.1558 20.2042 43.9798 20.8042 45.7558 20.8042C48.5878 20.8042 49.8358 19.5082 49.8358 16.9162V16.2442C48.7798 17.3962 47.2678 17.9482 45.5398 17.9482C41.8678 17.9482 39.0598 15.4522 39.0598 11.7322C39.0598 8.01217 41.8678 5.56417 45.5398 5.56417C47.3398 5.56417 48.9238 6.14017 49.9798 7.41217V5.70817ZM45.9958 15.4042C48.2518 15.4042 49.8838 13.9162 49.8838 11.7322C49.8838 9.57217 48.2518 8.10817 45.9958 8.10817C43.7158 8.10817 42.0838 9.57217 42.0838 11.7322C42.0838 13.9162 43.7158 15.4042 45.9958 15.4042ZM69.3079 12.1882C69.3079 12.4282 69.2839 12.7882 69.2599 13.0762H59.2039C59.5639 14.9482 61.1239 16.1482 63.3559 16.1482C64.7959 16.1482 65.9239 15.6922 66.8359 14.7562L68.4439 16.6042C67.2919 17.9722 65.4919 18.6922 63.2839 18.6922C58.9879 18.6922 56.2039 15.9322 56.2039 12.1162C56.2039 8.30017 59.0119 5.56417 62.8279 5.56417C66.5719 5.56417 69.3079 8.18017 69.3079 12.1882ZM62.8279 7.96417C60.8839 7.96417 59.4679 9.21217 59.1799 11.0842H66.4519C66.2119 9.23617 64.7959 7.96417 62.8279 7.96417ZM75.5256 7.58017C76.3896 6.23617 77.9496 5.56417 80.0856 5.56417V8.42017C79.8216 8.37217 79.6056 8.34817 79.3896 8.34817C77.1096 8.34817 75.6696 9.69217 75.6696 12.3082V18.5242H72.6696V5.70817H75.5256V7.58017ZM97.5405 1.72417C101.956 1.72417 104.692 3.98017 104.692 7.70017C104.692 11.3962 101.956 13.6762 97.5405 13.6762H93.7485V18.5242H90.6285V1.72417H97.5405ZM97.3965 11.0362C100.132 11.0362 101.548 9.81217 101.548 7.70017C101.548 5.58817 100.132 4.36417 97.3965 4.36417H93.7485V11.0362H97.3965ZM110.739 7.58017C111.603 6.23617 113.163 5.56417 115.299 5.56417V8.42017C115.035 8.37217 114.819 8.34817 114.603 8.34817C112.323 8.34817 110.883 9.69217 110.883 12.3082V18.5242H107.883V5.70817H110.739V7.58017ZM119.836 3.59617C118.732 3.59617 117.916 2.80417 117.916 1.79617C117.916 0.788169 118.732 -0.00383043 119.836 -0.00383043C120.94 -0.00383043 121.756 0.740169 121.756 1.72417C121.756 2.78017 120.964 3.59617 119.836 3.59617ZM118.324 18.5242V5.70817H121.324V18.5242H118.324ZM133.013 5.56417C136.085 5.56417 138.365 7.31617 138.365 11.1802V18.5242H135.365V11.5642C135.365 9.28417 134.237 8.18017 132.317 8.18017C130.181 8.18017 128.741 9.47617 128.741 12.0442V18.5242H125.741V5.70817H128.597V7.36417C129.581 6.18817 131.141 5.56417 133.013 5.56417ZM149.515 15.6922L150.355 17.8282C149.635 18.4042 148.555 18.6922 147.475 18.6922C144.667 18.6922 143.059 17.2042 143.059 14.3722V8.20417H140.947V5.80417H143.059V2.87617H146.059V5.80417H149.491V8.20417H146.059V14.3002C146.059 15.5482 146.683 16.2202 147.835 16.2202C148.459 16.2202 149.059 16.0522 149.515 15.6922ZM165.912 18.7642C163.296 18.7642 160.68 17.9482 159.288 16.7482L160.368 14.3242C161.712 15.4042 163.848 16.1722 165.912 16.1722C168.528 16.1722 169.632 15.2362 169.632 13.9882C169.632 10.3642 159.648 12.7402 159.648 6.50017C159.648 3.78817 161.808 1.48417 166.416 1.48417C168.432 1.48417 170.544 2.01217 172.008 2.97217L171.024 5.39617C169.512 4.50817 167.856 4.07617 166.392 4.07617C163.8 4.07617 162.744 5.08417 162.744 6.35617C162.744 9.93217 172.704 7.60417 172.704 13.7722C172.704 16.4602 170.52 18.7642 165.912 18.7642ZM188.038 12.1882C188.038 12.4282 188.014 12.7882 187.99 13.0762H177.934C178.294 14.9482 179.854 16.1482 182.086 16.1482C183.526 16.1482 184.654 15.6922 185.566 14.7562L187.174 16.6042C186.022 17.9722 184.222 18.6922 182.014 18.6922C177.718 18.6922 174.934 15.9322 174.934 12.1162C174.934 8.30017 177.742 5.56417 181.558 5.56417C185.302 5.56417 188.038 8.18017 188.038 12.1882ZM181.558 7.96417C179.614 7.96417 178.198 9.21217 177.91 11.0842H185.182C184.942 9.23617 183.526 7.96417 181.558 7.96417ZM197.279 18.6922C193.223 18.6922 190.343 15.9562 190.343 12.1162C190.343 8.27617 193.223 5.56417 197.279 5.56417C199.775 5.56417 201.767 6.59617 202.751 8.54017L200.447 9.88417C199.679 8.66017 198.527 8.10817 197.255 8.10817C195.047 8.10817 193.367 9.64417 193.367 12.1162C193.367 14.6122 195.047 16.1242 197.255 16.1242C198.527 16.1242 199.679 15.5722 200.447 14.3482L202.751 15.6922C201.767 17.6122 199.775 18.6922 197.279 18.6922ZM215.233 5.70817H218.233V18.5242H215.377V16.8922C214.417 18.0682 212.905 18.6922 211.249 18.6922C207.961 18.6922 205.729 16.8922 205.729 13.0282V5.70817H208.729V12.6202C208.729 14.9482 209.833 16.0522 211.729 16.0522C213.817 16.0522 215.233 14.7562 215.233 12.1882V5.70817ZM225.497 7.58017C226.361 6.23617 227.921 5.56417 230.057 5.56417V8.42017C229.793 8.37217 229.577 8.34817 229.361 8.34817C227.081 8.34817 225.641 9.69217 225.641 12.3082V18.5242H222.641V5.70817H225.497V7.58017ZM234.593 3.59617C233.489 3.59617 232.673 2.80417 232.673 1.79617C232.673 0.788169 233.489 -0.00383043 234.593 -0.00383043C235.697 -0.00383043 236.513 0.740169 236.513 1.72417C236.513 2.78017 235.721 3.59617 234.593 3.59617ZM233.081 18.5242V5.70817H236.081V18.5242H233.081ZM247.363 15.6922L248.203 17.8282C247.483 18.4042 246.403 18.6922 245.323 18.6922C242.515 18.6922 240.907 17.2042 240.907 14.3722V8.20417H238.795V5.80417H240.907V2.87617H243.907V5.80417H247.339V8.20417H243.907V14.3002C243.907 15.5482 244.531 16.2202 245.683 16.2202C246.307 16.2202 246.907 16.0522 247.363 15.6922ZM260.036 5.70817H262.916L256.916 19.5562C255.74 22.4602 254.108 23.3482 251.972 23.3482C250.7 23.3482 249.356 22.9162 248.54 22.1722L249.74 19.9642C250.316 20.5162 251.132 20.8522 251.948 20.8522C253.004 20.8522 253.628 20.3482 254.204 19.0762L254.42 18.5722L248.828 5.70817H251.948L255.98 15.1882L260.036 5.70817Z" fill="#333333"/>
</svg>
