<svg width="50" height="51" viewBox="0 0 50 51" fill="none" xmlns="http://www.w3.org/2000/svg">
<path d="M15.625 8.17184V10.5492H14.0625V12.1341H15.625V13.7191H10.1563C9.74185 13.7191 9.34443 13.886 9.0514 14.1833C8.75837 14.4805 8.59375 14.8836 8.59375 15.304V17.0315C8.07249 17.2185 7.63317 17.5863 7.35342 18.07C7.07367 18.5538 6.97152 19.1222 7.06501 19.675C7.1585 20.2277 7.44162 20.7291 7.86433 21.0906C8.28704 21.4521 8.82212 21.6503 9.375 21.6503C9.92788 21.6503 10.463 21.4521 10.8857 21.0906C11.3084 20.7291 11.5915 20.2277 11.685 19.675C11.7785 19.1222 11.6763 18.5538 11.3966 18.07C11.1168 17.5863 10.6775 17.2185 10.1563 17.0315V15.304H15.625V22.4361C15.625 23.0666 15.8719 23.6713 16.3115 24.1172C16.751 24.563 17.3472 24.8135 17.9688 24.8135H32.0313C32.6529 24.8135 33.249 24.563 33.6885 24.1172C34.1281 23.6713 34.375 23.0666 34.375 22.4361V16.8889H39.8437C40.2581 16.8889 40.6556 16.7219 40.9486 16.4247C41.2416 16.1274 41.4062 15.7243 41.4062 15.304V13.5764C41.9275 13.3895 42.3668 13.0216 42.6466 12.5379C42.9263 12.0542 43.0285 11.4857 42.935 10.933C42.8415 10.3802 42.5584 9.87883 42.1357 9.51735C41.713 9.15588 41.1779 8.95762 40.625 8.95762C40.0721 8.95762 39.537 9.15588 39.1143 9.51735C38.6916 9.87883 38.4085 10.3802 38.315 10.933C38.2215 11.4857 38.3237 12.0542 38.6034 12.5379C38.8832 13.0216 39.3225 13.3895 39.8437 13.5764V15.304H34.375V12.1341H35.9375V10.5492H34.375V8.17184C34.375 7.96167 34.2927 7.7601 34.1462 7.61149C33.9997 7.46287 33.801 7.37938 33.5937 7.37938H31.25V1.83217C31.25 1.41182 31.0854 1.00869 30.7924 0.711465C30.4993 0.414235 30.1019 0.247253 29.6875 0.247253L20.3125 0.247253C19.8981 0.247253 19.5007 0.414235 19.2076 0.711465C18.9146 1.00869 18.75 1.41182 18.75 1.83217V7.37938H16.4063C16.1991 7.37938 16.0003 7.46287 15.8538 7.61149C15.7073 7.7601 15.625 7.96167 15.625 8.17184ZM9.375 20.0587C9.22049 20.0587 9.06944 20.0122 8.94096 19.9252C8.81249 19.8381 8.71235 19.7143 8.65322 19.5695C8.59409 19.4247 8.57862 19.2654 8.60877 19.1117C8.63891 18.9579 8.71332 18.8167 8.82258 18.7059C8.93184 18.5951 9.07104 18.5196 9.22259 18.489C9.37414 18.4585 9.53122 18.4741 9.67398 18.5341C9.81673 18.5941 9.93874 18.6957 10.0246 18.826C10.1104 18.9563 10.1563 19.1095 10.1563 19.2663C10.1563 19.4764 10.0739 19.678 9.92743 19.8266C9.78092 19.9752 9.5822 20.0587 9.375 20.0587ZM40.625 10.5492C40.7795 10.5492 40.9306 10.5957 41.059 10.6828C41.1875 10.7698 41.2876 10.8936 41.3468 11.0384C41.4059 11.1832 41.4214 11.3426 41.3912 11.4963C41.3611 11.65 41.2867 11.7912 41.1774 11.902C41.0682 12.0129 40.929 12.0883 40.7774 12.1189C40.6259 12.1495 40.4688 12.1338 40.326 12.0738C40.1833 12.0138 40.0613 11.9123 39.9754 11.7819C39.8896 11.6516 39.8437 11.4984 39.8437 11.3417C39.8437 11.1315 39.9261 10.9299 40.0726 10.7813C40.2191 10.6327 40.4178 10.5492 40.625 10.5492ZM20.3125 1.83217H29.6875V7.37938H20.3125V1.83217ZM17.1875 8.9643H32.8125V10.5492H17.1875V8.9643ZM27.3437 14.5115C27.3437 14.9817 27.2063 15.4414 26.9488 15.8323C26.6912 16.2233 26.3252 16.528 25.8969 16.7079C25.4686 16.8879 24.9974 16.9349 24.5428 16.8432C24.0881 16.7515 23.6705 16.5251 23.3427 16.1926C23.0149 15.8601 22.7917 15.4365 22.7013 14.9753C22.6109 14.5141 22.6573 14.0361 22.8347 13.6017C23.0121 13.1673 23.3125 12.796 23.6979 12.5348C24.0833 12.2736 24.5365 12.1341 25 12.1341C25.6216 12.1341 26.2177 12.3846 26.6573 12.8305C27.0968 13.2763 27.3437 13.881 27.3437 14.5115ZM17.1875 21.6436H21.0938V20.0587H17.1875V12.1341H21.875C21.3679 12.82 21.0938 13.6542 21.0938 14.5115C21.0936 15.4249 21.4045 16.3104 21.974 17.018C22.5434 17.7256 23.3364 18.2119 24.2188 18.3946V20.8512H25.7813V18.3946C26.6636 18.2119 27.4566 17.7256 28.026 17.018C28.5955 16.3104 28.9064 15.4249 28.9062 14.5115C28.9062 13.6542 28.6321 12.82 28.125 12.1341H32.8125V20.0587H28.9062V21.6436H32.8125V22.4361C32.8125 22.6463 32.7302 22.8478 32.5837 22.9965C32.4372 23.1451 32.2385 23.2286 32.0313 23.2286H17.9688C17.7616 23.2286 17.5628 23.1451 17.4163 22.9965C17.2698 22.8478 17.1875 22.6463 17.1875 22.4361V21.6436Z" fill="white"/>
<path d="M47.6562 1.83215H33.5938V3.41707H47.6562C47.8635 3.41707 48.0622 3.50056 48.2087 3.64918C48.3552 3.79779 48.4375 3.99936 48.4375 4.20953V29.5682H46.0938V6.58691C46.0938 6.37673 46.0114 6.17517 45.8649 6.02655C45.7184 5.87794 45.5197 5.79445 45.3125 5.79445H35.9375V7.37936H44.5312V29.5682H5.46875V7.37936H14.0625V5.79445H4.6875C4.4803 5.79445 4.28159 5.87794 4.13507 6.02655C3.98856 6.17517 3.90625 6.37673 3.90625 6.58691V29.5682H1.5625V4.20953C1.5625 3.99936 1.64481 3.79779 1.79132 3.64918C1.93784 3.50056 2.13655 3.41707 2.34375 3.41707H16.4062V1.83215H2.34375C1.72215 1.83215 1.12601 2.08263 0.686468 2.52847C0.24693 2.97432 0 3.57901 0 4.20953L0 39.0777C0 39.2879 0.08231 39.4895 0.228823 39.6381C0.375336 39.7867 0.57405 39.8702 0.78125 39.8702H18.5781L17.3281 46.2098H15.625C15.4178 46.2098 15.2191 46.2933 15.0726 46.4419C14.9261 46.5906 14.8438 46.7921 14.8438 47.0023V49.3797H13.2812V50.9646H36.7188V49.3797H35.1562V47.0023C35.1562 46.7921 35.0739 46.5906 34.9274 46.4419C34.7809 46.2933 34.5822 46.2098 34.375 46.2098H32.6719L31.4219 39.8702H49.2188C49.426 39.8702 49.6247 39.7867 49.7712 39.6381C49.9177 39.4895 50 39.2879 50 39.0777V4.20953C50 3.57901 49.7531 2.97432 49.3135 2.52847C48.874 2.08263 48.2779 1.83215 47.6562 1.83215ZM32.0312 47.7948H33.5938V49.3797H16.4062V47.7948H32.0312ZM18.9219 46.2098L20.1719 39.8702H29.8281L31.0781 46.2098H18.9219ZM48.4375 38.2853H1.5625V31.1531H48.4375V38.2853Z" fill="white"/>
<path d="M25 36.7004C25.4635 36.7004 25.9167 36.5609 26.3021 36.2997C26.6875 36.0385 26.9879 35.6672 27.1653 35.2328C27.3427 34.7984 27.3891 34.3204 27.2987 33.8592C27.2083 33.398 26.9851 32.9744 26.6573 32.6419C26.3295 32.3095 25.9119 32.083 25.4572 31.9913C25.0026 31.8996 24.5313 31.9466 24.1031 32.1266C23.6748 32.3065 23.3088 32.6112 23.0512 33.0022C22.7937 33.3932 22.6562 33.8528 22.6562 34.323C22.6563 34.9535 22.9032 35.5582 23.3427 36.0041C23.7823 36.4499 24.3784 36.7004 25 36.7004ZM25 33.5305C25.1545 33.5305 25.3056 33.577 25.434 33.6641C25.5625 33.7512 25.6626 33.8749 25.7218 34.0197C25.7809 34.1645 25.7964 34.3239 25.7662 34.4776C25.7361 34.6313 25.6617 34.7725 25.5524 34.8833C25.4432 34.9942 25.304 35.0696 25.1524 35.1002C25.0009 35.1308 24.8438 35.1151 24.701 35.0551C24.5583 34.9952 24.4363 34.8936 24.3504 34.7633C24.2646 34.6329 24.2187 34.4797 24.2187 34.323C24.2187 34.1128 24.3011 33.9113 24.4476 33.7626C24.5941 33.614 24.7928 33.5305 25 33.5305Z" fill="white"/>
<path d="M7.8125 24.021V26.3984C7.8125 26.8187 7.97712 27.2218 8.27015 27.5191C8.56317 27.8163 8.9606 27.9833 9.375 27.9833H13.2812V26.3984H9.375V24.021H7.8125Z" fill="white"/>
<path d="M16.4062 26.3984H14.8438V27.9833H16.4062V26.3984Z" fill="white"/>
<path d="M42.1875 26.3984H40.625V27.9833H42.1875V26.3984Z" fill="white"/>
<path d="M42.1875 23.2286H40.625V24.8135H42.1875V23.2286Z" fill="white"/>
<path d="M39.0625 26.3984H37.5V27.9833H39.0625V26.3984Z" fill="white"/>
</svg>
