<svg width="21" height="21" viewBox="0 0 21 21" fill="none" xmlns="http://www.w3.org/2000/svg">
<path d="M11.0164 2.28027H4.5221C4.16973 2.28027 3.88452 2.56548 3.88452 2.91785V7.41742C3.88452 7.76936 4.16973 8.055 4.5221 8.055H11.0164C11.3684 8.055 11.654 7.76936 11.654 7.41742V2.91785C11.654 2.56548 11.3684 2.28027 11.0164 2.28027ZM10.3789 6.77985H5.15967V3.55542H10.3789V6.77985Z" fill="url(#paint0_linear_169_331)"/>
<path d="M20.0606 3.4327L20.0604 3.43262L17.3387 0.856645C17.083 0.614622 16.6795 0.625715 16.4374 0.881468C16.1954 1.13722 16.2064 1.54072 16.4622 1.78279L17.8746 3.11952C16.99 3.44724 16.3576 4.29989 16.3576 5.29701C16.3576 6.33456 17.0424 7.21568 17.9834 7.51152V15.3996C17.9834 15.6108 17.8113 15.7826 17.6005 15.7826C17.3892 15.7826 17.2175 15.6108 17.2175 15.3996V11.3914C17.2175 10.3372 16.3593 9.47907 15.3052 9.47907H13.8264V1.91272C13.8264 0.85775 12.9687 0 11.9137 0H3.6244C2.56985 0 1.71167 0.85775 1.71167 1.91272V16.1H1.49107C0.668603 16.1 0 16.7691 0 17.5915V19.9331C0 20.2855 0.285208 20.5707 0.637574 20.5707H14.901C15.2529 20.5707 15.5385 20.2855 15.5385 19.9331V17.5915C15.5385 16.7691 14.8695 16.1 14.047 16.1H13.8264V10.7542H15.3052C15.6563 10.7542 15.9423 11.0402 15.9423 11.3913V15.3995C15.9423 16.3138 16.6862 17.0577 17.6005 17.0577C18.5147 17.0577 19.2586 16.3138 19.2586 15.3995V7.54505C20.2587 7.28662 21 6.37659 21 5.29697C21 4.53443 20.6302 3.85647 20.0606 3.4327ZM12.5513 16.1H2.98682V1.91272C2.98682 1.56121 3.27288 1.27515 3.6244 1.27515H11.9137C12.2657 1.27515 12.5513 1.56121 12.5513 1.91272V16.1ZM14.2634 17.5915V19.2956H1.27515V17.5915C1.27515 17.5342 1.29788 17.4793 1.33837 17.4387C1.37885 17.3981 1.43377 17.3753 1.49107 17.3752H14.047C14.1665 17.3752 14.2634 17.4721 14.2634 17.5915ZM18.6788 6.34301C18.1033 6.34301 17.6328 5.87448 17.6328 5.29697C17.6328 4.72018 18.102 4.25092 18.6788 4.25092C19.2556 4.25092 19.7249 4.72018 19.7249 5.29697C19.7249 5.87406 19.2552 6.34301 18.6788 6.34301Z" fill="url(#paint1_linear_169_331)"/>
<defs>
<linearGradient id="paint0_linear_169_331" x1="3.88452" y1="5.16764" x2="11.654" y2="5.16764" gradientUnits="userSpaceOnUse">
<stop stop-color="#715126"/>
<stop offset="1" stop-color="#D0B672"/>
</linearGradient>
<linearGradient id="paint1_linear_169_331" x1="0" y1="10.2854" x2="21" y2="10.2854" gradientUnits="userSpaceOnUse">
<stop stop-color="#715126"/>
<stop offset="1" stop-color="#D0B672"/>
</linearGradient>
</defs>
</svg>
