<svg width="163" height="93" viewBox="0 0 163 93" fill="none" xmlns="http://www.w3.org/2000/svg">
<path d="M162.091 38.2263L141.648 4.12641C140.836 2.47362 139.357 1.1978 137.588 0.675775C135.819 0.124832 133.964 0.356804 132.369 1.3137L112.853 12.9412C111.346 13.8401 110.273 15.261 109.838 16.9718C109.432 18.5666 109.664 20.2484 110.447 21.6983C108.127 23.0031 105.256 23.2061 102.763 22.2492L97.1953 20.0455C95.1365 19.2626 92.8749 19.1176 90.845 19.6395L82.32 21.8143C81.856 21.9303 81.4211 22.0753 81.0441 22.2493L80.7542 22.0753C75.4478 19.0597 72.6641 18.3348 67.5607 20.3355L62.6314 22.2492C60.0508 23.2351 57.093 23.0031 54.7154 21.6113L52.4247 20.2484C53.1786 17.4937 52.0187 14.4781 49.4669 12.9413L29.3151 0.936662C27.7783 0.00877447 25.9515 -0.2232 24.2406 0.211757C22.5298 0.6757 21.109 1.77757 20.2101 3.31443L0.202985 38.255C0.0869992 38.4869 0 38.7189 0 38.9798C0 41.9665 1.59481 44.7791 4.14654 46.3159L22.9938 57.5376C24.0087 58.1465 25.1686 58.4655 26.3284 58.4655C26.8794 58.4655 27.4303 58.4075 27.9812 58.2625C29.663 57.8275 31.1128 56.7547 32.0118 55.2469L32.3597 54.6669L34.9114 56.1748L31.8668 60.4081C30.678 62.003 30.214 64.0037 30.533 65.9755C30.852 67.9762 31.9248 69.716 33.5486 70.8758C34.8825 71.8327 36.4193 72.2677 37.9271 72.2677C38.739 72.2677 39.522 72.0937 40.3048 71.8327C40.3048 74.1524 41.3776 76.4721 43.4074 77.951C44.7413 78.9079 46.249 79.3428 47.757 79.3428C48.5689 79.3428 49.3518 79.1689 50.1057 78.9079C50.1057 79.3138 50.1057 79.7198 50.1927 80.0967C50.5116 82.0685 51.5845 83.8083 53.2083 84.9681C54.5421 85.925 56.0499 86.3889 57.5868 86.3889C59.0366 86.3889 60.4575 85.925 61.6753 85.1421C62.0232 86.9689 63.0381 88.6506 64.6619 89.8394C65.9668 90.7673 67.5035 91.2313 69.0115 91.2313C71.3602 91.2313 73.6799 90.1584 75.1588 88.0996L75.3617 87.8097L82.292 91.8981C83.5388 92.623 84.9015 93 86.2355 93C88.7293 93 91.1358 91.7821 92.5566 89.5783C93.5135 88.0705 93.8904 86.3018 93.6875 84.562L95.2823 85.4899C98.8489 87.6066 103.372 86.5917 105.547 83.1702C106.504 81.6623 106.91 79.8936 106.678 78.1247C108.273 78.9076 110.07 79.0815 111.81 78.6466C113.753 78.1537 115.377 76.9358 116.392 75.196C117.262 73.7462 117.61 72.0933 117.378 70.4406L117.697 70.6435C121.205 72.7313 125.816 71.6874 127.99 68.3238C129.092 66.584 129.44 64.4963 128.976 62.4956C128.599 60.9008 127.7 59.5378 126.482 58.5231C126.714 58.3781 126.917 58.2041 127.149 58.0592L130.716 55.9714C131.673 57.1893 133.007 58.0302 134.428 58.2622C134.746 58.3782 135.036 58.3782 134.978 58.3782C135.21 58.4072 135.442 58.4362 135.384 58.4072C135.529 58.4362 135.674 58.4362 135.819 58.4362H136.138C136.167 58.4362 136.515 58.4072 136.544 58.4072L136.921 58.3782C136.95 58.3782 136.979 58.3782 137.008 58.3492C137.153 58.3202 137.327 58.2912 137.443 58.2332C138.11 58.0592 138.661 57.8562 139.154 57.5373L158.001 46.3156C160.553 44.7788 162.148 41.966 162.148 38.9795C162.293 38.7186 162.236 38.4582 162.091 38.2263ZM27.2855 55.4501C26.3286 55.711 25.3427 55.5371 24.5018 55.0441L5.65456 43.8224C4.05975 42.8656 3.04497 41.1837 2.9288 39.3571L22.7336 4.76358C23.2266 3.89369 24.0095 3.28475 24.9954 3.0238C25.9523 2.76284 26.9962 2.90781 27.837 3.42975L47.9889 15.4344C49.6416 16.4203 50.2507 18.537 49.3517 20.2187C49.2937 20.3057 49.2647 20.3637 49.2357 20.4797L30.5908 51.9407V51.9696L29.5469 53.7384C29.0539 54.6083 28.2425 55.1891 27.2855 55.4501ZM35.2595 68.4984C34.2737 67.7735 33.6068 66.7006 33.4038 65.4828C33.2008 64.2649 33.4908 63.076 34.2157 62.0902L37.6663 57.2767C37.7533 57.1317 37.8693 57.0158 38.1013 56.7548C38.4782 56.3778 38.8842 56.1169 39.3191 55.8849L39.4931 55.7979C39.928 55.5949 40.363 55.5079 40.8269 55.4499C40.9139 55.4499 41.0009 55.4209 41.0879 55.4209C41.4358 55.3919 41.7838 55.4499 42.1318 55.5079C42.3057 55.5369 42.4797 55.5369 42.6247 55.5949C43.1176 55.7399 43.5816 55.9429 44.0165 56.2618C45.0314 56.9867 45.6983 58.0596 45.9012 59.2775C45.9592 59.5674 45.9592 59.8864 45.9592 60.1764C45.9592 60.3214 45.9302 60.4663 45.9012 60.6403C45.8722 60.7853 45.8722 60.9303 45.8433 61.0463C45.8143 61.2203 45.7273 61.3652 45.6693 61.5392C45.6403 61.6552 45.6113 61.7712 45.5533 61.8872C45.4953 62.0321 45.3793 62.1771 45.2923 62.3221C45.2343 62.4381 45.1763 62.5541 45.0893 62.6701L45.0603 62.6991L44.4514 63.54C44.4224 63.569 44.4224 63.5979 44.4224 63.5979L41.6677 67.4544C40.2469 69.5132 37.3473 69.9773 35.2595 68.4984ZM45.1183 75.5735C43.0596 74.0947 42.5956 71.195 44.0455 69.1362L46.8292 65.2506C46.8292 65.2216 46.8581 65.2216 46.8581 65.2216L47.0901 64.8736L51.2367 59.1033C51.9616 58.0884 53.0344 57.4215 54.2523 57.2186C54.5133 57.1896 54.8032 57.1606 55.0642 57.1606C55.4701 57.1606 55.8761 57.2476 56.282 57.3636L56.543 57.4506C56.949 57.5955 57.3259 57.7695 57.6739 58.0305C58.6888 58.7554 59.3557 59.7993 59.5296 61.0172C59.7326 62.235 59.4427 63.4239 58.7178 64.4388L51.4977 74.5007C50.0769 76.5884 47.2061 77.0524 45.1183 75.5735ZM54.9482 82.6197C53.9623 81.8948 53.2954 80.8509 53.0924 79.633C52.8894 78.4151 53.1794 77.1973 53.9043 76.2114L61.1244 66.1495C61.3274 65.8596 61.5883 65.5986 61.8203 65.3956C61.9073 65.3376 61.9943 65.2796 62.0813 65.1926C62.2553 65.0477 62.4582 64.9317 62.6612 64.8157C62.7772 64.7577 62.8642 64.6997 62.9802 64.6707C63.1832 64.5837 63.4151 64.4967 63.6181 64.4387C63.7341 64.4098 63.8211 64.3808 63.9371 64.3518C64.198 64.2938 64.459 64.2648 64.72 64.2648H64.923C65.3289 64.2648 65.7349 64.3228 66.1408 64.4387L66.4018 64.5257C66.8077 64.6707 67.1847 64.8447 67.5616 65.1057C68.8375 66.0336 69.5044 67.5414 69.4753 69.0202C69.4463 69.6002 69.3303 70.2091 69.0984 70.76C68.9824 71.05 68.8084 71.311 68.6344 71.5719L65.7058 75.6604C65.5608 75.8054 65.4739 75.9503 65.4159 76.0083L63.154 79.1689C63.0671 79.2559 62.9511 79.4009 62.8641 79.5749L61.4143 81.6047C59.9064 83.6346 57.007 84.1276 54.9482 82.6197ZM66.4019 87.4622C64.4301 86.0124 63.8791 83.3156 65.184 81.286C65.184 81.257 65.213 81.257 65.213 81.228L67.6487 77.8063L67.7357 77.6903L67.9097 77.5163C69.4175 75.6027 72.1722 75.1966 74.1729 76.6465C75.1588 77.3714 75.8257 78.4442 76.0287 79.6621C76.0867 79.9521 76.0867 80.271 76.0867 80.561V80.619C76.0287 81.4889 75.7387 82.3588 75.2168 83.0836L73.825 85.0264V85.0554L72.8681 86.4183C71.3603 88.4771 68.4607 88.941 66.4019 87.4622ZM125.642 66.7592C124.308 68.818 121.466 69.4268 119.292 68.151L113.869 64.9323C113.173 64.5264 112.303 64.7584 111.897 65.4253C111.492 66.1212 111.723 66.9911 112.39 67.426C113.463 68.0639 114.188 69.0498 114.507 70.2386C114.797 71.4274 114.623 72.6743 114.014 73.7182C113.405 74.762 112.419 75.516 111.202 75.8349C110.013 76.1538 108.766 75.9798 107.693 75.3419L103.141 72.6453C102.445 72.2394 101.575 72.4713 101.169 73.1382C100.763 73.8342 100.995 74.704 101.662 75.1389C102.764 75.8059 103.518 76.8498 103.807 78.0676C104.097 79.2853 103.865 80.5322 103.199 81.605C101.836 83.6928 99.052 84.3016 96.8193 82.9969L90.1211 79.0533C89.4541 78.6474 88.5552 78.8794 88.1493 79.5753C87.7433 80.2712 87.9753 81.1411 88.6712 81.547C89.7441 82.185 90.527 83.1998 90.8169 84.4177C91.1068 85.6356 90.9039 86.9115 90.237 87.9843C88.8741 90.0721 86.0615 90.681 83.8577 89.3762L77.1306 85.4037L77.5945 84.7658C78.7833 83.142 79.2473 81.1413 78.9283 79.1695C78.6094 77.1977 77.5365 75.4579 75.9127 74.2691C75.5358 73.9792 75.1298 73.7762 74.6948 73.5732C74.6079 73.5442 74.4919 73.5152 74.4049 73.4572C74.0859 73.3123 73.738 73.1963 73.39 73.1093C73.274 73.0803 73.187 73.0513 73.071 73.0513C72.752 72.9933 72.4331 72.9353 72.0851 72.9063C71.9402 72.9063 71.7952 72.9063 71.6502 72.8773C71.5052 72.8773 71.3602 72.8483 71.2152 72.8483C71.3312 72.6743 71.3892 72.5004 71.4762 72.3264C71.5922 72.1234 71.7082 71.9204 71.7661 71.7175C71.8531 71.4855 71.9401 71.2245 71.9981 70.9636C72.0561 70.7606 72.1431 70.5576 72.1721 70.3256C72.2301 70.0647 72.2301 69.8037 72.2591 69.5427C72.2881 69.3397 72.3171 69.1368 72.3171 68.9048C72.3171 68.6438 72.2881 68.3829 72.2591 68.0929C72.2301 67.8899 72.2301 67.6869 72.2011 67.484C72.1431 67.223 72.0561 66.962 71.9981 66.6721C71.9401 66.4691 71.9111 66.2951 71.8241 66.0921C71.7082 65.8312 71.5922 65.5702 71.4472 65.3092C71.3602 65.1353 71.3022 64.9613 71.1862 64.8163C71.0123 64.5553 70.8093 64.2944 70.6063 64.0334C70.4903 63.9174 70.4323 63.7724 70.3163 63.6564C69.9974 63.3085 69.6204 62.9605 69.2145 62.6706C68.7505 62.3516 68.2576 62.0906 67.7356 61.8587C67.5617 61.8007 67.3877 61.7427 67.2137 61.6847C66.8657 61.5687 66.5178 61.4817 66.1698 61.3947C65.9668 61.3657 65.7639 61.3367 65.5609 61.3077C65.213 61.2787 64.894 61.2787 64.546 61.2787C64.343 61.2787 64.1401 61.3077 63.9371 61.3077C63.5892 61.3367 63.2412 61.4237 62.9222 61.5107C62.7772 61.5397 62.6613 61.5397 62.5163 61.5977C62.5163 61.2208 62.4873 60.8438 62.4293 60.4668C62.1103 58.4951 61.0085 56.7553 59.3847 55.5954C57.7899 54.4066 55.7891 53.9426 53.8174 54.2616C51.8167 54.5806 50.0769 55.6534 48.917 57.3062L48.5981 57.7701C48.5691 57.6541 48.5111 57.5671 48.4821 57.4802C48.4241 57.3062 48.3661 57.1612 48.3081 57.0162C48.1921 56.7262 48.0761 56.4653 47.9021 56.2043C47.8151 56.0593 47.7572 55.9143 47.6412 55.7693C47.4672 55.5084 47.2642 55.2474 47.0613 55.0154C46.9743 54.8995 46.8873 54.7835 46.8003 54.6965C46.4813 54.3775 46.1334 54.0585 45.7564 53.7976C45.4085 53.5366 45.0315 53.3336 44.6546 53.1306C44.5386 53.0726 44.3936 53.0147 44.2776 52.9857C44.0166 52.8697 43.7557 52.7827 43.4947 52.6957C43.3497 52.6377 43.1757 52.6087 43.0018 52.5797C42.7408 52.5217 42.5088 52.4637 42.2479 52.4347C42.0739 52.4057 41.8999 52.4057 41.7259 52.4057H41.001C40.827 52.4057 40.6531 52.4347 40.4791 52.4637C40.2471 52.4927 40.0151 52.5217 39.7832 52.5797C39.6092 52.6087 39.4352 52.6667 39.2612 52.6957C39.0293 52.7537 38.7973 52.8407 38.5653 52.9277C38.3913 52.9857 38.2463 53.0437 38.0724 53.1307C37.8404 53.2466 37.6374 53.3626 37.4055 53.5076L36.9705 53.7686C36.9415 53.7976 36.9125 53.7976 36.8835 53.8265L33.81 52.0288L48.6272 26.9758L51.121 22.7424L53.1798 23.9603C56.3114 25.816 60.1969 26.1351 63.5896 24.8302L68.5189 22.9165C72.0855 21.5247 73.9702 21.6406 78.0587 23.8154L77.9717 23.9024C77.4788 24.3373 77.0148 24.8013 76.6089 25.3232C76.5219 25.4392 76.4349 25.5552 76.3479 25.6712C75.9999 26.1641 75.681 26.657 75.42 27.208C75.391 27.2949 75.333 27.3529 75.304 27.4399C75.0141 28.0488 74.8111 28.6578 74.6661 29.3247C74.6371 29.4696 74.6081 29.6146 74.5791 29.7886C74.4341 30.4555 74.3471 31.1224 74.3471 31.8184V43.214C74.3471 45.6497 76.4638 47.6794 78.7836 47.5925C81.4802 47.5925 84.0319 46.5487 85.9747 44.6348C87.4535 43.156 88.4393 41.3002 88.8162 39.2994L123.41 59.7705L124.077 60.1764C125.15 60.8144 125.903 61.8292 126.193 63.0761C126.541 64.4099 126.309 65.6862 125.642 66.7592ZM125.787 55.5375C125.178 55.8854 124.598 56.2914 123.989 56.8133L88.323 35.7039C88.091 35.5589 87.83 35.5009 87.5981 35.5009C87.3661 35.5009 87.1051 35.5589 86.8732 35.7039C86.4092 35.9649 86.1482 36.4288 86.1482 36.9507V37.4437C86.1482 39.4154 85.3653 41.2712 83.9735 42.663C82.5816 44.0259 80.7838 44.7797 78.8122 44.7797C78.0873 44.7797 77.2754 44.1128 77.2754 43.3009V31.9053C77.2754 31.0354 77.4784 30.1945 77.7683 29.3826C78.4352 27.5558 79.7401 26.019 81.5088 25.1492C81.9438 24.9462 82.4367 24.7433 82.9586 24.5983L91.5126 22.4235C92.9915 22.0465 94.6153 22.1625 96.0942 22.7135L101.661 24.9172C104.967 26.193 108.766 25.9031 111.868 24.1923L127.961 51.3905L129.208 53.4783L125.787 55.5375ZM156.639 43.8229L137.792 55.0446C137.473 55.2476 137.125 55.3636 136.603 55.4795C136.545 55.4795 136.487 55.5085 136.429 55.5085C136.284 55.5085 136.139 55.5375 136.052 55.5665C135.965 55.5375 135.356 55.4795 135.24 55.4795C134.167 55.2766 133.297 54.6676 132.776 53.7977L132.515 53.3628C132.515 53.3338 132.515 53.3338 132.486 53.3048L113.666 21.5247L113.057 20.4518C112.564 19.6109 112.419 18.625 112.651 17.6681C112.883 16.7113 113.492 15.9283 114.333 15.4355L133.848 3.80791C134.428 3.45996 135.066 3.28598 135.704 3.28598C136.052 3.28598 136.4 3.34397 136.777 3.43096C137.792 3.72093 138.633 4.44585 139.126 5.48976L159.395 39.3279C159.25 41.1837 158.234 42.8659 156.639 43.8229Z" fill="url(#paint0_linear_543_3)"/>
<defs>
<linearGradient id="paint0_linear_543_3" x1="0" y1="46.5" x2="162.232" y2="46.5" gradientUnits="userSpaceOnUse">
<stop stop-color="#715126"/>
<stop offset="1" stop-color="#D0B672"/>
</linearGradient>
</defs>
</svg>
