<svg width="93" height="93" viewBox="0 0 93 93" fill="none" xmlns="http://www.w3.org/2000/svg">
<path d="M91.6858 66.9451L83.029 63.7944C82.8394 63.7257 82.638 63.695 82.4366 63.7041C82.2351 63.7132 82.0373 63.762 81.8547 63.8475C81.672 63.9331 81.508 64.0538 81.372 64.2027C81.236 64.3517 81.1307 64.526 81.0621 64.7156L80.537 66.1574L70.5075 62.5C70.2555 62.406 69.9828 62.3821 69.7183 62.4309L48.8517 66.116C47.9187 66.2822 47.0368 66.6615 46.2745 67.2246C45.5123 67.7876 44.8904 68.519 44.4572 69.3619L34.8853 65.8703C34.1283 65.5919 33.3234 65.4669 32.5176 65.5025C31.7118 65.5381 30.9211 65.7336 30.1915 66.0776C29.2702 66.5076 28.4697 67.1591 27.8615 67.9738C27.2533 68.7886 26.8563 69.7413 26.706 70.7469C26.5207 72.1814 26.8365 73.6359 27.6 74.8644C28.3636 76.0929 29.5279 77.02 30.8963 77.489L62.4265 88.9648C62.5945 89.0271 62.7724 89.0588 62.9516 89.0585C63.1187 89.0583 63.2847 89.0308 63.4429 88.9771L72.2487 86.0045L73.1853 86.3454L72.6602 87.7887C72.5915 87.9783 72.5608 88.1796 72.5699 88.3811C72.579 88.5826 72.6278 88.7803 72.7133 88.963C72.7989 89.1457 72.9196 89.3097 73.0685 89.4457C73.2175 89.5817 73.3918 89.687 73.5814 89.7556L82.2398 92.9063C82.4073 92.9684 82.5846 93.0001 82.7634 93C83.0785 93.0001 83.3861 92.9032 83.6443 92.7224C83.9025 92.5417 84.0989 92.2858 84.2067 91.9896L92.6086 68.9028C92.7444 68.5207 92.7236 68.1005 92.5508 67.7337C92.3779 67.367 92.0669 67.0835 91.6858 66.9451ZM71.7758 82.9275L62.97 85.9001L31.9465 74.6069C31.2494 74.375 30.6517 73.9133 30.2512 73.2974C29.8506 72.6815 29.671 71.948 29.7416 71.2167C29.8054 70.7636 29.9697 70.3304 30.2224 69.9489C30.4751 69.5674 30.8099 69.2472 31.2022 69.0118C31.5946 68.7763 32.0346 68.6315 32.4902 68.5879C32.9457 68.5443 33.4052 68.6031 33.8351 68.76L43.797 72.3852C43.8021 72.6684 43.8252 72.9509 43.8661 73.2312C44.1553 74.8313 45.0646 76.2525 46.3962 77.1855C47.7278 78.1186 49.374 78.4881 50.9767 78.2137L68.2627 75.1658L67.7284 72.141L50.4501 75.1889C49.6503 75.3248 48.8292 75.141 48.1638 74.6771C47.4983 74.2133 47.0417 73.5065 46.8925 72.7091C46.8287 72.3586 46.8313 71.9992 46.9001 71.6497C46.9117 71.599 46.9204 71.5478 46.9262 71.4961C46.9465 71.365 46.9821 71.2367 47.0322 71.1138C47.2174 70.6073 47.5323 70.1583 47.9453 69.8116C48.3583 69.4648 48.8551 69.2325 49.386 69.1377L69.8442 65.5294L79.4867 69.0379L74.2355 83.471L72.7922 82.9474C72.4655 82.8256 72.107 82.8185 71.7758 82.9275ZM81.839 89.5007L76.0673 87.4002L83.419 67.2L89.1907 69.3005L81.839 89.5007Z" fill="url(#paint0_linear_543_21)"/>
<path d="M35.765 24.7682C36.2604 26.5825 37.1744 28.2554 38.4336 29.6524C38.41 29.7752 38.3941 29.8993 38.386 30.024V38.386C38.386 39.6077 38.8713 40.7793 39.7351 41.6432C40.599 42.507 41.7706 42.9923 42.9923 42.9923V58.3467C42.9907 58.6333 43.0694 58.9147 43.2195 59.1589C43.3695 59.4031 43.585 59.6005 43.8414 59.7286L46.9122 61.264C47.1254 61.3705 47.3603 61.426 47.5986 61.426C47.8368 61.426 48.0718 61.3705 48.2849 61.264L51.3558 59.7286C51.6122 59.6005 51.8276 59.4031 51.9777 59.1589C52.1278 58.9147 52.2065 58.6333 52.2049 58.3467V42.9923C53.4266 42.9923 54.5982 42.507 55.4621 41.6432C56.3259 40.7793 56.8112 39.6077 56.8112 38.386V30.024C56.8028 29.89 56.7859 29.7566 56.7605 29.6248C57.7864 28.4964 58.5855 27.1812 59.1144 25.7509C60.2223 25.9369 61.3606 25.7859 62.3817 25.3175C63.4029 24.8491 64.2598 24.0848 64.8416 23.1237C65.5506 21.9511 65.8413 20.5727 65.6662 19.2135C65.4911 17.8543 64.8605 16.5947 63.8773 15.64L51.3819 3.14769C50.3863 2.1467 49.2021 1.3531 47.8977 0.812812C46.5934 0.272521 45.1948 -0.00373198 43.783 3.8073e-05H27.6379C27.4298 -0.000383534 27.2239 0.0419488 27.0329 0.124409L16.5827 4.60635H15.3544V1.53548C15.3544 1.12825 15.1926 0.737708 14.9047 0.449757C14.6167 0.161807 14.2262 3.8073e-05 13.8189 3.8073e-05H1.53544C1.12821 3.8073e-05 0.73767 0.161807 0.449719 0.449757C0.161769 0.737708 0 1.12825 0 1.53548V26.1025C0 26.5097 0.161769 26.9003 0.449719 27.1882C0.73767 27.4762 1.12821 27.6379 1.53544 27.6379H13.8189C14.2262 27.6379 14.6167 27.4762 14.9047 27.1882C15.1926 26.9003 15.3544 26.5097 15.3544 26.1025V23.0316H15.5786C16.6779 26.7167 21.6159 29.1734 26.1025 29.1734C27.9403 29.2111 29.7632 28.8347 31.4358 28.0721C33.1085 27.3095 34.5881 26.1803 35.765 24.7682ZM12.2835 24.5671H3.07088V3.07091H12.2835V24.5671ZM49.134 57.3978L47.5986 58.1655L46.0631 57.3978V42.9923H49.134V57.3978ZM53.7403 38.386C53.7403 38.7932 53.5786 39.1838 53.2906 39.4717C53.0027 39.7597 52.6121 39.9214 52.2049 39.9214H42.9923C42.585 39.9214 42.1945 39.7597 41.9066 39.4717C41.6186 39.1838 41.4568 38.7932 41.4568 38.386V32.1183C42.4894 32.7199 43.6056 33.1649 44.7688 33.4388C45.0269 34.067 45.4848 34.5927 46.0716 34.9346C46.6584 35.2765 47.3415 35.4156 48.0153 35.3304C48.6891 35.2453 49.316 34.9405 49.7993 34.4634C50.2826 33.9862 50.5952 33.3631 50.6889 32.6904C50.7826 32.0178 50.6522 31.333 50.3177 30.7419C49.9833 30.1508 49.4634 29.6863 48.8386 29.4203C48.2137 29.1542 47.5186 29.1013 46.8607 29.2698C46.2028 29.4383 45.6187 29.8189 45.1987 30.3526C44.3327 30.1256 43.5049 29.7722 42.742 29.3039C44.2224 28.4062 45.8789 27.838 47.5986 27.6379C49.8028 27.9477 51.9051 28.7644 53.7403 30.024V38.386ZM54.8842 27.1358C52.6889 25.7239 50.194 24.8443 47.5986 24.5671C45.0076 24.8429 42.5169 25.7205 40.3252 27.1297C39.3888 25.9373 38.7687 24.5277 38.5226 23.0316H46.0631C47.1664 23.0426 48.2512 22.7486 49.1978 22.182C50.1445 21.6155 50.9163 20.7984 51.428 19.821L55.7272 24.1202C55.8988 24.2805 56.0803 24.4297 56.2707 24.5671C55.9543 25.4943 55.4857 26.3624 54.8842 27.1358ZM52.1327 16.182C51.9891 14.9252 51.4572 13.7445 50.6111 12.8041C52.3104 13.394 53.7998 14.4685 54.8955 15.8949C55.9913 17.3214 56.6455 19.0374 56.7774 20.8313L52.1327 16.182ZM33.7796 21.4962C33.7796 23.8208 29.9764 26.1025 26.1025 26.1025C22.2285 26.1025 18.4253 23.8208 18.4253 21.4962C18.4253 21.089 18.2635 20.6984 17.9755 20.4105C17.6876 20.1225 17.297 19.9607 16.8898 19.9607H15.3544V7.67723H16.8898C17.0979 7.67765 17.3038 7.63532 17.4948 7.55286L27.945 3.07091H43.7753C44.785 3.06714 45.7854 3.26389 46.7185 3.64977C47.6516 4.03564 48.4987 4.60296 49.2108 5.3188L61.7031 17.8111C62.1938 18.2691 62.5151 18.8797 62.6146 19.5435C62.7141 20.2073 62.5861 20.8852 62.2513 21.467C61.9993 21.8662 61.6492 22.1942 61.2345 22.4197C60.8197 22.6452 60.3541 22.7607 59.8821 22.7552C59.8575 22.7552 59.8345 22.7552 59.8099 22.7552C59.856 22.3371 59.8801 21.9168 59.8821 21.4962C59.8784 18.2395 58.5831 15.1173 56.2803 12.8145C53.9775 10.5117 50.8553 9.21633 47.5986 9.21267C45.5353 9.216 43.5068 9.74439 41.704 10.7481H29.1733V13.819H46.0631C46.8776 13.819 47.6587 14.1425 48.2346 14.7184C48.8105 15.2943 49.134 16.0754 49.134 16.8899C49.134 17.7043 48.8105 18.4854 48.2346 19.0613C47.6587 19.6372 46.8776 19.9607 46.0631 19.9607H35.3151C34.9079 19.9607 34.5173 20.1225 34.2294 20.4105C33.9414 20.6984 33.7796 21.089 33.7796 21.4962Z" fill="url(#paint1_linear_543_21)"/>
<defs>
<linearGradient id="paint0_linear_543_21" x1="26.6543" y1="77.7031" x2="92.6973" y2="77.7031" gradientUnits="userSpaceOnUse">
<stop stop-color="#715126"/>
<stop offset="1" stop-color="#D0B672"/>
</linearGradient>
<linearGradient id="paint1_linear_543_21" x1="0" y1="30.713" x2="65.7159" y2="30.713" gradientUnits="userSpaceOnUse">
<stop stop-color="#715126"/>
<stop offset="1" stop-color="#D0B672"/>
</linearGradient>
</defs>
</svg>
