<svg width="7" height="17" viewBox="0 0 7 17" fill="none" xmlns="http://www.w3.org/2000/svg">
<path d="M3.33831 0.648023C3.369 0.632674 3.50713 0.625 3.7527 0.625C4.01361 0.655696 4.18243 0.678718 4.25917 0.694065C4.85773 0.878238 5.28747 1.23124 5.54838 1.75306C5.68651 2.04466 5.75558 2.3286 5.75558 2.60486C5.75558 2.89646 5.68651 3.1804 5.54838 3.45666C5.28747 3.99383 4.85773 4.3545 4.25917 4.53867C4.12104 4.56937 3.9292 4.58471 3.68363 4.58471C3.42272 4.58471 3.23088 4.56937 3.10809 4.53867C2.49418 4.3545 2.05677 3.99383 1.79586 3.45666C1.67308 3.21109 1.61169 2.92716 1.61169 2.60486C1.61169 2.38999 1.61936 2.23651 1.63471 2.14443C1.71145 1.86817 1.84958 1.60725 2.0491 1.36169C2.3714 0.977998 2.80114 0.740109 3.33831 0.648023ZM3.17716 6.35737C4.71193 6.29598 5.44862 6.26529 5.38723 6.26529H5.52536V10.6164V14.9674H6.23903H6.9527V15.7962V16.625H6.7455L5.27212 16.579C4.428 16.5636 3.55318 16.5636 2.64766 16.579L1.08219 16.625H0.875V15.7962V14.9674H1.68076H2.46349V11.8135C2.46349 9.68016 2.45582 8.58279 2.44047 8.5214C2.37908 8.33723 2.27932 8.2298 2.14119 8.1991C1.92632 8.13771 1.61936 8.10702 1.22032 8.10702H0.944065V7.27824V6.44946H1.01313L3.17716 6.35737Z" fill="white"/>
</svg>
