<svg width="21" height="19" viewBox="0 0 21 19" fill="none" xmlns="http://www.w3.org/2000/svg">
<path d="M3.56631 10.3222L20.0586 10.8088C20.294 10.8157 20.5224 10.7289 20.6938 10.5674C20.8651 10.4059 20.9652 10.183 20.9722 9.94762C20.9791 9.71228 20.8923 9.48382 20.7308 9.3125C20.5693 9.14118 20.3463 9.04103 20.111 9.03409L3.61868 8.54748L10.2819 2.26787C10.4535 2.10617 10.5538 1.88294 10.5607 1.64731C10.5677 1.41167 10.4807 1.18292 10.319 1.01138C10.1573 0.839847 9.93408 0.739573 9.69845 0.73262C9.46281 0.725667 9.23406 0.812606 9.06252 0.97431L0.840719 8.72485C0.755651 8.80484 0.687199 8.90082 0.639285 9.00731C0.59137 9.11379 0.564933 9.22868 0.561489 9.3454C0.558045 9.46212 0.577662 9.57837 0.619216 9.68749C0.660768 9.79662 0.723442 9.89647 0.803646 9.98134L8.55418 18.2031C8.71589 18.3747 8.93911 18.475 9.17475 18.4819C9.41039 18.4889 9.63913 18.4019 9.81067 18.2402C9.98221 18.0785 10.0825 17.8553 10.0894 17.6196C10.0964 17.384 10.0095 17.1553 9.84775 16.9837L3.56631 10.3222Z" fill="white"/>
</svg>
