<svg width="15" height="13" viewBox="0 0 15 13" fill="none" xmlns="http://www.w3.org/2000/svg">
<path d="M2.22153 6.80905L13.4843 6.80905C13.6451 6.80905 13.7992 6.74521 13.9128 6.63156C14.0265 6.51792 14.0903 6.36378 14.0903 6.20307C14.0903 6.04235 14.0265 5.88821 13.9128 5.77457C13.7992 5.66093 13.6451 5.59708 13.4843 5.59708L2.22153 5.59708L6.64158 1.17825C6.75537 1.06446 6.81929 0.91013 6.81929 0.74921C6.81929 0.58829 6.75537 0.43396 6.64158 0.320173C6.52779 0.206385 6.37346 0.14246 6.21254 0.14246C6.05162 0.14246 5.89729 0.206385 5.7835 0.320173L0.329649 5.77403C0.273215 5.83032 0.228442 5.89719 0.197893 5.97081C0.167344 6.04443 0.151619 6.12336 0.151619 6.20307C0.151619 6.28277 0.167344 6.3617 0.197893 6.43532C0.228442 6.50894 0.273215 6.57581 0.329649 6.6321L5.7835 12.086C5.89729 12.1997 6.05162 12.2637 6.21254 12.2637C6.37346 12.2637 6.52779 12.1997 6.64158 12.086C6.75536 11.9722 6.81929 11.8178 6.81929 11.6569C6.81929 11.496 6.75536 11.3417 6.64158 11.2279L2.22153 6.80905Z" fill="white"/>
</svg>
