<svg width="64" height="93" viewBox="0 0 64 93" fill="none" xmlns="http://www.w3.org/2000/svg">
<path d="M31.9109 15.501C34.8285 15.501 37.1079 13.1305 37.1079 10.304C37.1079 7.47746 34.7374 5.10693 31.9109 5.10693C29.0844 5.10693 26.7139 7.47746 26.7139 10.304C26.7139 13.1305 28.9932 15.501 31.9109 15.501ZM31.9109 6.93034C33.7344 6.93034 35.2844 8.48031 35.2844 10.3038C35.2844 12.1274 33.7344 13.6773 31.9109 13.6773C30.0874 13.6773 28.5374 12.1274 28.5374 10.3038C28.5374 8.48031 30.0874 6.93034 31.9109 6.93034Z" fill="url(#paint0_linear_536_30)"/>
<path d="M59.2648 14.6795H52.4265V12.4912C52.4265 10.9413 51.2413 9.7559 49.6912 9.7559H41.85C41.7588 4.37647 37.2912 0 31.9118 0C26.5323 0 22.0647 4.37647 22.0647 9.7559H14.2235C12.6735 9.7559 11.4882 10.9412 11.4882 12.4912V14.6795H4.55876C2.00582 14.6795 0 16.6854 0 19.2382V88.4412C0 90.9942 2.00594 93 4.55876 93H59.2646C61.8175 93 63.8233 90.9941 63.8233 88.4412V19.2382C63.8233 16.6853 61.8176 14.6795 59.2648 14.6795ZM13.2209 12.4912C13.2209 11.9442 13.5856 11.5795 14.1327 11.5795H22.8856C23.4326 11.5795 23.7974 11.2148 23.7974 10.6677V9.84714C23.7974 5.37953 27.4444 1.82362 31.8209 1.82362C36.1973 1.82362 39.8444 5.47068 39.8444 9.84714V10.6677C39.8444 11.2148 40.2091 11.5795 40.7562 11.5795H49.5091C50.0561 11.5795 50.4208 11.9442 50.4208 12.4912V21.8824C50.4208 22.4295 50.0561 22.7942 49.5091 22.7942H14.1332C13.5862 22.7942 13.2215 22.4295 13.2215 21.8824L13.2209 12.4912ZM11.6709 22.9766C12.1268 23.9795 13.0386 24.6177 14.1327 24.6177H49.6008C50.6949 24.6177 51.6978 23.9794 52.0625 22.9766H55.3449V84.7034H8.20628V22.9766H11.6709ZM62.0003 88.4415C62.0003 89.9914 60.815 91.1768 59.2649 91.1768H4.55911C3.00914 91.1768 1.82376 89.9916 1.82376 88.4415V19.2385C1.82376 17.6885 3.00902 16.5031 4.55911 16.5031H11.3974V21.1531H8.29743C7.29448 21.1531 6.4739 21.9737 6.4739 22.9767V84.7035C6.4739 85.7065 7.29448 86.527 8.29743 86.527H55.436C56.439 86.527 57.2596 85.7065 57.2596 84.7035V22.9767C57.2596 21.9737 56.439 21.1531 55.436 21.1531H52.3361V16.5031H59.2655C60.8155 16.5031 62.0009 17.6884 62.0009 19.2385L62.0003 88.4415Z" fill="url(#paint1_linear_536_30)"/>
<path d="M16.137 38.386C16.3194 38.5684 16.5929 38.6595 16.7752 38.6595C17.0488 38.6595 17.2311 38.5684 17.4135 38.386L23.1576 32.6419C23.5223 32.2772 23.5223 31.7301 23.1576 31.3653C22.7929 31.0006 22.2459 31.0006 21.8811 31.3653L16.7752 36.4712L14.1311 33.8271C13.7664 33.4624 13.2194 33.4624 12.8546 33.8271C12.4898 34.1918 12.4899 34.7389 12.8546 35.1037L16.137 38.386Z" fill="url(#paint2_linear_536_30)"/>
<path d="M29.9054 35.8323H47.8676C48.4147 35.8323 48.7794 35.4676 48.7794 34.9206C48.7794 34.3735 48.4147 34.0088 47.8676 34.0088H29.9054C29.3584 34.0088 28.9937 34.3735 28.9937 34.9206C28.9937 35.4676 29.3584 35.8323 29.9054 35.8323Z" fill="url(#paint3_linear_536_30)"/>
<path d="M22.7021 44.0392L17.5962 49.0539L15.0432 46.501C14.6785 46.1363 14.1315 46.1363 13.7667 46.501C13.402 46.8657 13.402 47.4127 13.7667 47.7775L17.0491 51.0598C17.2314 51.2422 17.5049 51.3334 17.6873 51.3334C17.9608 51.3334 18.1432 51.2422 18.3255 51.0598L24.0697 45.3157C24.4344 44.951 24.4344 44.4039 24.0697 44.0392C23.705 43.6744 23.0668 43.6745 22.7021 44.0392Z" fill="url(#paint4_linear_536_30)"/>
<path d="M30.7257 46.5913C30.1787 46.5913 29.814 46.956 29.814 47.5031C29.814 48.0501 30.1787 48.4148 30.7257 48.4148H48.6879C49.235 48.4148 49.5997 48.0501 49.5997 47.5031C49.5997 46.956 49.235 46.5913 48.6879 46.5913H30.7257Z" fill="url(#paint5_linear_536_30)"/>
<path d="M23.5222 56.6211L18.4163 61.6358L15.7722 58.9917C15.4075 58.627 14.8605 58.627 14.4957 58.9917C14.131 59.3564 14.131 59.9035 14.4957 60.2683L17.7781 63.5506C17.9604 63.733 18.2339 63.8241 18.4163 63.8241C18.6898 63.8241 18.8722 63.733 19.0545 63.5506L24.7987 57.8065C25.1634 57.4418 25.1634 56.8947 24.7987 56.5299C24.434 56.2564 23.887 56.2564 23.5222 56.6211Z" fill="url(#paint6_linear_536_30)"/>
<path d="M31.547 59.2659C31 59.2659 30.6353 59.6306 30.6353 60.1776C30.6353 60.7247 31 61.0894 31.547 61.0894H49.5092C50.0563 61.0894 50.421 60.7247 50.421 60.1776C50.421 59.6306 50.0563 59.2659 49.5092 59.2659H31.547Z" fill="url(#paint7_linear_536_30)"/>
<path d="M24.344 69.2943L19.2381 74.309L16.594 71.6649C16.2293 71.3002 15.6823 71.3002 15.3175 71.6649C14.9527 72.0296 14.9528 72.5767 15.3175 72.9415L18.5998 76.2238C18.7822 76.4062 19.0557 76.4973 19.2381 76.4973C19.5116 76.4973 19.694 76.4062 19.8763 76.2238L25.6205 70.4797C25.9852 70.115 25.9852 69.5679 25.6205 69.2031C25.2558 68.8384 24.7087 68.9296 24.344 69.2943Z" fill="url(#paint8_linear_536_30)"/>
<path d="M32.2755 71.8479C31.7285 71.8479 31.3638 72.2126 31.3638 72.7597C31.3638 73.3067 31.7285 73.6714 32.2755 73.6714H50.2377C50.7848 73.6714 51.1495 73.3067 51.1495 72.7597C51.1495 72.2126 50.7848 71.8479 50.2377 71.8479H32.2755Z" fill="url(#paint9_linear_536_30)"/>
<defs>
<linearGradient id="paint0_linear_536_30" x1="26.7139" y1="10.304" x2="37.1079" y2="10.304" gradientUnits="userSpaceOnUse">
<stop stop-color="#715126"/>
<stop offset="1" stop-color="#D0B672"/>
</linearGradient>
<linearGradient id="paint1_linear_536_30" x1="0" y1="46.5" x2="63.8233" y2="46.5" gradientUnits="userSpaceOnUse">
<stop stop-color="#715126"/>
<stop offset="1" stop-color="#D0B672"/>
</linearGradient>
<linearGradient id="paint2_linear_536_30" x1="12.5811" y1="34.8757" x2="23.4312" y2="34.8757" gradientUnits="userSpaceOnUse">
<stop stop-color="#715126"/>
<stop offset="1" stop-color="#D0B672"/>
</linearGradient>
<linearGradient id="paint3_linear_536_30" x1="28.9937" y1="34.9206" x2="48.7794" y2="34.9206" gradientUnits="userSpaceOnUse">
<stop stop-color="#715126"/>
<stop offset="1" stop-color="#D0B672"/>
</linearGradient>
<linearGradient id="paint4_linear_536_30" x1="13.4932" y1="47.5495" x2="24.3432" y2="47.5495" gradientUnits="userSpaceOnUse">
<stop stop-color="#715126"/>
<stop offset="1" stop-color="#D0B672"/>
</linearGradient>
<linearGradient id="paint5_linear_536_30" x1="29.814" y1="47.5031" x2="49.5997" y2="47.5031" gradientUnits="userSpaceOnUse">
<stop stop-color="#715126"/>
<stop offset="1" stop-color="#D0B672"/>
</linearGradient>
<linearGradient id="paint6_linear_536_30" x1="14.2222" y1="60.0796" x2="25.0722" y2="60.0796" gradientUnits="userSpaceOnUse">
<stop stop-color="#715126"/>
<stop offset="1" stop-color="#D0B672"/>
</linearGradient>
<linearGradient id="paint7_linear_536_30" x1="30.6353" y1="60.1776" x2="50.421" y2="60.1776" gradientUnits="userSpaceOnUse">
<stop stop-color="#715126"/>
<stop offset="1" stop-color="#D0B672"/>
</linearGradient>
<linearGradient id="paint8_linear_536_30" x1="15.0439" y1="72.7341" x2="25.894" y2="72.7341" gradientUnits="userSpaceOnUse">
<stop stop-color="#715126"/>
<stop offset="1" stop-color="#D0B672"/>
</linearGradient>
<linearGradient id="paint9_linear_536_30" x1="31.3638" y1="72.7597" x2="51.1495" y2="72.7597" gradientUnits="userSpaceOnUse">
<stop stop-color="#715126"/>
<stop offset="1" stop-color="#D0B672"/>
</linearGradient>
</defs>
</svg>
