<svg width="12" height="17" viewBox="0 0 12 17" fill="none" xmlns="http://www.w3.org/2000/svg">
<path fill-rule="evenodd" clip-rule="evenodd" d="M9.12433 7.74097C9.7403 6.96366 10.0318 5.99238 9.94136 5.01776C9.85095 4.04384 9.38611 3.13769 8.63722 2.47755C7.88901 1.81808 6.9114 1.45351 5.89742 1.45481C4.88405 1.45677 3.90772 1.8246 3.16159 2.48667C2.41473 3.14875 1.95325 4.05691 1.86622 5.03155C1.77986 6.00612 2.07469 6.97679 2.69337 7.75142C2.70012 7.75988 2.70619 7.769 2.71159 7.77811L4.84895 11.4036C4.85503 11.4114 4.85975 11.4199 4.8638 11.4283L5.89065 13.1698L9.0973 7.77752C9.10539 7.7645 9.11421 7.75204 9.12433 7.74097ZM10.4116 4.9911C10.5088 6.07243 10.1836 7.1505 9.50012 8.01246L7.51734 11.3476C7.85063 11.3978 8.18054 11.4668 8.50574 11.554C9.17973 11.7155 9.81056 12.0149 10.3536 12.4329C10.8178 12.8222 11.0513 13.2779 10.9905 13.7596V13.759C10.9824 13.8241 10.9689 13.8892 10.95 13.9523C10.7719 14.5617 10.1276 15.0831 9.2006 15.4451C8.14743 15.8272 7.02956 16.0147 5.90483 15.9991C5.15932 16.0017 4.4165 15.9242 3.68922 15.7673C3.06245 15.6397 2.45997 15.4171 1.90472 15.1079C1.85007 15.0773 1.81026 15.0265 1.79475 14.9673C1.77855 14.908 1.78867 14.8455 1.82173 14.7928C1.85479 14.7407 1.90809 14.7036 1.96949 14.6899C2.03156 14.6762 2.09633 14.6873 2.14963 14.7205C2.6617 15.0044 3.21629 15.2081 3.79448 15.3253C4.48669 15.4737 5.1951 15.5473 5.9049 15.5447C6.96886 15.5603 8.02672 15.3839 9.02398 15.0245C9.81741 14.7146 10.3612 14.2961 10.4968 13.8299C10.5089 13.7889 10.5177 13.7479 10.5231 13.7056C10.5636 13.3833 10.3895 13.0624 10.0461 12.7746V12.7753C9.55494 12.4016 8.9862 12.1347 8.379 11.9908C8.014 11.8925 7.64226 11.819 7.26646 11.7708L6.09455 13.74C6.05272 13.8103 5.97513 13.854 5.89079 13.854C5.80646 13.854 5.7282 13.8103 5.68637 13.74L4.52661 11.7733H4.52729C3.86611 11.8521 3.21977 12.0213 2.6072 12.2746C2.05195 12.5154 1.64848 12.8117 1.438 13.1326V13.1319C1.40561 13.1853 1.35299 13.2237 1.29092 13.2381C1.22885 13.253 1.1634 13.2426 1.1101 13.2101C1.05613 13.1769 1.01834 13.1248 1.00485 13.0642C0.992031 13.0043 1.00485 12.9412 1.04061 12.8904C1.30103 12.4926 1.77533 12.1378 2.41424 11.8605C3.0093 11.6118 3.63539 11.44 4.27698 11.3495L2.31095 8.01496C1.4467 6.92386 1.16469 5.50341 1.5506 4.18114C1.93652 2.85958 2.94448 1.78925 4.27227 1.29394C5.60006 0.79863 7.09169 0.93459 8.29932 1.66176C9.50699 2.38894 10.289 3.622 10.4111 4.99043L10.4116 4.9911ZM7.67784 5.36478C7.67784 6.18114 7.08009 6.88424 6.25024 7.04304C5.42106 7.20253 4.58987 6.77416 4.26608 6.01965C3.94291 5.26579 4.21615 4.39603 4.91915 3.94225C5.62283 3.48849 6.56063 3.57768 7.15842 4.15512C7.49171 4.47542 7.67852 4.91104 7.67784 5.36478ZM7.49164 3.83295C8.24929 4.56274 8.36669 5.70787 7.7723 6.56716C7.17792 7.42645 6.03702 7.76112 5.04805 7.36595C4.05897 6.97144 3.4963 5.95717 3.70478 4.94357C3.91258 3.9306 4.83419 3.20015 5.90484 3.19948C6.4999 3.19883 7.07064 3.42672 7.49164 3.83295Z" fill="url(#paint0_linear_399_1233)" stroke="url(#paint1_linear_399_1233)"/>
<defs>
<linearGradient id="paint0_linear_399_1233" x1="1" y1="8.5" x2="11" y2="8.5" gradientUnits="userSpaceOnUse">
<stop stop-color="#715126"/>
<stop offset="1" stop-color="#D0B672"/>
</linearGradient>
<linearGradient id="paint1_linear_399_1233" x1="1" y1="8.5" x2="11" y2="8.5" gradientUnits="userSpaceOnUse">
<stop stop-color="#715126"/>
<stop offset="1" stop-color="#D0B672"/>
</linearGradient>
</defs>
</svg>
