<svg width="35" height="12" viewBox="0 0 35 12" fill="none" xmlns="http://www.w3.org/2000/svg">
<path d="M6.74469 6.20117C5.82629 6.20117 5.0791 6.94815 5.0791 7.86676C5.0791 8.78494 5.82629 9.53192 6.74469 9.53192C7.66308 9.53192 8.41006 8.78494 8.41006 7.86676C8.41006 6.94815 7.66308 6.20117 6.74469 6.20117ZM6.74469 8.87778C6.18701 8.87778 5.73324 8.42422 5.73324 7.86676C5.73324 7.30887 6.18701 6.85531 6.74469 6.85531C7.30237 6.85531 7.75592 7.30887 7.75592 7.86676C7.75592 8.42422 7.30237 8.87778 6.74469 8.87778Z" fill="white"/>
<path d="M27.2085 6.20117C26.2899 6.20117 25.5425 6.94815 25.5425 7.86676C25.5425 8.78494 26.2899 9.53192 27.2085 9.53192C28.1271 9.53192 28.8741 8.78494 28.8741 7.86676C28.8741 6.94815 28.1271 6.20117 27.2085 6.20117ZM27.2085 8.87778C26.6506 8.87778 26.1966 8.42422 26.1966 7.86676C26.1966 7.30887 26.6506 6.85531 27.2085 6.85531C27.7664 6.85531 28.2199 7.30887 28.2199 7.86676C28.2199 8.42422 27.7664 8.87778 27.2085 8.87778Z" fill="white"/>
<path d="M35 6.18624L34.9744 5.83554C34.8914 4.68632 34.6167 4.10139 34.6154 4.10075C34.6154 4.10075 34.5975 4.05071 34.5481 3.96596C34.5473 3.96489 34.5464 3.9634 34.5456 3.96213L34.4536 3.80413H34.4366C34.2215 3.52156 33.7863 3.11933 32.9175 2.79801C32.4856 2.63788 31.9831 2.51331 31.4231 2.42771C29.2827 2.10085 27.3096 2.13556 26.1312 2.15664C25.8889 2.1609 25.6781 2.16473 25.5031 2.16473H25.4562C25.0401 2.16793 24.2616 2.2169 23.0083 2.3189L23.0798 1.93093C23.0918 1.86172 23.0969 1.79486 23.0969 1.72779C23.0969 1.17458 22.7017 0.700371 22.157 0.600079C21.5348 0.485732 20.9356 0.899893 20.8223 1.5206L20.6328 2.54695C19.2547 2.77884 16.3617 3.17256 14.7136 3.05608L18.0175 1.66646C18.4578 1.48057 18.6657 0.971439 18.4804 0.5313C18.3906 0.317299 18.2223 0.151422 18.0068 0.0641183C17.7922 -0.0231855 17.5569 -0.0210561 17.3453 0.0688029L11.574 2.4967C11.5489 2.50735 11.5291 2.52396 11.5057 2.53652C9.44021 2.55632 6.25575 2.9477 3.83467 3.76814L3.83318 3.76112L3.47247 3.89463C1.83627 4.50022 0.797138 5.24443 0.383829 6.10661L0.356786 6.1624L0.175151 6.5329L0.209008 6.54057C0.042705 7.0316 -0.16214 7.90123 0.206027 8.49873C0.350611 8.73339 0.64574 9.01702 1.24132 9.03576H3.79421C4.26118 10.2095 5.40657 11.0429 6.74508 11.0429C8.08339 11.0429 9.22856 10.2095 9.69553 9.03576H24.2574C24.7246 10.2095 25.8697 11.0429 27.2082 11.0429C28.5463 11.0429 29.6915 10.2095 30.1587 9.03576H32.6683C33.4328 9.03576 34.9008 8.62351 34.9825 7.06269C34.9979 6.76543 34.9962 6.47371 34.9872 6.18624H35ZM34.2884 5.53189H33.5333C33.2369 5.53189 32.9954 5.29127 32.9954 4.99529C32.9954 4.85241 33.0516 4.71699 33.1517 4.61627C33.2543 4.51427 33.3898 4.45827 33.5333 4.45827H34.0537C34.0575 4.46828 34.0622 4.48361 34.0661 4.49489C34.0763 4.52385 34.0869 4.55558 34.0989 4.59412C34.1048 4.6135 34.1112 4.63777 34.1176 4.65949C34.1299 4.70272 34.1427 4.75084 34.1563 4.80344C34.1627 4.83005 34.1695 4.85816 34.1764 4.88712C34.1908 4.94972 34.2053 5.01935 34.2194 5.09282C34.2245 5.12071 34.23 5.14669 34.2351 5.17608C34.2543 5.28446 34.2726 5.40157 34.2884 5.53189ZM31.0901 3.04288C28.3304 3.40083 26.9727 3.14339 26.3067 2.80801C27.4327 2.78885 29.1864 2.77479 31.0901 3.04288ZM22.039 1.24357C22.2728 1.28658 22.4427 1.49015 22.4427 1.72779C22.4427 1.75909 22.4402 1.79018 22.4359 1.81743L22.3333 2.37533C21.9338 2.41025 21.5769 2.44283 21.3129 2.46753L21.4658 1.63878C21.5143 1.37197 21.7737 1.19353 22.039 1.24357ZM20.9424 3.15936L21.0804 3.14637C21.3593 3.11996 21.9581 3.06354 22.6348 3.00562L22.7532 2.99604C22.9589 4.2217 22.987 6.67174 20.5404 8.38162H13.4266C12.2795 6.35446 13.0135 4.54302 13.6591 3.52795C15.3647 4.10799 20.356 3.26072 20.9424 3.15936ZM17.6001 0.671199C17.6515 0.649054 17.7081 0.648841 17.7611 0.670347C17.8141 0.691854 17.8554 0.732525 17.8774 0.784694C17.923 0.892866 17.8714 1.01807 17.7632 1.06364L13.6434 2.79651C13.559 2.74371 13.3889 2.66577 12.9948 2.6087L17.6001 0.671199ZM1.65293 5.59066C1.72 5.53615 1.79091 5.48206 1.86608 5.42883C1.89567 5.40754 1.92463 5.38667 1.9553 5.3658C2.05921 5.29553 2.16781 5.22569 2.28556 5.15755C2.28961 5.15499 2.29429 5.15287 2.29834 5.15052C2.41311 5.08409 2.53619 5.01914 2.66395 4.95483C2.70143 4.93588 2.74061 4.91736 2.77915 4.89862C2.88498 4.8473 2.99485 4.79684 3.10898 4.74722C3.14476 4.73146 3.17947 4.71571 3.21609 4.70016C3.23483 4.69228 3.25548 4.68483 3.27422 4.67717C3.15647 5.47142 2.25532 6.08957 1.1949 6.04869C1.23259 6.00099 1.26964 5.95308 1.31287 5.90581C1.3233 5.89473 1.33203 5.88281 1.34268 5.87174C1.41316 5.79764 1.49216 5.72481 1.57691 5.65241C1.60097 5.63155 1.62738 5.6111 1.65293 5.59066ZM6.74508 10.3888C5.35418 10.3888 4.22264 9.25721 4.22264 7.86674C4.22264 6.47584 5.35418 5.34408 6.74508 5.34408C8.13577 5.34408 9.2671 6.47584 9.2671 7.86674C9.2671 9.25721 8.13577 10.3888 6.74508 10.3888ZM6.74508 4.68973C4.99347 4.68973 3.5685 6.11512 3.5685 7.86674C3.5685 8.0422 3.5866 8.2134 3.61407 8.38162H1.25176C0.932352 8.37182 0.819709 8.24789 0.762855 8.15548C0.557372 7.82202 0.677042 7.15638 0.854204 6.67259C0.996659 6.69175 1.13996 6.70496 1.28391 6.70496C2.74955 6.70496 3.94199 5.71544 3.94199 4.49915C3.94199 4.47488 3.93582 4.4506 3.93496 4.42611C6.32751 3.59226 9.54839 3.19939 11.5924 3.18938C12.3215 3.18129 12.7797 3.2275 13.0412 3.27839C12.3738 4.36117 11.6409 6.24544 12.683 8.38162H9.87567C9.90314 8.2134 9.92124 8.0422 9.92124 7.86674C9.92124 6.11512 8.49648 4.68973 6.74508 4.68973ZM27.2082 10.3888C25.8173 10.3888 24.6858 9.25721 24.6858 7.86674C24.6858 6.47584 25.8173 5.34408 27.2082 5.34408C28.5987 5.34408 29.7303 6.47584 29.7303 7.86674C29.7303 9.25721 28.5987 10.3888 27.2082 10.3888ZM34.3293 7.02905C34.2594 8.35734 32.7322 8.38119 32.6683 8.38162H30.3388C30.3665 8.2134 30.3844 8.0422 30.3844 7.86674C30.3844 6.11512 28.9594 4.68973 27.2082 4.68973C25.4566 4.68973 24.0317 6.11512 24.0317 7.86674C24.0317 8.0422 24.0495 8.2134 24.0772 8.38162H21.5816C23.6399 6.50735 23.5794 4.07775 23.4056 2.94344C24.2914 2.8736 24.9175 2.83335 25.2982 2.82207C25.8314 3.52007 26.9646 3.87418 28.7018 3.87418C29.8124 3.87418 31.1714 3.72896 32.7654 3.44256C33.0704 3.56138 33.308 3.6885 33.4847 3.80881C33.1858 3.82095 32.9051 3.93934 32.6892 4.15356C32.4648 4.37969 32.3413 4.67866 32.3413 4.99529C32.3413 5.65199 32.8762 6.18624 33.5333 6.18624H34.3331C34.3425 6.46221 34.3437 6.74243 34.3293 7.02905Z" fill="white"/>
<path d="M21.9202 4.10742H20.106V4.76156H21.9202V4.10742Z" fill="white"/>
</svg>
