<svg width="18" height="24" viewBox="0 0 18 24" fill="none" xmlns="http://www.w3.org/2000/svg">
<path d="M16.2176 16.57L13.0613 15.455C13.0451 15.399 13.0153 15.3479 12.9745 15.3063L12.114 14.4468C12.0438 14.3767 11.9599 14.3217 11.8675 14.2853C11.7751 14.2489 11.6763 14.2318 11.577 14.2352V13.5365C12.1859 13.1518 12.6981 12.6324 13.0743 12.0182C13.3165 11.6251 13.5011 11.1991 13.6223 10.7535C13.7327 10.341 13.7884 9.91583 13.788 9.48883C13.788 6.42438 13.788 6.4723 13.78 6.34652C13.7784 6.297 13.7666 6.24834 13.7453 6.20356C13.7241 6.15878 13.694 6.11883 13.6567 6.08617C13.6194 6.05351 13.5758 6.02885 13.5287 6.0137C13.4815 5.99855 13.4317 5.99324 13.3824 5.9981C13.3331 6.00295 13.2853 6.01787 13.242 6.04193C13.1986 6.06599 13.1607 6.09868 13.1305 6.13798C13.1003 6.17728 13.0785 6.22235 13.0665 6.27041C13.0544 6.31847 13.0523 6.3685 13.0603 6.4174C13.0683 6.49925 13.0603 6.57012 13.0603 9.48883C13.0688 10.0341 12.9688 10.5756 12.766 11.0818C12.5632 11.588 12.2617 12.0489 11.8791 12.4375C11.4966 12.8261 11.0405 13.1347 10.5375 13.3453C10.0345 13.556 9.49461 13.6644 8.94928 13.6644C8.40395 13.6644 7.86407 13.556 7.36108 13.3453C6.85808 13.1347 6.402 12.8261 6.01942 12.4375C5.63683 12.0489 5.33536 11.588 5.13258 11.0818C4.92979 10.5756 4.82974 10.0341 4.83823 9.48883C4.83823 8.68029 4.82925 8.0684 4.82625 7.5713C4.8237 7.2911 4.88518 7.01402 5.00602 6.7612C5.12685 6.50838 5.30384 6.2865 5.52349 6.1125C5.74313 5.9385 5.99962 5.81698 6.27338 5.7572C6.54715 5.69742 6.83095 5.70097 7.10313 5.76757C8.77809 6.16685 9.45187 7.21395 11.595 7.11413C11.6908 7.10963 11.7809 7.06725 11.8455 6.9963C11.9101 6.92535 11.9439 6.83165 11.9394 6.73582C11.9349 6.63998 11.8925 6.54986 11.8215 6.48528C11.7506 6.4207 11.6569 6.38694 11.561 6.39144C9.61957 6.48228 9.09851 5.50405 7.26883 5.06485C6.89007 4.97362 6.4955 4.96995 6.11512 5.05414C5.73474 5.13832 5.37856 5.30813 5.07367 5.55066C4.76878 5.79318 4.52321 6.10204 4.35562 6.45374C4.18804 6.80544 4.10286 7.19072 4.10656 7.58029C4.10656 7.94163 4.11354 8.37884 4.11654 8.90389C3.99497 8.84139 3.89289 8.74672 3.82143 8.6302C3.74997 8.51368 3.71187 8.37978 3.71127 8.24309V3.84007C3.71154 3.61247 3.80207 3.39428 3.963 3.23335C4.12393 3.07241 4.34213 2.98189 4.56972 2.98162C4.64185 2.98164 4.71235 2.96008 4.77212 2.91969C4.83189 2.87931 4.87821 2.82196 4.90511 2.75503C5.14324 2.15388 5.557 1.63843 6.09242 1.2759C6.62784 0.913377 7.26007 0.720602 7.90667 0.722716H10.9851C11.8475 0.723772 12.6744 1.06685 13.2842 1.67669C13.8941 2.28654 14.2371 3.11337 14.2382 3.97582V8.24309C14.2382 8.33892 14.2763 8.43083 14.344 8.4986C14.4118 8.56636 14.5037 8.60443 14.5995 8.60443C14.6954 8.60443 14.7873 8.56636 14.8551 8.4986C14.9228 8.43083 14.9609 8.33892 14.9609 8.24309V3.97582C14.9596 2.92178 14.5403 1.91129 13.7949 1.16597C13.0496 0.420647 12.0391 0.00134619 10.9851 2.5501e-05H7.90667C7.15421 -0.00268336 6.41675 0.210474 5.78177 0.614216C5.14678 1.01796 4.64092 1.59535 4.32416 2.2779C3.95163 2.33635 3.61216 2.52578 3.36679 2.81213C3.12143 3.09848 2.98626 3.46297 2.98559 3.84007V8.24309C2.98719 8.57422 3.10007 8.8952 3.30609 9.15445C3.51212 9.4137 3.79931 9.59615 4.12153 9.6725C4.13151 9.6725 4.14649 10.0199 4.15048 10.0548C4.16578 10.1826 4.18575 10.3093 4.21037 10.4351C4.25934 10.6834 4.3281 10.9274 4.416 11.1648C4.58837 11.6319 4.8318 12.0696 5.13769 12.4624C5.44127 12.8522 5.80203 13.1938 6.20775 13.4756C6.26065 13.5115 6.31955 13.5385 6.37445 13.5754V14.2422C6.27505 14.2387 6.17601 14.2557 6.08345 14.2921C5.9909 14.3285 5.90682 14.3836 5.83642 14.4538L4.97598 15.3133C4.93497 15.3551 4.90511 15.4066 4.88914 15.463L2.20101 16.4113L1.50228 16.6718C1.05402 16.8816 0.67471 17.2146 0.408687 17.6319C0.142664 18.0492 0.000913287 18.5336 0 19.0285V23.6102C0.00923033 23.6965 0.050016 23.7762 0.114511 23.8342C0.179006 23.8921 0.262655 23.9242 0.349367 23.9242C0.436078 23.9242 0.519727 23.8921 0.584222 23.8342C0.648718 23.7762 0.689503 23.6965 0.698734 23.6102V19.0285C0.699135 18.7997 0.740723 18.5728 0.821511 18.3588L2.59629 19.874C2.72189 19.982 2.82262 20.1159 2.89154 20.2665C2.96047 20.4171 2.99596 20.5808 2.99557 20.7464V23.6042C2.99032 23.6533 2.99545 23.7028 3.01062 23.7497C3.02578 23.7966 3.05065 23.8398 3.0836 23.8765C3.11655 23.9132 3.15685 23.9425 3.20187 23.9626C3.2469 23.9826 3.29564 23.993 3.34494 23.993C3.39423 23.993 3.44298 23.9826 3.48801 23.9626C3.53303 23.9425 3.57333 23.9132 3.60628 23.8765C3.63923 23.8398 3.6641 23.7966 3.67926 23.7497C3.69443 23.7028 3.69955 23.6533 3.6943 23.6042V20.7464C3.69441 20.4794 3.63674 20.2156 3.52526 19.973C3.41378 19.7304 3.25113 19.5148 3.04848 19.341L1.18885 17.7469C1.4 17.5137 1.66585 17.3367 1.96244 17.2318L5.09077 16.1278L6.19777 18.6233C6.24298 18.7262 6.31168 18.8171 6.39835 18.8887C6.48502 18.9603 6.58726 19.0106 6.69686 19.0355C6.75149 19.0485 6.80742 19.0552 6.86356 19.0555C7.03292 19.0551 7.19679 18.9954 7.32672 18.8868L7.6671 18.6023L7.71701 18.752C7.77752 18.9322 7.8834 19.0938 8.02446 19.2212L7.30476 23.5513C7.29089 23.6424 7.31336 23.7353 7.36732 23.81C7.42127 23.8847 7.50241 23.9352 7.59324 23.9506C7.61251 23.9521 7.63186 23.9521 7.65113 23.9506C7.7342 23.9504 7.8145 23.9208 7.87788 23.8671C7.94125 23.8134 7.98362 23.739 7.99751 23.6572L8.68925 19.4927C8.71321 19.4927 8.73717 19.4927 8.76112 19.4927H9.18036C9.20432 19.4927 9.22728 19.4927 9.25123 19.4927L9.94997 23.6572C9.96345 23.7391 10.0056 23.8135 10.0688 23.8672C10.1321 23.921 10.2123 23.9505 10.2953 23.9506C10.3146 23.9521 10.334 23.9521 10.3532 23.9506C10.4442 23.9354 10.5255 23.885 10.5795 23.8102C10.6335 23.7355 10.6558 23.6425 10.6417 23.5513L9.91803 19.2222C10.0603 19.095 10.1669 18.933 10.2275 18.752L10.2764 18.6033L10.6178 18.8868C10.747 18.996 10.9108 19.0557 11.0799 19.0555C11.2207 19.0559 11.3586 19.0153 11.4768 18.9387C11.595 18.8622 11.6885 18.7529 11.7457 18.6243L12.161 17.689L12.2777 17.4274L12.8477 16.1298L15.981 17.2368C16.2772 17.3415 16.5426 17.5182 16.7536 17.7509L14.894 19.348C14.6911 19.5216 14.5282 19.7371 14.4165 19.9798C14.3048 20.2224 14.2471 20.4863 14.2472 20.7534V23.6112C14.2419 23.6603 14.2471 23.7098 14.2622 23.7567C14.2774 23.8036 14.3023 23.8468 14.3352 23.8835C14.3682 23.9202 14.4085 23.9495 14.4535 23.9696C14.4985 23.9896 14.5473 24 14.5965 24C14.6458 24 14.6946 23.9896 14.7396 23.9696C14.7846 23.9495 14.8249 23.9202 14.8579 23.8835C14.8908 23.8468 14.9157 23.8036 14.9309 23.7567C14.946 23.7098 14.9512 23.6603 14.9459 23.6112V20.7474C14.9457 20.5818 14.9813 20.4182 15.0502 20.2676C15.1191 20.117 15.2197 19.9831 15.3452 19.875L17.12 18.3548C17.2013 18.5687 17.2429 18.7957 17.2428 19.0245V23.6052C17.2375 23.6543 17.2426 23.7038 17.2578 23.7507C17.273 23.7976 17.2978 23.8408 17.3308 23.8775C17.3637 23.9142 17.404 23.9435 17.4491 23.9636C17.4941 23.9836 17.5428 23.994 17.5921 23.994C17.6414 23.994 17.6902 23.9836 17.7352 23.9636C17.7802 23.9435 17.8205 23.9142 17.8535 23.8775C17.8864 23.8408 17.9113 23.7976 17.9264 23.7507C17.9416 23.7038 17.9467 23.6543 17.9415 23.6052V19.0245C17.9421 18.4876 17.7768 17.9637 17.4682 17.5243C17.1596 17.0849 16.7229 16.7516 16.2176 16.57ZM9.81122 14.2512C10.1779 14.1808 10.535 14.0676 10.8753 13.9138V14.6595L8.97474 16.56L7.07817 14.6635V13.9338C7.50444 14.1202 7.95521 14.2445 8.41675 14.3031C8.88149 14.3552 9.35139 14.3384 9.81122 14.2532V14.2512ZM6.87853 18.3448C6.87522 18.3462 6.87165 18.3469 6.86805 18.3469C6.86445 18.3469 6.86089 18.3462 6.85757 18.3448C6.8538 18.3441 6.85027 18.3424 6.84731 18.34C6.84434 18.3375 6.84204 18.3344 6.8406 18.3308L5.64277 15.6287L6.33252 14.939C6.33714 14.9347 6.3432 14.9323 6.34949 14.9323C6.35579 14.9323 6.36185 14.9347 6.36646 14.939L8.45468 17.0282L6.87853 18.3448ZM9.55968 18.5264C9.53328 18.606 9.48255 18.6752 9.41465 18.7243C9.34676 18.7733 9.26514 18.7998 9.18136 18.8H8.76212C8.67834 18.7998 8.59672 18.7733 8.52883 18.7243C8.46093 18.6752 8.4102 18.606 8.38381 18.5264L8.24705 18.1172L8.97174 17.5183L9.69643 18.1172L9.55968 18.5264ZM11.5261 17.3865L11.1029 18.3358C11.1019 18.3395 11.0999 18.3427 11.097 18.3452C11.0942 18.3477 11.0907 18.3493 11.0869 18.3498C11.0837 18.3515 11.0801 18.3524 11.0764 18.3524C11.0728 18.3524 11.0692 18.3515 11.0659 18.3498L9.4918 17.0381L11.581 14.9499C11.5832 14.9476 11.5858 14.9457 11.5887 14.9444C11.5916 14.9431 11.5948 14.9424 11.598 14.9424C11.6012 14.9424 11.6043 14.9431 11.6073 14.9444C11.6102 14.9457 11.6128 14.9476 11.615 14.9499L12.3047 15.6397L11.5261 17.3865Z" fill="white"/>
</svg>
