<svg width="22" height="17" viewBox="0 0 22 17" fill="none" xmlns="http://www.w3.org/2000/svg">
<path fill-rule="evenodd" clip-rule="evenodd" d="M2.8107 11.7469L2.81425 11.7763H0.024192L0.00287838 11.553H0.0145501C-0.0748456 9.81927 0.248655 8.08906 0.958441 6.50473L3.3816 7.90382C2.91556 9.05052 2.71551 10.2879 2.79649 11.5231L2.8107 11.7469ZM1.16397 6.06019L1.24618 5.8841L1.25633 5.89019C2.10671 4.27329 3.34464 2.89239 4.85935 1.87104L6.25337 4.28608C5.16691 5.05568 4.28251 6.07641 3.67543 7.26136L3.57799 7.45166L3.57749 7.45369L1.16397 6.06019ZM5.26583 1.60157L5.35616 1.54169L5.36174 1.55184C6.99446 0.57456 8.8537 0.0397012 10.7561 0V2.78093C9.34182 2.82254 7.97013 3.22395 6.7583 3.95572L6.65934 4.0156L5.26583 1.60157ZM11.2443 0.000507432C13.1465 0.0399657 15.0055 0.574471 16.6382 1.55133L16.6433 1.54169L16.7346 1.60157L15.3411 4.01458L15.2422 3.9547C14.0333 3.22463 12.656 2.82007 11.2443 2.78042V0.000507432ZM2.87819 12.2655C3.03368 13.2663 3.37443 14.2294 3.88298 15.1053L4.11845 15.5113L1.70797 16.9033L1.47352 16.4983C0.721414 15.1986 0.244989 13.7579 0.0739239 12.266L2.87819 12.2655ZM17.1411 1.87104C18.6556 2.89246 19.8934 4.27334 20.7436 5.89019L20.7538 5.8841L20.836 6.06019L18.4225 7.45369L18.4219 7.45217L18.3245 7.26136C17.7176 6.07616 16.8332 5.05523 15.7466 4.28557L17.1411 1.87104ZM21.042 6.50422C21.7516 8.08877 22.075 9.81914 21.9854 11.553H21.9976L21.9757 11.7763H19.1862L19.1892 11.7469L19.2034 11.5236C19.2838 10.2884 19.0836 9.0511 18.6178 7.90433L21.042 6.50422ZM21.9265 12.265C21.7555 13.7571 21.2791 15.1979 20.5269 16.4978L20.293 16.9028L17.8861 15.5128L18.1205 15.1073C18.6279 14.2304 18.9678 13.2667 19.1228 12.2655L21.9265 12.265Z" fill="url(#paint0_linear_169_325)"/>
<path d="M11.0002 13.6707C11.9114 13.6707 12.65 12.932 12.65 12.0209C12.65 11.1097 11.9114 10.3711 11.0002 10.3711C10.0891 10.3711 9.35046 11.1097 9.35046 12.0209C9.35046 12.932 10.0891 13.6707 11.0002 13.6707Z" fill="url(#paint1_linear_169_325)"/>
<path fill-rule="evenodd" clip-rule="evenodd" d="M13.1143 12.3441L17.949 8.00879L11.7772 10.0275C12.2301 10.2042 12.6093 10.53 12.8524 10.9511C13.0955 11.3722 13.1878 11.8635 13.1143 12.3441Z" fill="url(#paint2_linear_169_325)"/>
<defs>
<linearGradient id="paint0_linear_169_325" x1="0" y1="8.45163" x2="22" y2="8.45163" gradientUnits="userSpaceOnUse">
<stop stop-color="#715126"/>
<stop offset="1" stop-color="#D0B672"/>
</linearGradient>
<linearGradient id="paint1_linear_169_325" x1="9.35046" y1="12.0209" x2="12.65" y2="12.0209" gradientUnits="userSpaceOnUse">
<stop stop-color="#715126"/>
<stop offset="1" stop-color="#D0B672"/>
</linearGradient>
<linearGradient id="paint2_linear_169_325" x1="11.7772" y1="10.1764" x2="17.949" y2="10.1764" gradientUnits="userSpaceOnUse">
<stop stop-color="#715126"/>
<stop offset="1" stop-color="#D0B672"/>
</linearGradient>
</defs>
</svg>
