<svg width="53" height="55" viewBox="0 0 53 55" fill="none" xmlns="http://www.w3.org/2000/svg">
<path d="M51.6474 32.46V29.3494C51.6474 29.1284 51.5609 28.9165 51.4069 28.7602C51.2529 28.6039 51.044 28.516 50.8262 28.5159H38.9549C38.9769 28.1077 38.9946 27.6838 39.0079 27.2441H43.608C43.8259 27.2441 44.035 27.1563 44.1891 27C44.3432 26.8436 44.4298 26.6316 44.4298 26.4105C44.4298 26.1895 44.3432 25.9775 44.1891 25.8211C44.035 25.6648 43.8259 25.577 43.608 25.577H39.0409C39.0466 25.0567 39.0498 24.5147 39.0506 23.9509H47.3527C47.5432 24.4241 47.8898 24.8156 48.3334 25.0583C48.7769 25.3009 49.2898 25.3798 49.7843 25.2813C50.2788 25.1829 50.7242 24.9133 51.0444 24.5185C51.3646 24.1238 51.5397 23.6285 51.5397 23.1173C51.5397 22.6062 51.3646 22.1109 51.0444 21.7161C50.7242 21.3214 50.2788 21.0518 49.7843 20.9533C49.2898 20.8549 48.7769 20.9337 48.3334 21.1764C47.8898 21.4191 47.5432 21.8105 47.3527 22.2838H39.05C39.05 22.1155 39.05 21.9467 39.05 21.7751C39.05 20.9594 39.05 20.079 39.05 19.1495H40.8167C40.9264 19.1524 41.0355 19.1331 41.1377 19.0925C41.2399 19.0519 41.3331 18.991 41.4117 18.9134C41.4903 18.8357 41.5528 18.7428 41.5955 18.6403C41.6381 18.5377 41.6601 18.4275 41.6601 18.3162C41.6601 18.2049 41.6381 18.0947 41.5955 17.9922C41.5528 17.8896 41.4903 17.7968 41.4117 17.7191C41.3331 17.6414 41.2399 17.5805 41.1377 17.54C41.0355 17.4994 40.9264 17.48 40.8167 17.483H39.0546C39.0546 17.3523 39.0546 17.2222 39.0546 17.0904C39.0563 16.8744 38.9752 16.6662 38.8285 16.5096C38.6818 16.3531 38.4809 16.2604 38.2682 16.2511C37.7816 16.2292 37.2996 16.1461 36.8332 16.0037V9.12012C36.8332 8.89905 36.7466 8.68703 36.5925 8.5307C36.4384 8.37438 36.2294 8.28656 36.0114 8.28656H34.5855C34.3951 7.81325 34.0485 7.42176 33.605 7.17901C33.1615 6.93627 32.6486 6.85736 32.154 6.95578C31.6595 7.0542 31.214 7.32384 30.8938 7.71857C30.5736 8.11331 30.3985 8.60863 30.3985 9.11983C30.3985 9.63103 30.5736 10.1264 30.8938 10.5211C31.214 10.9158 31.6595 11.1855 32.154 11.2839C32.6486 11.3823 33.1615 11.3034 33.605 11.0607C34.0485 10.8179 34.3951 10.4264 34.5855 9.95311H35.1925V15.2672C33.8043 14.3672 32.5137 13.3209 31.3423 12.1457C31.1144 11.9318 30.883 11.7179 30.6528 11.5069C30.5018 11.3679 30.305 11.291 30.1011 11.2913H29.4891V3.31117H31.7321C31.9226 3.78447 32.2692 4.17597 32.7127 4.41871C33.1562 4.66146 33.6691 4.74037 34.1636 4.64195C34.6582 4.54353 35.1037 4.27389 35.4239 3.87915C35.7441 3.48442 35.9192 2.98909 35.9192 2.47789C35.9192 1.9667 35.7441 1.47137 35.4239 1.07664C35.1037 0.681898 34.6582 0.412264 34.1636 0.313844C33.6691 0.215425 33.1562 0.294333 32.7127 0.537076C32.2692 0.779818 31.9226 1.17132 31.7321 1.64462H28.6656C28.4476 1.64462 28.2386 1.73244 28.0845 1.88876C27.9304 2.04509 27.8438 2.25711 27.8438 2.47818V11.289H26.59V9.79934C26.59 9.57827 26.5035 9.36625 26.3494 9.20993C26.1952 9.0536 25.9862 8.96578 25.7683 8.96578C25.5503 8.96578 25.3413 9.0536 25.1872 9.20993C25.0331 9.36625 24.9465 9.57827 24.9465 9.79934V11.289H23.3434V6.0009C23.81 5.80768 24.1959 5.45607 24.4351 5.00618C24.6744 4.55629 24.7521 4.03606 24.655 3.53446C24.558 3.03286 24.2921 2.58103 23.903 2.25625C23.5139 1.93146 23.0256 1.75389 22.5216 1.75389C22.0177 1.75389 21.5294 1.93146 21.1402 2.25625C20.7511 2.58103 20.4853 3.03286 20.3882 3.53446C20.2912 4.03606 20.3689 4.55629 20.6081 5.00618C20.8474 5.45607 21.2333 5.80768 21.6998 6.0009V12.1041L21.6577 12.1428C20.6989 13.0774 19.6808 13.9473 18.6099 14.747V12.6313C18.6128 12.52 18.5937 12.4093 18.5537 12.3056C18.5137 12.2019 18.4537 12.1075 18.3771 12.0277C18.3006 11.948 18.209 11.8846 18.1079 11.8413C18.0068 11.7981 17.8982 11.7758 17.7884 11.7758C17.6787 11.7758 17.5701 11.7981 17.469 11.8413C17.3679 11.8846 17.2763 11.948 17.1997 12.0277C17.1232 12.1075 17.0631 12.2019 17.0231 12.3056C16.9832 12.4093 16.9641 12.52 16.9669 12.6313V15.7019C16.2614 16.0254 15.5023 16.2117 14.729 16.2511C14.5907 16.2571 14.4561 16.2986 14.3379 16.3716C14.2196 16.4445 14.1214 16.5467 14.0525 16.6685H8.7224C8.50445 16.6685 8.29543 16.7563 8.14131 16.9126C7.9872 17.0689 7.90062 17.281 7.90062 17.502V18.9512C7.43401 19.1444 7.04805 19.496 6.80875 19.9459C6.56944 20.3958 6.49164 20.916 6.58867 21.4176C6.6857 21.9193 6.95152 22.3711 7.34067 22.6959C7.72983 23.0208 8.21814 23.1984 8.72211 23.1984C9.22608 23.1984 9.7144 23.0208 10.1036 22.6959C10.4927 22.3711 10.7585 21.9193 10.8556 21.4176C10.9526 20.916 10.8748 20.3958 10.6355 19.9459C10.3962 19.496 10.0102 19.1444 9.5436 18.9512V18.3356H13.95C13.95 19.1946 13.95 20.0149 13.95 20.79H13.0621C12.9524 20.7871 12.8432 20.8065 12.741 20.8471C12.6388 20.8876 12.5457 20.9485 12.4671 21.0262C12.3884 21.1039 12.326 21.1967 12.2833 21.2993C12.2406 21.4018 12.2187 21.512 12.2187 21.6233C12.2187 21.7346 12.2406 21.8448 12.2833 21.9474C12.326 22.0499 12.3884 22.1428 12.4671 22.2205C12.5457 22.2981 12.6388 22.359 12.741 22.3996C12.8432 22.4401 12.9524 22.4595 13.0621 22.4566H13.95C13.95 23.0347 13.95 23.5894 13.95 24.1208H2.99561V21.8456C3.46222 21.6524 3.84818 21.3008 4.08749 20.851C4.3268 20.4011 4.40459 19.8808 4.30756 19.3792C4.21053 18.8776 3.94471 18.4257 3.55556 18.1009C3.1664 17.7761 2.67809 17.5985 2.17412 17.5985C1.67015 17.5985 1.18184 17.7761 0.792681 18.1009C0.403526 18.4257 0.137705 18.8776 0.0406777 19.3792C-0.0563499 19.8808 0.0214425 20.4011 0.260752 20.851C0.500061 21.3008 0.886021 21.6524 1.35263 21.8456V24.9561C1.35263 25.1772 1.43921 25.3892 1.59332 25.5456C1.74743 25.7019 1.95646 25.7897 2.1744 25.7897H13.9625C13.9682 26.229 13.9766 26.6529 13.9876 27.0614H9.39201C9.17789 27.0672 8.97442 27.1575 8.82497 27.3131C8.67551 27.4688 8.59188 27.6775 8.59188 27.8947C8.59188 28.112 8.67551 28.3207 8.82497 28.4763C8.97442 28.632 9.17789 28.7223 9.39201 28.728H14.0565C14.0907 29.3014 14.1357 29.8419 14.1944 30.3541H5.64615C5.45567 29.8808 5.10903 29.4894 4.6655 29.2467C4.22197 29.004 3.70911 28.9252 3.2146 29.0236C2.72009 29.1221 2.27466 29.3917 1.95447 29.7865C1.63427 30.1812 1.45921 30.6765 1.45921 31.1877C1.45921 31.6988 1.63427 32.1941 1.95447 32.5889C2.27466 32.9836 2.72009 33.2532 3.2146 33.3517C3.70911 33.4501 4.22197 33.3713 4.6655 33.1286C5.10903 32.8859 5.45567 32.4945 5.64615 32.0212H14.4555C14.6302 32.9163 14.9233 33.7833 15.3268 34.5988C15.4244 34.7915 15.5272 34.9771 15.6351 35.1555H12.1839C12.0742 35.1525 11.965 35.1719 11.8628 35.2125C11.7606 35.253 11.6675 35.314 11.5889 35.3916C11.5103 35.4693 11.4478 35.5621 11.4051 35.6647C11.3625 35.7673 11.3405 35.8774 11.3405 35.9888C11.3405 36.1001 11.3625 36.2103 11.4051 36.3128C11.4478 36.4154 11.5103 36.5082 11.5889 36.5859C11.6675 36.6636 11.7606 36.7245 11.8628 36.765C11.965 36.8056 12.0742 36.825 12.1839 36.822H16.164V45.1854C16.164 45.4065 16.2506 45.6185 16.4047 45.7749C16.5588 45.9312 16.7678 46.019 16.9857 46.019H18.4145C18.6049 46.4923 18.9515 46.8838 19.395 47.1265C19.8385 47.3693 20.3514 47.4482 20.846 47.3498C21.3405 47.2514 21.786 46.9817 22.1062 46.587C22.4264 46.1922 22.6015 45.6969 22.6015 45.1857C22.6015 44.6745 22.4264 44.1792 22.1062 43.7845C21.786 43.3897 21.3405 43.1201 20.846 43.0217C20.3514 42.9233 19.8385 43.0022 19.395 43.2449C18.9515 43.4876 18.6049 43.8791 18.4145 44.3524H17.8075V37.6677C18.5705 38.3001 19.3794 38.8732 20.2273 39.3823V40.7835C20.2244 40.8948 20.2435 41.0055 20.2835 41.1092C20.3235 41.2128 20.3835 41.3073 20.4601 41.3871C20.5366 41.4668 20.6282 41.5302 20.7293 41.5734C20.8304 41.6167 20.939 41.639 21.0488 41.639C21.1585 41.639 21.2671 41.6167 21.3682 41.5734C21.4693 41.5302 21.5609 41.4668 21.6374 41.3871C21.714 41.3073 21.7741 41.2128 21.814 41.1092C21.854 41.0055 21.8731 40.8948 21.8702 40.7835V40.3534L22.3347 40.6199C22.7226 40.8419 23.1147 41.0683 23.5109 41.2991V50.9944H21.2679C21.0775 50.5211 20.7308 50.1296 20.2873 49.8868C19.8438 49.6441 19.3309 49.5652 18.8364 49.6636C18.3418 49.762 17.8963 50.0317 17.5761 50.4264C17.2559 50.8211 17.0808 51.3165 17.0808 51.8277C17.0808 52.3389 17.2559 52.8342 17.5761 53.2289C17.8963 53.6237 18.3418 53.8933 18.8364 53.9917C19.3309 54.0901 19.8438 54.0112 20.2873 53.7685C20.7308 53.5257 21.0775 53.1342 21.2679 52.6609H24.3344C24.5524 52.6609 24.7614 52.5731 24.9155 52.4168C25.0696 52.2605 25.1562 52.0484 25.1562 51.8274V42.2951C25.4514 42.482 25.7479 42.6759 26.0458 42.8767C26.1554 42.9503 26.2809 42.9961 26.4117 43.0102V44.5062C26.4117 44.7273 26.4982 44.9393 26.6524 45.0956C26.8065 45.252 27.0155 45.3398 27.2334 45.3398C27.4514 45.3398 27.6604 45.252 27.8145 45.0956C27.9686 44.9393 28.0552 44.7273 28.0552 44.5062V42.1645C28.5955 41.8263 29.13 41.5078 29.6589 41.2009V48.3047C29.1923 48.4978 28.8063 48.8494 28.567 49.2993C28.3277 49.7492 28.2499 50.2694 28.3469 50.7711C28.444 51.2727 28.7098 51.7246 29.0989 52.0494C29.4881 52.3742 29.9764 52.5518 30.4804 52.5518C30.9843 52.5518 31.4727 52.3742 31.8618 52.0494C32.251 51.7246 32.5168 51.2727 32.6138 50.7711C32.7108 50.2694 32.633 49.7492 32.3937 49.2993C32.1544 48.8494 31.7685 48.4978 31.3019 48.3047V40.2551C32.3665 39.6619 33.3981 39.0094 34.3918 38.3007V41.6743C34.3889 41.7856 34.408 41.8963 34.448 42C34.488 42.1036 34.548 42.1981 34.6246 42.2778C34.7012 42.3576 34.7927 42.421 34.8938 42.4642C34.9949 42.5075 35.1035 42.5298 35.2133 42.5298C35.323 42.5298 35.4316 42.5075 35.5327 42.4642C35.6339 42.421 35.7254 42.3576 35.802 42.2778C35.8785 42.1981 35.9386 42.1036 35.9786 42C36.0185 41.8963 36.0377 41.7856 36.0348 41.6743V37.6371H43.3715C43.5894 37.6371 43.7985 37.5493 43.9526 37.393C44.1067 37.2366 44.1933 37.0246 44.1933 36.8035V35.3543C44.6597 35.1611 45.0454 34.8096 45.2845 34.3598C45.5237 33.91 45.6014 33.39 45.5043 32.8885C45.4073 32.3871 45.1415 31.9354 44.7525 31.6107C44.3634 31.286 43.8753 31.1085 43.3715 31.1085C42.8677 31.1085 42.3795 31.286 41.9905 31.6107C41.6015 31.9354 41.3357 32.3871 41.2386 32.8885C41.1416 33.39 41.2193 33.91 41.4584 34.3598C41.6976 34.8096 42.0833 35.1611 42.5497 35.3543V35.97H36.8149C37.1409 35.54 37.4283 35.0813 37.6738 34.5994C37.8512 34.249 38.0053 33.8869 38.1348 33.5155H39.9379C40.0476 33.5184 40.1568 33.4991 40.259 33.4585C40.3612 33.4179 40.4543 33.357 40.5329 33.2794C40.6116 33.2017 40.674 33.1088 40.7167 33.0063C40.7594 32.9037 40.7813 32.7935 40.7813 32.6822C40.7813 32.5709 40.7594 32.4607 40.7167 32.3582C40.674 32.2556 40.6116 32.1628 40.5329 32.0851C40.4543 32.0074 40.3612 31.9465 40.259 31.906C40.1568 31.8654 40.0476 31.846 39.9379 31.849H38.5787C38.6807 31.3287 38.7617 30.7755 38.8244 30.1847H50.0044V32.46C49.5378 32.6531 49.1518 33.0047 48.9125 33.4546C48.6732 33.9045 48.5954 34.4247 48.6924 34.9264C48.7895 35.428 49.0553 35.8799 49.4444 36.2047C49.8336 36.5295 50.3219 36.7071 50.8259 36.7071C51.3298 36.7071 51.8182 36.5295 52.2073 36.2047C52.5965 35.8799 52.8623 35.428 52.9593 34.9264C53.0563 34.4247 52.9786 33.9045 52.7392 33.4546C52.4999 33.0047 52.114 32.6531 51.6474 32.46ZM32.5744 9.65772C32.4694 9.65783 32.3668 9.62635 32.2794 9.56726C32.1921 9.50817 32.124 9.42412 32.0838 9.32576C32.0436 9.2274 32.033 9.11914 32.0535 9.01469C32.0739 8.91024 32.1244 8.8143 32.1987 8.739C32.2729 8.6637 32.3675 8.61243 32.4705 8.59168C32.5735 8.57093 32.6802 8.58164 32.7771 8.62244C32.8741 8.66325 32.957 8.73232 33.0152 8.82091C33.0735 8.9095 33.1045 9.01363 33.1044 9.12012C33.1043 9.26266 33.0484 9.39931 32.949 9.50009C32.8497 9.60088 32.7149 9.65757 32.5744 9.65772ZM33.7438 1.94001C33.8488 1.94001 33.9513 1.97157 34.0386 2.03071C34.1258 2.08984 34.1938 2.17389 34.234 2.27223C34.2742 2.37057 34.2847 2.47878 34.2642 2.58318C34.2437 2.68757 34.1932 2.78347 34.119 2.85873C34.0448 2.934 33.9503 2.98525 33.8473 3.00602C33.7444 3.02679 33.6377 3.01613 33.5408 2.97539C33.4438 2.93466 33.361 2.86568 33.3027 2.77718C33.2444 2.68868 33.2133 2.58463 33.2133 2.47818C33.2134 2.3355 33.2694 2.1987 33.3688 2.0978C33.4683 1.99691 33.6032 1.94016 33.7438 1.94001ZM8.7224 21.5294C8.61746 21.5294 8.51488 21.4978 8.42763 21.4387C8.34038 21.3796 8.27238 21.2955 8.23222 21.1972C8.19206 21.0988 8.18156 20.9906 8.20203 20.8862C8.2225 20.7818 8.27303 20.6859 8.34723 20.6107C8.42143 20.5354 8.51597 20.4841 8.61889 20.4634C8.72181 20.4426 8.82849 20.4533 8.92544 20.494C9.02238 20.5347 9.10525 20.6037 9.16355 20.6922C9.22184 20.7807 9.25296 20.8848 9.25296 20.9912C9.25296 21.1339 9.19706 21.2708 9.09756 21.3718C8.99806 21.4727 8.86311 21.5294 8.7224 21.5294ZM2.1744 19.2674C2.27936 19.2674 2.38197 19.299 2.46923 19.3582C2.55649 19.4173 2.6245 19.5014 2.66464 19.5998C2.70478 19.6982 2.71525 19.8064 2.69473 19.9108C2.67421 20.0152 2.62363 20.1111 2.54937 20.1864C2.47511 20.2616 2.38052 20.3128 2.27756 20.3335C2.17461 20.3542 2.06791 20.3435 1.97097 20.3027C1.87403 20.2618 1.79121 20.1928 1.73298 20.1042C1.67475 20.0156 1.64373 19.9115 1.64384 19.805C1.64399 19.6624 1.69996 19.5257 1.79944 19.4249C1.89892 19.3241 2.03379 19.2674 2.1744 19.2674ZM3.63616 31.7264C3.53123 31.7264 3.42865 31.6948 3.3414 31.6357C3.25415 31.5766 3.18614 31.4925 3.14599 31.3942C3.10583 31.2958 3.09532 31.1876 3.11579 31.0832C3.13627 30.9788 3.1868 30.883 3.261 30.8077C3.3352 30.7324 3.42974 30.6812 3.53266 30.6604C3.63557 30.6396 3.74225 30.6503 3.8392 30.691C3.93615 30.7318 4.01901 30.8007 4.07731 30.8892C4.13561 30.9777 4.16673 31.0818 4.16673 31.1882C4.16673 31.331 4.11083 31.4679 4.01133 31.5688C3.91183 31.6697 3.77688 31.7264 3.63616 31.7264ZM20.4256 44.6478C20.5306 44.6477 20.6332 44.6792 20.7206 44.7383C20.8079 44.7974 20.876 44.8814 20.9162 44.9798C20.9564 45.0782 20.967 45.1864 20.9465 45.2909C20.9261 45.3953 20.8756 45.4913 20.8013 45.5666C20.7271 45.6419 20.6325 45.6931 20.5295 45.7139C20.4265 45.7346 20.3198 45.7239 20.2229 45.6831C20.1259 45.6423 20.043 45.5732 19.9848 45.4846C19.9265 45.3961 19.8955 45.2919 19.8956 45.1854C19.8957 45.0429 19.9516 44.9063 20.051 44.8055C20.1503 44.7047 20.2851 44.648 20.4256 44.6478ZM19.2562 52.3656C19.1512 52.3656 19.0487 52.334 18.9614 52.2749C18.8742 52.2157 18.8062 52.1317 18.766 52.0333C18.7258 51.935 18.7153 51.8268 18.7358 51.7224C18.7563 51.618 18.8068 51.5221 18.881 51.4468C18.9552 51.3716 19.0497 51.3203 19.1527 51.2995C19.2556 51.2788 19.3623 51.2894 19.4592 51.3302C19.5562 51.3709 19.639 51.4399 19.6973 51.5284C19.7556 51.6169 19.7867 51.7209 19.7867 51.8274C19.7867 51.9701 19.7308 52.107 19.6313 52.2079C19.5318 52.3089 19.3969 52.3656 19.2562 52.3656ZM43.3715 32.7762C43.4764 32.7762 43.579 32.8077 43.6662 32.8669C43.7535 32.926 43.8215 33.0101 43.8617 33.1084C43.9018 33.2067 43.9123 33.3149 43.8919 33.4193C43.8714 33.5237 43.8208 33.6196 43.7466 33.6949C43.6724 33.7702 43.5779 33.8214 43.475 33.8422C43.3721 33.8629 43.2654 33.8523 43.1684 33.8116C43.0715 33.7708 42.9886 33.7018 42.9303 33.6133C42.872 33.5248 42.8409 33.4208 42.8409 33.3143C42.8409 33.1716 42.8968 33.0347 42.9963 32.9338C43.0958 32.8329 43.2308 32.7762 43.3715 32.7762ZM49.3638 22.5792C49.4688 22.5792 49.5714 22.6107 49.6586 22.6699C49.7459 22.729 49.8139 22.813 49.854 22.9114C49.8942 23.0097 49.9047 23.1179 49.8842 23.2223C49.8637 23.3267 49.8132 23.4226 49.739 23.4979C49.6648 23.5731 49.5703 23.6244 49.4673 23.6452C49.3644 23.6659 49.2577 23.6553 49.1608 23.6145C49.0639 23.5738 48.981 23.5048 48.9227 23.4163C48.8644 23.3278 48.8333 23.2238 48.8333 23.1173C48.8333 22.9746 48.8892 22.8377 48.9887 22.7368C49.0882 22.6359 49.2231 22.5792 49.3638 22.5792ZM22.5216 3.42274C22.6266 3.42274 22.7291 3.4543 22.8164 3.51344C22.9036 3.57257 22.9716 3.65662 23.0118 3.75496C23.052 3.8533 23.0625 3.96151 23.042 4.06591C23.0215 4.1703 22.971 4.2662 22.8968 4.34146C22.8226 4.41673 22.7281 4.46798 22.6251 4.48875C22.5222 4.50952 22.4155 4.49886 22.3186 4.45812C22.2216 4.41739 22.1388 4.34841 22.0805 4.25991C22.0222 4.17141 21.9911 4.06736 21.9911 3.96091C21.9912 3.81823 22.0472 3.68143 22.1466 3.58054C22.2461 3.47964 22.381 3.42289 22.5216 3.42274ZM23.1434 39.1684C20.3846 37.5874 18.0019 36.2203 16.7869 33.8346C15.5776 31.4593 15.5838 27.8152 15.5941 21.7768C15.5941 20.586 15.5986 19.2599 15.5941 17.8379C18.4378 17.402 20.6376 15.3522 22.7712 13.3706C22.9205 13.2315 23.0699 13.0928 23.2192 12.9544H29.7837C29.933 13.0926 30.0823 13.2319 30.2316 13.3706C32.3653 15.3557 34.5627 17.402 37.4088 17.8379C37.4014 19.2599 37.4036 20.586 37.4088 21.7768C37.419 27.8141 37.4253 31.4582 36.216 33.8334C35.001 36.2208 32.6183 37.5862 29.8595 39.1672C28.7738 39.7898 27.6557 40.4303 26.5029 41.1852C25.3471 40.4315 24.229 39.791 23.1434 39.1684ZM30.4784 50.8828C30.3734 50.8828 30.2709 50.8513 30.1836 50.7921C30.0964 50.733 30.0284 50.6489 29.9882 50.5506C29.948 50.4523 29.9375 50.344 29.958 50.2397C29.9785 50.1353 30.029 50.0394 30.1032 49.9641C30.1774 49.8888 30.2719 49.8376 30.3749 49.8168C30.4778 49.796 30.5845 49.8067 30.6814 49.8474C30.7784 49.8882 30.8612 49.9571 30.9195 50.0456C30.9778 50.1342 31.0089 50.2382 31.0089 50.3446C31.0088 50.4873 30.9528 50.6241 30.8534 50.725C30.7539 50.8259 30.619 50.8827 30.4784 50.8828ZM50.8262 35.0381C50.7212 35.0382 50.6185 35.0068 50.5312 34.9477C50.4438 34.8886 50.3758 34.8045 50.3355 34.7062C50.2953 34.6078 50.2847 34.4996 50.3052 34.3951C50.3257 34.2907 50.3762 34.1947 50.4504 34.1194C50.5247 34.0441 50.6193 33.9928 50.7222 33.9721C50.8252 33.9513 50.9319 33.9621 51.0289 34.0029C51.1259 34.0437 51.2087 34.1127 51.267 34.2013C51.3252 34.2899 51.3563 34.394 51.3562 34.5005C51.356 34.6431 51.3001 34.7797 51.2008 34.8805C51.1014 34.9813 50.9667 35.038 50.8262 35.0381ZM33.0326 27.1528C33.0326 25.8422 32.6495 24.5611 31.9317 23.4714C31.2139 22.3817 30.1936 21.5324 28.9999 21.0309C27.8062 20.5293 26.4928 20.3981 25.2256 20.6538C23.9584 20.9095 22.7944 21.5406 21.8808 22.4673C20.9671 23.394 20.345 24.5747 20.0929 25.86C19.8409 27.1454 19.9702 28.4778 20.4647 29.6886C20.9591 30.8994 21.7964 31.9343 22.8707 32.6624C23.945 33.3905 25.208 33.7791 26.5 33.7791C28.232 33.7771 29.8924 33.0784 31.1171 31.8361C32.3418 30.5939 33.0306 28.9096 33.0326 27.1528ZM21.6109 27.1528C21.6109 26.1719 21.8977 25.2131 22.4349 24.3976C22.9721 23.5821 23.7357 22.9464 24.629 22.5711C25.5224 22.1957 26.5054 22.0975 27.4538 22.2889C28.4022 22.4802 29.2733 22.9525 29.9571 23.6461C30.6408 24.3397 31.1065 25.2233 31.2951 26.1853C31.4838 27.1473 31.3869 28.1444 31.0169 29.0506C30.6469 29.9568 30.0202 30.7313 29.2162 31.2762C28.4122 31.8211 27.467 32.112 26.5 32.112C25.2038 32.1106 23.961 31.5877 23.0444 30.6579C22.1278 29.7282 21.6123 28.4676 21.6109 27.1528ZM30.0401 25.8053L26.2219 29.6783C26.0678 29.8346 25.8588 29.9224 25.6409 29.9224C25.423 29.9224 25.214 29.8346 25.0599 29.6783L22.9604 27.5488C22.8841 27.4714 22.8235 27.3795 22.7822 27.2783C22.7409 27.1772 22.7196 27.0688 22.7196 26.9593C22.7196 26.8499 22.7408 26.7414 22.7821 26.6403C22.8233 26.5391 22.8839 26.4472 22.9602 26.3698C23.0365 26.2924 23.127 26.2309 23.2267 26.189C23.3264 26.1471 23.4333 26.1255 23.5412 26.1255C23.6492 26.1255 23.756 26.147 23.8558 26.1889C23.9555 26.2307 24.0461 26.2921 24.1224 26.3695L25.6412 27.91L28.8787 24.6261C29.0337 24.4741 29.2413 24.39 29.4568 24.3919C29.6723 24.3938 29.8785 24.4814 30.0309 24.636C30.1833 24.7906 30.2697 24.9997 30.2716 25.2183C30.2734 25.437 30.1905 25.6475 30.0407 25.8047L30.0401 25.8053Z" fill="white"/>
</svg>
