<svg width="93" height="93" viewBox="0 0 93 93" fill="none" xmlns="http://www.w3.org/2000/svg">
<path d="M90.6275 55.6815V50.3005C90.6275 49.9182 90.4757 49.5516 90.2055 49.2812C89.9353 49.0108 89.5688 48.8588 89.1865 48.8585H68.3555C68.3942 48.1525 68.4252 47.4192 68.4485 46.6585H76.5205C76.9029 46.6585 77.2697 46.5066 77.5402 46.2362C77.8106 45.9657 77.9625 45.5989 77.9625 45.2165C77.9625 44.8341 77.8106 44.4673 77.5402 44.1969C77.2697 43.9264 76.9029 43.7745 76.5205 43.7745H68.5065C68.5165 42.8745 68.5222 41.9368 68.5235 40.9615H83.0915C83.4258 41.7802 84.034 42.4573 84.8123 42.8772C85.5906 43.297 86.4905 43.4334 87.3582 43.2631C88.226 43.0928 89.0076 42.6263 89.5694 41.9435C90.1313 41.2606 90.4385 40.4038 90.4385 39.5195C90.4385 38.6352 90.1313 37.7784 89.5694 37.0956C89.0076 36.4127 88.226 35.9462 87.3582 35.7759C86.4905 35.6056 85.5906 35.742 84.8123 36.1619C84.034 36.5817 83.4258 37.2588 83.0915 38.0775H68.5225C68.5225 37.7865 68.5225 37.4945 68.5225 37.1975C68.5225 35.7865 68.5225 34.2635 68.5225 32.6555H71.6225C71.815 32.6606 72.0066 32.627 72.1859 32.5569C72.3652 32.4867 72.5287 32.3814 72.6666 32.247C72.8046 32.1126 72.9142 31.952 72.989 31.7746C73.0639 31.5972 73.1025 31.4066 73.1025 31.214C73.1025 31.0214 73.0639 30.8308 72.989 30.6534C72.9142 30.476 72.8046 30.3154 72.6666 30.181C72.5287 30.0467 72.3652 29.9413 72.1859 29.8711C72.0066 29.801 71.815 29.7674 71.6225 29.7725H68.5305C68.5305 29.5465 68.5305 29.3215 68.5305 29.0935C68.5334 28.7198 68.3912 28.3596 68.1338 28.0888C67.8764 27.8179 67.5238 27.6576 67.1505 27.6415C66.2967 27.6036 65.4509 27.4598 64.6325 27.2135V15.3055C64.6325 14.9231 64.4806 14.5563 64.2102 14.2859C63.9397 14.0154 63.573 13.8635 63.1905 13.8635H60.6885C60.3544 13.0447 59.7461 12.3675 58.9679 11.9476C58.1896 11.5276 57.2896 11.3911 56.4218 11.5614C55.554 11.7316 54.7724 12.1981 54.2105 12.8809C53.6486 13.5638 53.3413 14.4207 53.3413 15.305C53.3413 16.1893 53.6486 17.0462 54.2105 17.7291C54.7724 18.4119 55.554 18.8784 56.4218 19.0486C57.2896 19.2189 58.1896 19.0824 58.9679 18.6625C59.7461 18.2425 60.3544 17.5653 60.6885 16.7465H61.7535V25.9395C59.3176 24.3825 57.053 22.5724 54.9975 20.5395C54.5975 20.1695 54.1915 19.7995 53.7875 19.4345C53.5225 19.194 53.1774 19.061 52.8195 19.0615H51.7455V5.25651H55.6815C56.0157 6.07528 56.6239 6.75254 57.4021 7.17246C58.1804 7.59239 59.0804 7.72889 59.9482 7.55863C60.816 7.38838 61.5977 6.92193 62.1596 6.23907C62.7215 5.5562 63.0287 4.69934 63.0287 3.81501C63.0287 2.93067 62.7215 2.07381 62.1596 1.39095C61.5977 0.708081 60.816 0.241636 59.9482 0.0713786C59.0804 -0.0988793 58.1804 0.0376259 57.4021 0.45755C56.6239 0.877475 56.0157 1.55473 55.6815 2.37351H50.3005C49.9181 2.37351 49.5513 2.52543 49.2809 2.79586C49.0104 3.06629 48.8585 3.43306 48.8585 3.81551V19.0575H46.6585V16.4805C46.6585 16.0981 46.5066 15.7313 46.2362 15.4609C45.9657 15.1904 45.5989 15.0385 45.2165 15.0385C44.8341 15.0385 44.4673 15.1904 44.1969 15.4609C43.9264 15.7313 43.7745 16.0981 43.7745 16.4805V19.0575H40.9615V9.90951C41.7802 9.57526 42.4573 8.967 42.8772 8.18872C43.297 7.41045 43.4334 6.5105 43.2631 5.64277C43.0928 4.77504 42.6263 3.99343 41.9435 3.43157C41.2606 2.86972 40.4038 2.56253 39.5195 2.56253C38.6352 2.56253 37.7784 2.86972 37.0956 3.43157C36.4127 3.99343 35.9462 4.77504 35.7759 5.64277C35.6056 6.5105 35.742 7.41045 36.1619 8.18872C36.5817 8.967 37.2588 9.57526 38.0775 9.90951V20.4675L38.0035 20.5345C36.3211 22.1513 34.5346 23.6562 32.6555 25.0395V21.3795C32.6606 21.187 32.627 20.9954 32.5569 20.8161C32.4867 20.6368 32.3814 20.4733 32.247 20.3354C32.1126 20.1975 31.952 20.0878 31.7746 20.013C31.5972 19.9381 31.4066 19.8995 31.214 19.8995C31.0214 19.8995 30.8308 19.9381 30.6534 20.013C30.476 20.0878 30.3154 20.1975 30.181 20.3354C30.0467 20.4733 29.9413 20.6368 29.8711 20.8161C29.801 20.9954 29.7674 21.187 29.7725 21.3795V26.6915C28.5345 27.2511 27.2024 27.5733 25.8455 27.6415C25.6028 27.652 25.3667 27.7236 25.1592 27.8499C24.9516 27.9761 24.7794 28.1528 24.6585 28.3635H15.3055C14.9231 28.3635 14.5563 28.5154 14.2859 28.7859C14.0154 29.0563 13.8635 29.4231 13.8635 29.8055V32.3125C13.0447 32.6467 12.3675 33.2549 11.9476 34.0331C11.5276 34.8114 11.3911 35.7114 11.5614 36.5792C11.7316 37.447 12.1981 38.2287 12.8809 38.7906C13.5638 39.3525 14.4207 39.6597 15.305 39.6597C16.1893 39.6597 17.0462 39.3525 17.7291 38.7906C18.4119 38.2287 18.8784 37.447 19.0486 36.5792C19.2189 35.7114 19.0824 34.8114 18.6625 34.0331C18.2425 33.2549 17.5653 32.6467 16.7465 32.3125V31.2475H24.4785C24.4785 32.7335 24.4785 34.1525 24.4785 35.4935H22.9205C22.728 35.4884 22.5364 35.522 22.3571 35.5921C22.1778 35.6623 22.0143 35.7677 21.8764 35.902C21.7385 36.0364 21.6288 36.197 21.554 36.3744C21.4791 36.5518 21.4405 36.7424 21.4405 36.935C21.4405 37.1276 21.4791 37.3182 21.554 37.4956C21.6288 37.673 21.7385 37.8336 21.8764 37.968C22.0143 38.1023 22.1778 38.2077 22.3571 38.2779C22.5364 38.348 22.728 38.3816 22.9205 38.3765H24.4785C24.4785 39.3765 24.4785 40.3362 24.4785 41.2555H5.25651V37.3195C6.07528 36.9854 6.75254 36.3771 7.17246 35.5989C7.59239 34.8206 7.72889 33.9206 7.55863 33.0528C7.38838 32.185 6.92193 31.4034 6.23907 30.8415C5.5562 30.2795 4.69934 29.9723 3.81501 29.9723C2.93067 29.9723 2.07381 30.2795 1.39095 30.8415C0.708081 31.4034 0.241636 32.185 0.0713786 33.0528C-0.0988793 33.9206 0.0376259 34.8206 0.45755 35.5989C0.877475 36.3771 1.55473 36.9854 2.37351 37.3195V42.7005C2.37351 43.083 2.52543 43.4497 2.79586 43.7202C3.06629 43.9906 3.43306 44.1425 3.81551 44.1425H24.5005C24.5105 44.9025 24.5252 45.6358 24.5445 46.3425H16.4805C16.1048 46.3524 15.7477 46.5086 15.4855 46.7779C15.2232 47.0471 15.0765 47.4081 15.0765 47.784C15.0765 48.1599 15.2232 48.5209 15.4855 48.7901C15.7477 49.0594 16.1048 49.2156 16.4805 49.2255H24.6655C24.7255 50.2175 24.8045 51.1525 24.9075 52.0385H9.90751C9.57326 51.2198 8.965 50.5427 8.18672 50.1229C7.40845 49.703 6.5085 49.5666 5.64077 49.7369C4.77304 49.9072 3.99143 50.3737 3.42957 51.0565C2.86772 51.7394 2.56053 52.5962 2.56053 53.4805C2.56053 54.3648 2.86772 55.2216 3.42957 55.9045C3.99143 56.5873 4.77304 57.0538 5.64077 57.2241C6.5085 57.3944 7.40845 57.258 8.18672 56.8382C8.965 56.4183 9.57326 55.7412 9.90751 54.9225H25.3655C25.6722 56.4709 26.1865 57.9707 26.8945 59.3815C27.0658 59.7148 27.2462 60.0358 27.4355 60.3445H21.3795C21.187 60.3394 20.9954 60.373 20.8161 60.4431C20.6368 60.5133 20.4733 60.6187 20.3354 60.753C20.1975 60.8874 20.0878 61.048 20.013 61.2254C19.9381 61.4028 19.8995 61.5934 19.8995 61.786C19.8995 61.9786 19.9381 62.1692 20.013 62.3466C20.0878 62.524 20.1975 62.6846 20.3354 62.819C20.4733 62.9534 20.6368 63.0587 20.8161 63.1289C20.9954 63.199 21.187 63.2326 21.3795 63.2275H28.3635V77.6955C28.3635 78.0779 28.5154 78.4447 28.7859 78.7151C29.0563 78.9856 29.4231 79.1375 29.8055 79.1375H32.3125C32.6467 79.9563 33.2549 80.6335 34.0331 81.0535C34.8114 81.4734 35.7114 81.6099 36.5792 81.4396C37.447 81.2694 38.2287 80.8029 38.7906 80.1201C39.3525 79.4372 39.6597 78.5803 39.6597 77.696C39.6597 76.8117 39.3525 75.9548 38.7906 75.2719C38.2287 74.5891 37.447 74.1226 36.5792 73.9524C35.7114 73.7821 34.8114 73.9186 34.0331 74.3385C33.2549 74.7585 32.6467 75.4357 32.3125 76.2545H31.2475V64.6905C32.5863 65.7844 34.0057 66.7759 35.4935 67.6565V70.0805C35.4884 70.273 35.522 70.4646 35.5921 70.6439C35.6623 70.8232 35.7677 70.9867 35.902 71.1246C36.0364 71.2626 36.197 71.3722 36.3744 71.447C36.5518 71.5219 36.7424 71.5605 36.935 71.5605C37.1276 71.5605 37.3182 71.5219 37.4956 71.447C37.673 71.3722 37.8336 71.2626 37.968 71.1246C38.1023 70.9867 38.2077 70.8232 38.2779 70.6439C38.348 70.4646 38.3816 70.273 38.3765 70.0805V69.3365L39.1915 69.7975C39.8722 70.1815 40.5602 70.5732 41.2555 70.9725V87.7445H37.3195C36.9854 86.9257 36.3771 86.2485 35.5989 85.8285C34.8206 85.4086 33.9206 85.2721 33.0528 85.4424C32.185 85.6126 31.4034 86.0791 30.8415 86.7619C30.2795 87.4448 29.9723 88.3017 29.9723 89.186C29.9723 90.0703 30.2795 90.9272 30.8415 91.6101C31.4034 92.2929 32.185 92.7594 33.0528 92.9296C33.9206 93.0999 34.8206 92.9634 35.5989 92.5435C36.3771 92.1235 36.9854 91.4463 37.3195 90.6275H42.7005C43.083 90.6275 43.4497 90.4756 43.7202 90.2052C43.9906 89.9347 44.1425 89.5679 44.1425 89.1855V72.6955C44.6605 73.0188 45.1808 73.3542 45.7035 73.7015C45.8959 73.8289 46.1161 73.9082 46.3455 73.9325V76.5205C46.3455 76.9029 46.4974 77.2697 46.7679 77.5402C47.0383 77.8106 47.4051 77.9625 47.7875 77.9625C48.1699 77.9625 48.5367 77.8106 48.8072 77.5402C49.0776 77.2697 49.2295 76.9029 49.2295 76.5205V72.4695C50.1775 71.8845 51.1155 71.3335 52.0435 70.8025V83.0915C51.2247 83.4257 50.5475 84.0339 50.1276 84.8121C49.7076 85.5904 49.5711 86.4904 49.7414 87.3582C49.9116 88.226 50.3781 89.0077 51.0609 89.5696C51.7438 90.1315 52.6007 90.4387 53.485 90.4387C54.3693 90.4387 55.2262 90.1315 55.9091 89.5696C56.5919 89.0077 57.0584 88.226 57.2286 87.3582C57.3989 86.4904 57.2624 85.5904 56.8425 84.8121C56.4225 84.0339 55.7453 83.4257 54.9265 83.0915V69.1665C56.7948 68.1403 58.6048 67.0115 60.3485 65.7855V71.6215C60.3434 71.814 60.377 72.0056 60.4471 72.1849C60.5173 72.3642 60.6227 72.5277 60.757 72.6656C60.8914 72.8036 61.052 72.9132 61.2294 72.988C61.4068 73.0629 61.5974 73.1015 61.79 73.1015C61.9826 73.1015 62.1732 73.0629 62.3506 72.988C62.528 72.9132 62.6886 72.8036 62.823 72.6656C62.9574 72.5277 63.0627 72.3642 63.1329 72.1849C63.203 72.0056 63.2366 71.814 63.2315 71.6215V64.6375H76.1055C76.4879 64.6375 76.8547 64.4856 77.1252 64.2151C77.3956 63.9447 77.5475 63.5779 77.5475 63.1955V60.6885C78.3659 60.3543 79.0428 59.7461 79.4624 58.9681C79.882 58.19 80.0184 57.2903 79.8481 56.4228C79.6778 55.5554 79.2114 54.774 78.5287 54.2124C77.8461 53.6507 76.9895 53.3436 76.1055 53.3436C75.2215 53.3436 74.3649 53.6507 73.6823 54.2124C72.9996 54.774 72.5333 55.5554 72.3629 56.4228C72.1926 57.2903 72.329 58.19 72.7486 58.9681C73.1682 59.7461 73.8451 60.3543 74.6635 60.6885V61.7535H64.6005C65.1725 61.0097 65.6768 60.2162 66.1075 59.3825C66.4189 58.7764 66.6892 58.1499 66.9165 57.5075H70.0805C70.273 57.5126 70.4646 57.479 70.6439 57.4089C70.8232 57.3387 70.9867 57.2333 71.1246 57.099C71.2626 56.9646 71.3722 56.804 71.447 56.6266C71.5219 56.4492 71.5605 56.2586 71.5605 56.066C71.5605 55.8734 71.5219 55.6828 71.447 55.5054C71.3722 55.328 71.2626 55.1674 71.1246 55.033C70.9867 54.8987 70.8232 54.7933 70.6439 54.7231C70.4646 54.653 70.273 54.6194 70.0805 54.6245H67.6955C67.8745 53.7245 68.0165 52.7675 68.1265 51.7455H87.7445V55.6815C86.9257 56.0157 86.2485 56.6239 85.8285 57.4021C85.4086 58.1804 85.2721 59.0804 85.4424 59.9482C85.6126 60.816 86.0791 61.5977 86.7619 62.1596C87.4448 62.7215 88.3017 63.0287 89.186 63.0287C90.0703 63.0287 90.9272 62.7215 91.6101 62.1596C92.2929 61.5977 92.7594 60.816 92.9296 59.9482C93.0999 59.0804 92.9634 58.1804 92.5435 57.4021C92.1235 56.6239 91.4463 56.0157 90.6275 55.6815ZM57.1595 16.2355C56.9753 16.2357 56.7952 16.1812 56.6419 16.079C56.4886 15.9768 56.3692 15.8314 56.2986 15.6612C56.228 15.4911 56.2095 15.3038 56.2453 15.1231C56.2812 14.9424 56.3699 14.7765 56.5002 14.6462C56.6305 14.5159 56.7964 14.4272 56.9771 14.3913C57.1578 14.3555 57.3451 14.374 57.5152 14.4446C57.6854 14.5152 57.8308 14.6346 57.933 14.7879C58.0352 14.9411 58.0897 15.1213 58.0895 15.3055C58.0892 15.5521 57.9912 15.7885 57.8168 15.9628C57.6425 16.1372 57.4061 16.2352 57.1595 16.2355ZM59.2115 2.88451C59.3956 2.88451 59.5756 2.93911 59.7287 3.04141C59.8818 3.14371 60.0012 3.28911 60.0716 3.45923C60.1421 3.62935 60.1605 3.81654 60.1246 3.99714C60.0887 4.17773 60 4.34362 59.8698 4.47382C59.7396 4.60403 59.5737 4.69269 59.3931 4.72862C59.2125 4.76454 59.0253 4.7461 58.8552 4.67564C58.6851 4.60517 58.5397 4.48584 58.4374 4.33274C58.3351 4.17964 58.2805 3.99964 58.2805 3.81551C58.2808 3.56867 58.3789 3.33202 58.5535 3.15748C58.728 2.98294 58.9647 2.88477 59.2115 2.88451ZM15.3055 36.7725C15.1214 36.7725 14.9414 36.7179 14.7883 36.6156C14.6352 36.5133 14.5158 36.3679 14.4454 36.1978C14.3749 36.0277 14.3565 35.8405 14.3924 35.6599C14.4283 35.4793 14.517 35.3134 14.6472 35.1832C14.7774 35.053 14.9433 34.9643 15.1239 34.9284C15.3045 34.8925 15.4917 34.9109 15.6618 34.9814C15.8319 35.0518 15.9773 35.1712 16.0796 35.3243C16.1819 35.4774 16.2365 35.6574 16.2365 35.8415C16.2365 36.0884 16.1384 36.3252 15.9638 36.4998C15.7892 36.6744 15.5524 36.7725 15.3055 36.7725ZM3.81551 32.8595C3.99968 32.8595 4.17972 32.9141 4.33285 33.0165C4.48597 33.1188 4.6053 33.2643 4.67573 33.4345C4.74617 33.6046 4.76455 33.7919 4.72854 33.9725C4.69254 34.1531 4.60377 34.319 4.47347 34.4492C4.34317 34.5793 4.17718 34.6679 3.99652 34.7037C3.81586 34.7395 3.62863 34.721 3.45853 34.6504C3.28843 34.5797 3.1431 34.4602 3.04092 34.307C2.93874 34.1538 2.88431 33.9737 2.88451 33.7895C2.88477 33.5428 2.98298 33.3062 3.15754 33.1318C3.33211 32.9575 3.56876 32.8595 3.81551 32.8595ZM6.38051 54.4125C6.19637 54.4125 6.01637 54.3579 5.86327 54.2556C5.71017 54.1533 5.59084 54.0079 5.52037 53.8378C5.44991 53.6677 5.43147 53.4805 5.4674 53.2999C5.50332 53.1193 5.59199 52.9534 5.72219 52.8232C5.85239 52.693 6.01828 52.6043 6.19888 52.5684C6.37947 52.5325 6.56667 52.5509 6.73678 52.6214C6.9069 52.6918 7.05231 52.8112 7.1546 52.9643C7.2569 53.1174 7.31151 53.2974 7.31151 53.4815C7.31151 53.7284 7.21342 53.9652 7.03882 54.1398C6.86423 54.3144 6.62742 54.4125 6.38051 54.4125ZM35.8415 76.7655C36.0257 76.7653 36.2059 76.8198 36.3591 76.922C36.5124 77.0242 36.6319 77.1696 36.7024 77.3398C36.773 77.5099 36.7916 77.6972 36.7557 77.8779C36.7198 78.0586 36.6311 78.2246 36.5008 78.3548C36.3706 78.4851 36.2046 78.5738 36.0239 78.6097C35.8432 78.6456 35.6559 78.627 35.4858 78.5564C35.3156 78.4859 35.1702 78.3664 35.068 78.2131C34.9658 78.0599 34.9113 77.8797 34.9115 77.6955C34.9118 77.4489 35.0098 77.2125 35.1842 77.0382C35.3585 76.8638 35.5949 76.7658 35.8415 76.7655ZM33.7895 90.1165C33.6054 90.1165 33.4254 90.0619 33.2723 89.9596C33.1192 89.8573 32.9998 89.7119 32.9294 89.5418C32.8589 89.3717 32.8405 89.1845 32.8764 89.0039C32.9123 88.8233 33.001 88.6574 33.1312 88.5272C33.2614 88.397 33.4273 88.3083 33.6079 88.2724C33.7885 88.2365 33.9757 88.2549 34.1458 88.3254C34.3159 88.3958 34.4613 88.5152 34.5636 88.6683C34.6659 88.8214 34.7205 89.0014 34.7205 89.1855C34.7205 89.4324 34.6224 89.6692 34.4478 89.8438C34.2732 90.0184 34.0364 90.1165 33.7895 90.1165ZM76.1055 56.2285C76.2896 56.2285 76.4696 56.2831 76.6227 56.3854C76.7758 56.4877 76.8952 56.6331 76.9656 56.8032C77.0361 56.9733 77.0545 57.1605 77.0186 57.3411C76.9827 57.5217 76.894 57.6876 76.7638 57.8178C76.6336 57.948 76.4677 58.0367 76.2871 58.0726C76.1065 58.1085 75.9193 58.0901 75.7492 58.0196C75.5791 57.9492 75.4337 57.8298 75.3314 57.6767C75.2291 57.5236 75.1745 57.3436 75.1745 57.1595C75.1745 56.9126 75.2726 56.6758 75.4472 56.5012C75.6218 56.3266 75.8586 56.2285 76.1055 56.2285ZM86.6205 38.5885C86.8046 38.5885 86.9846 38.6431 87.1377 38.7454C87.2908 38.8477 87.4102 38.9931 87.4806 39.1632C87.5511 39.3333 87.5695 39.5205 87.5336 39.7011C87.4977 39.8817 87.409 40.0476 87.2788 40.1778C87.1486 40.308 86.9827 40.3967 86.8021 40.4326C86.6215 40.4685 86.4343 40.4501 86.2642 40.3796C86.0941 40.3092 85.9487 40.1898 85.8464 40.0367C85.7441 39.8836 85.6895 39.7036 85.6895 39.5195C85.6895 39.2726 85.7876 39.0358 85.9622 38.8612C86.1368 38.6866 86.3736 38.5885 86.6205 38.5885ZM39.5195 5.44951C39.7036 5.44951 39.8836 5.50411 40.0367 5.60641C40.1898 5.70871 40.3092 5.85411 40.3796 6.02423C40.4501 6.19435 40.4685 6.38154 40.4326 6.56214C40.3967 6.74273 40.308 6.90862 40.1778 7.03882C40.0476 7.16903 39.8817 7.25769 39.7011 7.29362C39.5205 7.32954 39.3333 7.3111 39.1632 7.24064C38.9931 7.17017 38.8477 7.05084 38.7454 6.89774C38.6431 6.74464 38.5885 6.56464 38.5885 6.38051C38.5888 6.13367 38.6869 5.89702 38.8615 5.72248C39.036 5.54794 39.2727 5.44977 39.5195 5.44951ZM40.6105 67.2865C35.7695 64.5515 31.5885 62.1865 29.4565 58.0595C27.3345 53.9505 27.3455 47.6465 27.3635 37.2005C27.3635 35.1405 27.3715 32.8465 27.3635 30.3865C32.3535 29.6325 36.2135 26.0865 39.9575 22.6585C40.2195 22.4178 40.4815 22.1778 40.7435 21.9385H52.2625C52.5245 22.1775 52.7865 22.4185 53.0485 22.6585C56.7925 26.0925 60.6485 29.6325 65.6425 30.3865C65.6295 32.8465 65.6335 35.1405 65.6425 37.2005C65.6605 47.6445 65.6715 53.9485 63.5495 58.0575C61.4175 62.1875 57.2365 64.5495 52.3955 67.2845C50.4905 68.3615 48.5285 69.4695 46.5055 70.7755C44.4775 69.4715 42.5155 68.3635 40.6105 67.2865ZM53.4815 87.5515C53.2974 87.5515 53.1174 87.4969 52.9643 87.3946C52.8112 87.2923 52.6918 87.1469 52.6214 86.9768C52.5509 86.8067 52.5325 86.6195 52.5684 86.4389C52.6043 86.2583 52.693 86.0924 52.8232 85.9622C52.9534 85.832 53.1193 85.7433 53.2999 85.7074C53.4805 85.6715 53.6677 85.6899 53.8378 85.7604C54.0079 85.8308 54.1533 85.9502 54.2556 86.1033C54.3579 86.2564 54.4125 86.4364 54.4125 86.6205C54.4122 86.8673 54.3141 87.104 54.1395 87.2785C53.965 87.4531 53.7283 87.5512 53.4815 87.5515ZM89.1865 60.1415C89.0023 60.1417 88.8221 60.0872 88.6689 59.985C88.5156 59.8828 88.3962 59.7374 88.3256 59.5672C88.255 59.3971 88.2365 59.2098 88.2723 59.0291C88.3082 58.8484 88.3969 58.6825 88.5272 58.5522C88.6575 58.4219 88.8234 58.3332 89.0041 58.2973C89.1848 58.2615 89.3721 58.28 89.5422 58.3506C89.7124 58.4212 89.8578 58.5406 89.96 58.6939C90.0622 58.8472 90.1167 59.0273 90.1165 59.2115C90.1162 59.4581 90.0182 59.6945 89.8438 59.8688C89.6695 60.0432 89.4331 60.1412 89.1865 60.1415ZM57.9635 46.5005C57.9635 44.2333 57.2912 42.0171 56.0316 40.132C54.7721 38.2469 52.9818 36.7777 50.8872 35.9101C48.7926 35.0425 46.4878 34.8155 44.2642 35.2578C42.0406 35.7001 39.9981 36.7918 38.3949 38.3949C36.7918 39.9981 35.7001 42.0406 35.2578 44.2642C34.8155 46.4878 35.0425 48.7926 35.9101 50.8872C36.7777 52.9818 38.2469 54.7721 40.132 56.0316C42.0171 57.2912 44.2333 57.9635 46.5005 57.9635C49.5396 57.9601 52.4533 56.7513 54.6023 54.6023C56.7513 52.4533 57.9601 49.5396 57.9635 46.5005ZM37.9215 46.5005C37.9215 44.8037 38.4247 43.1451 39.3673 41.7343C40.31 40.3235 41.6499 39.2239 43.2175 38.5745C44.7851 37.9252 46.51 37.7553 48.1742 38.0863C49.8383 38.4174 51.367 39.2344 52.5668 40.4342C53.7666 41.634 54.5836 43.1627 54.9147 44.8268C55.2457 46.491 55.0758 48.2159 54.4265 49.7836C53.7771 51.3512 52.6776 52.691 51.2667 53.6337C49.8559 54.5764 48.1973 55.0795 46.5005 55.0795C44.2259 55.0771 42.0452 54.1725 40.4369 52.5641C38.8285 50.9558 37.9239 48.7751 37.9215 46.5005ZM52.7125 44.1695L46.0125 50.8695C45.7421 51.1398 45.3754 51.2917 44.993 51.2917C44.6106 51.2917 44.2439 51.1398 43.9735 50.8695L40.2895 47.1855C40.1556 47.0516 40.0493 46.8927 39.9768 46.7177C39.9043 46.5428 39.8669 46.3552 39.8669 46.1659C39.8668 45.9765 39.9041 45.7889 39.9765 45.6139C40.0489 45.439 40.1551 45.28 40.289 45.146C40.4229 45.0121 40.5818 44.9058 40.7568 44.8333C40.9317 44.7608 41.1193 44.7234 41.3087 44.7234C41.498 44.7233 41.6856 44.7606 41.8606 44.833C42.0356 44.9054 42.1946 45.0116 42.3285 45.1455L44.9935 47.8105L50.6745 42.1295C50.9464 41.8667 51.3107 41.7212 51.6889 41.7244C52.0671 41.7277 52.4289 41.8793 52.6963 42.1467C52.9637 42.4141 53.1154 42.7759 53.1186 43.1541C53.1218 43.5323 52.9763 43.8966 52.7135 44.1685L52.7125 44.1695Z" fill="url(#paint0_linear_535_26)"/>
<defs>
<linearGradient id="paint0_linear_535_26" x1="0" y1="46.5005" x2="93.001" y2="46.5005" gradientUnits="userSpaceOnUse">
<stop stop-color="#715126"/>
<stop offset="1" stop-color="#D0B672"/>
</linearGradient>
</defs>
</svg>
