<svg width="16" height="19" viewBox="0 0 16 19" fill="none" xmlns="http://www.w3.org/2000/svg">
<path d="M15 8C15 13.4444 8 18.1111 8 18.1111C8 18.1111 1 13.4444 1 8C1 6.14349 1.7375 4.36301 3.05025 3.05025C4.36301 1.7375 6.14348 1 8 1C9.85652 1 11.637 1.7375 12.9497 3.05025C14.2625 4.36301 15 6.14349 15 8Z" stroke="url(#paint0_linear_169_1568)" stroke-width="1.5" stroke-linecap="round" stroke-linejoin="round"/>
<path d="M7.99996 10.3332C9.28862 10.3332 10.3333 9.2885 10.3333 7.99984C10.3333 6.71117 9.28862 5.6665 7.99996 5.6665C6.71129 5.6665 5.66663 6.71117 5.66663 7.99984C5.66663 9.2885 6.71129 10.3332 7.99996 10.3332Z" stroke="url(#paint1_linear_169_1568)" stroke-width="1.5" stroke-linecap="round" stroke-linejoin="round"/>
<defs>
<linearGradient id="paint0_linear_169_1568" x1="1" y1="9.55556" x2="15" y2="9.55556" gradientUnits="userSpaceOnUse">
<stop stop-color="#715126"/>
<stop offset="1" stop-color="#D0B672"/>
</linearGradient>
<linearGradient id="paint1_linear_169_1568" x1="5.66663" y1="7.99984" x2="10.3333" y2="7.99984" gradientUnits="userSpaceOnUse">
<stop stop-color="#715126"/>
<stop offset="1" stop-color="#D0B672"/>
</linearGradient>
</defs>
</svg>
