<svg width="50" height="50" viewBox="0 0 50 50" fill="none" xmlns="http://www.w3.org/2000/svg">
<path d="M49.0675 48.9055L47.515 41.1429C47.2719 39.9148 46.6708 38.786 45.7874 37.8988C44.9041 37.0116 43.7779 36.4056 42.5508 36.1572C40.4111 35.7218 34.7271 34.5656 33.724 33.8131C32.7236 33.0629 31.9716 30.6536 31.654 29.0126C33.2118 27.5673 34.2919 25.6814 34.7505 23.6065C35.6929 23.4985 36.5627 23.048 37.1946 22.3406C37.8265 21.6333 38.1764 20.7183 38.1777 19.7698V17.9518C38.1768 17.1978 37.9555 16.4605 37.5411 15.8306C37.1266 15.2007 36.5371 14.7057 35.845 14.4064C35.857 14.3745 38.1777 7.72613 33.5789 3.60778C29.0126 -0.481284 20.1571 0.390563 17.4072 1.42127C14.4428 2.53225 12.5903 0.413412 12.5162 0.327096C12.4144 0.204889 12.2822 0.111546 12.133 0.0563906C11.9838 0.00123538 11.8228 -0.0138002 11.6659 0.0127859C11.5091 0.0393721 11.362 0.106649 11.2393 0.207896C11.1166 0.309142 11.0226 0.440813 10.9667 0.589753C9.80478 3.68745 9.03428 8.39625 10.6853 11.4718C11.3542 12.7407 12.4689 13.7174 13.8147 14.2138C12.9846 14.4267 12.2488 14.9094 11.7229 15.5861C11.1969 16.2627 10.9106 17.0948 10.909 17.9518V19.7698C10.9104 20.7183 11.2603 21.6332 11.8922 22.3406C12.5241 23.048 13.3939 23.4985 14.3363 23.6065C14.7948 25.6814 15.875 27.5673 17.4328 29.0126C17.1154 30.6536 16.3634 33.0629 15.3628 33.8131C14.3598 34.5649 8.67564 35.7218 6.53591 36.1572C5.30881 36.4056 4.18266 37.0116 3.29928 37.8988C2.4159 38.786 1.8148 39.9148 1.57168 41.1429L0.0191698 48.9055C-0.00534547 49.0229 -0.00635738 49.1441 0.0161924 49.2619C0.0387422 49.3798 0.0844072 49.492 0.150553 49.5921C0.216698 49.6923 0.302014 49.7783 0.401579 49.8453C0.501143 49.9122 0.612985 49.9588 0.73065 49.9824C0.848316 50.0059 0.969476 50.0059 1.08714 49.9823C1.2048 49.9588 1.31664 49.9122 1.4162 49.8452C1.51576 49.7782 1.60106 49.6922 1.6672 49.5921C1.73334 49.4919 1.77899 49.3797 1.80153 49.2619L3.35404 41.4993C3.52756 40.6223 3.95669 39.8162 4.58742 39.1826C5.21814 38.549 6.02224 38.1162 6.89845 37.9387C11.9758 36.9054 15.3458 36.0984 16.454 35.2675C17.5686 36.9708 20.1631 39.9942 24.5434 39.9942C28.9237 39.9942 31.5181 36.9708 32.6326 35.2675C33.7409 36.0984 37.1104 36.9054 42.1883 37.9387C43.0644 38.1164 43.8684 38.5492 44.499 39.1828C45.1296 39.8164 45.5587 40.6224 45.7322 41.4993L47.2847 49.2619C47.3073 49.3797 47.3529 49.4919 47.4191 49.5921C47.4852 49.6922 47.5705 49.7782 47.6701 49.8452C47.7696 49.9122 47.8815 49.9588 47.9991 49.9823C48.1168 50.0059 48.238 50.0059 48.3556 49.9824C48.4733 49.9588 48.5851 49.9122 48.6847 49.8453C48.7843 49.7783 48.8696 49.6923 48.9357 49.5921C49.0019 49.492 49.0475 49.3798 49.0701 49.2619C49.0926 49.1441 49.0916 49.0229 49.0671 48.9055H49.0675ZM36.3598 19.7698C36.3585 20.1928 36.2258 20.605 35.9801 20.9493C35.7343 21.2936 35.3877 21.5531 34.9881 21.6919C34.9915 21.5816 34.9965 16.0324 34.9965 16.0324C35.3941 16.1724 35.7386 16.4321 35.9827 16.7758C36.2268 17.1194 36.3586 17.5303 36.3598 17.9518V19.7698ZM12.2871 10.612C11.0693 8.34372 11.5748 4.85848 12.2566 2.48538C13.5592 3.35332 15.6145 4.03457 18.0454 3.12337C20.1264 2.34341 28.3901 1.41395 32.3685 4.96442C34.3604 6.74102 35.0129 9.43438 34.3138 12.9786C33.1408 12.6102 30.7898 11.65 27.8379 9.2888C27.6779 9.16088 27.4794 9.09073 27.2746 9.08972C27.0697 9.08871 26.8705 9.1569 26.7093 9.28323C26.6489 9.33049 20.6071 13.9952 15.204 12.7486C13.8445 12.4348 12.8903 11.7366 12.2871 10.612ZM12.727 19.7698V17.9518C12.7284 17.5303 12.8602 17.1196 13.1043 16.776C13.3484 16.4325 13.6929 16.1729 14.0904 16.0328C14.0904 16.0328 14.0954 21.582 14.0989 21.6924C13.6992 21.5536 13.3525 21.294 13.1067 20.9496C12.8609 20.6052 12.7283 20.1929 12.727 19.7698ZM15.9084 21.3604V14.7087C20.8053 15.2696 25.6151 12.2826 27.2521 11.138C29.7529 13.0488 31.8278 14.0241 33.179 14.5146V21.3604C33.1787 22.6164 32.9039 23.8572 32.3737 24.9958C31.8435 26.1344 31.0708 27.1434 30.1097 27.9519C30.0787 27.976 30.0493 28.0021 30.0218 28.03C28.479 29.301 26.5423 29.996 24.5434 29.996C22.5446 29.996 20.6079 29.301 19.0651 28.03C19.0375 28.0021 19.0081 27.976 18.9772 27.9519C18.0161 27.1433 17.2435 26.1344 16.7134 24.9957C16.1833 23.8571 15.9085 22.6164 15.9084 21.3604ZM24.5435 38.1761C20.5467 38.1761 18.3523 34.9725 17.6826 33.7994C18.3466 32.6643 18.7757 31.2705 19.0263 30.2332C20.6812 31.266 22.5927 31.8135 24.5434 31.8135C26.4941 31.8135 28.4057 31.266 30.0606 30.2332C30.3112 31.2702 30.7399 32.6645 31.4041 33.7992C30.7333 34.9744 28.539 38.1761 24.5435 38.1761Z" fill="url(#paint0_linear_740_19)"/>
<defs>
<linearGradient id="paint0_linear_740_19" x1="-2.94518" y1="-1.75" x2="71.6478" y2="16.3804" gradientUnits="userSpaceOnUse">
<stop stop-color="#BBA061"/>
<stop offset="1" stop-color="#F6D787"/>
</linearGradient>
</defs>
</svg>
