<svg width="21" height="19" viewBox="0 0 21 19" fill="none" xmlns="http://www.w3.org/2000/svg">
<path d="M17.4337 8.67782L0.941404 8.19121C0.706063 8.18426 0.477603 8.27109 0.306283 8.43259C0.134962 8.59409 0.0348138 8.81704 0.02787 9.05238C0.0209262 9.28772 0.107756 9.51618 0.269256 9.6875C0.430757 9.85882 0.6537 9.95897 0.889041 9.96591L17.3814 10.4525L10.7181 16.7321C10.5466 16.8938 10.4463 17.1171 10.4393 17.3527C10.4324 17.5883 10.5193 17.8171 10.681 17.9886C10.8427 18.1602 11.066 18.2604 11.3016 18.2674C11.5372 18.2743 11.766 18.1874 11.9375 18.0257L20.1593 10.2752C20.2444 10.1952 20.3128 10.0992 20.3608 9.99269C20.4087 9.88621 20.4351 9.77132 20.4386 9.6546C20.442 9.53788 20.4224 9.42163 20.3808 9.31251C20.3393 9.20338 20.2766 9.10353 20.1964 9.01866L12.4459 0.796859C12.2842 0.625322 12.0609 0.525047 11.8253 0.518095C11.5897 0.511142 11.3609 0.598081 11.1894 0.759786C11.0178 0.92149 10.9176 1.14472 10.9106 1.38035C10.9037 1.61599 10.9906 1.84474 11.1523 2.01628L17.4337 8.67782Z" fill="white"/>
</svg>
