<svg xmlns="http://www.w3.org/2000/svg" width="49" height="51" fill="none"><path fill="#fff" d="M21.374 0C9.597 0 0 9.788 0 21.802s9.597 21.801 21.374 21.801a20.87 20.87 0 0 0 10.96-3.114l.818-.501 9.814 10.01a3.35 3.35 0 0 0 2.4 1.002c.926 0 1.799-.39 2.398-1.001a3.5 3.5 0 0 0 .982-2.447c0-.89-.382-1.835-.982-2.447l-9.542-9.789.873-1.279a22 22 0 0 0 3.653-12.18C42.748 9.788 33.152 0 21.374 0m0 37.708c-8.615 0-15.594-7.12-15.594-15.906 0-8.788 6.979-15.907 15.594-15.907s15.594 7.12 15.594 15.907-6.979 15.906-15.594 15.906"/><path fill="#fff" d="M33.37 18.868c-.11-.618-.6-.804-.6-.804l-2.127.247-1.908-5.067c-.164-.556-.818-1.545-2.072-1.668H15.485c-1.254.123-1.854 1.05-2.072 1.668l-1.854 5.067-2.017-.247s-.436.124-.6.804c-.109.617-.272 1.73.982 2.1l.709.062c-.873 1.854-1.745 5.13.6 7.848.054.062.654.557.926.68v1.73c0 .619.436 1.113.982 1.113h1.308c.546 0 .982-.495.982-1.113v-1.544h11.396v1.544c0 .619.436 1.113.981 1.113h1.309c.545 0 .981-.495.981-1.113v-1.606c.382-.124.654-.37.927-.68 2.4-2.719 1.636-5.994.818-7.91l.6-.062c1.2-.37 1.09-1.483.927-2.162m-18.43-4.882c.055-.124.164-.433.654-.495H26.61c.49.062.654.371.654.433l1.854 5.005h-16.03zm-.818 11.247c-.818 0-1.418-.742-1.418-1.607 0-.927.655-1.607 1.418-1.607.818 0 1.418.742 1.418 1.607s-.654 1.607-1.418 1.607m13.795 0c-.818 0-1.418-.742-1.418-1.607 0-.927.655-1.607 1.418-1.607.818 0 1.418.742 1.418 1.607s-.655 1.607-1.418 1.607"/></svg>