<svg width="64" height="64" viewBox="0 0 64 64" fill="none" xmlns="http://www.w3.org/2000/svg">
<path d="M10.3366 10.3376L10.3373 10.3368C15.9857 4.68472 23.6478 1.50662 31.6403 1.49902C39.6325 1.49922 47.2981 4.67684 52.9498 10.3291C58.6019 15.9818 61.78 23.6468 61.78 31.6395C61.78 39.6324 58.6024 47.2979 52.9499 52.9498C47.2973 58.6019 39.6323 61.78 31.6395 61.78C23.6467 61.78 15.9811 58.6024 10.3292 52.9499C4.67736 47.2975 1.49922 39.6327 1.49902 31.6403C1.50663 23.6472 4.68465 15.9852 10.3366 10.3376Z" stroke="url(#paint0_linear_740_7)" stroke-width="3"/>
<path d="M43.7013 43.8037L43.7002 43.8057C43.428 44.2619 42.8522 44.4246 42.3854 44.1851L29.9912 36.7846C29.9907 36.7843 29.9903 36.784 29.9898 36.7838C29.6838 36.5992 29.5 36.273 29.5 35.922V11.5C29.5 10.9495 29.9495 10.5 30.5 10.5C31.0505 10.5 31.5 10.9495 31.5 11.5V34.5V35.3508L32.2302 35.7874L43.409 42.4712C43.8432 42.7705 43.9699 43.3551 43.7013 43.8037Z" stroke="url(#paint1_linear_740_7)" stroke-width="3"/>
<defs>
<linearGradient id="paint0_linear_740_7" x1="-3.79784" y1="-2.21582" x2="92.1647" y2="21.5428" gradientUnits="userSpaceOnUse">
<stop stop-color="#BBA061"/>
<stop offset="1" stop-color="#F6D787"/>
</linearGradient>
<linearGradient id="paint1_linear_740_7" x1="26.9595" y1="7.71216" x2="54.495" y2="10.9252" gradientUnits="userSpaceOnUse">
<stop stop-color="#BBA061"/>
<stop offset="1" stop-color="#F6D787"/>
</linearGradient>
</defs>
</svg>
