<svg xmlns="http://www.w3.org/2000/svg" width="236" height="234" fill="none"><path fill="url(#a)" fill-rule="evenodd" d="M199.913 116.734c-1.175.008-7.286 1.224-7.252 7.532.041 7.557 6.077 7.523 7.252 7.531h11.357c2.392 0 4.685.949 6.376 2.643a9 9 0 0 1 2.643 6.376v.79a9 9 0 0 1-2.643 6.376 9 9 0 0 1-6.376 2.643h-11.357c-1.175.008-7.286.975-7.252 7.531.034 6.677 6.077 7.524 7.252 7.532h11.357c2.392 0 4.685.948 6.376 2.643a9 9 0 0 1 2.643 6.375v.791a9 9 0 0 1-2.643 6.375 9 9 0 0 1-6.376 2.644h-11.357c-1.175.007-7.234.628-7.252 7.531-.019 6.921 6.077 7.524 7.252 7.531h11.357c2.392 0 4.685.949 6.376 2.644a9 9 0 0 1 2.643 6.375v.791a9 9 0 0 1-2.643 6.375 9 9 0 0 1-6.376 2.643H107.32a19.66 19.66 0 0 1-10.114-2.801l-15.326-9.196a34.7 34.7 0 0 0-17.864-4.948c-3.755 0-7.532 1.883-7.532 7.531a7.534 7.534 0 0 0 7.532 7.531c3.562 0 7.06.968 10.114 2.802l15.326 9.196a34.7 34.7 0 0 0 17.864 4.948h103.95a24.09 24.09 0 0 0 17.029-7.053 24.09 24.09 0 0 0 7.053-17.028v-.791a24.08 24.08 0 0 0-6.59-16.55 24.08 24.08 0 0 0 6.59-16.55v-.791a24.08 24.08 0 0 0-6.59-16.55 24.08 24.08 0 0 0 6.59-16.55v-.79a24.08 24.08 0 0 0-6.59-16.55 24.08 24.08 0 0 0 6.59-16.55v-.791a24.084 24.084 0 0 0-24.082-24.081h-47.032a7.95 7.95 0 0 1-5.63-2.335 7.95 7.95 0 0 1-2.335-5.63V24.081A24.085 24.085 0 0 0 132.192 0h-.791a24.085 24.085 0 0 0-24.081 24.081v23.2a69.15 69.15 0 0 1-33.194 59.068l-.064.037a19.33 19.33 0 0 1-10.046 2.817c-3.755 0-7.532 3.766-7.532 7.531a7.534 7.534 0 0 0 7.532 7.532 34.4 34.4 0 0 0 17.879-5.012l.06-.038a84.21 84.21 0 0 0 40.428-71.935v-23.2c0-2.391.949-4.684 2.643-6.375a9 9 0 0 1 6.375-2.643h.791c2.391 0 4.685.948 6.375 2.643a9 9 0 0 1 2.644 6.375V74.88a23.03 23.03 0 0 0 6.744 16.282 23.03 23.03 0 0 0 16.283 6.744h47.032c2.392 0 4.685.95 6.376 2.644a9 9 0 0 1 2.643 6.375v.791a9 9 0 0 1-2.643 6.375 9 9 0 0 1-6.376 2.643h-11.357M52.719 105.438a7.53 7.53 0 0 0-7.532-7.532H7.532A7.53 7.53 0 0 0 0 105.438v112.968a7.53 7.53 0 0 0 7.531 7.532h37.657a7.53 7.53 0 0 0 7.53-7.532zm-15.063 7.531v97.906H15.063v-97.906z" clip-rule="evenodd"/><defs><linearGradient id="a" x1="0" x2="235.352" y1="116.734" y2="116.734" gradientUnits="userSpaceOnUse"><stop stop-color="#715126"/><stop offset="1" stop-color="#D0B672"/></linearGradient></defs></svg>