<svg xmlns="http://www.w3.org/2000/svg" width="215" height="120" fill="none"><path fill="#263238" d="M214.355 120H.153c-.04 0-.08-.117-.108-.324a6 6 0 0 1-.045-.782c0-.293.016-.575.045-.782s.068-.324.108-.324h214.202c.041 0 .08.117.109.324s.045.489.045.782-.017.574-.045.782c-.029.207-.068.324-.109.324M113.518 5.541H99.909c-.973 0-1.762.789-1.762 1.762v3.37c0 .974.79 1.763 1.762 1.763h13.609c.973 0 1.762-.79 1.762-1.763v-3.37c0-.973-.789-1.762-1.762-1.762"/><path fill="#263238" d="M113.518 12.657H99.909a1.987 1.987 0 0 1-1.983-1.983V7.308A1.99 1.99 0 0 1 99.91 5.32h13.609a1.986 1.986 0 0 1 1.983 1.988v3.366a1.983 1.983 0 0 1-1.983 1.983m-13.61-6.895a1.546 1.546 0 0 0-1.541 1.546v3.366a1.54 1.54 0 0 0 1.541 1.541h13.609a1.54 1.54 0 0 0 1.541-1.541V7.308a1.546 1.546 0 0 0-1.541-1.546z"/><path fill="#263238" d="M106.919 2.199h-1.67v5.225h1.67z"/><path fill="#263238" d="M106.923 7.644h-1.674a.22.22 0 0 1-.156-.064.22.22 0 0 1-.064-.156V2.198a.22.22 0 0 1 .066-.155.22.22 0 0 1 .154-.065h1.674a.224.224 0 0 1 .221.22v5.226a.22.22 0 0 1-.064.156.22.22 0 0 1-.157.064m-1.453-.441h1.233V2.419h-1.233z"/><path fill="#263238" d="m165.606 39.652-5.989-4.624-8.353-30.857-13.895-1.713 6.011 22.331H73.103l6.02-22.353-13.895 1.713-8.48 31.32-6.334 4.183zM139.105 4.15l10.468.76 6.674 27.469-9.832-7.628h-.53zm-72.172.76 10.468-.76-7.328 22.217.248.084-10.3 6.837z"/><path fill="#263238" d="M165.606 39.886H50.414a.22.22 0 0 1-.124-.402l6.259-4.151 8.44-31.223a.22.22 0 0 1 .186-.164l13.896-1.713a.23.23 0 0 1 .194.075.21.21 0 0 1 .044.203l-5.927 22.036h69.711l-5.936-22.054a.2.2 0 0 1-.005-.107.2.2 0 0 1 .049-.096.24.24 0 0 1 .194-.075l13.896 1.714a.23.23 0 0 1 .19.163l8.33 30.786 5.932 4.602a.22.22 0 0 1 .08.248.22.22 0 0 1-.217.145zm-114.454-.441H164.96l-5.481-4.25a.2.2 0 0 1-.075-.119l-8.313-30.714-13.423-1.652 5.941 22a.22.22 0 0 1-.035.19.23.23 0 0 1-.177.088H73.103a.23.23 0 0 1-.176-.088.22.22 0 0 1-.036-.19L78.82 2.696 65.392 4.348 56.96 35.514a.2.2 0 0 1-.093.128zm8.869-5.923a.2.2 0 0 1-.129-.044.21.21 0 0 1-.088-.23l6.913-28.379a.22.22 0 0 1 .198-.167l10.473-.76a.22.22 0 0 1 .225.291l-7.261 22.01h.04a.23.23 0 0 1 .15.18.22.22 0 0 1-.097.213L60.13 33.469a.2.2 0 0 1-.11.04zM67.11 5.13l-6.74 27.672 9.514-6.308a.2.2 0 0 1-.023-.185l7.226-21.903zm89.137 27.5a.23.23 0 0 1-.137-.05l-9.775-7.578h-.442a.22.22 0 0 1-.131-.043.23.23 0 0 1-.081-.112l-6.802-20.614a.2.2 0 0 1-.008-.107.2.2 0 0 1 .043-.099.22.22 0 0 1 .191-.085l10.472.76a.22.22 0 0 1 .199.167l6.696 27.487a.23.23 0 0 1-.011.134.23.23 0 0 1-.086.104.22.22 0 0 1-.128.022zm-10.203-8.07h.371a.2.2 0 0 1 .132.044l9.337 7.24-6.51-26.714-9.978-.724z"/><path fill="#787878" d="m94.19 41.062-1.03-14.695a6.665 6.665 0 0 0-6.625-6.184H73.006a6.665 6.665 0 0 0-6.625 6.184l-1.03 14.695z"/><path fill="#263238" d="M94.19 41.287H65.33a.23.23 0 0 1-.164-.071.23.23 0 0 1-.057-.168l1.029-14.7a6.91 6.91 0 0 1 6.868-6.4h13.507a6.91 6.91 0 0 1 6.868 6.4l1.03 14.7a.23.23 0 0 1-.058.168.23.23 0 0 1-.163.07m-28.626-.442h28.391L92.94 26.38a6.466 6.466 0 0 0-6.426-5.99H73.006a6.467 6.467 0 0 0-6.426 5.99z"/><path fill="#787878" d="m147.444 41.062-1.029-14.695a6.67 6.67 0 0 0-6.652-6.184h-13.502a6.665 6.665 0 0 0-6.648 6.184l-1.033 14.695z"/><path fill="#263238" d="M147.444 41.287H118.58a.2.2 0 0 1-.146-.075.22.22 0 0 1-.062-.168l1.033-14.7a6.91 6.91 0 0 1 6.869-6.4h13.493a6.91 6.91 0 0 1 6.864 6.4l1.034 14.7a.24.24 0 0 1-.058.168.23.23 0 0 1-.163.075m-28.626-.441h28.392l-1.016-14.466a6.47 6.47 0 0 0-6.427-5.99H126.26a6.463 6.463 0 0 0-6.426 5.99zM76.345 9.314s-2.588-1.85-4.191-.985c-1.604.866-4.934 10.234-5.429 12.332-.494 2.098 2.593 3.825 4.687 4.44 2.093.613 6.29-.738 7.279-1.728.99-.99-2.346-14.059-2.346-14.059"/><path fill="#263238" d="M72.67 25.475a4.7 4.7 0 0 1-1.325-.164c-2.235-.658-5.366-2.45-4.858-4.7.442-1.81 3.794-11.536 5.538-12.477 1.745-.94 4.316.923 4.417 1.003l.067.044.022.08c.56 2.208 3.308 13.25 2.283 14.27-.852.897-3.895 1.944-6.144 1.944m.477-17.155a1.86 1.86 0 0 0-.883.203c-1.444.777-4.752 9.797-5.3 12.186-.442 1.94 2.54 3.591 4.532 4.178 2.075.61 6.148-.76 7.067-1.67.56-.56-.769-7.424-2.381-13.767-.35-.216-1.789-1.13-3.035-1.13"/><path fill="#B2B2B2" d="M93.84 41.455c-.158-.494-.251-.804-.251-.804s-1.798-9.624-2.244-10.393c-.446-.768-6.038-3.273-6.038-3.273l-9.686-.512s-7.248 3.534-7.314 3.975c-.036.239-1.423 5.822-2.717 11.007z"/><path fill="#263238" d="M94.14 41.676H65.313l.07-.274c2.315-9.276 2.69-10.861 2.713-10.985.022-.124.08-.565 7.433-4.143l.053-.026 9.823.534c.941.442 5.667 2.57 6.13 3.361.465.79 2.086 9.47 2.271 10.464 0 0 .093.305.247.782zm-28.267-.442h27.663l-.164-.521c-.724-3.878-1.908-9.806-2.208-10.344-.3-.54-3.759-2.209-5.897-3.167l-9.589-.508c-3.246 1.585-6.81 3.44-7.146 3.825-.102.459-.994 4.068-2.66 10.715"/><path fill="#263238" d="M72.079 38.562a23.4 23.4 0 0 0-1.18-4.253l.42-.146a24.3 24.3 0 0 1 1.197 4.333zm16.961 0c-.182-.884.203-1.9.538-2.796.124-.323.243-.627.323-.906l.442.124c-.089.296-.208.61-.332.94-.318.836-.675 1.768-.521 2.545zM81.018 6.014s-5.768 1.599-7.367 4.695-1.71 3.794-.804 5.3 3.15 4.165 5.234 5.234 8.701-.481 8.701-.481 2.028-.91 2.65-2.51c.623-1.598 2.085-3.846 1.122-6.249s-5.23-5.711-6.563-6.086a6.4 6.4 0 0 0-2.973.097"/><path fill="#263238" d="M80.404 21.822a5.7 5.7 0 0 1-2.425-.398c-2.098-1.073-4.372-3.754-5.3-5.3s-.843-2.341.79-5.504c1.635-3.162 7.249-4.735 7.51-4.805a6.5 6.5 0 0 1 3.091-.11c1.458.41 5.742 3.838 6.714 6.218.83 2.08-.044 4.002-.742 5.544-.141.309-.274.596-.38.883-.667 1.665-2.699 2.593-2.787 2.65a33.7 33.7 0 0 1-6.47.822m2.452-15.84a7 7 0 0 0-1.767.244c-.058 0-5.693 1.612-7.23 4.584-1.573 3.04-1.67 3.653-.809 5.07.919 1.516 3.123 4.117 5.146 5.15s8.485-.48 8.55-.498c0 0 1.918-.884 2.514-2.376.11-.274.243-.57.389-.884.662-1.466 1.493-3.295.733-5.198-.94-2.355-5.216-5.619-6.422-5.954a4 4 0 0 0-1.104-.137"/><path fill="#FFBE9D" d="M85.215 10.065s-2.876 1.766-4.351 2.8c-1.01.675-2.1 1.22-3.246 1.62a1.92 1.92 0 0 0-1.03 2.143c.292 1.546.853 6.895.853 6.895l-1.003 2.173 4.276 4.717 3.392-4.417.37-2.288s3.093-1.917 3.172-2.358.959-6.93.884-7.593-3.317-3.692-3.317-3.692"/><path fill="#263238" d="m80.731 30.757-4.554-5.004 1.038-2.248c-.066-.596-.574-5.384-.848-6.82a2.156 2.156 0 0 1 1.162-2.38c1.131-.4 2.209-.938 3.207-1.604 1.462-1.024 4.333-2.791 4.364-2.809l.14-.088.125.115c.773.724 3.308 3.136 3.387 3.825s-.843 7.38-.883 7.654c-.075.442-1.992 1.714-3.185 2.46l-.362 2.24zM76.7 25.656l4.001 4.417 3.198-4.17.376-2.327.088-.053c1.387-.862 2.955-1.957 3.07-2.209.084-.503.95-6.9.883-7.509-.04-.353-1.599-2-3.123-3.436-.6.371-2.932 1.824-4.2 2.708a14.6 14.6 0 0 1-3.3 1.652 1.684 1.684 0 0 0-.883 1.886c.292 1.541.83 6.7.853 6.916v.062z"/><path fill="#263238" d="M84.914 18.938a.216.216 0 0 1-.212-.159.22.22 0 0 1 .155-.273 4.2 4.2 0 0 0 1.351-.645c.172-.155-.327-.773-.539-1.038s-.335-.42-.335-.561c0-.217.145-1.529.163-1.679a.22.22 0 0 1 .437.049c-.061.574-.159 1.484-.159 1.63 0 0 .142.168.234.282.394.482.981 1.215.495 1.648-.462.338-.98.59-1.532.742zm-.234 1.476q-.665 0-1.475-.848a.222.222 0 1 1 .322-.305c.552.583.928.707 1.14.712a.29.29 0 0 0 .247-.071.225.225 0 0 1 .314 0 .216.216 0 0 1 0 .3.75.75 0 0 1-.544.212zm-.203 3.291a5.3 5.3 0 0 1-1.7-.442c-.478-.323-1.869-1.387-1.869-1.387l2.725 4.695.473-.574z"/><path fill="#263238" d="M83.633 26.788a.21.21 0 0 1-.172-.11l-2.725-4.696a.23.23 0 0 1 .044-.278.22.22 0 0 1 .282 0s1.387 1.069 1.856 1.378a4.8 4.8 0 0 0 1.598.415.22.22 0 0 1 .155.084.23.23 0 0 1 .04.168l-.367 2.288a.23.23 0 0 1-.048.106l-.473.574a.2.2 0 0 1-.086.059q-.05.018-.104.012m-1.979-4.077 2.01 3.472.234-.283.323-2.005a4.5 4.5 0 0 1-1.564-.442c-.22-.159-.627-.455-1.003-.742"/><path fill="#FFBE9D" d="M78.187 15.89s-1.016-3.042-2.208-1.324.698 4.108 1.603 4.054"/><path fill="#263238" d="M77.573 18.83c-.53 0-1.24-.582-1.71-1.408-.6-1.069-.617-2.16-.048-2.995a1.1 1.1 0 0 1 1.034-.605c.883.124 1.484 1.807 1.546 1.997l-.415.14c-.208-.622-.716-1.633-1.193-1.7q-.293-.047-.605.442c-.676.976-.177 2.09.066 2.526.442.756 1.025 1.193 1.325 1.184l.027.442zm5.499-2.458c.252 0 .455-.287.455-.64s-.203-.641-.455-.641c-.25 0-.455.287-.455.64s.204.64.455.64m4.006.001c.252 0 .455-.287.455-.64s-.203-.641-.455-.641c-.25 0-.454.287-.454.64s.203.64.454.64m-5.208-1.81a.2.2 0 0 1-.154-.066.2.2 0 0 1-.067-.155.2.2 0 0 1 .067-.155 2.095 2.095 0 0 1 2.509-.247.22.22 0 0 1 .038.38.22.22 0 0 1-.259 0 1.635 1.635 0 0 0-1.979.181.22.22 0 0 1-.154.062m6.086.216a.22.22 0 0 1-.212-.163.65.65 0 0 0-.344-.442 1.68 1.68 0 0 0-1.122.053.221.221 0 0 1-.168-.406 2.05 2.05 0 0 1 1.484-.045 1.09 1.09 0 0 1 .574.72.225.225 0 0 1-.15.274z"/><path fill="#fff" d="m76.425 24.056 3.737 4.753-2.562 2.778-2.884-5.181z"/><path fill="#263238" d="m77.556 31.96-3.092-5.57 1.965-2.7 4.02 5.155zm-2.575-5.535 2.65 4.788 2.23-2.416-3.44-4.373z"/><path fill="#263238" d="m64.411 5.74 17.394 35.14h-4.678L63.112 6.813"/><path fill="#263238" d="M81.805 41.101h-4.678a.22.22 0 0 1-.203-.136L62.91 6.897a.216.216 0 0 1 .12-.287.217.217 0 0 1 .287.12l13.957 33.93h4.174L64.221 5.837a.22.22 0 0 1 .27-.305c.055.02.101.059.128.11L82.004 40.77a.22.22 0 0 1-.085.3.23.23 0 0 1-.114.031"/><path fill="#fff" d="m80.162 28.81.552 1.603-1.299-.64z"/><path fill="#263238" d="m81.098 30.85-2.023-1.002 1.162-1.497zm-1.325-1.157.574.287-.243-.71z"/><path fill="#fff" d="m81.496 28.01 1.815 3.578 2.778-4.7-1.868-1.496z"/><path fill="#263238" d="m83.298 32.047-2.072-4.086 2.981-2.862 2.17 1.736zm-1.529-3.975 1.56 3.092 2.473-4.188-1.568-1.254z"/><path fill="#fff" d="m81.496 28.01-.782 2.403 1.316-1.285z"/><path fill="#263238" d="m80.228 31.199 1.232-3.785.84 1.766zm1.325-2.593-.331 1.025.56-.548z"/><path fill="#fff" d="M156.648 44.242c.305-.676 1.847-4.196 1.295-5.133-3.145-5.3-4.068-1.766-5.19-4.416-1.891-4.444-3.485-7.54-4.165-8.004-1.325-.883-9.943-2.557-9.943-2.557l-10.565-.274s-9.116 3.728-9.717 4.558a25.5 25.5 0 0 0-3.591 5.99c-.137.335-3.286 2.853-3.427 3.188-1.484 3.609-.106 6.113.247 6.657z"/><path fill="#263238" d="M156.649 44.463H111.57a.22.22 0 0 1-.19-.102c-.314-.486-1.802-3.118-.261-6.86.084-.198.579-.64 1.767-1.682q.868-.712 1.648-1.515a25.2 25.2 0 0 1 3.524-5.901l.106-.141c.641-.853 8.892-4.25 9.832-4.63a.2.2 0 0 1 .089 0l10.565.274c.389.076 8.728 1.683 10.061 2.598 1.021.693 3.309 5.896 4.245 8.096.415.98.742 1.007 1.285 1.05.844.072 1.997.169 3.892 3.353.578.972-.703 4.055-1.281 5.336a.23.23 0 0 1-.203.123m-44.96-.442h44.818c.884-1.983 1.599-4.2 1.246-4.797-1.767-2.99-2.8-3.092-3.534-3.136-.583-.048-1.139-.097-1.656-1.325-2.261-5.3-3.617-7.584-4.086-7.906-1.007-.69-6.89-1.948-9.862-2.518l-10.482-.274c-3.507 1.436-9.178 3.905-9.602 4.47l-.115.146a24.8 24.8 0 0 0-3.445 5.795c-.08.185-.49.56-1.767 1.67q-.877.715-1.665 1.528c-1.382 3.326-.234 5.698.15 6.347"/><path fill="#263238" d="M121.821 43.098a.22.22 0 0 1-.22-.212 260 260 0 0 1-.164-6.382c-.026-1.431-.048-2.871-.093-4.337a.223.223 0 0 1 .221-.221.22.22 0 0 1 .156.064.22.22 0 0 1 .065.157c.044 1.466.066 2.91.093 4.341.035 2.08.075 4.232.163 6.374a.23.23 0 0 1-.058.159.23.23 0 0 1-.154.07zm-.296-11.814a.225.225 0 0 1-.22-.217l-.027-1.095a.23.23 0 0 1 .068-.178.24.24 0 0 1 .179-.065.22.22 0 0 1 .226.216l.026 1.091a.22.22 0 0 1-.216.23zm23.454 11.832a.23.23 0 0 1-.207-.239l.834-11.086a.22.22 0 1 1 .442.03l-.835 11.087a.22.22 0 0 1-.234.208m.932-12.39a.22.22 0 0 1-.193-.152.2.2 0 0 1-.01-.086l.057-.742a.223.223 0 0 1 .39-.126.22.22 0 0 1 .052.161l-.058.742a.22.22 0 0 1-.238.203"/><path fill="#BBA061" d="M130.951 35.793c.106 1.944-.106 5.875-.269 8.45h7.067c-.34-3.066-.884-8.021-.999-9.112-.163-1.6-2.314-6.184-2.314-6.184l1.378-1.82-2.482-2.592-1.599 2.482 1.268 2.093s-2.2 3.649-2.05 6.683"/><path fill="#263238" d="M137.74 44.463h-7.067a.215.215 0 0 1-.208-.143.2.2 0 0 1-.013-.09c.181-2.801.371-6.542.269-8.424-.15-2.796 1.626-6.024 2.006-6.682l-1.202-1.984a.23.23 0 0 1-.033-.117.23.23 0 0 1 .033-.117l1.599-2.482a.22.22 0 0 1 .164-.102.22.22 0 0 1 .181.067l2.482 2.592a.22.22 0 0 1 0 .287l-1.299 1.714c.349.751 2.125 4.638 2.28 6.126.101.994.583 5.358.998 9.112a.25.25 0 0 1-.058.173.22.22 0 0 1-.132.07m-6.824-.441h6.576c-.189-1.718-.843-7.65-.967-8.865-.163-1.546-2.279-6.064-2.297-6.108a.22.22 0 0 1 .023-.226l1.263-1.67-2.156-2.256-1.373 2.133 1.197 1.974a.2.2 0 0 1 .033.115q0 .061-.033.115c-.022.035-2.169 3.622-2.01 6.55.102 1.85-.08 5.455-.256 8.238"/><path fill="#fff" d="m129.463 19.8-.442 3.308 4.686 2.592 4.192-2.535-.164-2.43z"/><path fill="#263238" d="M133.712 25.92a.24.24 0 0 1-.111-.026l-4.686-2.593a.22.22 0 0 1-.111-.22l.442-3.313a.23.23 0 0 1 .076-.144.23.23 0 0 1 .154-.055l8.273.94a.2.2 0 0 1 .134.067.22.22 0 0 1 .06.137l.163 2.425a.21.21 0 0 1-.106.203l-4.191 2.54a.2.2 0 0 1-.097.04m-4.453-2.932 4.444 2.455 3.975-2.398-.146-2.111-7.875-.884z"/><path fill="#263238" d="m129.021 23.108 1.577.87 2.663-1.113-2.968-2.973-.83-.093z"/><path fill="#263238" d="M130.598 24.198a.24.24 0 0 1-.111-.027l-1.572-.883a.22.22 0 0 1-.111-.221l.442-3.313a.23.23 0 0 1 .23-.186l.826.098c.05.005.097.026.132.062l2.973 2.972a.2.2 0 0 1 .056.092q.015.053.001.107a.21.21 0 0 1-.128.16l-2.65 1.117a.3.3 0 0 1-.088.022m-1.325-1.21 1.351.746 2.262-.945-2.681-2.686-.539-.062z"/><path fill="#FFBE9D" d="M129.136 6.712s-1.559 1.113-1.674 2.725.724 9.077 1.616 10.75c.893 1.675 1.948 3.004 4.121 3.397s4.735-1.766 5.013-2.787c.279-1.02 1.325-6.183 1.325-8.127 0-1.943.226-4.178-1.559-5.79s-4.677-1.953-6.068-1.674c-1.392.278-2.774 1.506-2.774 1.506"/><path fill="#263238" d="M133.743 23.85a3 3 0 0 1-.583-.049c-2.337-.442-3.437-1.935-4.276-3.533-.941-1.767-1.767-9.276-1.643-10.866s1.608-2.778 1.767-2.884a7.4 7.4 0 0 1 2.88-1.55c1.44-.288 4.417.061 6.263 1.726 1.678 1.52 1.656 3.565 1.634 5.371v.583c0 2.015-1.082 7.253-1.325 8.19s-2.531 3.012-4.717 3.012m-.795-18.512a5.3 5.3 0 0 0-.985.084c-1.325.265-2.65 1.445-2.681 1.454 0 0-1.476 1.077-1.582 2.566-.119 1.718.747 9.046 1.591 10.627.909 1.71 1.934 2.92 3.975 3.282 2.04.362 4.5-1.697 4.757-2.624.278-.998 1.325-6.184 1.325-8.07v-.592c.022-1.793.039-3.648-1.489-5.035-1.391-1.232-3.445-1.692-4.911-1.692"/><path fill="#263238" d="M137.987 6.88c-1.767-1.616-4.677-1.952-6.069-1.674-1.391.278-2.782 1.506-2.782 1.506s-1.559 1.113-1.674 2.726c.016 1.733.153 3.462.41 5.176.115.022.261-.03.261-.442 0-.667-.393-1.055.11-1.616a16 16 0 0 0 1.727-2.058 3.44 3.44 0 0 0 .332-1.838 6 6 0 0 0 3.008 1.06c2.005.221 4.178.221 4.509.278s-.11.39.393 1.056c.504.667.72 1.003.778 1.325.057.323.304 1.9.371 2.337q.158-1.024.185-2.059c0-1.92.225-4.165-1.559-5.777"/><path fill="#263238" d="M139.361 14.95a.22.22 0 0 1-.217-.186l-.022-.124c-.088-.56-.304-1.948-.349-2.208a3.5 3.5 0 0 0-.737-1.241 1.28 1.28 0 0 1-.301-.963c-.154 0-.472-.031-.883-.044-.905-.031-2.275-.084-3.582-.23a7 7 0 0 1-2.752-.853 3.14 3.14 0 0 1-.38 1.529 12.4 12.4 0 0 1-1.417 1.731l-.332.362a.77.77 0 0 0-.141.835q.08.31.088.632a.7.7 0 0 1-.194.578.4.4 0 0 1-.327.084.23.23 0 0 1-.181-.19 38 38 0 0 1-.411-5.22c.12-1.7 1.696-2.845 1.767-2.893a7.4 7.4 0 0 1 2.867-1.542c1.44-.287 4.417.062 6.263 1.727 1.678 1.52 1.656 3.564 1.634 5.37v.584q-.027 1.05-.186 2.09a.22.22 0 0 1-.073.134.22.22 0 0 1-.143.055zm-9.059-6.511a.2.2 0 0 1 .141.053 5.9 5.9 0 0 0 2.893 1.007c1.294.141 2.65.194 3.534.225.552 0 .843.036.971.053a.39.39 0 0 1 .319.473.87.87 0 0 0 .212.671c.507.68.755 1.043.817 1.431 0 .102.061.362.11.676v-.95c.022-1.793.04-3.648-1.488-5.035-1.723-1.563-4.528-1.89-5.879-1.62-1.352.269-2.65 1.444-2.681 1.452-.031.01-1.493 1.091-1.599 2.58a25.5 25.5 0 0 0 .19 3.255q.08-.166.207-.3l.336-.367q.756-.77 1.365-1.66c.253-.53.358-1.117.305-1.701a.22.22 0 0 1 .023-.126.22.22 0 0 1 .091-.09.2.2 0 0 1 .133-.027m3.631 9.474a3.4 3.4 0 0 1-1.52-.547.216.216 0 0 1-.066-.305.223.223 0 0 1 .305-.067c.243.155.967.548 1.4.469.407-.1.792-.276 1.135-.517a.221.221 0 0 1 .256.358 3.8 3.8 0 0 1-1.325.596 2 2 0 0 1-.185.013"/><path fill="#263238" d="M137.934 13.337a.2.2 0 0 1-.141-.053 1.874 1.874 0 0 0-2.292-.101.223.223 0 0 1-.309-.049.22.22 0 0 1 .048-.309 2.35 2.35 0 0 1 2.831.12.216.216 0 0 1 .031.308.22.22 0 0 1-.168.084m-7.796.22a.22.22 0 0 1-.22-.205.23.23 0 0 1 .053-.161c.936-1.087 2.274-.645 2.849-.26a.222.222 0 0 1-.085.385.22.22 0 0 1-.158-.02c-.058-.035-1.356-.883-2.275.186a.21.21 0 0 1-.164.075m1.723.615c0 .278-.137.503-.305.503s-.304-.225-.304-.503.137-.5.304-.5c.168 0 .305.222.305.5m4.651 0c0 .278-.137.503-.305.503s-.309-.225-.309-.503.137-.5.309-.5c.173 0 .305.222.305.5m-2.809 5.472a6.1 6.1 0 0 1-2.262-.441.2.2 0 0 1-.071-.05.2.2 0 0 1-.047-.072.224.224 0 0 1 .295-.285 5.6 5.6 0 0 0 4.161-.053.215.215 0 0 1 .291.106q.02.04.022.084a.23.23 0 0 1-.058.16.2.2 0 0 1-.07.052 5.4 5.4 0 0 1-2.261.5"/><path fill="#FFBE9D" d="M127.798 13.615s-.884-.725-1.224.556 1.727 2.95 1.727 2.95z"/><path fill="#263238" d="M128.301 17.361a.23.23 0 0 1-.141-.048c-.089-.071-2.169-1.767-1.802-3.18a1.15 1.15 0 0 1 .667-.884 1.1 1.1 0 0 1 .914.217c.042.036.07.086.079.14l.5 3.508a.2.2 0 0 1-.006.094.22.22 0 0 1-.211.158zm-1.038-3.71a.4.4 0 0 0-.101 0c-.204.07-.314.353-.376.583-.19.733.596 1.718 1.206 2.319l-.398-2.805a.67.67 0 0 0-.326-.115z"/><path fill="#FFBE9D" d="M139.493 13.827s.5-.835.946.225-1.56 3.397-1.56 3.397z"/><path fill="#263238" d="M138.879 17.68a.2.2 0 0 1-.092-.022.21.21 0 0 1-.124-.234l.61-3.622a.16.16 0 0 1 .03-.075.79.79 0 0 1 .659-.442c.273 0 .499.243.68.667.486 1.153-1.383 3.379-1.595 3.626a.22.22 0 0 1-.168.102m.822-3.759-.442 2.712c.623-.883 1.215-1.96.994-2.487-.124-.287-.238-.393-.305-.397-.066-.005-.185.08-.247.172m-5.746 4.243s-2.65-.37-3.207.517c-.481.773-.212 2.915.23 3.949a5.04 5.04 0 0 0 2.208.954c1.078.194 2.253-.247 3.198-.884.221-.313.534-1.104.42-3.038-.08-1.542-.756-1.697-2.849-1.498m1.992 3.618a3.58 3.58 0 0 1-2.107.627c-.442 0-1.895-.04-2.394-.548s-.883-2.42-.398-3.043c.486-.623 2.876-.362 2.876-.362 1.881-.142 2.491-.035 2.575 1.064.15 2.014-.552 2.257-.552 2.257z"/><path fill="#263238" d="M133.734 23.849a3 3 0 0 1-.574-.049 5.26 5.26 0 0 1-2.319-.994.3.3 0 0 1-.067-.088c-.441-1.078-.75-3.295-.212-4.152.597-.958 3.013-.675 3.397-.622 1.285-.12 2.076-.107 2.553.3a1.9 1.9 0 0 1 .526 1.427c.114 1.925-.186 2.79-.442 3.18a.2.2 0 0 1-.062.057 5.37 5.37 0 0 1-2.8.94m-2.575-1.36a4.7 4.7 0 0 0 2.08.883c1.179.216 2.372-.398 2.999-.8.225-.417.346-.882.353-1.356a1.14 1.14 0 0 1-.534.764 3.8 3.8 0 0 1-2.208.659h-.049c-.905-.027-2.01-.12-2.491-.61a2.5 2.5 0 0 1-.499-.994c.059.497.176.985.349 1.453m1.731-3.87c-.751 0-1.475.089-1.669.336-.442.53-.04 2.319.384 2.752s1.767.441 2.208.477h.049a3.44 3.44 0 0 0 1.97-.583.2.2 0 0 1 .048-.027c.027 0 .548-.313.416-2.045-.062-.821-.345-1.007-2.337-.861a14 14 0 0 0-1.069-.049"/><path fill="#263238" d="M134.577 21.5c0 .224-.322.909-.72.909s-.72-.685-.72-.91.323-.41.72-.41c.398 0 .72.185.72.41"/><path fill="#263238" d="M133.857 22.63c-.569 0-.94-.843-.94-1.13 0-.362.406-.632.94-.632.535 0 .941.27.941.632 0 .278-.371 1.13-.941 1.13m0-1.325c-.326 0-.499.142-.499.19 0 .16.279.69.499.69.221 0 .5-.53.5-.69 0-.044-.173-.185-.5-.185z"/><path fill="#fff" d="m133.707 25.7-4.024 3.75-2.151-5.68 1.379-1.104z"/><path fill="#263238" d="M129.684 29.67h-.049a.22.22 0 0 1-.159-.136l-2.151-5.68a.22.22 0 0 1 .071-.252l1.378-1.105a.22.22 0 0 1 .256 0l4.797 3.035a.21.21 0 0 1 .101.163.22.22 0 0 1-.066.186l-4.028 3.75a.2.2 0 0 1-.15.04m-1.886-5.83 1.974 5.225 3.578-3.33-4.417-2.796z"/><path fill="#fff" d="m133.707 25.7 3.256 4.25 2.151-5.628-1.215-1.157z"/><path fill="#263238" d="M136.984 30.17a.22.22 0 0 1-.172-.088l-3.255-4.249a.2.2 0 0 1-.04-.081.2.2 0 0 1-.004-.091.23.23 0 0 1 .106-.15l4.191-2.536a.21.21 0 0 1 .265.031l1.215 1.157q.047.047.062.112a.23.23 0 0 1-.009.127l-2.151 5.623a.23.23 0 0 1-.177.14zm-2.928-4.417 2.862 3.737 1.961-5.119-1.011-.932z"/><path fill="#263238" d="M151.234 5.74 125.51 40.88h4.677l22.345-34.067"/><path fill="#263238" d="M130.187 41.102h-4.686a.225.225 0 0 1-.177-.354l25.724-35.14a.22.22 0 0 1 .397.096.22.22 0 0 1-.039.164L125.942 40.66h4.121l22.284-33.97a.222.222 0 0 1 .386.085.22.22 0 0 1-.02.158L130.359 41a.22.22 0 0 1-.172.102"/><path fill="#fff" d="M109.909 44.242h6.497c.623-.725 1.224-1.55 1.383-1.767a3.76 3.76 0 0 0 .552-3.313 5.13 5.13 0 0 0-2.072-2.694l-1.722.344s-1.453-.481-2.557 0c-1.105.482-2.553 2.143-3.092 4.073a3.09 3.09 0 0 0 1.011 3.357"/><path fill="#263238" d="M116.406 44.464h-6.497a.25.25 0 0 1-.146-.049 3.36 3.36 0 0 1-1.091-3.569c.57-2.005 2.09-3.719 3.229-4.218 1.056-.442 2.363-.11 2.65-.026l1.674-.332a.2.2 0 0 1 .155.027 5.3 5.3 0 0 1 2.173 2.822 4.01 4.01 0 0 1-.596 3.512l-.195.256c-.269.353-.72.954-1.192 1.502a.23.23 0 0 1-.164.075m-6.417-.442h6.316c.441-.517.857-1.069 1.113-1.405l.199-.26a3.54 3.54 0 0 0 .512-3.118 4.86 4.86 0 0 0-1.904-2.518l-1.638.327a.2.2 0 0 1-.111 0s-1.387-.442-2.398 0c-1.012.441-2.447 2.054-2.982 3.93a2.9 2.9 0 0 0 .893 3.043"/><path fill="#263238" d="M113.257 43.063a.22.22 0 0 1-.181-.097c-1.109-1.612-.83-3.723.782-5.936a.224.224 0 0 1 .368.015.2.2 0 0 1 .03.08.23.23 0 0 1-.04.166c-1.06 1.453-2.054 3.573-.778 5.428a.2.2 0 0 1 .036.164.2.2 0 0 1-.093.14.2.2 0 0 1-.124.04"/><path fill="#FFBE9D" d="M123.893 34.777s1.144-.283 1.524-.044c.44.41.783.914 1.002 1.475.19.442-.097.808-.715.906s-1.427-.716-1.427-.716z"/><path fill="#263238" d="M125.602 37.339c-.676 0-1.395-.698-1.484-.786a.23.23 0 0 1-.057-.106l-.38-1.617a.22.22 0 0 1 .159-.265c.208-.053 1.259-.296 1.696-.022.508.318.994 1.37 1.087 1.572a.78.78 0 0 1 0 .698 1.14 1.14 0 0 1-.884.517 1 1 0 0 1-.137.009m-1.126-1.056c.238.225.804.672 1.193.61a.73.73 0 0 0 .552-.287.33.33 0 0 0 0-.31 3.8 3.8 0 0 0-.915-1.378 2.3 2.3 0 0 0-1.139.027z"/><path fill="#263238" d="m147.519 37.36-.923-1.183-9.554 5.993h-6.855l-9.487-5.4-.791.857 4.669 6.616h17.588z"/><path fill="#263238" d="M142.166 44.463h-17.588a.21.21 0 0 1-.182-.093l-4.668-6.625a.226.226 0 0 1 .022-.278l.79-.857a.224.224 0 0 1 .27-.044l9.439 5.375h6.736l9.5-5.963a.226.226 0 0 1 .292.053l.923 1.184a.226.226 0 0 1 0 .274l-5.353 6.881a.22.22 0 0 1-.181.093m-17.474-.442h17.363l5.181-6.66-.693-.884-9.386 5.888a.2.2 0 0 1-.115.035h-6.855a.2.2 0 0 1-.106-.03l-9.337-5.3-.544.573z"/><path fill="#263238" d="M119.441 44.242a14.249 14.249 0 0 1 28.449 0h2.275a16.52 16.52 0 0 0-16.5-15.709 16.516 16.516 0 0 0-16.499 15.71z"/><path fill="#263238" d="M150.165 44.464h-2.275a.216.216 0 0 1-.221-.208 14.027 14.027 0 0 0-28.007 0 .23.23 0 0 1-.07.148.22.22 0 0 1-.151.06h-2.275a.2.2 0 0 1-.086-.017.2.2 0 0 1-.073-.05.2.2 0 0 1-.062-.163 16.741 16.741 0 0 1 33.44 0 .24.24 0 0 1-.061.163.23.23 0 0 1-.159.067m-2.068-.442h1.833a16.298 16.298 0 0 0-32.53 0h1.833a14.466 14.466 0 0 1 14.432-13.428 14.47 14.47 0 0 1 14.432 13.428"/><path fill="#FFBE9D" d="M117.656 33.638s-2.906 4.187-2.999 5.666.57 3 2.001 3.238c1.431.239 1.665-.667 1.665-.667s3.092.667 3.238.667a.7.7 0 0 0 .574-.477q.13-.398.331-.764c.296-.214.54-.49.716-.809.283-.52.38-.76.38-.76.243-.342.45-.71.618-1.094q.1-.472.097-.955c.279-.37.434-.82.442-1.285-.049-.667-.716-1.855-2.098-2.62-1.383-.763-3.33-1.094-3.997-.997a1.39 1.39 0 0 0-.968.857"/><path fill="#263238" d="M117.109 42.803q-.243-.001-.482-.045c-1.638-.274-2.283-1.992-2.186-3.471s2.778-5.398 3.026-5.742a1.56 1.56 0 0 1 1.117-.972c.72-.102 2.738.256 4.134 1.025s2.151 1.983 2.209 2.796c.003.493-.152.974-.442 1.373q.003.477-.102.941a5.8 5.8 0 0 1-.636 1.144c-.031.07-.141.318-.379.76a2.7 2.7 0 0 1-.738.852 4 4 0 0 0-.292.676.91.91 0 0 1-.786.636c-.137 0-1.934-.384-3.114-.636a1.44 1.44 0 0 1-1.329.663m1.767-9.82a2 2 0 0 0-.23 0c-.526.076-.778.712-.778.716l-.026.049c-.027.044-2.871 4.156-2.959 5.556-.084 1.286.441 2.779 1.815 3.004 1.197.199 1.409-.477 1.418-.508a.223.223 0 0 1 .26-.155c1.153.248 3.039.645 3.203.663a.48.48 0 0 0 .344-.318q.14-.42.354-.809a.2.2 0 0 1 .07-.075c.265-.195.485-.445.645-.733.274-.499.367-.733.371-.737l.022-.044q.344-.486.588-1.03.089-.436.088-.883a.2.2 0 0 1 .044-.133c.242-.33.376-.726.384-1.135-.039-.543-.609-1.687-1.983-2.442a8.9 8.9 0 0 0-3.63-.985"/><path fill="#263238" d="M124.277 37.903a.2.2 0 0 1-.11-.03l-3.913-2.245a.23.23 0 0 1-.103-.135.216.216 0 0 1 .154-.273.22.22 0 0 1 .169.024l3.914 2.248a.22.22 0 0 1 .1.247.22.22 0 0 1-.211.164"/><path fill="#263238" d="M119.967 35.432a.2.2 0 0 1-.106-.031l-.504-.288a.226.226 0 0 1-.084-.3.23.23 0 0 1 .305-.084l.499.292a.2.2 0 0 1 .066.055.2.2 0 0 1 .046.163.224.224 0 0 1-.222.192m3.595 4.521a.2.2 0 0 1-.102-.026l-5.238-2.69a.226.226 0 0 1-.093-.3.22.22 0 0 1 .296-.093l5.238 2.712a.226.226 0 0 1 .093.3.22.22 0 0 1-.194.097m-1.096 1.57a.2.2 0 0 1-.088 0l-3.432-1.52a.223.223 0 0 1 .011-.41.22.22 0 0 1 .17.004l3.428 1.524a.2.2 0 0 1 .072.049q.032.03.047.072a.2.2 0 0 1 .015.086q0 .045-.02.085a.23.23 0 0 1-.203.11m-3.94-1.745a.2.2 0 0 1-.088 0l-.68-.3a.22.22 0 0 1-.117-.124.223.223 0 0 1 .128-.288.22.22 0 0 1 .17.005l.68.3a.225.225 0 0 1 .111.292.22.22 0 0 1-.204.115"/><path fill="#fff" d="M151.216 44.242h6.497a3.1 3.1 0 0 0 1.025-3.339c-.552-1.93-2.001-3.59-3.092-4.072s-2.558 0-2.558 0l-1.727-.345a5.16 5.16 0 0 0-2.071 2.695 3.78 3.78 0 0 0 .552 3.312c.15.199.747 1.025 1.374 1.75"/><path fill="#263238" d="M157.713 44.463h-6.497a.21.21 0 0 1-.168-.075c-.473-.547-.927-1.148-1.197-1.501l-.194-.257a4.02 4.02 0 0 1-.592-3.511 5.33 5.33 0 0 1 2.169-2.822.2.2 0 0 1 .159-.027l1.669.331c.296-.084 1.603-.441 2.65.027 1.135.499 2.65 2.208 3.229 4.218a3.35 3.35 0 0 1-1.095 3.569.23.23 0 0 1-.133.048m-6.395-.441h6.311a2.9 2.9 0 0 0 .884-3.057c-.539-1.877-1.939-3.476-2.986-3.93-1.047-.456-2.381 0-2.394 0a.2.2 0 0 1-.115 0l-1.634-.328a4.9 4.9 0 0 0-1.908 2.518 3.6 3.6 0 0 0-.109 1.62 3.6 3.6 0 0 0 .621 1.498c.044.049.11.142.203.26.27.35.685.902 1.127 1.419"/><path fill="#263238" d="M154.365 43.063a.23.23 0 0 1-.128-.04.22.22 0 0 1-.053-.304q.236-.346.384-.738a.222.222 0 0 1 .409-.015.22.22 0 0 1 .006.17 4 4 0 0 1-.441.83.22.22 0 0 1-.177.097m.601-1.537h-.031a.22.22 0 0 1-.19-.247c.208-1.493-.614-2.99-1.325-3.975a.22.22 0 0 1 .049-.31.22.22 0 0 1 .164-.04c.058.01.11.042.145.09.773 1.06 1.647 2.65 1.426 4.306a.225.225 0 0 1-.238.177"/><path fill="#FFBE9D" d="M143.725 34.777s-1.144-.283-1.524-.044a4.05 4.05 0 0 0-.998 1.475c-.19.442.093.808.715.906.623.097 1.427-.716 1.427-.716z"/><path fill="#263238" d="M142.02 37.339a1.13 1.13 0 0 1-1.021-.517.78.78 0 0 1 0-.698c.093-.203.579-1.254 1.087-1.572.442-.274 1.489-.031 1.692.022a.22.22 0 0 1 .163.265l-.38 1.616a.2.2 0 0 1-.062.106c-.083.08-.808.778-1.479.778m.658-2.483a.7.7 0 0 0-.358.062 3.8 3.8 0 0 0-.914 1.378.33.33 0 0 0 0 .31.72.72 0 0 0 .548.287c.388.066.958-.385 1.197-.61l.313-1.325a4.5 4.5 0 0 0-.786-.102"/><path fill="#FFBE9D" d="M149.966 33.638s2.902 4.187 2.999 5.666-.574 3-2.001 3.238c-1.427.239-1.665-.667-1.665-.667s-3.092.667-3.242.667a.69.69 0 0 1-.57-.477 4.3 4.3 0 0 0-.331-.764 2.5 2.5 0 0 1-.716-.809 7 7 0 0 1-.38-.76 6.2 6.2 0 0 1-.618-1.094 4.6 4.6 0 0 1-.097-.955 2.17 2.17 0 0 1-.442-1.285c.049-.667.716-1.855 2.094-2.62 1.378-.763 3.335-1.094 4.001-.997a1.38 1.38 0 0 1 .968.857"/><path fill="#263238" d="M150.513 42.803a1.44 1.44 0 0 1-1.325-.676c-1.174.252-2.972.636-3.091.636a.89.89 0 0 1-.787-.636 4 4 0 0 0-.291-.676 2.7 2.7 0 0 1-.738-.852c-.243-.442-.349-.69-.38-.76a6 6 0 0 1-.64-1.144 5 5 0 0 1-.102-.94 2.32 2.32 0 0 1-.441-1.374c.057-.817.834-2.037 2.208-2.796 1.374-.76 3.419-1.126 4.139-1.025a1.58 1.58 0 0 1 1.117.972c.248.358 2.929 4.275 3.026 5.742s-.548 3.197-2.187 3.471a3 3 0 0 1-.508.058m-1.214-1.149a.22.22 0 0 1 .212.164c0 .026.221.702 1.418.503 1.364-.225 1.899-1.718 1.815-3.003-.093-1.4-2.933-5.512-2.964-5.556a.2.2 0 0 1-.022-.05s-.252-.64-.777-.715a8.35 8.35 0 0 0-3.865.977c-1.369.755-1.939 1.899-1.979 2.442.007.41.142.806.385 1.135a.23.23 0 0 1 .044.133q-.002.445.088.883.24.546.588 1.03l.022.043q.167.378.371.738c.159.287.377.536.64.733a.2.2 0 0 1 .071.075q.216.386.353.809a.47.47 0 0 0 .362.318c.146 0 2.036-.416 3.189-.663z"/><path fill="#263238" d="M143.345 37.904a.221.221 0 0 1-.11-.411l3.913-2.248a.215.215 0 0 1 .244.014q.035.027.056.065a.23.23 0 0 1 .023.169.23.23 0 0 1-.102.136l-3.914 2.244a.2.2 0 0 1-.11.03"/><path fill="#263238" d="M147.651 35.431a.221.221 0 0 1-.11-.41l.503-.292a.23.23 0 0 1 .301.084.21.21 0 0 1-.014.244.2.2 0 0 1-.066.056l-.503.287a.2.2 0 0 1-.111.031m-3.599 4.522a.22.22 0 0 1-.22-.169.22.22 0 0 1 .014-.146.23.23 0 0 1 .104-.104l5.238-2.712a.22.22 0 0 1 .296.092.226.226 0 0 1-.092.3l-5.239 2.713a.2.2 0 0 1-.101.026m1.104 1.568a.22.22 0 0 1-.195-.317.22.22 0 0 1 .102-.102l3.432-1.524a.23.23 0 0 1 .17-.003q.04.015.072.047.032.03.05.07a.223.223 0 0 1-.115.292l-3.428 1.52a.2.2 0 0 1-.088.017m3.935-1.745a.22.22 0 0 1-.198-.132.22.22 0 0 1-.005-.169.22.22 0 0 1 .115-.123l.68-.3a.23.23 0 0 1 .17-.003.22.22 0 0 1 .122.118.227.227 0 0 1-.111.291l-.68.3a.2.2 0 0 1-.093.018m14.192 33.485v27.897H54.221V73.261H33.722v40.772a5.744 5.744 0 0 0 5.742 5.742h9.05a5.73 5.73 0 0 0 4.06-1.681 5.76 5.76 0 0 0 1.683-4.061v-1.881h9.933l4.651-2.96h79.437l5.932 3.379h9.09v1.462a5.743 5.743 0 0 0 5.742 5.742h9.019a5.75 5.75 0 0 0 4.061-1.681 5.75 5.75 0 0 0 1.681-4.061V73.261z"/><path fill="#263238" d="M178.062 119.978h-9.051a5.96 5.96 0 0 1-4.215-1.736 5.97 5.97 0 0 1-1.752-4.209v-1.241h-8.834a.2.2 0 0 1-.106-.027l-5.87-3.352H68.872l-4.598 2.911a.2.2 0 0 1-.12.035h-9.716v1.661a5.953 5.953 0 0 1-5.945 5.945h-9.046a5.954 5.954 0 0 1-5.945-5.945V73.26a.22.22 0 0 1 .22-.22h20.5a.22.22 0 0 1 .22.22v27.677h108.602V73.261c0-.059.023-.115.065-.156a.22.22 0 0 1 .156-.065h20.538a.22.22 0 0 1 .221.22v40.773a5.96 5.96 0 0 1-1.75 4.208 5.96 5.96 0 0 1-4.212 1.737m-23.807-7.628h9.028a.22.22 0 0 1 .221.221v1.462a5.51 5.51 0 0 0 5.507 5.503h9.051a5.51 5.51 0 0 0 5.507-5.503V73.482h-20.083v27.676a.22.22 0 0 1-.221.221H54.221a.223.223 0 0 1-.22-.221V73.482H33.942v40.551a5.51 5.51 0 0 0 5.504 5.503h9.05A5.506 5.506 0 0 0 54 114.033v-1.882a.22.22 0 0 1 .22-.22h9.886l4.594-2.924a.2.2 0 0 1 .119-.036h79.46a.2.2 0 0 1 .106.027z"/><path fill="#BBA061" d="M179.559 53.181c-.76-1.52-6.303-7.305-7.416-8.462a2.2 2.2 0 0 1-.327-.442c-1.356-2.589-12.857-32.243-14.876-35.993-3.697-6.9-6.669-5.862-10.623-6.365h-.348L115.96.404c-4.942-.25-9.894-.25-14.836 0L76.756 1.623c-6.78.345-13.312-.093-17.036 6.652-2.067 3.736-13.52 33.391-14.876 35.989q-.134.242-.327.441c-1.122 1.162-6.656 6.944-7.416 8.463-.843 1.692-4.227 8.03-4.227 9.275 0 1.096.787 19.178 4.263 33.348a12.1 12.1 0 0 0 8.418 8.829q.311.101.636.133h26.33a1.99 1.99 0 0 0 1.723-.994l6.227-10.76c.123-.212.285-.4.477-.552a14.96 14.96 0 0 1 9.218-3.123h36.355a15 15 0 0 1 9.196 3.123c.19.154.35.341.473.552l6.227 10.76a2 2 0 0 0 1.723.994h26.329q.325-.032.636-.133a12.1 12.1 0 0 0 8.419-8.794c3.476-14.17 4.262-32.243 4.262-33.347.017-1.268-3.384-7.606-4.227-9.298M50.414 39.652c5.3-10.353 15.216-33.7 15.216-33.7 48.405-4.859 85.599-.212 85.599-.212l14.373 33.912c-32.756-3.167-115.188 0-115.188 0"/><path fill="#263238" d="M170.469 104.974H144.14a2.2 2.2 0 0 1-1.913-1.104L136 93.11a1.8 1.8 0 0 0-.442-.49 14.8 14.8 0 0 0-9.068-3.092H90.166a14.8 14.8 0 0 0-9.068 3.092c-.17.134-.313.301-.42.49l-6.232 10.76a2.21 2.21 0 0 1-1.912 1.104H46.19a2.6 2.6 0 0 1-.698-.141 12.37 12.37 0 0 1-8.573-8.953c-3.613-14.74-4.266-33.237-4.266-33.4 0-1.03 1.899-4.815 3.679-8.278l.574-1.117c.751-1.51 5.892-6.904 7.451-8.52q.173-.18.288-.402c.574-1.1 2.968-7.067 5.741-13.993 3.724-9.302 7.95-19.85 9.139-22 3.427-6.206 9.183-6.436 15.278-6.683.645-.027 1.29-.049 1.939-.084L93.47.563l7.641-.38c4.929-.246 9.929-.242 14.858 0L145.982 1.7a.6.6 0 0 0 .123 0 1 1 0 0 1 .243 0c.614.08 1.211.12 1.767.159 3.127.212 5.826.393 9.006 6.32 1.131 2.107 5.225 12.306 8.834 21.303 2.8 6.97 5.441 13.555 6.038 14.686q.112.223.287.402c1.108 1.153 6.678 6.97 7.451 8.52l.574 1.118c1.767 3.462 3.68 7.248 3.68 8.277 0 .163-.659 18.666-4.267 33.4a12.34 12.34 0 0 1-8.551 8.931 2.7 2.7 0 0 1-.698.159m-80.303-15.87h36.355a15.27 15.27 0 0 1 9.346 3.172c.212.17.39.378.526.614l6.228 10.759a1.76 1.76 0 0 0 1.532.883h26.329a2.7 2.7 0 0 0 .574-.123 11.9 11.9 0 0 0 8.269-8.635c3.6-14.69 4.253-33.127 4.253-33.295 0-1.011-2.451-5.781-3.63-8.074-.239-.468-.442-.857-.575-1.126-.746-1.488-6.276-7.266-7.376-8.392a2.2 2.2 0 0 1-.362-.5c-.605-1.152-3.132-7.441-6.056-14.73-3.608-8.983-7.698-19.169-8.833-21.258-3.061-5.71-5.521-5.879-8.644-6.09-.579-.04-1.184-.08-1.811-.16a1 1 0 0 0-.141 0 1 1 0 0 1-.19 0L115.947.634a148 148 0 0 0-14.814 0l-7.641.38-16.727.84c-.65.035-1.299.057-1.943.083-5.968.239-11.604.464-14.912 6.453-1.175 2.13-5.393 12.66-9.112 21.952-2.778 6.93-5.176 12.915-5.742 14.033a2.3 2.3 0 0 1-.362.508c-1.104 1.144-6.625 6.916-7.376 8.392-.133.27-.336.658-.574 1.126-1.18 2.292-3.631 7.067-3.631 8.074 0 .163.654 18.604 4.254 33.294a11.89 11.89 0 0 0 8.264 8.635q.281.094.578.124h26.329a1.76 1.76 0 0 0 1.533-.883l6.21-10.755a2.3 2.3 0 0 1 .525-.614 15.27 15.27 0 0 1 9.36-3.172m75.44-49.217c-32.376-3.131-114.335-.03-115.161 0a.22.22 0 0 1-.194-.102.2.2 0 0 1 0-.216C55.44 29.322 65.334 6.098 65.43 5.877a.23.23 0 0 1 .181-.132c47.875-4.81 85.277-.256 85.652-.212a.23.23 0 0 1 .104.044q.045.035.069.088l14.372 33.917q.028.05.028.109a.2.2 0 0 1-.028.108.22.22 0 0 1-.203.088M65.785 6.173c-.773 1.807-9.934 23.246-15.018 33.26 6.073-.226 82.967-2.991 114.477 0l-14.178-33.46c-2.412-.318-38.913-4.456-85.277.186z"/><path fill="#787878" d="m73.669 104.753-1.48 3.379h71.863l-1.056-3.379-6.974-12.05s-2.747-3.17-9.51-3.378c-6.762-.208-36.355 0-36.355 0a14.07 14.07 0 0 0-9.51 3.379z"/><path fill="#263238" d="M144.052 108.348H72.189a.22.22 0 0 1-.185-.097.22.22 0 0 1 0-.212l1.48-3.379v-.022l6.965-12.045a.2.2 0 0 1 .044-.057 14.43 14.43 0 0 1 9.673-3.432c.278 0 29.655-.212 36.342 0 6.784.212 9.558 3.326 9.673 3.458l6.987 12.081v.044l1.056 3.383a.2.2 0 0 1 .008.101.2.2 0 0 1-.039.093.22.22 0 0 1-.141.084m-71.527-.441h71.226l-.963-3.07-6.961-12.027s-2.756-3.066-9.328-3.269c-6.683-.212-36.046 0-36.342 0a13.98 13.98 0 0 0-9.342 3.304l-6.952 12.001zm7.27-43.312s5.707 10.159 7.398 11.837c1.692 1.678 3.596 1.687 5.919 1.9 2.323.211 34.24 0 34.24 0s2.535-.442 3.807-2.324 5.494-11.413 5.494-11.413z"/><path fill="#263238" d="M103.028 78.65c-5.08 0-9.148-.027-9.934-.098l-.64-.053c-2.054-.172-3.825-.322-5.415-1.912-1.692-1.692-7.2-11.484-7.434-11.886a.21.21 0 0 1 0-.216.22.22 0 0 1 .194-.111h56.854a.23.23 0 0 1 .186.102.22.22 0 0 1 0 .207c-.172.389-4.249 9.55-5.512 11.449-1.264 1.899-3.843 2.402-3.976 2.42-.843.005-14.483.097-24.323.097M80.175 64.815c.998 1.766 5.698 9.977 7.177 11.457 1.48 1.48 3.092 1.612 5.137 1.767l.645.053c2.288.207 33.899 0 34.217 0 0 0 2.425-.442 3.622-2.209 1.113-1.67 4.598-9.416 5.34-11.068z"/><path fill="#787878" d="M85.458 65.974s4.571 8.122 5.927 9.478 2.875 1.352 4.74 1.524c1.863.172 27.419 0 27.419 0s2.028-.34 3.043-1.864 4.417-9.138 4.417-9.138z"/><path fill="#263238" d="M104.061 77.271c-4.068 0-7.327-.022-7.95-.08l-.512-.04c-1.652-.14-3.092-.26-4.364-1.545-1.36-1.36-5.773-9.191-5.959-9.527a.21.21 0 0 1 0-.217.22.22 0 0 1 .19-.11h45.525a.22.22 0 0 1 .186.102.22.22 0 0 1 0 .207c-.137.314-3.401 7.65-4.417 9.174s-3.092 1.943-3.194 1.957c-.715.004-11.62.08-19.505.08M85.837 66.194c.884 1.532 4.54 7.95 5.703 9.103 1.16 1.153 2.46 1.276 4.09 1.413l.512.044c1.829.168 27.142 0 27.385 0 0 0 1.916-.34 2.866-1.766.883-1.325 3.595-7.35 4.245-8.794zm46.232 34.965-1.268-3.49a5.48 5.48 0 0 0-5.265-3.617l-34.323.344a5.49 5.49 0 0 0-5.177 4.015l-.857 2.748z"/><path fill="#263238" d="M132.069 101.379h-46.89a.21.21 0 0 1-.177-.089.22.22 0 0 1-.035-.194l.857-2.752a5.74 5.74 0 0 1 5.384-4.17l34.328-.344a5.695 5.695 0 0 1 5.473 3.764l1.267 3.489a.2.2 0 0 1 .01.104.2.2 0 0 1-.036.099.2.2 0 0 1-.08.067.2.2 0 0 1-.101.026m-46.59-.442h46.276l-1.162-3.189a5.23 5.23 0 0 0-5.052-3.472l-34.328.345a5.3 5.3 0 0 0-4.965 3.851zm-.825 1.913-1.051 3.383h50.303l-1.228-3.383z"/><path fill="#263238" d="M133.893 106.454h-50.29a.22.22 0 0 1-.177-.093.2.2 0 0 1-.036-.194l1.034-3.383a.22.22 0 0 1 .212-.155h48.042a.22.22 0 0 1 .208.146l1.228 3.365q.016.052.009.106a.2.2 0 0 1-.04.098.23.23 0 0 1-.08.081.2.2 0 0 1-.11.029m-50.004-.442h49.699l-1.065-2.941H84.821zm88.06-61.497s1.055-8.242 2.959-8.242 10.358 2.324 10.565 4.015c.208 1.692-1.669 3.574-3.379 4.015-1.709.442-5.3.848-5.3.848l-.848 3.167z"/><path fill="#263238" d="M175.964 48.54a.2.2 0 0 1-.151-.057l-4.015-3.808a.21.21 0 0 1-.07-.185c.11-.883 1.144-8.436 3.18-8.436 1.806 0 10.547 2.314 10.786 4.209.225 1.81-1.767 3.807-3.534 4.258-1.51.375-4.456.746-5.163.83l-.808 3.026a.22.22 0 0 1-.15.159zm-3.781-4.108 3.661 3.472.751-2.809a.22.22 0 0 1 .19-.163c.035 0 3.595-.442 5.256-.84s3.41-2.208 3.216-3.776c-.181-1.431-8.247-3.82-10.349-3.82-1.228 0-2.314 4.818-2.725 7.936m-127.471.083s-1.056-8.242-2.96-8.242-10.357 2.324-10.565 4.015c-.207 1.692 1.688 3.591 3.38 4.015s5.3.848 5.3.848l.848 3.167z"/><path fill="#263238" d="M40.697 48.54h-.062a.22.22 0 0 1-.15-.16l-.809-3.025c-.706-.084-3.652-.441-5.163-.83-1.793-.442-3.772-2.447-3.533-4.258.238-1.895 8.98-4.21 10.786-4.21 2.036 0 3.092 7.571 3.18 8.437a.21.21 0 0 1-.07.185l-4.016 3.808a.21.21 0 0 1-.163.053m1.055-12.045c-2.102 0-10.158 2.39-10.348 3.82-.195 1.55 1.607 3.375 3.215 3.777s5.221.835 5.256.84a.22.22 0 0 1 .19.162l.751 2.81 3.662-3.472c-.411-3.118-1.498-7.937-2.726-7.937"/><path fill="#fff" d="M69.23 63.54s3.803 4.015 5.07 11.413c0 0-17.963-.848-24.937-3.595s-7.822-2.96-8.035-4.227c-.212-1.268.442-10.358 3.172-11.838s5.706-1.055 8.454 1.06c2.747 2.116 6.13 5.3 8.034 5.919s8.242 1.268 8.242 1.268"/><path fill="#263238" d="M74.3 75.174c-.18 0-18.082-.883-25.008-3.608l-1.767-.698c-5.477-2.147-6.183-2.425-6.395-3.701-.195-1.175.393-10.508 3.286-12.067 2.765-1.489 5.852-1.105 8.692 1.077.795.614 1.656 1.325 2.491 2.014 2.045 1.688 4.16 3.432 5.473 3.87 1.86.618 8.136 1.254 8.197 1.258q.08.01.137.067c.04.04 3.865 4.151 5.133 11.528a.24.24 0 0 1-.053.185.22.22 0 0 1-.186.075M47.86 54.636a6.8 6.8 0 0 0-3.254.857c-2.567 1.382-3.295 10.185-3.057 11.603.172 1.029.848 1.294 6.118 3.361l1.766.698c6.392 2.517 22.301 3.44 24.593 3.564-1.201-6.625-4.452-10.454-4.911-10.967-.79-.084-6.4-.671-8.207-1.272-1.391-.441-3.533-2.235-5.618-3.948-.83-.685-1.687-1.396-2.478-2.006q-2.446-1.89-4.951-1.89"/><path fill="#fff" d="M56.92 64.154a4.955 4.955 0 1 1-9.91 0 4.955 4.955 0 0 1 9.91 0"/><path fill="#263238" d="M51.964 69.325a5.177 5.177 0 1 1 0-10.354 5.177 5.177 0 0 1 0 10.354m0-9.907a4.735 4.735 0 1 0 0 9.47 4.735 4.735 0 0 0 0-9.47"/><path fill="#fff" d="M65.763 70.363a2.3 2.3 0 1 1-4.602 0 2.3 2.3 0 0 1 4.602 0"/><path fill="#263238" d="M63.466 72.863a2.522 2.522 0 1 1-.01-5.043 2.522 2.522 0 0 1 .01 5.043m0-4.598a2.08 2.08 0 1 0-.009 4.162 2.08 2.08 0 0 0 .009-4.162"/><path fill="#fff" d="M148.027 63.54s-3.803 4.015-5.071 11.413c0 0 17.964-.848 24.938-3.595s7.822-2.96 8.034-4.227-.441-10.358-3.171-11.838-5.707-1.055-8.454 1.06-6.131 5.3-8.034 5.919-8.242 1.268-8.242 1.268"/><path fill="#263238" d="M142.956 75.174a.23.23 0 0 1-.168-.075.24.24 0 0 1-.053-.185c1.268-7.377 5.093-11.484 5.133-11.528a.22.22 0 0 1 .137-.067c.061 0 6.338-.64 8.197-1.258 1.325-.442 3.428-2.182 5.473-3.87.835-.689 1.696-1.4 2.491-2.014 2.84-2.182 5.927-2.566 8.697-1.077 2.888 1.559 3.476 10.892 3.282 12.066-.212 1.277-.915 1.555-6.396 3.702l-1.767.698c-6.93 2.73-24.832 3.6-25.013 3.608zm5.177-11.435c-.442.512-3.71 4.368-4.912 10.967 2.293-.124 18.202-1.047 24.593-3.564l1.767-.698c5.269-2.067 5.95-2.332 6.117-3.361.239-1.418-.485-10.221-3.056-11.604-2.65-1.426-5.481-1.064-8.215 1.034-.791.61-1.648 1.325-2.478 2.005-2.076 1.714-4.227 3.485-5.619 3.949-1.797.614-7.42 1.201-8.197 1.272"/><path fill="#fff" d="M161.476 64.154a4.96 4.96 0 0 0 3.059 4.579 4.958 4.958 0 0 0 6.757-3.612 4.95 4.95 0 0 0-2.107-5.088 4.956 4.956 0 0 0-7.709 4.121"/><path fill="#263238" d="M166.432 69.325a5.18 5.18 0 0 1-5.082-6.186 5.18 5.18 0 0 1 4.069-4.068 5.17 5.17 0 0 1 5.314 2.204 5.17 5.17 0 0 1-.647 6.532 5.18 5.18 0 0 1-3.654 1.518m0-9.907a4.734 4.734 0 1 0-.01 9.469 4.734 4.734 0 0 0 .01-9.47"/><path fill="#fff" d="M152.629 70.363a2.3 2.3 0 1 0 4.601 0 2.3 2.3 0 0 0-4.601 0"/><path fill="#263238" d="M154.93 72.863a2.52 2.52 0 0 1-1.781-4.306 2.521 2.521 0 1 1 1.781 4.306m0-4.598a2.08 2.08 0 1 0 .001 4.16 2.08 2.08 0 0 0-.001-4.16m15.751 14.085s-19.655 3.803-20.503 4.418c-.848.613-2.535 4.226-2.535 4.226l4.015-1.055s9.302.441 12.468-1.056 6.555-6.532 6.555-6.532"/><path fill="#263238" d="M147.643 91.234a.22.22 0 0 1-.189-.1.22.22 0 0 1-.01-.214c.071-.145 1.722-3.648 2.601-4.31.879-.663 18.578-4.086 20.592-4.48a.23.23 0 0 1 .225.098.2.2 0 0 1 .039.121.2.2 0 0 1-.039.122c-.137.212-3.449 5.141-6.625 6.625s-11.833 1.109-12.54 1.082l-3.975 1.047zm22.526-8.564c-7.854 1.523-19.258 3.855-19.876 4.293-.619.437-1.688 2.54-2.262 3.719l3.534-.937h.066c.093 0 9.275.407 12.367-1.033 2.58-1.193 5.287-4.784 6.188-6.043zM47.46 82.35s19.654 3.803 20.502 4.418c.848.613 2.536 4.226 2.536 4.226l-4.015-1.055s-9.302.441-12.47-1.056c-3.166-1.497-6.554-6.532-6.554-6.532"/><path fill="#263238" d="M70.497 91.234h-.057l-3.975-1.047c-.707.026-9.421.375-12.54-1.082-3.189-1.489-6.501-6.418-6.625-6.626a.21.21 0 0 1 0-.242.23.23 0 0 1 .225-.098c2.014.394 19.73 3.834 20.592 4.484s2.53 4.16 2.601 4.306a.217.217 0 0 1-.199.314zm-4.014-1.498h.057l3.533.937c-.574-1.18-1.687-3.286-2.261-3.72-.574-.432-12.023-2.769-19.876-4.292.883 1.258 3.617 4.858 6.153 6.033 3.092 1.44 12.274 1.038 12.367 1.034zm79.56-22.726h-.066l-5.216-1.74h-4.108a.22.22 0 0 1 0-.442h4.143a.2.2 0 0 1 .071 0l5.247 1.767a.223.223 0 1 1-.071.442zm-74.485-.246a.23.23 0 0 1-.19-.115.22.22 0 0 1 .084-.3l3.498-2.001a.2.2 0 0 1 .11-.026l4.74.052a.22.22 0 0 1 .22.226.24.24 0 0 1-.225.216l-4.677-.053-3.45 1.97a.24.24 0 0 1-.11.031m89.366-23.393a.22.22 0 0 1-.194-.11.22.22 0 0 1-.001-.162.22.22 0 0 1 .107-.12 39 39 0 0 1 1.634-.884.222.222 0 0 1 .292.272.22.22 0 0 1-.102.125c-.53.257-1.069.544-1.603.853a.25.25 0 0 1-.133.026"/><path fill="#263238" d="M137.656 73.376a.2.2 0 0 1-.093 0 .2.2 0 0 1-.07-.05.23.23 0 0 1-.057-.158.2.2 0 0 1 .021-.083c3.534-7.778 11.042-21.877 21.51-28.953a.22.22 0 0 1 .165-.035.22.22 0 0 1 .14.093.2.2 0 0 1 .036.166.22.22 0 0 1-.093.143c-10.389 6.996-17.84 21.006-21.347 28.75a.22.22 0 0 1-.212.127m-1.859 4.386a.15.15 0 0 1-.075 0 .22.22 0 0 1-.133-.283s.269-.711.769-1.895a.22.22 0 0 1 .12-.12.22.22 0 0 1 .171 0 .22.22 0 0 1 .115.287c-.495 1.18-.755 1.878-.76 1.882a.23.23 0 0 1-.207.129m-78.259-33.25q-.061 0-.115-.03a38 38 0 0 0-2.707-1.49.22.22 0 1 1 .194-.392c.928.441 1.85.962 2.743 1.506a.22.22 0 0 1-.115.406M78.709 73.54a.22.22 0 0 1-.213-.151c-2.34-7-7.95-19.907-19.222-27.707a.222.222 0 0 1 0-.375.22.22 0 0 1 .252.013c11.374 7.87 17.032 20.878 19.39 27.928a.22.22 0 0 1-.137.278zm1.099 3.718a.22.22 0 0 1-.216-.168s-.16-.68-.5-1.824a.22.22 0 0 1 .15-.278.225.225 0 0 1 .275.15c.344 1.157.503 1.846.508 1.85a.22.22 0 0 1-.168.266z"/><path fill="#fff" d="M48.815 54.542s-2.253-5.5-2.253-8.746z"/><path fill="#263238" d="M48.815 54.763a.22.22 0 0 1-.208-.137c-.092-.225-2.265-5.574-2.265-8.834a.22.22 0 1 1 .441 0c0 3.167 2.209 8.609 2.235 8.662a.23.23 0 0 1-.12.291z"/><path fill="#fff" d="M169.042 54.295a44 44 0 0 0 1.25-7.001z"/><path fill="#263238" d="M169.042 54.516a.2.2 0 0 1-.066 0 .216.216 0 0 1-.146-.274 44 44 0 0 0 1.241-6.956.224.224 0 0 1 .395-.115.22.22 0 0 1 .047.163 44 44 0 0 1-1.259 7.036.22.22 0 0 1-.212.146m-21.497 44.24a.23.23 0 0 1-.172-.08c-.194-.238-4.792-5.83-5.048-8.365-.27-2.704 3.365-6.476 4.416-6.736s17.792-3.609 18.507-3.755a.226.226 0 0 1 .261.177.22.22 0 0 1-.033.164.2.2 0 0 1-.14.092c-.176.036-17.504 3.503-18.489 3.75-.918.23-4.319 3.874-4.081 6.263.225 2.24 4.293 7.323 4.881 8.043l27.437-1.236 1.485-19.302a.224.224 0 0 1 .238-.203.22.22 0 0 1 .203.238l-1.502 19.5a.22.22 0 0 1-.207.204l-27.747 1.25zm-77.255-.001-27.742-1.25a.22.22 0 0 1-.212-.203l-1.498-19.496a.222.222 0 0 1 .289-.229.22.22 0 0 1 .149.193l1.484 19.302 27.442 1.237c.583-.72 4.655-5.804 4.858-8.043.239-2.39-3.167-6.034-4.085-6.264-.92-.23-18.313-3.714-18.485-3.75a.21.21 0 0 1-.172-.256.22.22 0 0 1 .256-.176c.715.146 17.517 3.507 18.507 3.754.989.248 4.686 4.033 4.416 6.736-.251 2.535-4.858 8.127-5.048 8.365a.23.23 0 0 1-.159.08m38.868-27.543q-.675 0-1.325-.053l-20.397-1.634a.221.221 0 1 1 .035-.442l20.362 1.635c.854.066 1.712.066 2.566 0l18.799-1.463a.21.21 0 0 1 .238.204.22.22 0 0 1-.203.239l-18.798 1.457q-.632.057-1.277.057m0 2.027q-.675 0-1.325-.053l-19.054-1.524a.23.23 0 0 1-.203-.239.22.22 0 0 1 .238-.203l19.019 1.524a17 17 0 0 0 2.566 0l18.141-1.41a.2.2 0 0 1 .165.048q.035.03.053.07.02.04.02.086a.22.22 0 0 1-.203.234l-18.14 1.41q-.632.056-1.277.056m0 2.028q-.675 0-1.325-.053l-17.667-1.418a.222.222 0 1 1 .035-.442l17.632 1.427c.854.066 1.712.066 2.566 0l17.226-1.325a.21.21 0 0 1 .219.117q.02.04.02.086a.22.22 0 0 1-.054.16.22.22 0 0 1-.149.079l-17.226 1.325q-.632.044-1.277.044m56.448-35.379c-32.371-3.131-114.335-.03-115.161 0a.22.22 0 0 1-.194-.101.2.2 0 0 1 0-.217C55.44 29.322 65.334 6.1 65.43 5.877a.23.23 0 0 1 .181-.132c47.875-4.81 85.277-.256 85.652-.212a.23.23 0 0 1 .104.044q.045.036.069.088l14.372 33.918a.22.22 0 0 1 0 .216.22.22 0 0 1-.203.088M65.785 6.173c-.773 1.807-9.934 23.246-15.018 33.26 6.074-.226 82.967-2.99 114.477 0L151.066 5.974c-2.412-.318-38.913-4.457-85.277.185z"/></svg>