<svg xmlns="http://www.w3.org/2000/svg" width="121" height="180" fill="none"><path fill="#000" d="m72.159 174.065-59.256-.025a12.88 12.88 0 0 1-11.92-7.956A12.9 12.9 0 0 1 0 161.146L.029 12.878A12.9 12.9 0 0 1 3.82 3.761 12.9 12.9 0 0 1 12.944 0l59.26.04a12.9 12.9 0 0 1 9.115 3.771 12.9 12.9 0 0 1 3.784 9.117l-.029 148.267a12.9 12.9 0 0 1-3.796 9.111 12.9 12.9 0 0 1-9.12 3.759"/><path fill="#F5F5F5" d="m72.575 4.448-11.528-.053a2.85 2.85 0 0 0-2.615 1.815c-.137.35-.204.725-.197 1.102v2.095a2.86 2.86 0 0 1-2.811 2.916l-22.468-.106a2.855 2.855 0 0 1-2.788-2.94V7.184a2.86 2.86 0 0 0-2.787-2.945h-4.056L13.238 4.19A9.07 9.07 0 0 0 6.81 6.824a9.1 9.1 0 0 0-2.689 6.41L3.51 158.871a9.08 9.08 0 0 0 5.56 8.414 9.1 9.1 0 0 0 3.467.706l59.341.274a9.07 9.07 0 0 0 6.428-2.633 9.1 9.1 0 0 0 2.689-6.41l.62-145.653a9.08 9.08 0 0 0-2.63-6.436 9.07 9.07 0 0 0-6.409-2.685"/><path fill="#F5F5F5" d="m47.389 140.727-.188 4.779h8.525l-1.045-5.24zm-34.645 2.194.078 2.585h33.53c.058-1.454.119-3.063.184-4.726zm42.37-2.684 1.049 5.269h15.714l-.191-6.318z"/><path fill="#EBEBEB" d="m48.242 66.598 2.97-17.245-7.785-.58v17.825z"/><path fill="#F5F5F5" d="M12.046 133.347 3.6 136.659l-.028 5.988 8.724-.551z"/><path fill="#EBEBEB" d="m12.005 131.998-.46-16.06h-.009v-5.665l-7.83.829-.103 24.18 8.398-3.292z"/><path fill="#F5F5F5" d="m11.536 97.628-7.77-1.025-.057 13.217 7.827-.829zm57.917 12.886-.326 4.599-9.177.993.71 3.643 10.422-.788-.16-5.22.833-3.46zm-16.539 9.819 7.321-.551-1.595-8.178-6.387.646z"/><path fill="#EBEBEB" d="m52.984 121.179.559 6.817.991 9.353.408 2.047 16.719-1.062-.555-18.52z"/><path fill="#F5F5F5" d="m24.21 88.997.646 1.103-12.891 7.528v17.853l13.605-.964 26.222-2.647-.959-11.706-25.051-3.267.163-1.267 24.782 3.256-1.632-19.81-24.53 2.36-.08-.845 24.54-2.36-.848-10.338H24.59L3.873 71.667l-.102 23.67 7.847 1.033zm-10.927 24.781s.098-14.704 0-15.272l10.52-5.6 1.363 20.12zm55.314-3.178-9.533.964.722 3.705 8.545-.923zm-21.086 26.97q-.047 1.165-.09 2.299l7.093-.449-.363-1.83z"/><path fill="#EBEBEB" d="m32.23 66.598 1.248-5.673h9.524v-12.18l-29.78-2.21v11.44l-9.3 2.104-.045 10.269 20.599-3.75z"/><path fill="#F5F5F5" d="m52.102 32.717-.257-1.046 11.373-4.493-7.398-14.884a3 3 0 0 1-.408.033l-12.565-.065.343 20.802z"/><path fill="#EBEBEB" d="M69.335 24.728V4.436l-8.276-.041a2.855 2.855 0 0 0-2.811 2.916v2.096a2.97 2.97 0 0 1-1.224 2.401l7.402 14.872z"/><path fill="#F5F5F5" d="m26.586 25.602-.96-21.37h-2.305l-8.977-.045-3.832 19.107zm-2.04-19.198.305 17.404L12.9 22.056l2.608-15.66zm2.472 19.259v.18c.02 1.67.053 4.668.078 7.878l15.662-.641-.343-20.831-9.476-.045a2.85 2.85 0 0 1-2.6-1.838 2.9 2.9 0 0 1-.187-1.103V7.172a2.86 2.86 0 0 0-2.787-2.945H26.04l.963 21.427zM9.23 23.106l3.796-18.92a9.06 9.06 0 0 0-6.294 2.698 9.08 9.08 0 0 0-2.615 6.333l-.036 9.431.036-.277zm2.718 23.334-7.965-.591-.057 12.919 8.022-1.814zM9.145 23.523l-5.064-.727-.09 20.92 1.09.082zm16.09 108.23.135-16.795-13.401.948.473 16.456zm2.465-3.868 18.979 9.101c.229-5.947.428-11.506.408-11.845l.408-.021.2-.408c.27.135.27.135.127 4.19-.078 2.263-.192 5.274-.306 8.284h6.565l-.97-9.129-1.286-15.762-24.795 2.52zm46.524-27.881-.213-2.217-22.75 2.369.956 11.669 19.644-1.985zM43.002 62.203h-8.496l-.97 4.394h9.466zm27.708 1.482-21.285-1.474-.865 5.032.894 10.926 22.444-2.16zm-20.517 3.55 1.142-3.178 18.486 1.172 1.073 9.088L50.82 76.7zm22.725 19.283-.935-9.664-22.456 2.16.841 10.281zM12.32 142.945l-8.713.551-.036-.567-.013 2.577h8.835z"/><path fill="#EBEBEB" d="m81.447 19.933.126.322.04-6.686a9.08 9.08 0 0 0-5.558-8.414 9.1 9.1 0 0 0-3.468-.707H69.76l.02 20.1z"/><path fill="#F5F5F5" d="m46.663 137.443-19.371-9.292-.686-13.311-.816.082-.135 17.24-13.2.625v.384l.252 8.888 33.87-2.144c.025-.813.053-1.646.086-2.472m-33.38-3.561 18.481-1.295 12.026 5.583-30.507 1.634zm62.659-91.599.775-4.706c-6.937-2.483-7.427-9.733-7.406-11.93l-4.538 1.797 6.83 13.72zM51.156 98.885l9.446-.984-1.864-8.349-8.264 1.017zM71.53 50.468H53.89l-1.465-.11-1.992 11.563 20.943 1.45-.49-5.028 2.06-7.426zm-1.22-3.1.225-5.522-6.937-13.928-10.749 4.255 3.697 15.195zm-7.129-17.755 6.354 12.09-.918 3.77-10.871-.409-2.718-11.436zm9.876 84.349.326 10.84 7.643-.433.025.425-7.656.433.388 12.976 7.227-.457.053.849-7.251.458.191 6.453h7.044l.15-36.18-7.202.727z"/><path fill="#EBEBEB" d="M26.598 26.03 10.41 23.707 6.362 43.893 26.667 45.4c.082-3.108.013-12.641-.069-19.368"/><path fill="#F5F5F5" d="M53.22 47.368h2.449L52.204 33.12l-9.01.368.216 13.152zm-26.136-1.94 15.914 1.18-.216-13.099-15.666.638c.02 4.431.033 9.157-.032 11.28M73.04 87.788 59.162 89.5l1.865 8.356 12.858-1.34z"/><path fill="#EBEBEB" d="m76.803 37.149.89-5.278 3.831.299.049-11.372-11.834 4.681c-.225 8.002 4.799 10.816 7.064 11.67"/><path fill="#F5F5F5" d="m72.253 57.558.485 4.987 8.655.6.045-10.272-7.247-2.291zm4.121 42.594-2.273 9.463 7.1-.718.042-9.922c-2.18-.572-4.081-1.041-5.101-1.225zm-4.79-52.625 9.862 3.121.025-5.616-9.688-2.508zm4.431 48.908c.816.118 2.302.437 5.232 1.225l.094-21.693-7.24.695zM74.02 75.804l7.325-.707.044-10.672-8.528-.589zm3.603-38.386q1.912.593 3.877.989v-5.384l-3.118-.245zm-.857 5.077 4.71 1.226v-4.865a42 42 0 0 1-3.947-1.005z"/><path fill="#fff" d="m81.063 138.595-.053-.85-7.227.458-.388-12.977 7.656-.433-.025-.408-7.643.433-.326-10.841.938-3.908 7.21-.744v-.429l-7.1.719 2.273-9.464-.232-2.414c1.02.197 2.922.666 5.1 1.226V97.66c-2.93-.772-4.435-1.09-5.23-1.225L74.1 76.645l7.24-.694v-.858l-7.325.707-1.16-11.972 8.53.592v-1.274l-8.648-.613-.485-4.987 1.938-6.976 7.247 2.291v-2.226l-9.863-3.12.2-5.004 9.688 2.508v-1.32l-4.71-1.225.78-4.632c1.416.409 2.73.76 3.946 1.005v-.44a39 39 0 0 1-3.876-.99l.779-4.64 3.118.246v-.854l-3.832-.298-.89 5.277c-2.265-.854-7.288-3.676-7.047-11.67l11.834-4.68v-.543l-.127-.323-11.658 4.615V4.423h-.408v20.292l-4.926 1.952-7.439-14.86a2.7 2.7 0 0 1-1.187.487l7.398 14.86-11.373 4.492.257 1.046-8.912.363-.343-20.794h-.408l.343 20.831-15.662.641c-.024-3.21-.057-6.208-.077-7.879v-.18L26.08 4.248h-.408l.959 21.37-16.09-2.315 3.831-19.108H13.07l-3.795 18.92-5.113-.736-.036.278v.147l5.068.727-4.08 20.276-1.09-.082v2.132l7.965.592v10.514l-8.023 1.813v1.308l9.3-2.104V46.542l29.79 2.21v12.18h-9.574l-1.245 5.686h-7.753l-20.6 3.75v1.298l20.719-3.774h23.594l.849 10.338-24.562 2.34.082.846 24.529-2.361 1.632 19.81-24.782-3.247-.163 1.266 25.051 3.267.96 11.707-26.223 2.646-13.605.964v-17.84l12.89-7.529-.644-1.102-12.593 7.352-7.847-1.034v1.287l7.753 1.025v11.363l-7.827.817v1.283l7.831-.817v5.665l.461 16.06-8.398 3.292v1.377l8.447-3.313.249 8.749-8.724.552v.281l.036.568 8.713-.551.073 2.561h.408l-.077-2.586 33.804-2.148-.184 4.726h.85c.052-1.373.117-3.023.187-4.779l7.308-.462 1.04 5.241h.434l-1.05-5.269 16.577-1.05.191 6.319H74m-26.581-5.637q.041-1.135.09-2.3l6.639.021.363 1.83zm7.52-.474-.408-2.042-.991-9.349-.56-6.822 18.123-1.364.555 18.523zm4.126-27.848 9.533-.964-.266 3.746-8.545.923zm-.408.041 1.596 8.169-7.321.551-.661-8.083zm12.442 7.352-10.422.788-.71-3.643 9.177-.993.33-4.599 2.298-.233-.816 3.46zM58.754 89.532l1.865 8.348-9.463 1.005-.682-8.316zm2.29 8.303-1.874-8.344 13.874-1.712.845 8.729zm9.552-35.44-20.942-1.45 1.991-11.564 1.465.11h17.641l1.416.446-2.06 7.43zm-1.26-36.761c-.021 2.197.456 9.447 7.406 11.93l-.792 4.706-4.322-1.12-6.83-13.719zm-5.714 2.27 6.937 13.929-.224 5.522H56.546L52.85 32.161zm-11.418 5.22 3.465 14.247H53.22l-9.794-.727-.216-13.152zm-9.434.41.216 13.098-15.915-1.18c.066-2.124.053-6.85 0-11.282zM10.41 23.73l16.188 2.324c.082 6.727.151 16.26.07 19.368L6.361 43.916zm40.807 25.646-2.98 17.24h-4.81V48.773zM34.51 62.227h8.496v4.39h-9.468zm14.05 5.016.864-5.032 21.285 1.474 1.192 12.327-22.444 2.16zm23.423 9.61.934 9.664-22.55 2.778-.845-10.28zm-20.722 23.302 22.75-2.369.212 2.218-2.363 9.836-19.628 1.985zm1.856 27.881.972 9.129h-6.566c.114-3.01.228-6.02.306-8.283.143-4.056.143-4.056-.127-4.191l-.2.408-.408.021c0 .355-.183 5.914-.408 11.845l-18.987-9.08-.67-13.07 24.795-2.52zm-27.748-13.07-.135 16.795-12.793.617-.473-16.456zm-12.903 18.229v-.384l13.205-.625.134-17.241.816-.081.686 13.311 19.371 9.292c-.032.817-.061 1.659-.094 2.48l-33.87 2.144z"/><path fill="#E0E0E0" d="m31.764 132.583-18.481 1.298v5.939l30.507-1.65zM69.837 65.23l-18.485-1.17-1.143 3.174.628 9.463 20.07-2.38z"/><path fill="#fff" d="m3.877 66.618-.372 89.271v3.267c.123 4.902 3.726 8.803 8.627 8.827l59.766.294a9.06 9.06 0 0 0 6.416-2.638 9.08 9.08 0 0 0 2.676-6.405l.408-92.608z"/><path fill="#E0E0E0" d="m25.202 24.911-.306-17.404h-9.03l-2.62 15.652z"/><path fill="#EBEBEB" d="m68.617 45.481.918-3.77-6.354-12.098-8.153 4.015 2.718 11.44z"/><path fill="#BBA061" d="M15.633 41.49a2.86 2.86 0 0 0-2.312-2.756 2.854 2.854 0 0 0-3.174 1.69 2.86 2.86 0 0 0 .132 2.504c.11.188.25.318.388.515l1.669 2.213a.522.522 0 0 0 .816 0l1.632-2.177a6 6 0 0 0 .409-.551c.27-.432.423-.928.44-1.438m-2.877 1.25a1.264 1.264 0 0 1-1.24-1.513 1.267 1.267 0 0 1 1.724-.923 1.266 1.266 0 0 1-.484 2.436m59.88-21.925a2.86 2.86 0 0 0-3.604-2.7 2.86 2.86 0 0 0-2.104 2.919c.025.433.147.856.359 1.235.11.184.248.318.387.515l1.67 2.213a.526.526 0 0 0 .815 0l1.633-2.177q.219-.266.408-.555c.274-.435.425-.936.436-1.45m-2.856 1.254a1.264 1.264 0 0 1-1.24-1.514 1.267 1.267 0 0 1 1.724-.922 1.265 1.265 0 0 1 .399 2.077 1.26 1.26 0 0 1-.916.359z"/><path fill="#BBA061" d="M70.739 48.978H56.477l-13.834-1.426-.077-13.838-15.266.208-.372 12.507-13.764-.543.017-.409 13.352.527.371-12.482 16.07-.22.077 13.879 13.446 1.392 13.834-.004v-6.678l-6.378-14.643 5.288-2.7.188.364-4.95 2.524 6.26 14.37zM3.505 139.869h77.7v19.691a8.7 8.7 0 0 1-2.54 6.141 8.67 8.67 0 0 1-6.135 2.543H12.393a8.88 8.88 0 0 1-6.288-2.611 8.9 8.9 0 0 1-2.6-6.297z"/><path fill="#F5F5F5" d="M81.08 115.567H3.57v23.988h77.51z"/><path fill="#fff" d="m27.075 154.337.339-.752a2.53 2.53 0 0 0 1.42.45c.592 0 .816-.196.816-.462 0-.817-2.497-.253-2.497-1.85 0-.731.588-1.34 1.812-1.34a2.9 2.9 0 0 1 1.493.38l-.31.756a2.45 2.45 0 0 0-1.175-.352c-.588 0-.816.225-.816.494 0 .793 2.501.246 2.501 1.826 0 .719-.596 1.336-1.824 1.336a3.1 3.1 0 0 1-1.759-.486m7.611-.376v.817h-3.33v-4.321h3.265v.816h-2.265v.932h2v.776h-2v.996zm.771-3.504h.996v3.492h2.158v.817h-3.154zm7.043 3.504v.817h-3.325v-4.321h3.264v.816h-2.264v.932h1.999v.776h-2v.996zm.51-1.352a2.373 2.373 0 0 1 2.931-2.158c.45.11.86.351 1.175.691l-.641.592a1.39 1.39 0 0 0-1.081-.506 1.38 1.38 0 0 0-.927 2.328c.243.256.574.41.927.429a1.35 1.35 0 0 0 1.081-.511l.64.593a2.368 2.368 0 0 1-4.105-1.458m5.624-1.344h-1.38v-.817h3.755v.817h-1.376v3.496h-.995zm4.374 1.344a2.372 2.372 0 0 1 4.122-1.467l-.641.593a1.37 1.37 0 0 0-1.081-.507 1.38 1.38 0 0 0-.927 2.328c.243.256.574.41.927.429a1.35 1.35 0 0 0 1.081-.51l.64.592a2.368 2.368 0 0 1-4.104-1.458zm7.521 1.23h-1.996l-.383.923h-1.02l1.918-4.305h.983l1.926 4.305h-1.045zm-.314-.756-.682-1.634-.681 1.634zm4.929 1.679-.816-1.201h-.918v1.201h-.996v-4.305h1.865c1.147 0 1.869.596 1.869 1.56a1.41 1.41 0 0 1-.885 1.36l.962 1.385zm-.934-3.497h-.816v1.503h.816c.608 0 .918-.281.918-.751s-.31-.752-.918-.752"/><path fill="#263238" d="M44.112 130.32H71.27v-3.676H44.112z"/><path fill="#000" d="M44.112 130.32H71.27v-3.676H44.112z" opacity=".4"/><path fill="#263238" d="M42.97 126.333a2.27 2.27 0 0 1 1.852-1.462l6.097-.715 2.224-1.593a9.13 9.13 0 0 1 5.305-1.699h14.466a.26.26 0 0 1 .204.102.25.25 0 0 1-.016.314.25.25 0 0 1-.09.066l-1.04.445q.056.1.101.205l.592 1.368c.143.333.216.691.216 1.054a.6.6 0 0 1 .596.596v2.381l.62.278a.82.82 0 0 1 .486.752v.62a1.01 1.01 0 0 1-.816.989l-3.265.653v-.294a3.16 3.16 0 0 0-1.957-2.925 3.2 3.2 0 0 0-1.213-.236 3.1 3.1 0 0 0-1.21.24 3.15 3.15 0 0 0-1.95 2.921v.294H51.034v-.294a3.159 3.159 0 1 0-6.317 0v.294h-1.632a.79.79 0 0 1-.792-.788v-1.805z"/><path fill="#455A64" d="m72.069 121.996.592 1.368c.142.333.216.692.216 1.054h-.816l-.816-2.328.697-.298q.071.097.127.204"/><path fill="#BBA061" d="M42.97 126.333q.075-.2.183-.384h.865l-.763 1.818-.93.527v-.2z"/><path fill="#000" d="M42.97 126.333q.075-.2.183-.384h.865l-.763 1.818-.93.527v-.2z" opacity=".2"/><path fill="#fff" d="M73.412 126.591h-.45a1.23 1.23 0 0 1-.713-.225l-.747-.523a.49.49 0 0 1-.208-.408.487.487 0 0 1 .485-.486h1.633a.073.073 0 0 1 .073.069v1.491a.066.066 0 0 1-.041.079q-.016.005-.032.003" opacity=".8"/><path fill="#E0E0E0" d="m42.28 128.212.261-.151h-.159a.1.1 0 0 1-.066-.027.1.1 0 0 1-.028-.067q0-.039.028-.066a.1.1 0 0 1 .066-.028h.486l.163-.094h-.555a.1.1 0 0 1-.066-.027.094.094 0 0 1 0-.133.1.1 0 0 1 .066-.028h.735l.04-.094h-.665a.1.1 0 0 1-.056-.034.1.1 0 0 1 0-.123.1.1 0 0 1 .056-.035h.747l.04-.093h-.693a.1.1 0 0 1-.037-.006.1.1 0 0 1-.032-.02.1.1 0 0 1-.021-.031.1.1 0 0 1-.008-.037.097.097 0 0 1 .098-.094h.775l.041-.094h-.71a.1.1 0 0 1-.066-.028.1.1 0 0 1-.028-.066q0-.039.028-.067a.1.1 0 0 1 .066-.027h.792l.04-.094h-.722a.1.1 0 0 1-.036-.007.1.1 0 0 1-.03-.021.1.1 0 0 1-.028-.066q0-.039.028-.066a.1.1 0 0 1 .066-.028h.816l.041-.094h-.742a.1.1 0 0 1-.057-.034.1.1 0 0 1 .056-.158h.817l.057-.131h-.723a.1.1 0 0 1-.035-.007.1.1 0 0 1-.05-.051.1.1 0 0 1-.008-.036.1.1 0 0 1 .028-.065.1.1 0 0 1 .066-.029h.865a.09.09 0 0 1 .09.088q0 .023-.013.043l-.257.605-.122.282-.123.281-.122.286-.119.282-.036.082a.1.1 0 0 1-.041.045l-.91.527a.1.1 0 0 1-.049 0 .1.1 0 0 1-.047-.013.1.1 0 0 1-.035-.032.1.1 0 0 1 .037-.119"/><path fill="#455A64" d="M70.025 130.483a2.76 2.76 0 0 1-1.664 2.572 2.75 2.75 0 0 1-3.01-.555 2.757 2.757 0 0 1 1.883-4.733 2.756 2.756 0 0 1 2.79 2.716"/><path fill="#455A64" d="M70.02 130.475a2.76 2.76 0 0 1-2.714 2.697 2.757 2.757 0 0 1-2.79-2.619z"/><path fill="#FAFAFA" d="M69.205 130.496a1.94 1.94 0 0 1-1.168 1.806 1.94 1.94 0 0 1-2.114-.389 1.94 1.94 0 0 1 .25-2.983 1.94 1.94 0 0 1 1.811-.206 1.94 1.94 0 0 1 1.22 1.772"/><path fill="#E0E0E0" d="M67.242 128.588a1.94 1.94 0 0 1 1.376.547 1.93 1.93 0 0 1 .587 1.361l-3.865.053a1.935 1.935 0 0 1 1.165-1.803c.233-.101.483-.154.737-.158"/><path fill="#263238" d="M68.45 130.504a1.18 1.18 0 1 1-2.36.04 1.18 1.18 0 0 1 2.36-.04"/><path fill="#455A64" d="M50.625 130.483a2.76 2.76 0 0 1-1.663 2.572 2.75 2.75 0 0 1-3.011-.555 2.75 2.75 0 0 1-.64-2.996 2.755 2.755 0 0 1 2.523-1.737 2.754 2.754 0 0 1 2.791 2.716"/><path fill="#455A64" d="M50.625 130.475a2.76 2.76 0 0 1-2.715 2.697 2.757 2.757 0 0 1-2.79-2.619z"/><path fill="#FAFAFA" d="M49.805 130.496a1.934 1.934 0 1 1-3.03-1.568 1.934 1.934 0 0 1 3.03 1.568"/><path fill="#E0E0E0" d="M47.846 128.588a1.94 1.94 0 0 1 1.959 1.908l-3.864.053a1.936 1.936 0 0 1 1.905-1.961"/><path fill="#263238" d="M49.05 130.504a1.18 1.18 0 0 1-.71 1.103c-.214.093-.451.12-.68.079a1.19 1.19 0 0 1-.942-.914 1.18 1.18 0 1 1 2.332-.268"/><path fill="#455A64" d="m50.919 124.156 2.224-1.593a9.3 9.3 0 0 1 2.073-1.106h.734l-4.452 2.961z"/><path fill="#fff" d="M44.349 125.777h-1.094q.239-.315.56-.546c.257-.082.559.228.534.546" opacity=".8"/><path fill="#263238" d="M66.393 124.504H52.078l4.08-2.823c.3-.22.661-.339 1.033-.339h8.875s3.187-.077 3.885.887z"/><path fill="#455A64" d="m66.27 124.512-.53-2.99h1.665a5.4 5.4 0 0 1 1.869.355l.506.221a.48.48 0 0 1 .285.323.5.5 0 0 1-.09.408l-.603.743a2.48 2.48 0 0 1-1.804.932h-.155zm-6.602 0v-2.99h4.897l.534 2.99zm-7.01 0 3.672-2.753a1.22 1.22 0 0 1 .722-.237h1.71l-.575 2.99zm6.104 5.44v-.804c0-.499 0-1.181-.02-1.936v-1.532a2.6 2.6 0 0 1 0-.409 3 3 0 0 1 .191-.718v-.041l-.02.036-.057.152q-.105.275-.143.567a2.6 2.6 0 0 0 0 .409v1.531c0 .756.02 1.438.029 1.937v.804zm-6.211-5.232-.033.024h-.024l-.025.029a.4.4 0 0 0-.057.069 1.9 1.9 0 0 0-.249.511 5 5 0 0 0-.106.38c0 .069-.032.143-.045.216a1 1 0 0 0 0 .233v1.037c.02.736.045 1.401.062 1.883 0-.482-.033-1.147-.053-1.883 0-.367 0-.718-.02-1.037a1.4 1.4 0 0 1 0-.229c0-.073.028-.147.044-.212q.04-.193.102-.38.081-.276.24-.515a1 1 0 0 1 .164-.126"/><path fill="#263238" d="M52.082 124.618a.49.49 0 0 1 .249-.429l.645-.364a1.22 1.22 0 0 1 .983-.094.69.69 0 0 1 .47.641.71.71 0 0 1-.71.736h-1.147a.49.49 0 0 1-.49-.49"/><path fill="#455A64" d="M52.082 124.618q.015.12.073.224a.51.51 0 0 0 .551.237h.984a.66.66 0 0 0 .51-.208.67.67 0 0 0 .183-.519.66.66 0 0 0-.277-.494 1 1 0 0 0-.527-.143 1.74 1.74 0 0 0-.897.319c-.245.139-.465.22-.527.367a.6.6 0 0 0-.073.225.36.36 0 0 1 .04-.241c.066-.163.298-.261.531-.408.123-.07.25-.147.408-.225a1.2 1.2 0 0 1 .527-.119c.202-.007.402.046.575.152a.755.755 0 0 1-.465 1.368h-.984a.7.7 0 0 1-.38-.07.5.5 0 0 1-.203-.212.36.36 0 0 1-.05-.253"/><path fill="#263238" d="M52.082 124.618v.061q.015.088.057.168a.5.5 0 0 0 .363.249q.1.006.2 0h.984a.8.8 0 0 0 .273-.045.74.74 0 0 0 .408-.409.71.71 0 0 0-.249-.816.65.65 0 0 0-.265-.115 1.4 1.4 0 0 0-.278-.033 1.3 1.3 0 0 0-.506.107l-.208.114-.191.106-.331.184a.5.5 0 0 0-.2.192.6.6 0 0 0-.057.172v.061a.46.46 0 0 1 .053-.237.5.5 0 0 1 .2-.204l.326-.188.192-.106c.065-.037.135-.082.208-.115.163-.074.34-.113.519-.114q.142.001.281.033.151.03.278.118a.72.72 0 0 1 .301.535.7.7 0 0 1-.216.576.7.7 0 0 1-.253.163.8.8 0 0 1-.281.045h-.984a2 2 0 0 1-.2 0 .5.5 0 0 1-.424-.437.2.2 0 0 1 0-.065"/><path fill="#fff" d="M53.865 123.943s0-.02-.057-.053a.37.37 0 0 0-.188-.077.8.8 0 0 0-.306.033 2.3 2.3 0 0 0-.363.122q-.32.142-.588.367c-.138.115-.212.2-.216.196l.05-.061.15-.151a2.2 2.2 0 0 1 .959-.498.8.8 0 0 1 .314-.028.36.36 0 0 1 .196.089.1.1 0 0 1 .037.045z"/><path fill="#263238" d="M63.25 130.606v-.515c0-.082 0-.176.021-.278.02-.102 0-.102.025-.155.024-.053 0-.11.032-.167a3.85 3.85 0 0 1 .739-1.606 3.78 3.78 0 0 1 1.885-1.331 4.33 4.33 0 0 1 2.6.008 4 4 0 0 1 1.101.543q.454.319.816.74.322.367.564.792.193.353.33.731c.02.053.037.11.053.159.017.049.037.102.05.152l.069.269.04.217c0 .061 0 .118.025.159v.098-.098a2 2 0 0 0-.02-.159l-.041-.221c0-.078-.041-.167-.066-.265-.024-.099-.032-.103-.049-.156q-.023-.079-.053-.163a5 5 0 0 0-.33-.731 4.65 4.65 0 0 0-1.388-1.544 4 4 0 0 0-1.106-.543 4.33 4.33 0 0 0-2.615 0 3.8 3.8 0 0 0-1.102.559 4 4 0 0 0-.763.784 4.4 4.4 0 0 0-.494.842 4.7 4.7 0 0 0-.245.764c0 .057 0 .114-.028.171l-.025.155v.76z"/><path fill="#455A64" d="m66.079 126.517.036-.057q.049-.073.127-.213.09-.16.163-.326a1 1 0 0 0 .033-.102.14.14 0 0 0 0-.058v-.053a5 5 0 0 0-.082-.22 18 18 0 0 0-.322-.744l-.106-.224-.029-.062v-.02.024l.025.062.097.224c.082.192.196.454.315.748q.044.111.081.216a.2.2 0 0 1 0 .102.4.4 0 0 1-.028.098q-.071.168-.16.327l-.118.217zm3.982.923h1.718c.947 0 1.722 0 1.722-.02 0-.021-.77 0-1.722 0-.95 0-1.718.012-1.718.02m-17.963 2.488h11.153-5.579c-3.08 0-5.574-.029-5.574 0m-7.655-4.493h.277l.755-.069a73 73 0 0 0 2.49-.299 43 43 0 0 0 2.476-.408l.747-.143.2-.041-.204.037-.747.131a75 75 0 0 1-4.962.694l-.759.082-.204.02h-.07zm12.437.289h-.04a.26.26 0 0 1-.204-.175.3.3 0 0 1 0-.106.3.3 0 0 1 .032-.115.25.25 0 0 1 .224-.138h1.054c.063 0 .124.024.171.065a.27.27 0 0 1 .082.159.3.3 0 0 1-.033.172.25.25 0 0 1-.122.11.4.4 0 0 1-.163.02h.085a.3.3 0 0 0 .086 0 .27.27 0 0 0 .135-.122.33.33 0 0 0 .036-.188.28.28 0 0 0-.09-.171.26.26 0 0 0-.187-.074h-1.082a.28.28 0 0 0-.236.151.3.3 0 0 0-.033.123.3.3 0 0 0 0 .11.29.29 0 0 0 .22.179z"/><path fill="#fff" d="M56.97 125.1q.205.012.409 0 .213.014.428 0a3 3 0 0 0-.428 0 4 4 0 0 0-.408 0"/><path fill="#455A64" d="M63.957 125.765h-.041a.26.26 0 0 1-.204-.175.3.3 0 0 1 0-.107.3.3 0 0 1 .032-.118.25.25 0 0 1 .225-.135h1.077a.255.255 0 0 1 .253.225.3.3 0 0 1-.032.171.26.26 0 0 1-.123.11.4.4 0 0 1-.163.021h.086a.3.3 0 0 0 .085 0 .27.27 0 0 0 .135-.119.33.33 0 0 0 .004-.204.3.3 0 0 0-.09-.175.28.28 0 0 0-.187-.073h-1.082a.28.28 0 0 0-.27.273.3.3 0 0 0 0 .11c.02.059.061.108.115.139a.2.2 0 0 0 .106.037z"/><path fill="#fff" d="M64.067 125.144h.836a3 3 0 0 0-.428 0 4 4 0 0 0-.408 0"/><path fill="#455A64" d="M43.994 130.696v-.515c0-.082 0-.176.032-.274.033-.098.02-.102.033-.155.012-.053 0-.11.037-.167q.1-.39.265-.756.21-.436.506-.817a4 4 0 0 1 .792-.772 3.8 3.8 0 0 1 1.09-.559 4.2 4.2 0 0 1 2.595 0c.39.126.758.315 1.09.559q.447.332.79.772.299.38.507.817.165.367.265.756c0 .057.025.114.037.167q.019.08.032.155c.009.049.03.192.033.274v.221-.221c0-.082-.024-.176-.032-.278s0-.102-.033-.155-.02-.11-.033-.167a4.4 4.4 0 0 0-.265-.756 4.1 4.1 0 0 0-1.322-1.597 3.9 3.9 0 0 0-1.037-.568 4.3 4.3 0 0 0-1.305-.204c-.444 0-.885.07-1.306.208a3.7 3.7 0 0 0-1.094.56 4 4 0 0 0-.796.78 4.4 4.4 0 0 0-.506.817q-.166.365-.265.756c0 .057 0 .114-.033.167a1 1 0 0 0-.028.155c0 .102-.029.192-.037.278v.515zm20.889-9.346h5.799c.498 0 .946 0 1.322-.024q.446-.021.885-.102.159-.03.237-.053l-.237.049q-.439.075-.885.094h-2.955l-2.942.036h-1.223"/><path fill="#FAFAFA" d="M61.488 122.612s.518.286 1.167.625 1.171.609 1.175.601-.518-.286-1.167-.625-1.171-.609-1.175-.601m-1.069-.22.073.041.274.143a58 58 0 0 1 1.795.98l.27.151.073.041h.028-.024l-.07-.045-.269-.159a21 21 0 0 0-.89-.502c-.35-.188-.669-.36-.905-.478l-.278-.135zm-4.759.4h.021l.061.029c.057.024.13.061.225.098l.726.339c.282.139.535.265.718.363l.216.111.058.028h.024-.02l-.057-.032-.213-.119c-.18-.098-.432-.233-.714-.367a13 13 0 0 0-.734-.331l-.225-.094-.06-.025s-.021-.004-.025 0m.681-.069.139.069.326.171.319.192.13.078a.5.5 0 0 0-.122-.094 4 4 0 0 0-.314-.196 7 7 0 0 0-.33-.167.7.7 0 0 0-.148-.053m10.691-.025s.343.143.772.306c.428.163.775.294.78.29.003-.004-.344-.147-.772-.31s-.776-.294-.78-.286m.445-.147s.294.123.665.257c.372.135.67.241.674.233s-.294-.122-.665-.257a14 14 0 0 0-.674-.233m-20.187 3.77h.861l.327.025q.372.045.734.143.36.101.702.253.15.066.294.147l.13.07.119.073c.073.041.139.09.196.127l.077.053.066.049.09.065.032.025-.029-.029-.085-.069-.066-.049-.077-.058a4 4 0 0 0-.196-.13l-.118-.074-.127-.073-.294-.147a5.5 5.5 0 0 0-.706-.258 5 5 0 0 0-.738-.139l-.33-.073h-.809zm19.849-.127h.665c.081 0 .167.025.257.041.175.037.371.086.571.147s.384.143.551.216q.21.099.408.217l.163.089.119.074.077.045h.029l-.025-.021-.073-.049-.119-.077-.163-.094a5 5 0 0 0-.428-.22 5.4 5.4 0 0 0-1.126-.368l-.258-.036h-.669z"/><path fill="#BBA061" d="M73.657 79.562H47.474v3.843h26.181z"/><path fill="#000" d="M73.657 79.562H47.474v3.843h26.181z" opacity=".5"/><path fill="#263238" d="M48.466 83.365a2.53 2.53 0 0 0 1.526 2.358 2.523 2.523 0 0 0 3.47-1.792 2.53 2.53 0 0 0-2.433-3.058 2.525 2.525 0 0 0-2.563 2.492"/><path fill="#263238" d="M48.466 83.34a2.53 2.53 0 0 0 2.49 2.467 2.524 2.524 0 0 0 2.558-2.398z"/><path fill="#FAFAFA" d="M49.217 83.365a1.778 1.778 0 0 0 2.103 1.766 1.775 1.775 0 0 0 1.319-2.41 1.776 1.776 0 0 0-3.422.644"/><path fill="#E0E0E0" d="M51.009 81.609a1.774 1.774 0 0 0-1.8 1.748l3.546.053a1.777 1.777 0 0 0-1.746-1.801"/><path fill="#263238" d="M49.911 83.364a1.082 1.082 0 1 0 2.164.042 1.082 1.082 0 0 0-2.164-.042m17.861.001a2.53 2.53 0 0 0 1.526 2.358 2.524 2.524 0 0 0 3.47-1.795 2.53 2.53 0 0 0-1.04-2.61 2.525 2.525 0 0 0-3.956 2.047"/><path fill="#263238" d="M67.772 83.34a2.53 2.53 0 0 0 2.488 2.658 2.52 2.52 0 0 0 2.382-1.595c.126-.316.186-.654.178-.994z"/><path fill="#FAFAFA" d="M68.523 83.365a1.777 1.777 0 0 0 2.095 1.776 1.776 1.776 0 0 0 .687-3.211 1.773 1.773 0 0 0-2.782 1.435"/><path fill="#E0E0E0" d="M70.323 81.609a1.774 1.774 0 0 0-1.8 1.748l3.546.053a1.78 1.78 0 0 0-1.746-1.801"/><path fill="#263238" d="M69.217 83.365a1.083 1.083 0 0 0 1.278 1.08 1.081 1.081 0 0 0-.185-2.146 1.075 1.075 0 0 0-1.093 1.066"/><path fill="#BBA061" d="M54.302 77.401s-3.718.274-5.097.584c-.971.217-2.857.593-2.82 1.773l.147.845a1.27 1.27 0 0 0-.694 1.128c0 .817-.171 2.067 1.449 2.116h.775s-.31-3.456 2.857-3.558c3.166-.102 3.016 3.529 3.016 3.529H67.4s-.551-3.537 2.922-3.541c3.472-.004 2.946 3.561 2.946 3.561a2.04 2.04 0 0 0 1.873-.964 2.92 2.92 0 0 0 .44-1.838l-.02-.682a.44.44 0 0 0-.408-.408s.233-1.712-.122-2.01-2.31-2.083-2.31-2.083l.094-.057a.221.221 0 0 0-.045-.409l-2.55-.882a.7.7 0 0 0-.164-.032c-.204 0-.787-.053-1.856-.066h-6.468a11 11 0 0 0-2.771.584c-1.053.462-4.66 2.41-4.66 2.41"/><path fill="#000" d="M46.781 81.637a.57.57 0 0 0-.445.061.43.43 0 0 0-.11.278 1.1 1.1 0 0 0 0 .409.52.52 0 0 0 .233.334.33.33 0 0 0 .408-.048.52.52 0 0 0 .094-.36q.012-.26-.025-.519a.2.2 0 0 0-.045-.102.14.14 0 0 0-.106-.065" opacity=".4"/><path fill="#fff" d="M46.52 80.603c.408 0 .78-.02 1.171-.049a.2.2 0 0 0 .118-.036c.041-.033.041-.09.045-.143a.77.77 0 0 0-.171-.593.65.65 0 0 0-.36-.122c-.32-.033-.643 0-.95.098z" opacity=".6"/><path fill="#fff" d="M54.726 83.707v-.514c0-.168-.02-.368-.045-.6a5 5 0 0 0-.139-.785 3.7 3.7 0 0 0-.379-.886 2.9 2.9 0 0 0-.734-.817 4.3 4.3 0 0 0-2.4-.723 3.9 3.9 0 0 0-2.379.751 3.62 3.62 0 0 0-1.416 2.414q-.038.3-.024.6.013.192.048.38v.099l-.02-.099a2.9 2.9 0 0 1-.033-.98q.047-.4.188-.78a3.64 3.64 0 0 1 1.228-1.65 3.9 3.9 0 0 1 2.392-.76 4.3 4.3 0 0 1 2.411.727c.298.221.549.499.739.817.166.278.294.578.38.89q.102.39.134.793c.025.233.033.437.041.6.008.164 0 .294 0 .384v.131z"/><path fill="#263238" d="M54.869 83.773v-.441c0-.286-.02-.707-.037-1.225-.016-.52-.032-1.18-.053-1.924v-.572a3 3 0 0 1 0-.302l.025-.151.028-.152a3.3 3.3 0 0 1 .555-1.18l2.334-1.47.629-.409q.317-.212.665-.372a7 7 0 0 1 .726-.29c.123-.044.25-.077.376-.118q.19-.059.387-.094.745-.16 1.506-.188.727-.039 1.453 0c-.224 1-.433 1.944-.629 2.806q-.174.286-.281.605c-.071.199-.103.41-.094.62 0 .209.02.409.025.61.004.2 0 .408 0 .571v3.598-1.662c0-.519 0-1.18-.02-1.92v-.576c0-.196 0-.408-.03-.604a1.7 1.7 0 0 1 .095-.633q.112-.319.285-.609c.192-.862.408-1.805.624-2.806a13 13 0 0 0-1.452 0 8.6 8.6 0 0 0-1.498.188c-.13.025-.261.061-.388.094a4 4 0 0 0-.375.118 7 7 0 0 0-.722.286 5 5 0 0 0-.665.372l-.629.409-2.334 1.47a3 3 0 0 0-.347.572 3.3 3.3 0 0 0-.208.6c-.07.387-.088.781-.053 1.172.02.744.037 1.39.049 1.924.012.535.024.952.028 1.226v.457z"/><path fill="#263238" d="M63.434 74.96h.34l.93-.021 3.13-.053c.138.175.29.355.436.539l1.257 1.54q.07.085.139.175.07.087.118.188.09.194.094.409a.9.9 0 0 1-.074.388l-.142.33c-.184.409-.331.769-.437 1.005l-.118.274-.029.07v.024-.025l.028-.073.115-.274.436-.992a1.8 1.8 0 0 0 .213-.715.94.94 0 0 0-.209-.592l-.142-.176-1.253-1.536-.44-.539-3.135.045h-1.269zm-1.579 4.169h.037a.3.3 0 0 0 .098-.041.24.24 0 0 0 .102-.13.2.2 0 0 0 0-.107.2.2 0 0 0-.029-.11.25.25 0 0 0-.216-.135h-1.045a.24.24 0 0 0-.163.066.25.25 0 0 0-.049.318.24.24 0 0 0 .118.11.4.4 0 0 0 .16 0h-.066a.3.3 0 0 1-.085 0 .3.3 0 0 1-.13-.118.3.3 0 0 1-.038-.18.28.28 0 0 1 .09-.171.26.26 0 0 1 .18-.07h1.048a.28.28 0 0 1 .233.147.25.25 0 0 1 .029.119.3.3 0 0 1 0 .11.25.25 0 0 1-.106.135.3.3 0 0 1-.107.036z"/><path fill="#263238" d="M68.837 79.129h.037a.3.3 0 0 0 .098-.041.26.26 0 0 0 .102-.13.4.4 0 0 0 0-.107.253.253 0 0 0-.245-.245H67.78a.25.25 0 0 0-.167.066.23.23 0 0 0-.078.155.25.25 0 0 0 .029.163.27.27 0 0 0 .122.11q.078.015.155 0h-.081a.3.3 0 0 1-.082 0 .3.3 0 0 1-.134-.118.3.3 0 0 1-.033-.18.28.28 0 0 1 .086-.171.27.27 0 0 1 .183-.07h1.05a.29.29 0 0 1 .232.147c.03.074.03.156 0 .229a.27.27 0 0 1-.213.171z"/><path fill="#fff" d="M74.958 77.99h-1.4a.51.51 0 0 0-.452.273.51.51 0 0 0 0 .45l.546 1.225h1.4s.282-1.573-.094-1.949" opacity=".6"/><path fill="#263238" d="m55.559 77.813 7.206-.135 4.689-.085 1.55-.895a.24.24 0 0 0 .07-.351l-.963-1.266a.53.53 0 0 0-.408-.213l-5.268-.045a7.34 7.34 0 0 0-3.534.76 34 34 0 0 0-3.342 2.23"/><path fill="#455A64" d="M58.86 74.955s.363.167.126.318c-.236.151-3.884 2.45-3.884 2.45l-.841-.379a84 84 0 0 1 4.599-2.39"/><path fill="#263238" d="M55.22 77.79h-.09l-.257.053a40 40 0 0 1-4.093.584q-.46.04-.902.07c-.294.02-.571.036-.84.06a7 7 0 0 0-1.4.242q-.466.127-.886.367c-.097.053-.17.106-.22.135l-.061.037.057-.041a3.8 3.8 0 0 1 1.106-.515q.69-.195 1.404-.249c.265-.025.547-.04.84-.061q.439-.028.902-.07a37 37 0 0 0 3.146-.408l.947-.168.257-.049h.066zm20.293 3.23h-2.142 1.073c.596 0 1.07-.008 1.07 0m-8.786 1.226H54.616h6.056c3.346 0 6.056-.005 6.056 0M47.744 81.06h-1.71.857c.474 0 .853-.007.853 0"/><path fill="#455A64" d="M72.673 75.788s-.322.364-.196.625c.127.261 1.432 1.193 1.432 1.193l.951.18zm-9.023-.645-.216 2.307 3.82-.11 1.538-.895-.995-1.302zm-7.185 2.426s2.301-1.667 3.211-1.998a5.8 5.8 0 0 1 2.159-.408c.787-.025 1.265 0 1.265 0l-.608 2.344z"/><path fill="#BBA061" d="M56.126 77.577a.41.41 0 0 1 .204-.351l.53-.298a1 1 0 0 1 .808-.082.58.58 0 0 1 .225.954.6.6 0 0 1-.42.181h-.943a.41.41 0 0 1-.404-.404"/><path fill="#263238" d="M56.126 77.577v.049q.009.075.049.139a.36.36 0 0 0 .163.159q.062.037.135.045h.97a.58.58 0 0 0 .544-.368.6.6 0 0 0 .032-.249.58.58 0 0 0-.236-.408.6.6 0 0 0-.22-.094 1 1 0 0 0-.23-.025c-.14 0-.28.03-.407.09a2 2 0 0 0-.172.09l-.159.086-.27.15a.41.41 0 0 0-.216.352.2.2 0 0 1 0-.053.41.41 0 0 1 .209-.31l.269-.151.155-.09c.057-.029.11-.066.175-.094q.194-.09.409-.094.12 0 .236.028a.58.58 0 0 1 .474.536.6.6 0 0 1-.037.26.58.58 0 0 1-.347.344.7.7 0 0 1-.233.04h-.975a.41.41 0 0 1-.347-.355.2.2 0 0 1 .029-.077"/><path fill="#fff" d="M73.86 83.728V82.65a4 4 0 0 0-.134-.76 4 4 0 0 0-.151-.409 3 3 0 0 0-.229-.408 2.9 2.9 0 0 0-.738-.772 3.6 3.6 0 0 0-1.057-.519 4.4 4.4 0 0 0-1.257-.171 4.2 4.2 0 0 0-1.257.184 3.3 3.3 0 0 0-1.045.547q-.421.336-.746.768-.14.195-.25.408-.095.2-.17.409c-.15.428-.243.874-.274 1.327v.368a3 3 0 0 1 0-.372 5 5 0 0 1 .265-1.327q.075-.21.172-.409a3 3 0 0 1 .249-.408q.326-.435.75-.772a3 3 0 0 1 .486-.319q.271-.141.563-.233a4.2 4.2 0 0 1 1.265-.188c.428-.004.854.054 1.265.172.383.114.743.292 1.065.527q.218.168.408.367.183.188.323.409.133.206.228.433.09.2.151.408.103.374.135.76v.801q.004.077 0 .155v.094zm-11.47-5.914h-.616l-1.494.036c-.584 0-1.11.029-1.494.029h-.432.453l1.493-.037c.584 0 1.11-.028 1.494-.028h.616zm-1.037.723c.228 0 .413-.005.413-.012s-.185-.012-.413-.012a4 4 0 0 0-.412.012c0 .007.185.012.412.012m.563-2.524s-.51.22-1.146.477c-.637.258-1.151.462-1.155.454s.51-.22 1.146-.478c.637-.257 1.155-.478 1.155-.453m-1.04.142s-.486.225-1.09.482c-.604.258-1.097.466-1.102.458-.004-.008.486-.22 1.094-.478.608-.257 1.098-.466 1.098-.462m6.598-.249s-.514.22-1.146.478c-.633.257-1.155.445-1.16.445-.003 0 .515-.22 1.147-.478.633-.257 1.155-.453 1.16-.445m-1.041.16s-.486.224-1.094.481c-.608.258-1.098.466-1.102.462a26 26 0 0 1 1.094-.482c.608-.257 1.098-.466 1.102-.462m1.138 1.749s-1.02 0-2.277.024c-1.257.025-2.281 0-2.281 0s1.02 0 2.277-.024c1.257-.025 2.281-.008 2.281 0m1.131.669h-1.278s.286 0 .637-.02c.35-.02.64 0 .64.02m-19.542-.351h-.106l-.127.02-.167.025c-.122.025-.27.053-.428.098a4.6 4.6 0 0 0-1 .392q-.22.115-.38.221l-.142.094-.102.073-.066.045h-.024l.061-.049.106-.077.143-.102a4.6 4.6 0 0 1 1.38-.617q.213-.058.432-.094l.167-.025h.237zm8.427-1.111a.2.2 0 0 0-.045-.045.4.4 0 0 0-.155-.065.7.7 0 0 0-.253.029q-.154.039-.298.102a1.9 1.9 0 0 0-.482.302c-.114.094-.171.163-.175.159a.3.3 0 0 1 .04-.05 1 1 0 0 1 .123-.126q.219-.192.486-.31a1.5 1.5 0 0 1 .302-.098.6.6 0 0 1 .257-.024.3.3 0 0 1 .159.073l.033.037q.006.007.008.016"/><path fill="#263238" d="M72.78 75.77a.8.8 0 0 1-.2.021q-.12 0-.237-.028a2 2 0 0 1-.302-.094 7 7 0 0 1-.351-.147l-.196-.078-.208-.077a9 9 0 0 0-.963-.261 11 11 0 0 0-1.796-.225h-.722.702q.909.031 1.8.217.491.102.966.265c.07.028.143.049.209.077l.195.082c.127.053.241.106.351.147q.145.062.298.098.116.026.233.032h.187z"/><path fill="#E0E0E0" d="M74.036 104.78H42.774v3.267h31.262z"/><path fill="#000" d="M74.036 104.78H42.774v3.267h31.262z" opacity=".3"/><path fill="#E0E0E0" d="M42.051 107.998s-.616-.241-.653-.616c-.036-.376 0-1.377 0-1.377s.731-2.516.817-2.826.681-.817 1.4-1.128l2.607-1.102h.624s4.489-3.844 6.007-4.016c0 0 5.346-.343 10.324-.208 4.979.135 10.202-.07 10.45.209 0 0 .686 2.405 1.03 4.399.21 1.686.279 3.387.203 5.085 0 0 .347 0 .31.723s-.134.755-.546.857q-1.462.078-2.922 0s.106-3.161-2.71-3.194-3.126 2.712-3.056 3.435l-15.695.205s-.334-3.611-3.183-3.611c-3.264 0-2.762 3.635-2.754 3.611.008-.025-1.865.208-2.253-.446"/><path fill="#263238" d="M50.103 99.846s-1.69 1.437-1.58 1.67c.05.111 1.804.062 1.804.062z"/><path fill="#455A64" d="M53.396 97.526c-.33.094-.886.082-1.938 1.066-.36.335-.853.817-1.355 1.254l.224 1.732 5.868-.053.257-4.179s-2.852.127-3.056.18"/><path fill="#263238" d="M53.396 97.526h.212l.608-.045c.53-.033 1.294-.074 2.236-.119-.07 1.156-.155 2.59-.253 4.179l-2.228.024-3.64.029q-.121-.924-.224-1.732l1.224-1.144c.184-.171.355-.326.526-.461q.233-.184.486-.34c.238-.142.497-.245.767-.305l.212-.045h.073l-.073.02-.212.049a2.6 2.6 0 0 0-.759.315 4 4 0 0 0-.481.339q-.253.203-.523.461l-1.224 1.148q.106.808.225 1.732l3.64-.033 2.228-.02.26-4.179c-.942.037-1.705.074-2.235.106l-.608.037h-.16z"/><path fill="#fff" d="M42.231 103.179s1.726-.29 2.147-.274q.26-.006.51.065s-.906 1.156-1.184 1.226q-.882.058-1.763 0z" opacity=".6"/><path fill="#263238" d="M47.565 100.948v.037l-.05.102q-.093.184-.232.335-.216.219-.494.351a8 8 0 0 1-.677.294 11 11 0 0 0-1.224.556l-.355.196-.098.053s-.033.02-.037 0l.033-.02.093-.062c.082-.049.2-.122.351-.204a10 10 0 0 1 1.225-.568c.244-.098.477-.188.677-.29a1.8 1.8 0 0 0 .49-.339q.139-.148.236-.326l.053-.094z"/><path fill="#455A64" d="M51.878 97.3h.228l-4.541 3.648h-.702s1-.866 2.11-1.712c1.187-.906 2.464-1.789 2.905-1.936"/><path fill="#E0E0E0" d="M50.352 100.017c.224.333.343.725.342 1.127a.41.41 0 0 1-.408.372H49.14s-.217-.188-.115-.409.192-.171.192-.171.478-.948 1.135-.919"/><path fill="#263238" d="M74.624 102.61s-6.66.094-14.879.192-14.857.168-14.857.168 6.66-.094 14.874-.192 14.862-.176 14.862-.168m-8.757 4.22s-3.445.053-7.693.102-7.692.073-7.692.065 3.444-.057 7.692-.102 7.693-.073 7.693-.065"/><path fill="#263238" d="M57.158 106.997v-1.441c0-.891-.032-2.124-.057-3.48-.024-1.356-.045-2.59-.049-3.484v-1.438 1.437c0 .895.029 2.124.057 3.485.029 1.36.045 2.585.05 3.48v1.441"/><path fill="#455A64" d="m71.82 101.222-14.282.254v-4.13l13.899.127c.069-.045.24.098.277.294l.535 2.916a.453.453 0 0 1-.429.539"/><path fill="#263238" d="M71.82 101.222h.07a.4.4 0 0 0 .195-.078.48.48 0 0 0 .18-.286.6.6 0 0 0 0-.22l-.049-.249-.24-1.3c-.05-.257-.099-.53-.156-.816q-.037-.22-.081-.453a.5.5 0 0 0-.082-.217.6.6 0 0 0-.082-.086l-.053-.028a.07.07 0 0 0-.049 0l-13.935-.123v4.13l10.201-.176 2.992-.049-2.992.061-10.201.184V97.37l13.899.131a.1.1 0 0 1 .069 0l.057.033a.5.5 0 0 1 .086.09.5.5 0 0 1 .085.224q.045.232.082.454.079.436.151.816l.237 1.303.045.25a.5.5 0 0 1 0 .22.47.47 0 0 1-.384.368h-.045z"/><path fill="#fff" d="m73.779 102.667.053 2.112h.983s-.049-1.425-.07-1.903a.165.165 0 0 0-.151-.155z" opacity=".6"/><path fill="#263238" d="M50.699 106.928v-.021l-.025-.069c0-.029-.024-.069-.04-.11l-.058-.151a4.5 4.5 0 0 0-.498-.907 4.2 4.2 0 0 0-1.085-1.054 3.6 3.6 0 0 0-1.747-.588 3.25 3.25 0 0 0-1.8.376 3.27 3.27 0 0 0-1.546 1.944l-.04.155c0 .045 0 .086-.025.114v.098-.098a1 1 0 0 1 .02-.118c0-.045.02-.098.037-.155a3.23 3.23 0 0 1 1.542-1.969 3.3 3.3 0 0 1 1.816-.384 3.67 3.67 0 0 1 1.763.596c.426.287.795.65 1.09 1.071q.168.241.306.502.114.232.184.408l.057.152c0 .044.024.081.036.114v.069zm21.239-.396v-.086l-.024-.102-.02-.061-.025-.074-.057-.171a4 4 0 0 1-.086-.196c-.032-.07-.077-.139-.118-.213s-.098-.151-.151-.228a2.6 2.6 0 0 0-1.061-.817 1 1 0 0 0-.18-.07l-.187-.061a4 4 0 0 0-.408-.09 5 5 0 0 0-.408-.049h-.437a3 3 0 0 0-.837.155 3.5 3.5 0 0 0-.722.339q-.31.176-.58.409-.225.217-.407.469a2.6 2.6 0 0 0-.409.817c0 .053-.024.098-.032.139a1 1 0 0 0-.02.102v.066q-.003.01 0 .02.012-.168.056-.331c.087-.294.225-.571.409-.817q.181-.255.408-.473.27-.248.583-.437.343-.213.727-.344a2.9 2.9 0 0 1 1.069-.159h.22c.143 0 .286.025.408.053.123.029.273.057.408.09l.188.061c.061.021.122.049.18.074.422.172.791.454 1.069.817.053.082.106.155.15.233q.066.114.115.216c.032.07.057.139.086.2.028.062.036.119.053.172l.024.073v.066l.025.102v.061a.1.1 0 0 1-.009.045m2.8.053h-.368l-.889-.024h-.885.89c.346 0 .66.02.885.032l.269.021a.3.3 0 0 1 .098-.029"/><path fill="#263238" d="M66.254 107.761a2.655 2.655 0 0 0 3.131 2.652 2.66 2.66 0 0 0 2.115-2.055 2.66 2.66 0 0 0-1.09-2.742 2.66 2.66 0 0 0-3.353.28 2.66 2.66 0 0 0-.803 1.865"/><path fill="#263238" d="M66.254 107.753a2.656 2.656 0 0 0 3.632 2.507 2.66 2.66 0 0 0 1.673-2.429z"/><path fill="#FAFAFA" d="M67.042 107.774a1.863 1.863 0 0 0 2.198 1.856 1.87 1.87 0 0 0 1.482-1.442 1.864 1.864 0 0 0-1.791-2.252 1.86 1.86 0 0 0-1.89 1.838"/><path fill="#E0E0E0" d="M68.931 105.936a1.865 1.865 0 0 0-1.89 1.838l3.722.053a1.86 1.86 0 0 0-1.832-1.891"/><path fill="#263238" d="M67.768 107.782a1.136 1.136 0 0 0 1.923.836 1.134 1.134 0 1 0-1.923-.836m-23.346-.021a2.66 2.66 0 0 0 1.601 2.478 2.65 2.65 0 0 0 3.645-1.882 2.657 2.657 0 0 0-2.556-3.21 2.65 2.65 0 0 0-2.69 2.614"/><path fill="#263238" d="M44.426 107.753a2.656 2.656 0 0 0 2.614 2.694 2.65 2.65 0 0 0 2.691-2.616z"/><path fill="#FAFAFA" d="M45.214 107.774a1.865 1.865 0 0 0 1.126 1.735 1.86 1.86 0 0 0 2.033-.377 1.862 1.862 0 0 0-1.274-3.196 1.86 1.86 0 0 0-1.325.526 1.86 1.86 0 0 0-.56 1.312"/><path fill="#E0E0E0" d="M47.1 105.936a1.863 1.863 0 0 0-1.886 1.838l3.722.053a1.87 1.87 0 0 0-1.837-1.891"/><path fill="#263238" d="M45.94 107.782a1.136 1.136 0 0 0 1.924.836 1.134 1.134 0 0 0-.773-1.951 1.14 1.14 0 0 0-.807.318 1.13 1.13 0 0 0-.344.797m3.53-6.267s-.04 0-.09-.04a.38.38 0 0 1-.142-.196 1 1 0 0 1 0-.241.3.3 0 0 1 0-.098.4.4 0 0 1 0 .098q.002.115.024.228a.4.4 0 0 0 .127.188c.053.041.085.057.081.061m5.77-2.952s-.6.51-1.354 1.12a72 72 0 0 1-1.376 1.094c-.004-.004.6-.511 1.355-1.12.755-.608 1.371-1.102 1.375-1.094m-.791.2s-.294.24-.67.519q-.334.263-.693.49s.298-.237.673-.519.686-.498.69-.49m8.745-.693s-.51.481-1.155 1.061-1.167 1.05-1.175 1.042.51-.487 1.155-1.067c.644-.58 1.166-1.065 1.175-1.037m-1.286.608s-.228.217-.518.474q-.259.24-.543.45s.225-.221.518-.475q.26-.24.543-.449m6.905-.281-.05.065-.13.171-.453.552-.44.547-.143.163c-.037.041-.053.062-.057.058l.044-.066.135-.167.453-.556.461-.547.143-.163zm.771-.54v.029l-.045.09c-.04.073-.106.18-.183.31a15 15 0 0 1-1.4 1.916l-.24.27-.07.069-.025.024.02-.028.062-.078.232-.273a19 19 0 0 0 1.4-1.916l.192-.302.053-.082q-.004-.03.004-.029m-20.616 3.072s-.616.02-1.379.02h-1.375s.616 0 1.375-.02c.76-.021 1.38 0 1.38 0m-7.55 5.918h1.187c-.657 0-1.187.008-1.187 0"/><path fill="#263238" d="M65.618 106.83v-1.238c0-.796-.025-1.948-.045-3.369 0-.715 0-1.495-.029-2.333v-2.67a.12.12 0 0 0-.028-.073.3.3 0 0 0-.066-.041.6.6 0 0 0-.171-.029h-1.09l-1.505.02-3.167.046-3.395.049-1.604.028c-.261 0-.518 0-.771.025q-.376.013-.739.118a5 5 0 0 0-.35.11l-.176.062-.163.07q-.314.168-.596.383c-.376.274-.718.564-1.045.846-.326.281-.636.56-.926.816-.147.131-.29.266-.433.388a1 1 0 0 0-.183.201.45.45 0 0 0-.086.245c-.049 1.266-.082 2.275-.106 2.973l-.033.797v.273-.273c0-.184 0-.454.025-.797.02-.698.053-1.707.094-2.973a.53.53 0 0 1 .09-.258q.08-.116.187-.208.214-.185.433-.388c.29-.266.595-.543.922-.817.326-.273.673-.576 1.049-.85q.284-.216.6-.383c.053-.025.11-.053.167-.074l.171-.061q.171-.062.355-.11.364-.105.743-.123c.257 0 .514-.02.775-.025l1.604-.028 3.395-.05 3.167-.044h2.555q.091 0 .179.033.046.015.081.049a.14.14 0 0 1 .033.094v2.671c0 .837 0 1.634.025 2.328 0 1.425.024 2.577.032 3.374v1.156q.014.03.025.061"/><path fill="#263238" d="M55.906 102.349h.04q.056-.016.098-.057a.22.22 0 0 0 .057-.163.2.2 0 0 0-.048-.104.2.2 0 0 0-.098-.06 1 1 0 0 0-.14 0H54.53a.19.19 0 0 0-.171.266.2.2 0 0 0 .13.106.4.4 0 0 0 .094 0h1.163-1.163a.4.4 0 0 1-.098 0 .22.22 0 0 1-.159-.127.22.22 0 0 1 0-.208.23.23 0 0 1 .188-.102h1.285a.6.6 0 0 1 .143 0 .21.21 0 0 1 .16.184.2.2 0 0 1-.066.175.18.18 0 0 1-.106.053z"/><path fill="#fff" d="M55.857 101.888a5 5 0 0 1-.625 0 5 5 0 0 1-.624 0h.624c.347 0 .625-.008.625 0m-6.457-1.067a.4.4 0 0 1 .058-.13q.085-.147.204-.266.121-.12.273-.2a.4.4 0 0 1 .127-.053q-.202.119-.375.278-.166.169-.286.371m5.064-2.266s-.229.175-.518.38q-.261.186-.539.346s.229-.175.518-.375q.258-.195.539-.351m7.411-1.528h-2.082c1.151 0 2.082-.008 2.082 0m-15.801 4.121-.077.041-.204.098a13 13 0 0 1-.694.302q-.428.173-.702.274l-.216.077c-.05 0-.078.025-.078 0l.074-.037.212-.085.698-.282.693-.29.212-.089zm1.355 2.95h-.151a4 4 0 0 0-.408 0 3.4 3.4 0 0 0-1.298.408 3.35 3.35 0 0 0-1.269 1.209c-.028.041-.045.078-.061.098v.033-.037c0-.024.029-.057.053-.098q.102-.182.229-.347a3.2 3.2 0 0 1 2.758-1.266zm-3.481 3.025a1.2 1.2 0 0 1 0-.355 1.3 1.3 0 0 1 .07-.351s0 .16-.037.351a2.5 2.5 0 0 1-.033.355m-1.995-2.396s-.041.102-.102.261a5 5 0 0 0-.192.641q-.075.33-.106.666c0 .172-.02.278-.025.278v-.278q.02-.339.094-.67a4 4 0 0 1 .294-.833.3.3 0 0 1 .037-.065m10.863-1.892h-1.853c1.036 0 1.852-.008 1.852 0m10.406-.11h-2.669c1.474 0 2.67-.008 2.67 0m7.116 1.52h-.147l-.167-.025c-.07 0-.143-.02-.229-.024l-.273-.021h-.319a7 7 0 0 0-.722.053 6 6 0 0 0-1.481.417l-.155.069-.102.045h-.033l.029-.021.098-.049.155-.077c.06-.025.13-.061.212-.09l.257-.098.306-.094q.35-.093.71-.147.36-.048.726-.053h.319c.102 0 .191 0 .277.025l.225.028q.086.01.171.033h.106zm-6.374 3.006h-6.44c3.559 0 6.44-.008 6.44 0"/><path fill="#263238" d="M38.689 77.732c0 .057-4.546.106-10.153.106s-10.157-.049-10.157-.106 4.546-.106 10.157-.106 10.153.045 10.153.106m-11.891 2.393a42 42 0 0 1-4.285.106q-2.147.056-4.289-.106c0-.057 1.918-.106 4.29-.106 2.37 0 4.284.049 4.284.106"/><path fill="#E0E0E0" d="M39.113 83.34c0 .057-4.676.106-10.442.106s-10.447-.049-10.447-.106 4.677-.106 10.447-.106 10.442.049 10.442.106"/><path fill="#BBA061" d="M14.087 78.463a2.55 2.55 0 0 0-2.056-2.498A2.545 2.545 0 0 0 9 78.643c.027.39.144.769.34 1.107.099.167.221.286.343.457l1.478 1.961a.462.462 0 0 0 .734 0l1.457-1.928q.198-.234.367-.49c.236-.388.363-.832.367-1.287m-2.551 1.111a1.12 1.12 0 0 1-1.109-1.342 1.124 1.124 0 0 1 1.537-.816 1.12 1.12 0 0 1 .686 1.047 1.124 1.124 0 0 1-1.114 1.115zm7.469-6.106.371.747.82.119-.596.58.143.82-.738-.387-.735.388.143-.821-.596-.58.82-.119zm3.485 0 .367.747.824.119-.596.58.14.82-.735-.387-.735.388.139-.821-.596-.58.824-.119zm3.481 0 .367.747.824.119-.596.58.143.82-.738-.387-.735.388.143-.821-.596-.58.82-.119zm3.484 0 .368.747.82.119-.592.58.139.82-.735-.387-.734.388.139-.821-.596-.58.824-.119zm3.481 0 .367.747.825.119-.596.58.139.82-.735-.387-.734.388.138-.821-.595-.58.824-.119z"/><path fill="#263238" d="M38.69 126.807c0 .057-4.547.106-10.154.106s-10.173-.049-10.173-.106 4.546-.106 10.157-.106 10.17.049 10.17.106m-11.892 2.394a43 43 0 0 1-4.285.106q-2.147.055-4.289-.106c0-.057 1.918-.106 4.29-.106 2.37 0 4.284.049 4.284.106"/><path fill="#E0E0E0" d="M39.113 132.415c0 .061-4.676.106-10.442.106s-10.447-.045-10.447-.106 4.677-.106 10.447-.106 10.442.069 10.442.106"/><path fill="#455A64" d="M14.087 127.542a2.55 2.55 0 0 0-1-2.022 2.54 2.54 0 0 0-2.213-.435 2.54 2.54 0 0 0-1.69 1.493 2.55 2.55 0 0 0 .157 2.251c.098.163.22.282.342.453l1.478 1.961a.456.456 0 0 0 .572.134.45.45 0 0 0 .162-.134l1.457-1.928q.198-.234.367-.49c.236-.386.363-.83.367-1.283m-2.551 1.111a1.12 1.12 0 0 1-1.037-.693 1.123 1.123 0 0 1 1.97-1.054 1.125 1.125 0 0 1-.933 1.747m7.469-6.106.371.744.82.122-.596.58.143.817-.738-.384-.735.384.143-.817-.596-.58.82-.122zm3.485 0 .367.744.824.122-.596.58.14.817-.735-.384-.735.384.139-.817-.596-.58.824-.122zm3.481 0 .367.744.824.122-.596.58.143.817-.738-.384-.735.384.143-.817-.596-.58.82-.122z"/><path fill="#E0E0E0" d="m29.454 122.547.368.744.82.122-.592.58.139.817-.735-.384-.734.384.139-.817-.596-.58.824-.122zm3.481 0 .367.744.825.122-.596.58.139.817-.735-.384-.734.384.138-.817-.595-.58.824-.122z"/><path fill="#263238" d="M38.69 103.313c0 .057-4.547.106-10.154.106s-10.173-.041-10.173-.106 4.546-.106 10.157-.106 10.17.045 10.17.106m-11.892 2.394a43 43 0 0 1-4.285.106q-2.147.055-4.289-.106c0-.057 1.918-.106 4.29-.106 2.37 0 4.284.049 4.284.106"/><path fill="#E0E0E0" d="M39.113 108.921c0 .057-4.676.106-10.442.106s-10.447-.049-10.447-.106 4.677-.106 10.447-.106 10.442.049 10.442.106"/><path fill="#455A64" d="M14.087 104.048a2.55 2.55 0 0 0-1-2.022 2.54 2.54 0 0 0-2.213-.435 2.54 2.54 0 0 0-1.69 1.493 2.55 2.55 0 0 0 .157 2.251c.098.167.22.286.342.457l1.478 1.961a.46.46 0 0 0 .734 0l1.457-1.928q.198-.234.367-.49a2.5 2.5 0 0 0 .367-1.287m-2.551 1.107a1.125 1.125 0 0 1-1.037-.694 1.13 1.13 0 0 1 .245-1.225 1.121 1.121 0 0 1 1.914.8 1.12 1.12 0 0 1-1.122 1.119m7.469-6.106.371.747.82.119-.596.58.143.821-.738-.388-.735.388.143-.821-.596-.58.82-.119zm3.485 0 .367.747.824.119-.596.58.14.821-.735-.388-.735.388.139-.821-.596-.58.824-.119zm3.481 0 .367.747.824.119-.596.58.143.821-.738-.388-.735.388.143-.821-.596-.58.82-.119zm3.484 0 .368.747.82.119-.592.58.139.821-.735-.388-.734.388.139-.821-.596-.58.824-.119z"/><path fill="#E0E0E0" d="m32.935 99.049.367.747.825.119-.596.58.139.821-.735-.388-.734.388.138-.821-.595-.58.824-.119z"/><path fill="#BBA061" d="M81.434 91.734H3.722V66.002h77.712zM4.13 91.325h76.896V66.41H4.13z"/><path fill="#fff" d="M22.223 154.124v-.409h.817a6.5 6.5 0 0 0-.037-1.401c-.057-.098-.408-.147-.64-.179a2 2 0 0 1-.588-.131c-.172-.078-.906-.331-1.96-.678a1.7 1.7 0 0 0-.526-.082h-1.68a1.7 1.7 0 0 0-.87.245l-1.175.817s-1.098.241-1.694.437c-.432.143-.457 1.046-.432 1.352l-.408.037c0-.155-.102-1.511.714-1.777a17 17 0 0 1 1.693-.441l1.082-.755a2.1 2.1 0 0 1 1.085-.311h1.681q.338.007.661.102c.637.209 1.739.576 2 .699q.23.074.473.094c.384.053.784.106.943.384.16.277.106 1.225.073 1.813v.192z"/><path fill="#fff" d="M21.02 155.011a1.04 1.04 0 0 1-.962-.643 1.043 1.043 0 0 1 .759-1.42 1.04 1.04 0 0 1 .937 1.757 1.04 1.04 0 0 1-.734.306m0-1.675a.63.63 0 0 0-.585.391.634.634 0 0 0 .827.827.633.633 0 0 0-.242-1.218m-6.354 1.675a1.04 1.04 0 0 1-.961-.643 1.042 1.042 0 0 1 1.36-1.361 1.04 1.04 0 0 1 .642.962 1.044 1.044 0 0 1-1.04 1.042m0-1.675a.63.63 0 0 0-.584.391.634.634 0 0 0 .826.827.633.633 0 0 0-.242-1.218m5.071.404h-3.766v.408h3.766z"/><path fill="#263238" d="M114.937 61.553a3.4 3.4 0 0 0-1-.596c-.665-.31-1.787-.989-1.848-1.72a15 15 0 0 1-.111-2.042c.066-1.528-1.962-2.36-2.264-3.86-.253-1.246.816-2.418.759-3.676-.058-1.258-1.139-2.214-1.633-3.378-1.167-2.7.376-5.208-.644-8.639a7.84 7.84 0 0 0-1.837-3.308c-.551-.564-2.175-1.687-3.746-1.687l-.102-.167c-1.024-1.565-3.346-1.634-5.093-.96s-3.264 1.87-5.092 2.32c-.882.216-.755-1.09-1.632-.911-1.168.24-2.604 1.61-2.939 2.745-.359 1.225-.604 2.56-1.036 3.753-.478 1.32-1.89 2.239-2.04 3.636-.151 1.633 1.53 2.957 1.534 4.59 0 1.76-1.942 3.334-1.322 4.984.355.939 1.44 1.446 1.816 2.377.522 1.286-.514 2.7-.408 4.084.106 1.385 1.244 2.402 2.334 3.235a49 49 0 0 0 13.715 7.552c2.142.736 4.403 1.3 6.664 1.095 2.26-.204 4.529-1.287 5.713-3.227.975-1.593 1.726-5.114.212-6.2"/><path fill="#FFBE9D" d="M91.191 40.886a7.05 7.05 0 0 1 4.162-6.817 7 7 0 0 1 2.743-.609 7.245 7.245 0 0 1 7.345 6.63c.29 3.267.506 6.587.408 7.76-.277 3.59-2.505 4.848-3.399 5.212q-.48.135-.975.171a.03.03 0 0 0-.018.01.03.03 0 0 0-.007.019l.567 4.174c.192 2.724-1.497 5.036-4.264 5.253-2.767.216-4.799-1.998-5.044-4.73z"/><path fill="#263238" d="M104.131 43.104a.574.574 0 0 1-.514.617.557.557 0 0 1-.641-.466.575.575 0 0 1 .51-.62.563.563 0 0 1 .645.47m.404-2.113c-.065.081-.534-.204-1.159-.155-.624.048-1.053.408-1.126.322-.074-.086.024-.172.212-.33.258-.204.571-.325.898-.348a1.54 1.54 0 0 1 .926.217c.204.126.282.257.249.294m-6.117 2.447a.57.57 0 0 1-.51.616.56.56 0 0 1-.565-.26.6.6 0 0 1-.076-.205.57.57 0 0 1 .51-.621.56.56 0 0 1 .641.47m-.012-1.855c-.065.081-.53-.205-1.155-.156-.624.05-1.057.409-1.13.323-.074-.086.024-.172.212-.327.257-.204.57-.327.898-.35.325-.028.65.047.93.216.204.13.278.257.245.294m2.644 4.375a4.3 4.3 0 0 1 1-.257c.159-.029.306-.074.322-.18a.8.8 0 0 0-.142-.458l-.572-1.156c-.796-1.633-1.383-3.01-1.318-3.038s.767 1.278 1.563 2.928l.551 1.164a.9.9 0 0 1 .135.609.41.41 0 0 1-.241.249 1 1 0 0 1-.269.057c-.338.073-.684.1-1.029.082"/><path fill="#EB996E" d="M101.45 53.237s-2.391.384-5.554-1.164c.188.094 1.102 3.623 5.713 2.288zm-.539-5.779a1.15 1.15 0 0 0-1.426-.185 1 1 0 0 0-.296.283.63.63 0 0 0 0 .735.75.75 0 0 0 .817.14c.285-.124.543-.303.759-.528a.8.8 0 0 0 .163-.196.2.2 0 0 0 .036-.114q0-.062-.036-.115"/><path fill="#263238" d="M99.25 46.526c.099 0 .156.654.776 1.083s1.334.298 1.347.388-.151.143-.453.175a1.73 1.73 0 0 1-1.123-.29 1.44 1.44 0 0 1-.608-.906c-.028-.278.013-.45.062-.45m-.865-6.926c-.045.17-.678.138-1.4.281-.723.143-1.302.408-1.412.245-.05-.065.04-.233.265-.408a2.4 2.4 0 0 1 1.024-.446c.371-.074.754-.06 1.118.041.278.082.425.204.404.286m5.828-.216c-.098.146-.539.036-1.057.069-.518.032-.947.167-1.061.028-.049-.065 0-.212.188-.359a1.5 1.5 0 0 1 .84-.294 1.5 1.5 0 0 1 .869.213c.192.13.266.269.221.343"/><path fill="#FFBE9D" d="M91.885 42.965c-.065-.02-2.506-.572-2.273 1.87s2.636 1.708 2.632 1.634c-.004-.073-.359-3.504-.359-3.504"/><path fill="#EB996E" d="M91.408 45.62s-.041.033-.11.074a.45.45 0 0 1-.319.036 1.07 1.07 0 0 1-.575-.898 1.4 1.4 0 0 1 .06-.621.5.5 0 0 1 .29-.36.22.22 0 0 1 .262.094c.04.066.028.115.04.119s.05-.045.021-.147a.3.3 0 0 0-.11-.143.34.34 0 0 0-.24-.041.6.6 0 0 0-.409.408 1.46 1.46 0 0 0-.086.699 1.12 1.12 0 0 0 .723.996.46.46 0 0 0 .383-.102c.07-.057.07-.11.07-.114"/><path fill="#263238" d="M102.874 33.256a5.67 5.67 0 0 0-4.01-4.079 5.66 5.66 0 0 0-5.518 1.497c-.576.58-1.029 1.291-1.706 1.745a8.7 8.7 0 0 1-2.04 1.041c-.857.34-2.114 2.386-2.085 3.309l-.429 4.04c.033.943 1.249 1.478 2.142 1.167.894-.31 1.49-1.143 1.96-1.964.468-.821.917-1.708 1.693-2.25 1.281-.904 3.02-.593 4.558-.279 1.538.315 3.313.54 4.513-.473 1.028-.89 1.253-2.443.922-3.754"/><path fill="#455A64" d="M107.502 55.61a1 1 0 0 1-.143-.187 2 2 0 0 1-.249-.634 4.4 4.4 0 0 1 .355-2.45 13 13 0 0 0 .543-1.605 3.24 3.24 0 0 0-.086-1.88 19 19 0 0 1-.702-2.042 8 8 0 0 1-.106-2.34c.127-1.597.445-3.092.314-4.456a5.44 5.44 0 0 0-1.391-3.268 5.7 5.7 0 0 0-1.955-1.437c-.526-.233-.845-.299-.841-.323q.119.01.233.04.328.078.641.205a5.6 5.6 0 0 1 2.04 1.413 5.48 5.48 0 0 1 1.477 3.341c.143 1.401-.175 2.916-.298 4.493a8 8 0 0 0 .098 2.283q.284 1.042.686 2.043c.217.637.241 1.325.069 1.977a13 13 0 0 1-.575 1.633 4.5 4.5 0 0 0-.408 2.378c.057.285.157.56.298.816"/><path fill="#BBA061" d="m111.089 163.053-.376 6.944s7.182 2.561 7.244 3.847l-13.973.033.127-10.807z"/><path fill="#000" d="m111.089 163.053-.376 6.944s7.182 2.561 7.244 3.847l-13.973.033.127-10.807z" opacity=".3"/><path fill="#fff" d="M106.404 169.409a.565.565 0 0 0-.408.629.537.537 0 0 0 .637.38.58.58 0 0 0 .408-.666.57.57 0 0 0-.706-.327m-2.351 4.436v-1.091l13.422.376s.616.257.538.682z" opacity=".6"/><path fill="#263238" d="M110.942 169.911c0 .065-.347.098-.686.31-.338.212-.522.486-.583.461s.045-.408.461-.653.824-.175.808-.118m1.453.58c0 .065-.282.175-.519.457-.236.282-.31.572-.375.568s-.106-.376.196-.715.698-.371.698-.31m.803 1.686c-.061 0-.151-.314.033-.674.184-.359.502-.502.531-.449.028.053-.176.249-.319.548-.143.298-.175.571-.245.575m-2.354-3.855c-.029.061-.339-.029-.726 0-.388.028-.69.147-.723.089-.032-.057.257-.289.714-.314.457-.024.772.18.735.225"/><path fill="#000" d="m111.015 164.426-.065 1.233-6.868-.041.013-1.425z" opacity=".3"/><path fill="#263238" d="M110.893 166.929a1.33 1.33 0 0 1-.698 0 3.2 3.2 0 0 1-.73-.216 3 3 0 0 1-.408-.204.8.8 0 0 1-.208-.16.27.27 0 0 1-.077-.168.28.28 0 0 1 .048-.179.38.38 0 0 1 .302-.151 1 1 0 0 1 .261.033q.224.053.437.143c.231.103.446.241.636.408.319.286.408.531.408.543s-.183-.183-.51-.408a2.7 2.7 0 0 0-.616-.335 2.5 2.5 0 0 0-.408-.118c-.147-.037-.273-.041-.314.024-.041.066 0 .033 0 .074a.6.6 0 0 0 .151.118q.178.112.367.2.325.158.673.249.349.048.686.147"/><path fill="#263238" d="M110.803 167.023c-.024 0-.155-.225-.171-.649a2.1 2.1 0 0 1 .293-1.148.58.58 0 0 1 .449-.343.33.33 0 0 1 .29.188 1 1 0 0 1 .069.249q.035.226 0 .453a1.56 1.56 0 0 1-.31.695c-.281.351-.567.428-.571.408s.216-.159.433-.498c.123-.191.203-.408.232-.633q.031-.195 0-.388c0-.143-.069-.258-.126-.245a.5.5 0 0 0-.249.224 2.3 2.3 0 0 0-.327 1.038c-.045.392.025.641-.012.649"/><path fill="#BBA061" d="m107.351 161.991.747 9.394 2.783 7.352a.94.94 0 0 1-.047.756.9.9 0 0 1-.247.298.9.9 0 0 1-.347.171 1.01 1.01 0 0 1-.877-.204c-1.608-1.278-7.493-6.008-7.509-6.698 0-.797-1.461-9.877-1.461-9.877z"/><path fill="#fff" d="m110.24 179.955-8.463-7.524.04.409c.038.348.197.672.449.915.682.657 2.604 2.45 7.052 6.016a1.02 1.02 0 0 0 .922.192zm-6.807-10.673a.585.585 0 0 1 .241.747.567.567 0 0 1-.751.212.61.61 0 0 1-.249-.792.597.597 0 0 1 .816-.139" opacity=".6"/><path fill="#263238" d="M107.62 175.996c.057.025.225-.481.767-.784.343-.157.71-.251 1.086-.277 0-.025-.123-.086-.351-.103a1.53 1.53 0 0 0-.845.201 1.44 1.44 0 0 0-.587.641c-.09.18-.094.318-.07.322m.816 1.213c.049.037.327-.286.816-.457a7 7 0 0 1 .927-.18 1.14 1.14 0 0 0-1.008 0c-.555.184-.788.612-.735.637m-2.252-2.74a4.95 4.95 0 0 1 2.587-1.205 2.22 2.22 0 0 0-1.49.229 2.04 2.04 0 0 0-1.097.976m-.47-2.843c.029.053.539-.196 1.225-.265.685-.069 1.252.057 1.265 0a1.97 1.97 0 0 0-1.294-.204 1.85 1.85 0 0 0-1.196.469m-.293-2.753a5 5 0 0 1 1.269-.31q.666.033 1.306.228s-.102-.13-.339-.24a2.2 2.2 0 0 0-.98-.192 2.06 2.06 0 0 0-.95.253c-.221.118-.323.241-.306.261m1.199-.833a.8.8 0 0 0-.024-.355 2.6 2.6 0 0 0-.384-.911 1.17 1.17 0 0 0-.522-.494.41.41 0 0 0-.437.114.62.62 0 0 0-.106.433c.06.319.225.609.469.823.245.213.554.338.878.354a1.54 1.54 0 0 0 1.498-.924.52.52 0 0 0-.021-.457.41.41 0 0 0-.408-.176 1.34 1.34 0 0 0-.6.364 2.6 2.6 0 0 0-.579.772.75.75 0 0 0-.115.331c.215-.369.483-.703.796-.993.148-.145.331-.249.531-.302a.21.21 0 0 1 .232.094.35.35 0 0 1 0 .298 1.39 1.39 0 0 1-1.31.788 1.26 1.26 0 0 1-1.159-.984.44.44 0 0 1 .066-.306.21.21 0 0 1 .236-.066c.192.086.353.229.462.409.233.364.401.766.497 1.188m8.537-80.383s4.346 7.937 4.273 16.543-8.656 61.675-8.656 61.675l-10.307-2.814c-.257 1.708 3.925-17.408 5.496-26.627 1.547-9.075-3.236-42.217-3.236-42.217l11.63-6.609"/><path fill="#263238" d="M91.71 91.403s-3.47 8.63-2.314 15.349c1.155 6.719 9.793 62.04 9.793 62.04l10.116-1.977L105 94.981z"/><path fill="#455A64" d="M107.416 103.501a.7.7 0 0 1 0 .159c0 .115.025.27.045.47l.143 1.809c.126 1.569.281 3.844.457 6.658a649 649 0 0 1 1.245 44.015c0 2.818-.045 5.097-.078 6.67q-.028 1.172-.045 1.817v.47a1 1 0 0 1 0 .159.7.7 0 0 1 0-.159v-8.957c0-5.637-.069-13.418-.31-22.016a805 805 0 0 0-.93-21.991c-.168-2.802-.298-5.077-.409-6.661-.044-.777-.081-1.385-.106-1.81v-.474a1 1 0 0 1-.012-.159M92.51 55.852s-4.873 2.013-6.122 2.826 4.318 18.278 4.318 18.278 2.664 7.201 1.811 10.354c-.481 1.773-1.313 3.652-1.701 5.31a3.164 3.164 0 0 0 2.313 3.803c3 .74 8.79 1.724 13.838.024a35.4 35.4 0 0 0 8.57-4.12 3.165 3.165 0 0 0 .987-4.138 8.6 8.6 0 0 0-1.224-1.708c-1.632-1.744-2.857-8.365-3.187-10.186a3 3 0 0 1-.025-.903c.196-1.712.817-7.985-.106-11.07-.746-2.45-2.362-5.42-3.305-7.029a3.18 3.18 0 0 0-2.04-1.482l-4.991-1.095a4.7 4.7 0 0 0-1.302.074l-7.492 1.094z"/><path fill="#000" d="m92.783 86.657-1.025 2.978s6.366-1.883 8.484-4.195 4.187-4.015 5.134-4.085 5.003.086 5.692.682 3.036 2.214 3.036 2.214l-.987-3.21-2.616-2.222-8.002-1.14z" opacity=".3"/><path fill="#455A64" d="M86.384 58.678s-2.097 1.38-2.236 5.049c0 0-.057 1.172-.098 2.957-.106 4.97-.237 14.704.094 17.11.6 4.342 4.056 4.991 5.872 5.06 1.816.07 11.834-7.47 11.834-7.47l-2.816-4.607-7.157 1.58s-.029-6.943.057-9.284c.086-2.34-5.55-10.395-5.55-10.395m20.73-2.738s4.489 1.226 6.121 5.233c1.453 3.509 10.781 19.369 5.554 22.028-3.775 1.92-8.312-3.006-8.312-3.006z"/><path fill="#fff" d="M115.096 65.462a8.3 8.3 0 0 1-2.248.817 8.3 8.3 0 0 1-2.367.343c0-.06 1.044-.228 2.313-.551s2.282-.678 2.302-.609m1.73 3.677a7.2 7.2 0 0 1-2.179.69 7 7 0 0 1-2.277.167c0-.062 1.012-.14 2.236-.376 1.225-.237 2.2-.55 2.22-.481"/><path fill="#263238" d="M111.856 73.26q.21-.867.269-1.757a6.8 6.8 0 0 0-1.167-4.027 7 7 0 0 0-1.053-1.189 3.6 3.6 0 0 1-.906-1.143v-.045l.368-2.194q.055-.415.171-.817a5 5 0 0 1-.077.842c-.078.572-.18 1.32-.298 2.201v-.045c.346.789 1.346 1.324 1.962 2.292a6.66 6.66 0 0 1 1.135 4.141q-.048.661-.229 1.3a2.3 2.3 0 0 1-.175.44"/><path fill="#FFBE9D" d="M113.321 75.67a6.2 6.2 0 0 1-.343-2.247 4.2 4.2 0 0 0-.114-1.368 1.056 1.056 0 0 0-1.061-.772l-.286 3.366z"/><path fill="#263238" d="m112.084 68-1.016 11.893-5.741.335.318-11.682a.62.62 0 0 1 .543-.596l5.215-.617a.615.615 0 0 1 .681.666"/><path fill="#455A64" d="M106.037 71.781q.039-.173.045-.351l.081-.96c.033-.388.062-.899.102-1.43a2 2 0 0 1 0-.192.4.4 0 0 1 .086-.159.36.36 0 0 1 .151-.102q.1-.024.2-.033l.902-.11a699 699 0 0 0 3.154-.408l.951-.14a2 2 0 0 0 .351-.065 2 2 0 0 0-.355.02l-.959.103c-.816.09-1.926.22-3.158.376l-.898.114a1.2 1.2 0 0 0-.229.04.49.49 0 0 0-.306.348q-.009.106 0 .213c-.028.53-.057 1.012-.077 1.425-.021.412-.033.719-.041.968q-.015.171 0 .343"/><path fill="#FAFAFA" d="M108.779 68.885a.288.288 0 0 1 .449-.151.28.28 0 0 1 .102.15.33.33 0 0 1-.122.31.29.29 0 0 1-.327 0 .27.27 0 0 1-.102-.31"/><path fill="#FFBE9D" d="M109.363 72.37c.138 0 3.338 1.225 3.338 1.225l1.775 1.474a3.23 3.23 0 0 1 .408 2.45c-.282 1.557-.971 2.174-2.653 2.811l-3.338-.127-1.82-1.16a1.05 1.05 0 0 1-.461-1.074v-.07l-.228-.293a.574.574 0 0 1 .3-.902.57.57 0 0 1 .434.052l2.041 1.144h1.301l.143-.441-1.999-.756-2.616-1.568a.706.706 0 0 1 .163-1.287.7.7 0 0 1 .486.028l2.379 1.046 2.448.748-.469-.883-2.975-1.695s-.347-.943 1.343-.723"/><path fill="#FFBE9D" d="M108.877 70.813s-.669-.286-1.665.273c-.996.56-2.244 1.369-2.244 1.369l-1.93.817.175-.523s2-.037 1.734-1.462l-1.187.192-1.082-.409-1.779 2.198-.542 2.491-1.123 1.189 2.216 3.733 3.216-1.09 2.856-.172 1.298-1.332v-1.495l1.224-1.6s.094-.74-.563-.732-2.04 1.748-2.04 1.748l-1.559.225s-.298-.217-.098-.38 4.542-2.982 4.685-3.517.314-.89-.16-.976a2.6 2.6 0 0 0-1.224.266s.151-.744-.208-.813"/><path fill="#EB996E" d="M105.408 74.1c0 .025.886-.514 1.939-1.204s1.889-1.279 1.873-1.303q-1.001.548-1.939 1.2-.97.605-1.873 1.308m-.489 3.79q.119.04.245.05c.159.02.408.048.673.064q.507.035 1.008-.048c.41-.074.799-.234 1.142-.47a5.2 5.2 0 0 0 1.482-1.667c.147-.245.257-.449.33-.592a1.3 1.3 0 0 0 .106-.225s-.2.294-.506.768a5.6 5.6 0 0 1-1.477 1.634 3 3 0 0 1-1.098.462q-.488.09-.983.073c-.559-.032-.918-.07-.922-.049"/><path fill="#EB996E" d="m99.234 76.952.078-.074.22-.224.841-.874.559-2.488 1.779-2.181h-.049l1.082.408h.024l1.183-.192-.053-.04c.039.197.023.402-.045.592a1 1 0 0 1-.408.461c-.38.22-.809.34-1.248.348h-.037v.036c-.057.16-.118.34-.18.523l-.036.11.11-.044 1.934-.817q.87-.566 1.812-1.12.459-.3.975-.486c.345-.118.718-.13 1.069-.032.115.02.176.15.196.298q.031.224 0 .45v.11l.098-.045q.317-.147.657-.225c.217-.074.453-.074.669 0 .094.045.115.147.102.261q-.022.177-.077.348a1 1 0 0 1-.118.326 2 2 0 0 1-.249.262 28 28 0 0 1-2.375 1.785l-1.196.817-.588.408-.146.102a.32.32 0 0 0-.139.16.25.25 0 0 0 .045.212q.056.08.134.139h.045l1.555-.23h.024q.602-.758 1.335-1.388c.245-.184.514-.408.796-.322a.4.4 0 0 1 .306.24.84.84 0 0 1 .061.409v-.025l-1.224 1.602c0 .514 0 1.012.02 1.494v-.032l-1.294 1.331h.029l-2.856.188-2.375.817-.621.217-.155.06-.053.021h.053l.163-.053.625-.2 2.383-.796 2.856-.164 1.298-1.331v-1.491.028l1.224-1.597a1 1 0 0 0-.069-.474.54.54 0 0 0-.151-.195.5.5 0 0 0-.233-.107.73.73 0 0 0-.481.078 2.4 2.4 0 0 0-.408.265 9.6 9.6 0 0 0-1.355 1.405h.037l-1.559.225h.041c-.078-.057-.159-.16-.139-.225s.151-.13.241-.196l.587-.408 1.196-.817a29 29 0 0 0 2.391-1.793q.146-.127.265-.278a.45.45 0 0 0 .086-.188l.049-.18q.06-.181.086-.371.01-.106-.021-.208a.3.3 0 0 0-.146-.164 1.13 1.13 0 0 0-.751-.032 3.2 3.2 0 0 0-.682.237l.086.06a1.8 1.8 0 0 0 0-.49.6.6 0 0 0-.078-.236.33.33 0 0 0-.212-.16 1.87 1.87 0 0 0-1.151.033 4.8 4.8 0 0 0-.999.494 59 59 0 0 0-1.812 1.128l-1.93.816.069.066.175-.523-.048.037a2.7 2.7 0 0 0 1.301-.368c.191-.123.34-.301.429-.51.077-.207.094-.43.049-.646v-.049h-.049l-1.184.196h.021l-1.086-.408h-.028l-.021.024-1.767 2.206c-.212 1.005-.408 1.846-.53 2.496-.355.408-.633.686-.816.89l-.212.233z"/><path fill="#263238" d="M92.783 78.19a6 6 0 0 1-.739 0 4.04 4.04 0 0 0-2.995 1.588c-.27.36-.384.621-.408.605a1.5 1.5 0 0 1 .29-.694 3.67 3.67 0 0 1 3.125-1.659c.252-.005.5.05.727.16"/><path fill="#263238" d="M92.13 68.893a46 46 0 0 1 0 4.611c-.057 2.545-.151 4.604-.212 4.604a46 46 0 0 1 0-4.612c.057-2.544.15-4.603.212-4.603"/><path fill="#263238" d="M84.062 64.699a1 1 0 0 1 0 .139v.408c0 .372 0 .895-.028 1.56 0 1.373-.045 3.333-.078 5.747-.032 2.414-.032 5.31.05 8.516 0 .409.028.817.04 1.226l.024.62c0 .205.037.409.058.613q.066.622.228 1.226.185.61.486 1.172a5.1 5.1 0 0 0 1.754 1.883c.766.476 1.63.772 2.526.866h.16a3.9 3.9 0 0 0 1.946-.299q.92-.38 1.78-.886a53 53 0 0 0 3.264-2.017 53 53 0 0 0 5.509-4.15v.118l-2.816-4.611.078.032c-1.972.409-3.53.776-4.604 1.005l-1.224.261-.318.062h-.11l.106-.033.314-.082 1.224-.298c1.07-.249 2.62-.641 4.591-1.07h.05l.028.045 2.832 4.595.04.066-.061.053a52 52 0 0 1-5.488 4.231 67 67 0 0 1-3.265 2.042q-.871.518-1.808.903a4.1 4.1 0 0 1-2.06.31h-.172a6.14 6.14 0 0 1-2.611-.919 5.3 5.3 0 0 1-1.829-1.964 6.5 6.5 0 0 1-.501-1.225 8 8 0 0 1-.233-1.27l-.061-.63v-.62c0-.41-.025-.818-.033-1.226-.073-3.21-.04-6.102 0-8.528s.098-4.391.151-5.747l.07-1.56c0-.168.02-.303.028-.41a.7.7 0 0 1-.037-.154m33.099 18.935a.9.9 0 0 1-.306.025 4.6 4.6 0 0 1-.816-.062 7 7 0 0 1-1.204-.29 8 8 0 0 1-1.375-.633 12 12 0 0 1-2.188-1.634 4.6 4.6 0 0 1-.771-.816q.457.311.861.69a16 16 0 0 0 2.191 1.576q.644.366 1.335.63.57.207 1.163.33c.677.127 1.11.143 1.11.184m1.363-7.45a10.6 10.6 0 0 0-2.016-.956c-1.184-.355-2.208-.216-2.212-.29a4.55 4.55 0 0 1 4.228 1.225zm-1.771-2.002c0 .066-.612.037-1.318.209-.706.17-1.225.465-1.274.408a2.89 2.89 0 0 1 2.592-.617"/><path fill="#000" d="M91.844 77.989a2.76 2.76 0 0 0-3.82.527 1.37 1.37 0 0 0-.326.755.7.7 0 0 0 .408.678 1.08 1.08 0 0 0 1.061-.375 5.15 5.15 0 0 1 2.78-1.467m22.341-3.161c1.159-.118 2.269.446 3.416.65a.82.82 0 0 0 .612-.066.52.52 0 0 0 .2-.437.8.8 0 0 0-.184-.457 1.88 1.88 0 0 0-1.408-.564 5.8 5.8 0 0 0-1.591.135 1.67 1.67 0 0 0-1.123.658" opacity=".3"/><path fill="#455A64" d="m92.305 57.583-.253-3.14c1.742.58 3.572.856 5.407.816a12.6 12.6 0 0 0 4.587-.989l.914 4.408-2.71 4.105-2.379 1.102-4.186-.649z"/><path fill="#263238" d="M92.632 65.074c-.029 0-.127-.527-.351-1.36a8.1 8.1 0 0 0-1.433-3.002 4.55 4.55 0 0 0-2.799-1.634c-.46-.05-.925-.03-1.38.057q.17-.095.36-.126c.339-.083.69-.104 1.037-.062a4.5 4.5 0 0 1 2.933 1.659 7.7 7.7 0 0 1 1.412 3.092c.098.408.16.772.192 1.013q.038.18.029.363m9.414-10.811q.084.175.11.367.048.222.061.45a.93.93 0 0 1-.155.596 3 3 0 0 1-.453.568 2.9 2.9 0 0 1-.714.445 9 9 0 0 1-1.82.555c-1.134.224-2.3.24-3.44.05a9 9 0 0 1-1.016-.242 1.5 1.5 0 0 1-.355-.139c0-.032.526.135 1.392.246a10.4 10.4 0 0 0 3.382-.102 9.6 9.6 0 0 0 1.755-.527q.371-.156.686-.409a2.6 2.6 0 0 0 .461-.519.82.82 0 0 0 .163-.518 4 4 0 0 0-.029-.441 2 2 0 0 1-.028-.38m10.557 35.355a.6.6 0 0 1-.143.094l-.408.245a8 8 0 0 1-.698.36c-.29.13-.584.293-.939.44q-1.238.544-2.526.96-1.578.5-3.203.817a29 29 0 0 1-3.264.408q-1.35.087-2.702.037c-.383 0-.73-.04-1.036-.065a16 16 0 0 1-.78-.078l-.49-.065-.167-.037a.5.5 0 0 1 .172 0l.493.033c.212 0 .474.037.78.045s.649.037 1.032.037c.763 0 1.677 0 2.685-.078a28.6 28.6 0 0 0 8.97-2.145c.355-.138.669-.285.946-.408.278-.122.515-.237.706-.33l.449-.213a1 1 0 0 1 .123-.057"/><path fill="#fff" d="M92.118 68.75a5.2 5.2 0 0 1-1.225-.143 15.1 15.1 0 0 1-5.427-2.226 5 5 0 0 1-.963-.743q.54.278 1.045.616c.834.5 1.705.936 2.603 1.307.902.368 1.83.669 2.775.9q.604.11 1.192.29m.106 2.601q-.61.09-1.225.049a19.3 19.3 0 0 1-5.876-1.107 5.7 5.7 0 0 1-1.134-.494q.603.136 1.183.351 1.408.438 2.857.715 1.463.269 2.946.38.627.011 1.249.106m17.49-5.465a5 5 0 0 1-.67.229c-.436.135-1.073.319-1.856.54a189 189 0 0 1-12.394 3.001 67 67 0 0 1-1.893.368 5 5 0 0 1-.702.106 4 4 0 0 1 .686-.188l1.881-.433c1.587-.368 3.783-.87 6.203-1.458 2.419-.588 4.599-1.14 6.178-1.544l1.873-.474a4.5 4.5 0 0 1 .694-.147"/><path fill="#263238" d="m101.071 32.051-.408-.539a32 32 0 0 0-8.386 2.14c-1.073.438-2.159.96-2.894 1.855-1.007 1.225-1.167 2.937-1.285 4.526-.436 6.057-1.967 12.024-.061 17.792.457-.74 2.522-.817 3.375-.969.852-.15 1.742-.22 2.513-.616a3.4 3.4 0 0 0 1.706-2.186 4.12 4.12 0 0 0-.31-2.777c-.461-.96-1.285-1.887-1.086-2.933.2-1.045 1.47-1.723 1.763-2.797.51-1.859-1.926-3.558-1.66-5.465a3.06 3.06 0 0 1 1.224-2.194 2.28 2.28 0 0 1 1.873-.408c2.346.33 3.909-3.072 3.636-5.429"/><path fill="#455A64" d="M87.882 57.367s.081-.115.245-.323q.344-.47.595-.997c.26-.553.434-1.142.519-1.748a5.6 5.6 0 0 0-.18-2.393c-.245-.866-.763-1.728-1.057-2.774a2.93 2.93 0 0 1-.024-1.678 3.55 3.55 0 0 1 1.008-1.467 6.6 6.6 0 0 0 1.183-1.364c.284-.553.34-1.195.155-1.789-.163-.617-.453-1.225-.681-1.858a4 4 0 0 1-.257-2.043c.09-.69.295-1.362.608-1.985a4.5 4.5 0 0 1 1.265-1.576c.27-.195.567-.35.881-.462q.459-.167.943-.233c.632-.094 1.252-.065 1.82-.192a2.75 2.75 0 0 0 1.46-.817c.38-.408.702-.857 1.041-1.274a5.6 5.6 0 0 1 1.098-1.107c.21-.151.456-.242.714-.261q.356-.03.71.02a3.2 3.2 0 0 1 2.089 1.262c.371.493.655 1.046.841 1.634.123.375.165.772.122 1.164q-.021.214-.114.409s.045-.135.074-.409a2.9 2.9 0 0 0-.164-1.135 5.4 5.4 0 0 0-.857-1.61 3.07 3.07 0 0 0-2.011-1.172 1.76 1.76 0 0 0-1.31.225c-.4.31-.754.674-1.053 1.082-.335.409-.653.866-1.045 1.29a2.93 2.93 0 0 1-1.55.87c-.604.136-1.225.107-1.837.201a4 4 0 0 0-.897.229 3 3 0 0 0-.817.437c-.51.4-.923.913-1.204 1.499a6.1 6.1 0 0 0-.587 1.915 3.8 3.8 0 0 0 .249 1.961c.224.629.514 1.225.681 1.879a2.58 2.58 0 0 1-.18 1.94 6.6 6.6 0 0 1-1.223 1.405c-.435.37-.768.846-.968 1.38a2.8 2.8 0 0 0 0 1.581c.274 1.013.784 1.887 1.033 2.774a5.8 5.8 0 0 1 .15 2.45 6 6 0 0 1-.562 1.769q-.265.527-.633.984c-.085.102-.159.176-.204.23-.045.052-.065.08-.07.077"/></svg>