<svg xmlns="http://www.w3.org/2000/svg" width="131" height="181" fill="none"><path fill="#FFBE9D" d="M47.68 61.744a.8.8 0 0 1 .114-.254l1.963.384s3.124-.418 3.26-.305 3.48 3.395 3.593 3.395 4.668.481 4.668.481l.107 5.659-4.102-.063-3.502-5.053-5.535-3.061a1.09 1.09 0 0 1-.565-1.183"/><path fill="#263238" d="m87.069 95.495 6.942 40.378a12.95 12.95 0 0 0 2.671 5.913l17.1 21.242 6.966-5.698-12.879-25.667-1.771-36.1z"/><path fill="#263238" d="m91.607 95.47-1.273 39.609s1.657 8.018 1.697 11.957-1.828 21.089-1.828 21.089l-7.356.085-5.228-30.556-2.133-42.088z"/><path fill="#455A64" d="M93.328 131.876c-.08 0-1.319-7.775-2.761-17.394S88.02 97.06 88.105 97.048c.085-.011 1.313 7.775 2.756 17.394 1.443 9.62 2.546 17.423 2.467 17.434"/><path fill="url(#a)" d="m120.747 157.33.215.294 4.176 5.613 5.217 3.695-7.259 13.484-7.775-.107s.566-1.856 4.346-2.767l.356-7.458-6.609-7.475"/><path fill="#fff" d="m130.362 166.933-7.265 13.484-7.775-.107.894-1.155 6.326-.26 6.706-12.749z" opacity=".6"/><path fill="#263238" d="M119.764 174.126c.057.08.509-.169 1.132-.141s1.041.277 1.103.204-.362-.532-1.092-.566-1.211.441-1.143.503m.152-1.851c.079.057.43-.396 1.052-.509s1.132.181 1.166.096-.063-.164-.278-.283a1.465 1.465 0 0 0-1.788.329c-.158.192-.192.322-.152.367m-.016-2.377c.085.045.357-.402.9-.566s1.03 0 1.07-.079c.039-.08-.08-.147-.289-.232a1.345 1.345 0 0 0-1.59.532c-.119.181-.13.328-.091.345m-2.055-1.872c.09.034.316-.402.803-.707.487-.306.968-.346.979-.447s-.566-.227-1.166.158c-.599.385-.713.985-.616.996m-.995-1.604c.04 0 .3-.283.691-.804l.673-.928c.152-.188.276-.398.368-.622a.6.6 0 0 0-.04-.47.49.49 0 0 0-.464-.254 1.5 1.5 0 0 0-.735.367 2.63 2.63 0 0 0-.9 1.647c-.086.362-.03.743.158 1.064a9 9 0 0 1 .08-1.019c.079-.353.229-.686.441-.979q.19-.253.436-.452c.16-.143.355-.241.565-.283a.14.14 0 0 1 .085.009.14.14 0 0 1 .063.059c.028.07.028.15 0 .22a2.7 2.7 0 0 1-.306.538l-.611.967a3.5 3.5 0 0 0-.504.94m-.277.222c.034 0 0-.413-.402-.882a1.95 1.95 0 0 0-2.303-.453.4.4 0 0 0-.125.277c.008.09.039.176.091.249q.119.146.277.249.27.185.566.323c.323.15.666.251 1.019.3.605.073.973-.04.962-.08-.012-.039-.368-.034-.917-.158a4 4 0 0 1-.922-.345 3 3 0 0 1-.487-.311 1 1 0 0 1-.198-.176c-.034-.068 0-.051 0-.068a.6.6 0 0 1 .226-.085 1.93 1.93 0 0 1 1.686.447c.363.374.47.736.527.713"/><path fill="#fff" d="M124.16 166.605a.93.93 0 0 0 .555.863.93.93 0 0 0 1.009-.184.924.924 0 0 0-1.284-1.325.93.93 0 0 0-.28.646" opacity=".6"/><path fill="url(#b)" d="m90.65 165.849-.039 14.712-18.328.232c.085-1.754 10.287-5.336 10.287-5.336l-.214-9.891z"/><path fill="#fff" d="M87.47 174.539a.75.75 0 0 1 .527.849.72.72 0 0 1-.837.531.79.79 0 0 1-.566-.899.75.75 0 0 1 .933-.459m3.084 6.005-.068-1.488-17.541.781s-.81.362-.713.939z" opacity=".6"/><path fill="#263238" d="M82.298 175.625c0 .09.453.124.894.407.442.283.685.657.764.623.08-.034-.056-.566-.6-.889-.543-.322-1.08-.22-1.058-.141m-2.364.867c0 .085.374.232.68.611.305.38.4.77.491.77s.142-.515-.254-.973c-.396-.459-.917-.493-.917-.408m-1.052 2.231c.08 0 .198-.436-.034-.923-.232-.486-.656-.673-.696-.599-.04.073.226.333.413.735s.238.775.317.787m3.531-5.552c.04.08.447-.045.956 0 .51.046.9.182.945.102.046-.079-.333-.39-.933-.413s-1.013.244-.968.311m-.351-2.196c.3.08.616.08.916 0a4.2 4.2 0 0 0 1.483-.611q.153-.09.271-.221a.38.38 0 0 0 .04-.475.5.5 0 0 0-.396-.198 1 1 0 0 0-.345.051q-.293.075-.566.204c-.31.142-.594.333-.843.565-.419.396-.566.736-.532.753s.249-.255.673-.566q.377-.29.815-.475.256-.105.526-.17c.193-.051.357-.057.408 0s0 .051 0 .108a1 1 0 0 1-.204.158 4 4 0 0 1-.481.283 5 5 0 0 1-.883.351q-.451.084-.883.243"/><path fill="#263238" d="M82.198 171.1c.169-.264.25-.576.232-.889a2.9 2.9 0 0 0-.142-1.001 2.8 2.8 0 0 0-.237-.566.76.76 0 0 0-.595-.458.43.43 0 0 0-.379.26 1.5 1.5 0 0 0-.09.339 2.3 2.3 0 0 0 0 .617c.054.344.194.669.407.945.362.47.736.566.741.566s-.283-.215-.566-.668a2.1 2.1 0 0 1-.3-.86 1.7 1.7 0 0 1 0-.532c0-.192.097-.351.17-.334s.25.142.323.3q.141.234.232.493c.107.295.172.603.192.916.012.526-.056.872.012.872"/><path fill="#FAFAFA" d="M50.794 70.452c0 .074-.34.029-.64-.198-.3-.226-.43-.52-.362-.566s.277.13.538.328c.26.199.492.363.464.436"/><path fill="#FAFAFA" d="M50.272 71.38c-.085 0-.136-.293-.12-.65.018-.356.102-.64.182-.634.079.006.136.294.113.651-.023.356-.096.64-.175.634"/><path fill="#EB996E" d="M60.802 58.008c-.079 0-.379-3.198-.379-3.198s1.183.25 1.398 1.081c.215.832.385 1.55.385 1.55l2.953.832 3.101-.978-1.284 2.02s-1.698.249-1.811.243-4.363-1.55-4.363-1.55"/><path fill="#FFBE9D" d="m70.83 61.858-6.835-.645s-5.178-3.135-5.76-3.52a.57.57 0 0 1-.238-.356.645.645 0 0 1 .871-.673l6.066 2.122a1.32 1.32 0 0 0 1.098-.13l2.546-1.528s-1.047-.996-1.697-1.76a1.22 1.22 0 0 1-.181-1.477c.82.113 4.99 3.169 4.99 3.169l1.743 1.335z"/><path fill="#EB996E" d="m62.178 57.5.917-2.676s.815.096.73 1.131c-.085 1.036-.062 1.89-.062 1.89l1.374.566-2.976-.82"/><path fill="url(#c)" d="m58.596 64.878 14.23-1.166 8.97-13.314 4.238 10.22-4.844 7.298a9.34 9.34 0 0 1-8.154 4.16l-14.418-.566z"/><path fill="#263238" d="M95.211 12.905c.153 2.048 2.942 3.185 2.988 5.245 0 .883-.498 1.698-.566 2.575-.096 1.182.605 2.263.894 3.395.566 2.37-.702 4.945-2.71 6.332-2.01 1.386-4.59 1.742-7.023 1.505M78.655 13.045c.125 1.104-.566 2.117-1.267 2.971-.702.855-1.483 1.749-1.602 2.83-.203 1.951 1.766 3.677 1.45 5.613-.17 1.035-.98 1.895-1.093 2.936a3.63 3.63 0 0 0 1.171 2.716c.696.736 1.466.566 2.088 1.398a8.3 8.3 0 0 0 2.654 2.178c2.173 1.081 4.657-.707 5.659-1.046"/><path fill="#263238" d="M95.66 14.071c0-1.001-.968-1.737-1.907-2.065s-1.986-.43-2.83-.956A13.6 13.6 0 0 1 89 9.228a6.162 6.162 0 0 0-10.242 3.23c-.3 1.438 0 3.113 1.172 4.013 1.34 1.046 3.264.73 4.917.322 1.652-.407 3.53-.82 4.962.108.866.566 1.386 1.5 1.935 2.37.55.872 1.228 1.755 2.213 2.049.984.294 2.263-.334 2.263-1.364"/><path fill="#FFBE9D" d="m91.845 13.973-8.963-1.918c-2.829-.193-4.617 3.395-4.69 6.224-.08 3.18-.057 7.062.407 9.41.928 4.73 4.6 5.2 4.6 5.2s.238 5.806.34 8.097l10.032-.231-.17-25.152a1.664 1.664 0 0 0-1.556-1.63"/><path fill="#263238" d="M78.954 21.717c.08.08.532-.283 1.189-.3.656-.017 1.131.283 1.216.204.085-.08-.05-.181-.266-.323a1.64 1.64 0 0 0-.979-.266 1.6 1.6 0 0 0-.939.345c-.192.148-.255.295-.22.34m6.637-.107c.079.078.526-.284 1.182-.306s1.132.288 1.217.209c.085-.08-.046-.181-.26-.323a1.66 1.66 0 0 0-1.919.08c-.22.158-.277.305-.22.34m-2.348 3.966a4.7 4.7 0 0 0-1.075-.153c-.164 0-.328-.04-.356-.153a.83.83 0 0 1 .09-.498q.215-.618.453-1.295c.42-1.103.75-2.239.985-3.396a22.6 22.6 0 0 0-1.257 3.333c-.147.453-.294.883-.43 1.302a.95.95 0 0 0-.062.656.43.43 0 0 0 .289.238q.141.02.283 0a4 4 0 0 0 1.08-.034"/><path fill="#EB996E" d="M83.199 32.903a9.32 9.32 0 0 0 6.184-1.477c-.05 0-1.533 3.316-6.11 2.993z"/><path fill="url(#d)" d="M83.58 27.15a1.19 1.19 0 0 1 1.046-.482 1.08 1.08 0 0 1 .758.374.69.69 0 0 1 .085.78.8.8 0 0 1-.854.25 2.4 2.4 0 0 1-.86-.47.7.7 0 0 1-.193-.187.215.215 0 0 1 0-.243"/><path fill="#263238" d="M85.192 25.961c-.102 0-.08.707-.674 1.24-.594.531-1.352.475-1.352.565s.175.13.498.13c.417-.01.817-.166 1.131-.441.3-.268.484-.64.515-1.041.017-.283-.068-.459-.118-.453m.236-7.245c.073.175.724.068 1.499.136.775.067 1.403.249 1.5.084s-.074-.243-.329-.407a2.54 2.54 0 0 0-1.131-.345 2.5 2.5 0 0 0-1.166.181c-.266.125-.402.272-.374.35m-6.325-.345c.119.142.566-.028 1.132-.057.565-.028 1.007.063 1.131-.096.125-.158-.034-.226-.243-.356a1.5 1.5 0 0 0-.911-.21c-.32.016-.626.13-.877.329-.226.164-.289.34-.232.39"/><path fill="#263238" d="M94.363 30.258c-1.302.317-1.443-.345-2.456-1.217a4.28 4.28 0 0 1-1.454-3.57c.102-1.172.684-2.388.237-3.474-.565-1.443-2.659-1.811-3.259-3.248-.35-.838-.107-1.84-.498-2.654a3.15 3.15 0 0 0-2.02-1.443 8.2 8.2 0 0 1-2.365-.922c-.696-.498-1.132-1.466-.747-2.213 3.569.284 7.091.995 10.49 2.116a4.03 4.03 0 0 1 2.106 1.25c.433.769.615 1.653.52 2.53q-.051 6.417-.096 12.834m2.149-9.805a3.656 3.656 0 0 1 6.859-1.557c.713 1.319.566 2.96 0 4.352-.668 1.646-2.111 3.186-3.893 3.174-1.698 0-3.078-1.426-3.622-3.01-.543-1.584-.418-3.31-.282-4.98"/><path fill="#455A64" d="M98.16 26.92a.8.8 0 0 0 .238-.289c.175-.293.283-.622.317-.962a4.6 4.6 0 0 0-.102-1.505c-.119-.566-.328-1.132-.492-1.748a4.4 4.4 0 0 1-.17-1.755q.163-.72.402-1.42a1.83 1.83 0 0 0 0-1.018.66.66 0 0 0-.198-.317s.062.119.119.345a1.85 1.85 0 0 1-.057.956q-.265.697-.447 1.42a4.5 4.5 0 0 0 .158 1.84c.17.628.385 1.205.51 1.742.122.47.17.958.141 1.443-.046.448-.19.88-.419 1.268"/><path fill="#455A64" d="M98.007 21.208c.197.28.454.515.753.684a4.19 4.19 0 0 0 4.708-.102c.293-.18.54-.427.724-.718 0 0-.289.266-.809.566a4.4 4.4 0 0 1-2.264.69 4.46 4.46 0 0 1-2.263-.566c-.554-.3-.815-.583-.849-.554m.261.734c.1.268.247.515.436.73a5.2 5.2 0 0 0 3.525 1.94c.282.045.57.035.849-.028 0-.034-.323-.034-.832-.118a5.94 5.94 0 0 1-3.429-1.885 7 7 0 0 0-.549-.64m-.938 6.605.05-.056q.069-.096.124-.198a2.5 2.5 0 0 0 .278-.844 2.9 2.9 0 0 0-.13-1.403 2.67 2.67 0 0 0-1.166-1.443c-.566-.379-1.324-.622-1.816-1.239a1.44 1.44 0 0 1-.3-1.132q.116-.644.362-1.25a3.53 3.53 0 0 0-.17-2.83 3.1 3.1 0 0 0-1.013-1.131 3.7 3.7 0 0 0-1.482-.566c-.52-.096-1.036-.147-1.517-.272a2.95 2.95 0 0 1-1.29-.639 2.1 2.1 0 0 1-.594-1.228q-.095-.693-.277-1.37a4.8 4.8 0 0 0-1.375-2.2 3.7 3.7 0 0 0-2.06-.923 2.98 2.98 0 0 0-1.828.351 2.9 2.9 0 0 0-1.024.962c-.163.25-.278.528-.34.82q-.039.15-.033.306a2.83 2.83 0 0 1 1.454-1.986 2.83 2.83 0 0 1 1.754-.306 3.6 3.6 0 0 1 1.964.906 4.6 4.6 0 0 1 1.301 2.122q.176.67.266 1.358c.06.505.29.976.65 1.335.395.345.87.584 1.381.696.504.13 1.019.175 1.528.272.5.073.98.248 1.41.515.399.278.724.652.944 1.086a3.4 3.4 0 0 1 .17 2.682q-.253.625-.362 1.29a1.6 1.6 0 0 0 .345 1.234c.566.662 1.313.9 1.873 1.256.527.303.928.785 1.132 1.358.16.432.213.895.158 1.352a3.2 3.2 0 0 1-.368 1.115"/><path fill="#455A64" d="M96.492 15.283a.6.6 0 0 0 .05-.221 1.04 1.04 0 0 0-.18-.628 1.62 1.62 0 0 0-.821-.623 2.5 2.5 0 0 0-1.37 0c-.497.114-1.007.334-1.567.464a2.1 2.1 0 0 1-1.731-.203 3.76 3.76 0 0 1-1.081-1.67 7.2 7.2 0 0 0-1.177-1.918 6.63 6.63 0 0 0-3.69-2.184 3.75 3.75 0 0 0-1.9.125c-.535.18-1.006.51-1.359.95a2.22 2.22 0 0 0-.277 2.297c.09.2.218.38.38.527a.6.6 0 0 0 .18.136c-.204-.2-.37-.436-.486-.696a2.2 2.2 0 0 1-.153-.974c.027-.438.194-.856.475-1.194.34-.41.79-.716 1.296-.882a3.65 3.65 0 0 1 1.81-.102 6.46 6.46 0 0 1 3.566 2.139 6.9 6.9 0 0 1 1.131 1.861 3.9 3.9 0 0 0 1.166 1.743c.28.194.61.304.95.317.313.01.626-.024.929-.102.565-.147 1.086-.373 1.561-.492.42-.13.868-.144 1.296-.04.316.102.593.3.792.566.123.164.194.361.204.566.017.158-.006.238.006.238"/><path fill="url(#e)" d="M107.563 95.562c.566-14.146-4.696-23.879-5.624-28.105-.928-4.227.085-12.15-.108-16.467-.13-2.829-.379-7.356-2.156-10.406-1.776-3.05-5.726-5.856-5.726-5.856l-10.055 4.436S80.046 48.75 78.19 53.31c-1.81 4.465 4 12.41 4 12.41s-6.688 18.802-6.688 29.842z"/><path fill="url(#f)" d="m123.057 74.82-11.883-19.968s-6.621 1.166-9.62 3.395-8.946 7.396-8.946 7.396l8.041 22.35a3.965 3.965 0 0 0 4.487 2.519h.091c2.139-.442 11.588-6.79 16.59-10.26a4.07 4.07 0 0 0 1.24-5.431"/><path fill="url(#g)" d="m93.95 34.732-.458-2.83s-11.181 4.306-10.944 4.906c.238.6.962 3.56.962 3.56z"/><path fill="#263238" d="M107.563 55.835a61.6 61.6 0 0 0-6.382-12.279c-2.83-4.006-6.49-7.084-8.873-6.292 0 0 2.11.39 4.425 3.52 2.948 3.989 6.983 16.443 6.983 16.443z"/><path fill="#263238" d="M87.29 44.028a1.2 1.2 0 0 1 0-.396c.034-.255.09-.617.18-1.064a8.9 8.9 0 0 1 1.285-3.322 4.56 4.56 0 0 1 2.948-1.935c.363-.06.734-.05 1.093.029q.2.03.373.135a4.5 4.5 0 0 0-1.437 0 4.62 4.62 0 0 0-2.79 1.907 9.9 9.9 0 0 0-1.313 3.231q-.127.717-.34 1.415"/><path fill="#263238" d="M89.027 38.942c-.747.629-2.41 3.809-2.83 7.17-.316 2.597.567 6.094.985 8.68l.312-5.704s-.12-1.748-.068-3.395a12.3 12.3 0 0 1 .515-3.135zM98.04 50.45q.161-.52.453-.979c.277-.526.492-.95.566-.928a2.1 2.1 0 0 1-.351 1.036c-.272.532-.594.91-.668.871M83.43 39.295a3.7 3.7 0 0 0 1.608-.187c.968-.311 2.031-1.279 3.361-2.116a30 30 0 0 1 3.508-1.953c.47-.215.855-.379 1.132-.48q.203-.1.424-.142c0 .034-.566.3-1.47.77-.906.47-2.151 1.131-3.458 1.997-.656.419-1.256.849-1.822 1.24a6.1 6.1 0 0 1-1.613.837c-.393.13-.81.18-1.222.141a1 1 0 0 1-.447-.107m.079 1.093q-.031.158-.097.305l-.31.849c-.3.77-.714 1.816-1.212 3.095l-1.827 4.584-1.092 2.704c-.181.47-.385.945-.566 1.432a6.3 6.3 0 0 0-.351 1.505c-.215 2.11.458 4.102 1.188 5.777s1.596 3.14 2.173 4.425a14.7 14.7 0 0 1 1.132 3.152q.1.442.141.894.022.159 0 .317c-.028 0-.073-.43-.271-1.183a16.4 16.4 0 0 0-1.183-3.09c-.6-1.267-1.449-2.704-2.235-4.401-.787-1.698-1.454-3.724-1.234-5.925a6.8 6.8 0 0 1 .368-1.579c.187-.492.39-.962.566-1.431l1.103-2.694 1.89-4.56c.532-1.268.974-2.303 1.296-3.067l.368-.826a1 1 0 0 1 .153-.283"/><path fill="#000" d="M81.886 71.124s3.247 7.56 12.392 5.477c0 0 1.855 16.715 10.558 13.976-1.743.216-3.061-.565-4.012-2.229l-6.546-18.17z" opacity=".3"/><path fill="url(#h)" d="m88.524 42.951-1.8 18.815-12.957-4.08-3.893 5.285s21.14 17.75 24.993 7.316c4.024-10.892 3.118-23.29 3.118-23.29s-.633-4.051-2.92-6.371c-2.285-2.32-6.133-.843-6.54 2.325"/><path fill="#263238" d="M87.81 44.917v.305c0 .198 0 .51-.034.883-.045.792-.107 1.935-.186 3.395-.17 2.942-.419 7.158-.725 12.296v.147l-.14-.051-12.97-4.057.158-.051-3.757 5.336-.028-.198c1.697 1.369 3.644 2.642 5.602 3.96 1.267.838 2.518 1.658 3.729 2.507a37 37 0 0 0 3.672 2.309 18.3 18.3 0 0 0 3.842 1.59 8.5 8.5 0 0 0 3.927.232 5.8 5.8 0 0 0 3.163-1.879c.352-.484.625-1.02.81-1.59.209-.566.39-1.131.565-1.697a46 46 0 0 0 1.618-6.27 76 76 0 0 0 .85-9.342c.061-1.098.112-1.952.146-2.552 0-.277.034-.498.051-.662a1.3 1.3 0 0 1 0-.226q.009.112 0 .226v.668c0 .6-.056 1.454-.09 2.552a71 71 0 0 1-.764 9.376 46 46 0 0 1-1.59 6.303 25 25 0 0 1-.566 1.698 5.9 5.9 0 0 1-.849 1.663 6.03 6.03 0 0 1-3.31 1.981 8.8 8.8 0 0 1-4.046-.226 18.5 18.5 0 0 1-3.916-1.607 37 37 0 0 1-3.7-2.326c-1.205-.843-2.456-1.664-3.718-2.495-1.963-1.296-3.893-2.575-5.624-3.961l-.108-.085.08-.113 3.768-5.33.057-.085.096.034 12.952 4.102-.153.102.826-12.285c.108-1.454.187-2.591.244-3.395q.05-.568.073-.883c.017-.209.046-.3.046-.3"/><path fill="#263238" d="M80.647 70.452a.4.4 0 0 1 0 .125l-.113.356-.47 1.375c-.367 1.211-.905 2.965-1.426 5.2a146 146 0 0 0-2.965 18.073l-.141-.158h6.224l25.848.062-.085.085c.057-1.918.085-3.44.085-4.476v-1.59q.056.197.068.402c0 .271.045.668.057 1.188v4.567h-.085l-25.848.062h-6.45v-.159a136 136 0 0 1 3.072-18.107c.566-2.263 1.131-3.989 1.51-5.188l.516-1.359.14-.35a.6.6 0 0 1 .063-.108"/><path fill="#000" d="M98.04 50.403s.917 9.936.51 10.276l-1.376 1.131s.82-10.264.866-11.407" opacity=".3"/><path fill="#AA6550" d="m62.077 43.873 4.492 2.478a1.24 1.24 0 0 1-1.765.566c-1.302-.566-3.616-2.003-3.616-2.003l-1.788.718-1.364-1.652z"/><path fill="#B78876" d="M52.858 52.741a4.53 4.53 0 0 0 4.199-.396c2.042-1.398 2.19-1.856 3.038-2.116.611-.187 3.463-.566 4.59-.843a.652.652 0 0 0 .265-1.132 6.6 6.6 0 0 0-1.935-.396 7.8 7.8 0 0 0-1.771.187 4.67 4.67 0 0 1-2.535-.566l.034-.713 2.829-.504c.943.748 2 1.34 3.13 1.754a3.7 3.7 0 0 0 1.867-.249v-.158l-4.018-2.88-3.757-.634-1.132-.198-9.681 5.789 2.517 4.458z"/><path fill="url(#i)" d="m64.821 49.91-1.386.311a.996.996 0 0 0-.753 1.19l.656 2.92a.996.996 0 0 0 1.19.754l1.386-.311a.996.996 0 0 0 .753-1.19l-.656-2.92a.996.996 0 0 0-1.19-.754"/><path fill="#263238" d="M63.727 47.938c0-.034.17-.074.447 0a1.32 1.32 0 0 1 .906.565c.192.322.253.705.17 1.07-.068.271-.176.413-.21.396s0-.175 0-.419a1.6 1.6 0 0 0-.21-.894 1.44 1.44 0 0 0-.718-.566c-.226-.068-.39-.107-.385-.152m.391 2.546c.028.063-.374.295-.9.068a.72.72 0 0 1-.396-.566c0-.17 0-.271.057-.271.056 0 .13.402.475.566s.736.119.764.203m1.715 4.339s.068-.04.13-.153a.7.7 0 0 0 .034-.566c-.164-.617-.317-1.2-.48-1.833a87 87 0 0 1-.454-1.845.53.53 0 0 0-.305-.419.35.35 0 0 0-.198 0s.062-.073.21-.04a.56.56 0 0 1 .373.442c.13.47.3 1.132.486 1.84.187.707.34 1.363.447 1.844a.72.72 0 0 1-.073.566c-.085.153-.17.17-.17.164"/><path fill="#263238" d="M65.352 51.513q-.588.255-1.21.408a6.6 6.6 0 0 1-1.245.288 7.3 7.3 0 0 1 1.21-.402 6.4 6.4 0 0 1 1.245-.294m.351 1.504q-.562.253-1.16.396a6.2 6.2 0 0 1-1.189.283 6.7 6.7 0 0 1 1.132-.396q.594-.204 1.216-.283"/><path fill="#E0E0E0" d="M66.14 54.74a.71.71 0 0 0 .21-.713c-.103-.48-.833-3.44-.833-3.44l.43-.13.747 3.293s.125.832-.554.99"/><path fill="url(#j)" d="m35.544 164.228-1.613 9.941s9.62 4.142 9.507 6.01l-19.46-1.602 1.89-15.6z"/><path fill="#EBEBEB" d="M28.041 172.577a.79.79 0 0 0-.662.832.77.77 0 0 0 .82.668.845.845 0 0 0 .697-.889.8.8 0 0 0-.934-.594m-3.984 5.985.192-1.556 18.39 1.873s.996.724.911 1.33z"/><path fill="#263238" d="M34.254 174.115c0 .091-.492.074-.996.323s-.804.611-.889.566.13-.566.748-.86c.616-.295 1.17-.114 1.137-.029m1.928 1.093c0 .096-.419.21-.792.566-.373.357-.52.775-.611.758s-.09-.566.385-1.001c.475-.436 1.03-.413 1.018-.323m.849 2.579c-.09 0-.164-.475.147-.967.312-.493.776-.64.81-.566.034.073-.283.328-.527.735-.243.408-.334.804-.43.798m-2.659-5.983c-.051.08-.47-.107-1.008-.135-.537-.029-.978.085-1.018 0s.407-.379 1.041-.334 1.041.402.985.469m.294-2.012a1.8 1.8 0 0 1-.968-.125 4.5 4.5 0 0 1-1.5-.809 1.2 1.2 0 0 1-.265-.266.42.42 0 0 1 0-.509.53.53 0 0 1 .441-.164q.184.024.357.096.294.118.565.283c.31.19.59.426.827.702.396.475.503.848.47.86-.035.011-.227-.295-.646-.696a3.8 3.8 0 0 0-.803-.6 3.6 3.6 0 0 0-.538-.243c-.198-.08-.373-.102-.436 0-.062.101-.028.045 0 .113q.087.109.198.192.226.195.476.357.425.28.894.481.476.13.928.328"/><path fill="#263238" d="M34.52 169.915a1.6 1.6 0 0 1-.136-.974 3.26 3.26 0 0 1 .588-1.612.8.8 0 0 1 .68-.408.47.47 0 0 1 .373.317q.051.183.056.374a2.26 2.26 0 0 1-.622 1.601c-.447.458-.855.521-.86.487s.328-.193.679-.64c.203-.256.347-.553.424-.871q.065-.28.051-.566c0-.209-.062-.385-.141-.373a.7.7 0 0 0-.38.277 3.5 3.5 0 0 0-.305.492q-.22.452-.311.945c-.096.572-.04.939-.096.951"/><path fill="url(#k)" d="m24.3 164.936-.826 10.044s9.925 3.366 9.953 5.234l-19.521-.057.645-15.697z"/><path fill="#EBEBEB" d="M17.476 173.854a.796.796 0 0 0-.594.883.77.77 0 0 0 .871.594.837.837 0 0 0 .623-.94.79.79 0 0 0-.974-.515m-3.496 6.277.062-1.568 18.486.414s1.047.645 1.013 1.256z"/><path fill="#263238" d="M23.795 174.895c0 .091-.486.113-.973.402s-.747.673-.837.628.085-.566.673-.917c.588-.35 1.16-.203 1.137-.113m2.009.942c0 .096-.401.237-.747.622-.345.385-.452.815-.566.804-.113-.012-.13-.566.306-1.025s1.007-.492 1.007-.401m1.047 2.505c-.085 0-.198-.469.074-.979.271-.509.724-.696.758-.616s-.249.345-.464.769-.272.821-.368.826m-3.123-5.755c-.045.085-.475-.068-1.013-.057s-.967.164-1.018.079c-.05-.084.373-.407 1.013-.413.64-.005 1.07.317 1.018.391m.131-2.052a1.86 1.86 0 0 1-.98-.051 4.3 4.3 0 0 1-1.006-.362 5 5 0 0 1-.566-.323 1.2 1.2 0 0 1-.283-.243.424.424 0 0 1 0-.509.52.52 0 0 1 .43-.198q.186.003.362.068.313.088.6.237c.324.164.62.378.877.634.43.441.566.804.537.82-.028.017-.254-.282-.696-.65a4.2 4.2 0 0 0-.848-.532 5 5 0 0 0-.566-.198c-.204-.062-.38-.074-.441 0-.063.073 0 .051 0 .113q.093.1.209.175a5.4 5.4 0 0 0 1.431.725q.48.111.94.294"/><path fill="#263238" d="M23.73 170.685a1.54 1.54 0 0 1-.216-.957c0-.362.062-.721.181-1.063q.116-.294.277-.566a.82.82 0 0 1 .651-.464.44.44 0 0 1 .39.294q.073.174.085.362a2.1 2.1 0 0 1 0 .657 2.2 2.2 0 0 1-.463.99c-.408.492-.81.566-.815.566-.006 0 .31-.221.628-.691.178-.274.298-.582.35-.905a1.9 1.9 0 0 0 0-.566c0-.209-.09-.379-.17-.362-.078.017-.265.141-.356.305a3.24 3.24 0 0 0-.497 1.483c-.08.543.005.905-.046.917"/><path fill="#B78876" d="m15.336 34.019 11.029 2.263c.085-1.244-.26-9.053-.26-9.053s4.458-.622 4.583-5.093c.124-4.47-.504-14.672-.504-14.672A15.46 15.46 0 0 0 14.63 9.19l-.668.498z"/><path fill="#AA6550" d="M26.105 27.245a10.75 10.75 0 0 1-5.76-1.794s1.363 3.214 5.81 2.88z"/><path fill="#B78876" d="M14.443 14.36c-.08-.035-3.044-.946-2.994 2.093.051 3.039 3.096 2.365 3.101 2.263.006-.102-.107-4.357-.107-4.357"/><path fill="#AA6550" d="M13.6 17.567s-.051.04-.141.085a.57.57 0 0 1-.397 0 1.32 1.32 0 0 1-.628-1.165 1.8 1.8 0 0 1 .136-.759.6.6 0 0 1 .396-.413.266.266 0 0 1 .311.136c.046.085 0 .147.04.153s.068-.051.04-.176a.32.32 0 0 0-.125-.192.42.42 0 0 0-.294-.074.75.75 0 0 0-.566.481c-.125.267-.183.56-.17.855A1.38 1.38 0 0 0 13 17.799a.56.56 0 0 0 .481-.09c.113-.068.13-.136.119-.142"/><path fill="#263238" d="M29.184 14.773a.634.634 0 0 1-.622.628.6.6 0 0 1-.646-.566.634.634 0 0 1 .623-.628.6.6 0 0 1 .645.566m.068-1.025c-.079.08-.566-.283-1.239-.288s-1.188.322-1.262.237c-.073-.085.046-.187.266-.34a1.7 1.7 0 0 1 1.013-.294c.356.003.7.12.985.334.209.164.277.312.237.351m-6.718.922a.634.634 0 0 1-.623.633.617.617 0 0 1-.645-.565.64.64 0 0 1 .623-.634.604.604 0 0 1 .645.566m.002-.876c-.08.08-.566-.283-1.24-.289-.673-.005-1.193.323-1.261.238s.045-.187.266-.34a1.7 1.7 0 0 1 1.013-.294c.355.003.7.12.984.334.204.147.277.294.238.351m2.404 5.091a4.4 4.4 0 0 1 1.131-.187c.175 0 .345-.045.373-.164a.9.9 0 0 0-.107-.52l-.498-1.336c-.47-1.132-.848-2.3-1.132-3.491a22 22 0 0 1 1.387 3.395q.255.704.475 1.347a1 1 0 0 1 .08.684.42.42 0 0 1-.29.25 1.2 1.2 0 0 1-.294.04c-.374.04-.753.034-1.126-.018m-2.019.438c.113 0 .102.742.73 1.273.628.532 1.42.47 1.42.566 0 .097-.175.142-.509.148a1.86 1.86 0 0 1-1.188-.436 1.6 1.6 0 0 1-.566-1.064c-.023-.306.062-.492.113-.487m-.17-8.224c-.074.186-.753.085-1.557.17-.803.084-1.454.294-1.556.124-.05-.08.068-.249.334-.424a2.5 2.5 0 0 1 1.132-.39c.412-.044.83.012 1.216.163.311.12.464.266.43.357m6.26.669c-.125.152-.566 0-1.16-.034s-1.047.09-1.132-.074c-.045-.08.034-.232.243-.379.283-.174.613-.257.945-.238a1.6 1.6 0 0 1 .917.323c.187.164.266.322.187.402"/><path fill="#263238" d="M32.402 4.74a1.63 1.63 0 0 0-.566-1.477 1.166 1.166 0 0 0-1.51.091 1.35 1.35 0 0 0-1.132-1.664c-.724-.056-1.352.481-2.054.662-.701.14-1.43.045-2.071-.271-.656-.272-1.267-.645-1.93-.9a5.66 5.66 0 0 0-7.322 3.231 2.53 2.53 0 0 0-2.693.973 4.16 4.16 0 0 0-.679 2.909c.086.683.248 1.355.481 2.003v.17c0 2.45.243 5.324 1.284 5.353 1.822.056 1.438-3.395 1.438-3.395 2.263-.827 1.46-4.182 2.025-4.68.566-.498 1.755-1.664 6.389.792a9.05 9.05 0 0 0 5.534.685h.181a4.2 4.2 0 0 0 1.205-.487A2.4 2.4 0 0 0 31.99 7.65a1.29 1.29 0 0 0-.237-1.392c.364-.429.591-.957.65-1.517"/><path fill="#B78876" d="m42.351 60.43 7.356 3.123 2.264.028a2.47 2.47 0 0 1 1.76.775l3.072 3.056.272 3.514-2.332 1.765s-.854.08-.566-.9l-1.391.877h-1.494l-1.449-.203-1.301-1.737s-.26-.645.984-.283l1.166.928 1.177-1.189-2.309-1.776-3.576-.238a1.28 1.28 0 0 1-.905-.441l-1.092-1.25-2.122-.34z"/><path fill="#AA6550" d="M54.95 67.548c.232.784.371 1.593.414 2.41a1.8 1.8 0 0 1-.062 1.013 1.74 1.74 0 0 1-.6.566c-.374.243-.526.441-.566.43s.085-.305.43-.566c.191-.142.354-.318.481-.52a1.75 1.75 0 0 0 0-.866 10.3 10.3 0 0 1-.096-2.467m-3.83 5.042a7.8 7.8 0 0 1 1.5-1.404.9.9 0 0 0 .237-.64c.029-.242.046-.463.057-.644 0-.374.034-.606.079-.606s.102.221.13.606a6 6 0 0 1 0 .668 2.3 2.3 0 0 1-.05.407.93.93 0 0 1-.25.419 6.8 6.8 0 0 1-1.703 1.194m1.68.08a4.5 4.5 0 0 1 1.036-.809c-.062.074 0 0-.029 0v-.413c0-.17 0-.345.046-.526-.008-.772.072-1.543.237-2.297.124.769.143 1.55.057 2.325q0 .272-.05.526l-.035.25v.186c0 .034 0 0-.068.13-.36.275-.764.487-1.194.628"/><path fill="#FFBE9D" d="M45.79 67.945s-.158.82.329 1.075a1.26 1.26 0 0 0 1.052-.04s-.232 1.268 1.46.895c0 0-.113.803 1.024.565 0 0 0 1.211 1.053.917a1.56 1.56 0 0 0 1.177-1.188s0-1.454-.945-1.37c0 0 .566-.95-.493-1.131a1.01 1.01 0 0 0-1.239.696.566.566 0 0 0-.52-.742 1.03 1.03 0 0 0-1.07.459s-1.041-1.262-1.828-.136"/><path fill="#EB996E" d="M47.68 68.045c.068.04 0 .278-.124.566-.125.289-.311.43-.38.39-.067-.039 0-.277.12-.531.118-.255.31-.464.384-.425m1.624.153c.08 0 .158.442-.051.94-.21.497-.566.758-.634.695-.068-.062.187-.373.362-.809.176-.435.238-.826.323-.826m1.624.586c.074 0 0 .526-.385 1.007s-.849.696-.883.622c-.033-.073.312-.362.651-.803.34-.442.538-.855.617-.826"/><path fill="#263238" d="M41.608 122.691c-.56-6.478-7.854-42.693-7.854-42.693l-8.578 2.264-16.653-3.175-1.397 10.684a16.3 16.3 0 0 0 1.731 9.698l2.801 29.605 1.33 44.521 13.744-.391.046-2.32 8.855.872s6.53-42.58 5.975-49.065m-14.021 6.281-.12-2.376.154.724z"/><path fill="#455A64" d="M8.898 99.892s0 .125.051.368l.12 1.086c.095.968.237 2.383.424 4.205.356 3.661.871 8.968 1.516 15.56.849 6.587.877 14.526 1.205 23.392.329 8.867.594 18.673.923 29.062l-.153-.141 9.099-.255 4.645-.136-.141.147c.215-10.92.424-21.275.61-30.663l.273-13.303c.073-2.076 0-4.085 0-6.015s-.046-3.774-.068-5.539c-.085-7.051-.148-12.732-.193-16.67 0-1.952-.034-3.474-.04-4.527V94.89v.402c0 .266 0 .662.029 1.171 0 1.041.05 2.558.09 4.527.068 3.933.165 9.619.289 16.67q.045 2.648.085 5.539c0 1.93.102 3.961.034 6.015-.08 4.165-.159 8.612-.244 13.309-.18 9.387-.379 19.742-.565 30.663v.142h-.142l-4.64.135-9.098.255h-.148v-.141c-.316-10.389-.616-20.195-.888-29.062s-.322-16.806-1.132-23.392c-.605-6.592-1.092-11.883-1.426-15.567-.164-1.822-.288-3.236-.373-4.204-.04-.47-.068-.837-.09-1.092a3 3 0 0 0-.052-.368"/><path fill="url(#l)" d="M27.135 32.466s5.194 2.15 5.766 5.471c.186 1.081 3.248 15.805 3.248 15.805l11.707-5.16 4.459 6.28-18.916 12.38-6.711-4.43z"/><path fill="#263238" d="M31.4 40.181q.05.146.057.3l.085.855c.057.78.13 1.844.227 3.14.164 2.693.39 6.343.639 10.377s.504 7.679.679 10.372c.09 1.296.17 2.36.226 3.14 0 .346.04.629.051.861q.023.15 0 .3a1.2 1.2 0 0 1-.056-.294c-.029-.232-.068-.51-.108-.855-.09-.735-.198-1.81-.322-3.135a387 387 0 0 1-.764-10.372 838 838 0 0 1-.566-10.383 411 411 0 0 1-.13-3.146v-.86q-.03-.15-.017-.3"/><path fill="url(#m)" d="m27.136 32.467-1.132-3.47-1.465 4.969-10.027-6.004-1.794 3.079-7.876 4.153c-.838 1.477-1.353 14.87-1.353 14.87 0 .719 4.527 19.63 4.527 19.63L5.091 92.197l26.057.385.226-9.427 1.788 9.455 5.246-1.494-4.725-23.278-6.649-35.79"/><path fill="url(#n)" d="M4.864 35.2C.28 39.1.274 43.916 1.52 48.782l4 13.11a9.925 9.925 0 0 0 10.621 7.413l25.973-2.19.288-7.209L16.9 57.304z"/><path fill="#263238" d="m4.863 35.2-.102.102-.31.295-.521.47c-.21.186-.396.452-.64.724-.113.141-.243.283-.368.447l-.345.537q-.204.285-.368.594l-.333.685a11.3 11.3 0 0 0-.928 3.48 15.1 15.1 0 0 0 .254 4.465q.288 1.243.708 2.45l.826 2.62c1.131 3.615 2.427 7.69 3.825 12.126a7.53 7.53 0 0 0 4.193 4.21c2.065.788 4.3 1.026 6.484.69l15.606-1.319 9.258-.792-.13.142q.146-3.69.288-7.21l.13.148-25.502-2.643h-.063v-.062c-1.742-5.126-3.151-9.28-4.13-12.166-.476-1.425-.85-2.54-1.104-3.31-.124-.373-.215-.662-.283-.865-.068-.204-.085-.295-.085-.295s.04.09.114.283l.305.855 1.166 3.299c.996 2.874 2.439 7.016 4.215 12.131l-.09-.068 25.508 2.564h.13v.13q-.136 3.513-.283 7.209v.13h-.124l-9.246.78-15.606 1.308c-2.24.34-4.53.091-6.643-.724a7.8 7.8 0 0 1-4.329-4.363c-1.386-4.442-2.654-8.516-3.78-12.138l-.82-2.625a25 25 0 0 1-.696-2.473 15.2 15.2 0 0 1-.226-4.527c.134-1.215.462-2.402.973-3.514l.345-.684q.174-.31.379-.6l.357-.538c.124-.158.26-.3.379-.44q.313-.375.662-.714l.532-.464.328-.277a1 1 0 0 1 .09-.062"/><path fill="#263238" d="M10.29 38.987q-.6-.252-1.17-.566a7.6 7.6 0 0 0-2.96-.741 5.06 5.06 0 0 0-2.88.826q-.51.39-.974.832a2.4 2.4 0 0 1 .85-1.002 4.87 4.87 0 0 1 3.01-.95 6.8 6.8 0 0 1 3.05.848c.4.185.764.44 1.075.753"/><path fill="#E1E1E1" d="m13.363 29.976 14.033 28.332 2.456.215-2.716-26.052-1.11-3.468-1.488 4.702-10.055-6.592z"/><path fill="#263238" d="M29.008 58.563a7 7 0 0 1-.26-.962 75 75 0 0 1-.567-2.648 473 473 0 0 1-1.697-8.777c-.634-3.434-1.132-6.552-1.494-8.816a98 98 0 0 1-.385-2.682 6 6 0 0 1-.09-.99q.134.48.203.973c.12.68.283 1.579.476 2.665.413 2.298.967 5.382 1.584 8.794s1.177 6.496 1.596 8.793l.486 2.665q.115.486.148.984"/><path fill="#263238" d="M24.538 33.705s0 .034-.068.079a.9.9 0 0 0-.186.203 3.2 3.2 0 0 0-.436.968 14.5 14.5 0 0 0-.424 3.774v.294l-.221-.192a151 151 0 0 0-3.033-2.546c-1.975-1.63-3.746-3.14-4.951-4.318a23 23 0 0 1-1.392-1.426 4 4 0 0 1-.464-.565 3 3 0 0 1 .566.486c.34.323.831.792 1.454 1.353 1.24 1.131 3.021 2.608 5.002 4.243a105 105 0 0 1 3.016 2.575l-.22.096a13 13 0 0 1 .537-3.82c.107-.357.284-.69.52-.978a.9.9 0 0 1 .232-.187c.012-.034.068-.045.068-.04"/><path fill="#263238" d="M27.135 32.466c.046.4.033.804-.04 1.2-.068.74-.238 1.748-.38 2.863v.09l-.09.707-.198-.679a9.8 9.8 0 0 0-.967-2.597.76.76 0 0 0-.634-.379c-.181 0-.289.062-.3.034s.08-.102.289-.147a.84.84 0 0 1 .803.368 7.9 7.9 0 0 1 1.092 2.636h-.288v-.096c.147-1.131.345-2.122.47-2.829q.06-.598.243-1.171M13.097 75.569q.116-.037.238-.051l.724-.114 2.722-.384 9.399-1.245h.192l-.034.192-.787 4.023v.108h-.147c-5.517.48-10.428.894-13.54 1.132h-.142l.045-.13c.408-1.098.73-1.981.968-2.626l.26-.685q.04-.115.102-.22-.018.134-.068.26l-.22.713c-.215.64-.504 1.522-.866 2.614l-.096-.119c3.106-.305 8.012-.764 13.529-1.245h.04l-.136.12c.277-1.393.566-2.745.792-4.018l.158.164-9.353 1.131-2.761.306-.747.074a1 1 0 0 1-.272 0m14.401-17.164a.8.8 0 0 1-.181-.135l-.481-.425-1.788-1.612-6.055-5.659v-.034c-.424-1.245-.877-2.586-1.341-3.96l-3.508-10.576-1.03-3.214c-.108-.357-.198-.645-.266-.877a1.3 1.3 0 0 1-.074-.317q.08.14.13.294l.317.866 1.132 3.185c.928 2.733 2.196 6.445 3.588 10.548l1.33 3.96-.035-.056 5.981 5.732 1.698 1.698.453.458a1 1 0 0 1 .13.124M16.81 57.194c.062.068-.838.854-1.574 2.093q-.626 1.157-1.132 2.371a6.33 6.33 0 0 1 2.694-4.464zm13.663 10.972c.08 0 .385 3.644.685 8.159s.47 8.17.39 8.176-.39-3.65-.685-8.159c-.294-4.51-.475-8.17-.39-8.177"/><path fill="#000" d="M7.02 65.41s1.267 7.152 5.726 6.614c4.458-.537 16.975-3.87 16.975-3.87l-13.58 1.171s-6.253.793-9.122-3.915m24.858-17.104.08.345 2.41 10.457-1.845-.187" opacity=".3"/><defs><linearGradient id="a" x1="112.398" x2="138.792" y1="156.522" y2="161.317" gradientUnits="userSpaceOnUse"><stop stop-color="#BBA061"/><stop offset="1" stop-color="#F6D787"/></linearGradient><linearGradient id="b" x1="71.181" x2="98.321" y1="165.033" y2="173.139" gradientUnits="userSpaceOnUse"><stop stop-color="#BBA061"/><stop offset="1" stop-color="#F6D787"/></linearGradient><linearGradient id="c" x1="56.949" x2="97.162" y1="49.639" y2="62.236" gradientUnits="userSpaceOnUse"><stop stop-color="#BBA061"/><stop offset="1" stop-color="#F6D787"/></linearGradient><linearGradient id="d" x1="83.403" x2="86.315" y1="26.614" y2="27.627" gradientUnits="userSpaceOnUse"><stop stop-color="#BBA061"/><stop offset="1" stop-color="#F6D787"/></linearGradient><linearGradient id="e" x1="73.576" x2="124.376" y1="32.599" y2="39.236" gradientUnits="userSpaceOnUse"><stop stop-color="#BBA061"/><stop offset="1" stop-color="#F6D787"/></linearGradient><linearGradient id="f" x1="90.748" x2="138.448" y1="53.601" y2="63.848" gradientUnits="userSpaceOnUse"><stop stop-color="#BBA061"/><stop offset="1" stop-color="#F6D787"/></linearGradient><linearGradient id="g" x1="81.86" x2="98.378" y1="31.606" y2="37.116" gradientUnits="userSpaceOnUse"><stop stop-color="#BBA061"/><stop offset="1" stop-color="#F6D787"/></linearGradient><linearGradient id="h" x1="68.182" x2="111.737" y1="38.3" y2="47.223" gradientUnits="userSpaceOnUse"><stop stop-color="#BBA061"/><stop offset="1" stop-color="#F6D787"/></linearGradient><linearGradient id="i" x1="62.226" x2="67.632" y1="50.314" y2="50.027" gradientUnits="userSpaceOnUse"><stop stop-color="#BBA061"/><stop offset="1" stop-color="#F6D787"/></linearGradient><linearGradient id="j" x1="22.81" x2="51.852" y1="162.375" y2="170.509" gradientUnits="userSpaceOnUse"><stop stop-color="#BBA061"/><stop offset="1" stop-color="#F6D787"/></linearGradient><linearGradient id="k" x1="12.734" x2="41.449" y1="163.909" y2="172.719" gradientUnits="userSpaceOnUse"><stop stop-color="#BBA061"/><stop offset="1" stop-color="#F6D787"/></linearGradient><linearGradient id="l" x1="25.15" x2="65.066" y1="31.249" y2="38.531" gradientUnits="userSpaceOnUse"><stop stop-color="#BBA061"/><stop offset="1" stop-color="#F6D787"/></linearGradient><linearGradient id="m" x1="1.394" x2="56.605" y1="25.7" y2="33.083" gradientUnits="userSpaceOnUse"><stop stop-color="#BBA061"/><stop offset="1" stop-color="#F6D787"/></linearGradient><linearGradient id="n" x1="-1.681" x2="59.675" y1="34.005" y2="52.502" gradientUnits="userSpaceOnUse"><stop stop-color="#BBA061"/><stop offset="1" stop-color="#F6D787"/></linearGradient></defs></svg>