<svg xmlns="http://www.w3.org/2000/svg" width="93" height="172" fill="none"><path fill="#fff" stroke="#263238" stroke-linecap="round" stroke-linejoin="round" d="M56.505 67.537s1.673 1.52 2.123 1.673 1.316.352 1.316.352l.964.204-2.123-3.087z"/><path fill="#B8B8B8" stroke="#263238" stroke-linecap="round" stroke-linejoin="round" d="m47.483 56.137 19.713 20.651 6.237-2.747-13.14-18.575z"/><path fill="#fff" stroke="#263238" stroke-linecap="round" stroke-linejoin="round" d="m49.525 56.867 12.687 13.87 7.714-.993-10.08-13.624zm4.7 7.842a5.3 5.3 0 0 1-.475-.798q.06-.807.242-1.597c.072-.216.293-.293.484.145.14.32.198.67.17 1.019q.069.38.195.747l-.484.68z"/><path fill="#fff" d="M55.168 66s-.943-1.096-.943-1.274q.236-.68.573-1.316c.026-.077 1.274-.149 1.465-.225s.62-.123.518.2a1.06 1.06 0 0 1-.594.696 3.3 3.3 0 0 0-.62.343l-.077.349.349.496"/><path stroke="#263238" stroke-linecap="round" stroke-linejoin="round" d="M55.168 66s-.943-1.096-.943-1.274q.236-.68.573-1.316c.026-.077 1.274-.149 1.465-.225s.62-.123.518.2a1.06 1.06 0 0 1-.594.696 3.3 3.3 0 0 0-.62.343l-.077.349.349.496"/><path fill="#FFBE9D" d="M55.881 66.84s-1.057-1.222-1.057-1.447q.265-.76.637-1.474c.03-.085 1.418-.165 1.643-.25s.696-.14.586.22a1.2 1.2 0 0 1-.671.782q-.37.157-.696.39l-.08.387.385.556"/><path stroke="#263238" stroke-linecap="round" stroke-linejoin="round" d="M55.881 66.84s-1.057-1.222-1.057-1.447q.265-.76.637-1.474c.03-.085 1.418-.165 1.643-.25s.696-.14.586.22a1.2 1.2 0 0 1-.671.782q-.37.157-.696.39l-.08.387.385.556"/><path fill="#FFBE9D" d="M56.938 67.927a14 14 0 0 1-1.273-1.477q.292-.715.666-1.389s2.59-.424 2.73-.39.221.195-.195.582c-.377.28-.813.471-1.274.56-.165.055-.195.777-.195.777l.781.972"/><path stroke="#263238" stroke-linecap="round" stroke-linejoin="round" d="M56.938 67.927a14 14 0 0 1-1.273-1.477q.292-.715.666-1.389s2.59-.424 2.73-.39.221.195-.195.582c-.377.28-.813.471-1.274.56-.165.055-.195.777-.195.777l.781.972"/><path fill="#FFBE9D" stroke="#263238" stroke-linecap="round" stroke-linejoin="round" d="M47.772 67.668c-.732.265-1.436.602-2.102 1.006-.824.552-2.195 1.274-2.195 1.274l-1.41 4.819a5.94 5.94 0 0 1 3.057 1.036c1.372 1.006 4.297.73 5.032.276.734-.454 1.736-4.025.819-4.849s-3.201-3.562-3.201-3.562"/><path fill="#FFBE9D" stroke="#263238" stroke-linecap="round" stroke-linejoin="round" d="m56.739 71.51-2.547-.823s-1.924-1.274-2.382-1.46a10 10 0 0 0-2.102-.183s-4.39 6.31-4.573 6.768c-.182.458-.276 1.465.365 1.647.642.183 2.196-.365 2.196-.365s1.464.73 2.377.548c.913-.183 3.66-2.123 3.66-2.123l3.201-.09z"/><path fill="#FFBE9D" d="M47.317 69.408s2.013 3.108 2.743 3.202 1.465-.365.913-1.372c-.552-1.006-1.189-2.547-1.554-3.396-.365-.85-1.83-.82-2.471.552"/><path stroke="#263238" stroke-linecap="round" stroke-linejoin="round" d="M47.317 69.408s2.013 3.108 2.743 3.202 1.465-.365.913-1.372c-.552-1.006-1.189-2.547-1.554-3.396-.365-.85-1.83-.82-2.471.552"/><path fill="#FFBE9D" stroke="#263238" stroke-linecap="round" stroke-linejoin="round" d="M52.829 74.126a1.38 1.38 0 0 0-.115 1.6c.225.379.475.773.569.773a.917.917 0 0 0 .892-.95c-.047-.63-.62-2.238-1.346-1.423"/><path fill="#FFBE9D" stroke="#263238" stroke-linecap="round" stroke-linejoin="round" d="M51.754 75.294a1.39 1.39 0 0 0-.11 1.6c.22.378.476.769.569.769a.917.917 0 0 0 .892-.951c-.051-.624-.62-2.238-1.35-1.418m-1.236 1.159a1.13 1.13 0 0 0-.09 1.273c.183.306.387.624.459.624a.74.74 0 0 0 .722-.768c-.038-.475-.501-1.775-1.091-1.13"/><path fill="#fff" stroke="#263238" stroke-linecap="round" stroke-linejoin="round" d="M49.432 76.97a.85.85 0 0 0-.068.99c.136.234.293.476.352.476a.564.564 0 0 0 .548-.586c-.03-.387-.382-1.397-.832-.88"/><path fill="url(#a)" stroke="#263238" stroke-linecap="round" stroke-linejoin="round" d="m43.904 69.396-1.163 6.25-2.221-.094 1.354-6.738z"/><path fill="url(#b)" stroke="#263238" stroke-linecap="round" stroke-linejoin="round" d="M42.376 67.961s-1.066 7.8-1.648 8.492-8.407-1.448-8.793-1.546c-.386-.097.484-11.204.484-11.204s9.07 3.855 9.957 4.258"/><path fill="#FFBE9D" stroke="#263238" stroke-linecap="round" stroke-linejoin="round" d="M68.907 14.727s-1.422 3.3-1.422 4.607.114 3.244-.225 4.246c-.34 1.002-1.992 1.592-1.592 2.445.399.854 1.532 1.367 1.532 1.367s.799 4.098 1.253 5.35c.454 1.253 1.197 1.422 1.876 1.308.68-.115 2.45-.57 2.45-.57l1.308 6.769 8.59-4.777-1.423-4.437s2.445-4.267-.17-10.24c-2.615-5.974-8.25-9.537-12.177-6.068"/><path stroke="#263238" stroke-linecap="round" stroke-linejoin="round" d="M68.343 21.283a.99.99 0 0 1 1.35-.454"/><path fill="#263238" d="M69.247 23.945c.218 0 .395-.382.395-.853 0-.472-.177-.854-.395-.854s-.395.382-.395.854c0 .471.177.853.395.853"/><path stroke="#263238" stroke-linecap="round" stroke-linejoin="round" d="M68.623 28.323s2.22-.056 3.243-1.423"/><path fill="#fff" stroke="#263238" stroke-linecap="round" stroke-linejoin="round" d="M82.812 33.719s-9.79 5.944-10.156 6.407c-.365.462-.64 3.477-.64 3.477l12.257-8.067z"/><path fill="#FFBE9D" stroke="#263238" stroke-linecap="round" stroke-linejoin="round" d="M67.85 114.928s-.798 5.787-.497 7.379c.302 1.593 9.97 30.995 10.071 32.005.102 1.011.998 5.588.998 5.588s-1.995 3.49-2.395 4.887-2.195 2.891-2.891 3.396c-.696.506-2.993 1.397-3.29 1.796s.704.319 1.35.459q1.517.12 3.035.038s2.794.102 3.592-.2c.799-.301 1.894-3.29 2.395-3.889a2.75 2.75 0 0 1 1.295-.798l-.896 5.095h1.393s.997-4.089 1.397-5.486c.399-1.396.9-2.19.301-3.587a21 21 0 0 0-1.796-3.091s-.399-11.171-.301-11.668c.097-.496-.697-10.274-.994-12.864s-2.496-9.469-2.594-10.067.599-7.379.599-7.379z"/><path fill="#FFBE9D" stroke="#263238" stroke-linecap="round" stroke-linejoin="round" d="M75.204 116.402s1.133 8.406 1.779 11.939 3.235 26.876 3.07 28.99a26 26 0 0 1-.366 3.002s-2.84 5.944-3.49 6.636-1.762 2.144-2.424 2.272-3.159.539-2.586 1.188c.573.65 6.675.714 7.995.348 1.32-.365 3.023-3.188 3.57-3.532l.544-.348.425 3.762 1.44-.039s1.129-3.468 1.069-5.689-1.452-4.619-1.452-4.619 1.469-7.583 2.33-12.708c.863-5.125 2.43-8.937 1.33-12.903a48 48 0 0 1-1.516-7.061c0-.331.654-11.888.654-11.888s-9.451 2.127-12.372.65"/><path fill="#263238" stroke="#263238" stroke-linecap="round" stroke-linejoin="round" d="M86.239 164.931a9.5 9.5 0 0 0-.769-3.193c-.144.051-.293.102-.454.166-1.72.683-4.331 4.046-6.48 5.842a5.8 5.8 0 0 1-2.054 1.155 5.8 5.8 0 0 1-2.344.242l-.055-.034a.9.9 0 0 1-.31.132c-.662.131-3.159.539-2.586 1.188.573.65 6.675.714 7.995.349 1.32-.366 3.023-3.189 3.57-3.533l.544-.348.425 3.762 1.44-.039s1.137-3.468 1.078-5.689M65.753 82.733l.887 9.005-2.441 26.405s8.873 3.74 16.193 3.316 11.31-2.548 11.31-2.548-.997-19.42-.886-20.528c.11-1.109 1.443-5.435.335-10.313s-2.22-6.768-2.22-6.768-15.413 3.982-23.178 1.43"/><path fill="url(#c)" stroke="#263238" stroke-linecap="round" stroke-linejoin="round" d="M83.984 34.543s-11.888 7.778-13.357 9.608c-1.47 1.83-4.849 10.704-4.849 12.258s2.013 17.654 2.013 17.654L64.954 84.13s1.83 2.649 11.345 1.919 14.27-3.019 14.27-3.019-4.373-10.156-4.462-11.527c-.09-1.372 3.019-14.436 3.201-17.29.183-2.852-1.35-10.614-2.284-12.991a73 73 0 0 0-3.04-6.679"/><path fill="#263238" stroke="#263238" stroke-linecap="round" stroke-linejoin="round" d="M70.156 8.83s-3.622 1.393-3.529 2.697c.094 1.303 2.043 4.925 3.622 6.41 1.58 1.487 5.944 4.921 6.318 7.991s-.463 6.038-1.673 6.131l-1.206.094s.463 2.229 4.645 2.878c4.182.65 8.916.556 11.243-3.439s1.762-12.818-.56-16.907c-2.323-4.088-8.068-6.598-11.244-7.06-3.175-.463-7.617 1.205-7.617 1.205"/><path stroke="#263238" stroke-linecap="round" stroke-linejoin="round" d="M69.43 49.127a23 23 0 0 1 1.855-2.323 16.3 16.3 0 0 1 3.932-2.836l1.006-1.647.917.365s2.547-1.648 4.483-3.112a13.4 13.4 0 0 0 2.743-2.65M67.532 51.925s.51-.802 1.21-1.822"/><path fill="url(#d)" d="M78.235 44.924s-2.836 3.473-3.108 4.67c-.271 1.197-2.182 15.238-2.182 15.238s-1.376 0-1.558.37-.454 2.836-.454 2.836-.735.82-1.1.913l-13.905 2.195.641 5.49s8.874 0 11.345-.276 5.668 0 7.218-.641c2.284-.455 4.207-2.548 4.207-2.548l1.236-2.972s4.802-12.313 4.984-14.763a9.6 9.6 0 0 0-.187-3.214"/><path stroke="#263238" stroke-linecap="round" stroke-linejoin="round" d="M78.235 44.924s-2.836 3.473-3.108 4.67c-.271 1.197-2.182 15.238-2.182 15.238s-1.376 0-1.558.37-.454 2.836-.454 2.836-.735.82-1.1.913l-13.905 2.195.641 5.49s8.874 0 11.345-.276 5.668 0 7.218-.641c2.284-.455 4.207-2.548 4.207-2.548l1.236-2.972s4.802-12.313 4.984-14.763a9.6 9.6 0 0 0-.187-3.214"/><path fill="#FFBE9D" stroke="#263238" stroke-linecap="round" stroke-linejoin="round" d="M33.2 10.104s1.652 3.155 1.728 4.807c.077 1.651-.603 3.528-.377 4.878.224 1.35 1.651 1.877 1.35 2.777-.302.9-1.652 1.201-1.652 1.201s-.675 3.079-1.197 4.879c-.523 1.8-2.255 2.025-3.078 2.025a13.7 13.7 0 0 1-2.705-.599l-.9 5.197-10.13-7.353.823-4.429 1.652-3.078s-2.174-4.878-.225-8.33 5.328-4.577 9.081-5.027c3.754-.45 5.63 3.052 5.63 3.052"/><path stroke="#263238" stroke-linecap="round" stroke-linejoin="round" d="M20.216 21.062a1.47 1.47 0 0 0 .977 1.13 2.87 2.87 0 0 0 1.8-.302s-.751 3.078.599 4.802m5.621-3.902s.599 2.25 2.548 2.25m-.586-10.283s.972-.823 2.327.378m-.616 6.152c1.125 0 2.038-1.276 2.038-2.85 0-1.573-.913-2.848-2.038-2.848-1.126 0-2.038 1.275-2.038 2.849 0 1.573.912 2.849 2.038 2.849"/><path fill="#263238" d="M33.277 19.134c0 .518-.204.938-.45.938s-.45-.424-.45-.938.199-.938.45-.938c.25 0 .45.399.45.938"/><path stroke="#263238" stroke-linecap="round" stroke-linejoin="round" d="m30.725 18.773-7.957-.187"/><path fill="#263238" stroke="#263238" stroke-miterlimit="10" d="M27.269 30.072a4.1 4.1 0 0 1-1.274-.603 17 17 0 0 0-1.125-.824l1.877 4.501z"/><path fill="#263238" stroke="#263238" stroke-linecap="round" stroke-linejoin="round" d="M33.2 10.104s-2.178-2.008-3.987-1.422c-1.808.586-2.326 1.498-1.503 3.299s.527 3.528-.297 4.054-3.452.977-3.753 1.503a5.2 5.2 0 0 1-.9 1.05s-.675-2.026-1.805-1.428c-1.13.6-1.422 2.93-.747 3.902l-3.155 2.403s.153-3.6-1.048-6.453-1.796-9.158.47-11.04c2.268-1.88 5.096-1.498 5.945-2.25.85-.751.752-2.479 3.397-2.704s3.753 1.728 4.878 2.178 1.575-1.125 3.452.149c1.877 1.273 3.397 3.078 2.777 4.955-.62 1.876-3.724 1.804-3.724 1.804M12.26 137.592s-1.516 10.47-1.516 12.682-.23 9.12-.23 9.12-.814 2.441-.814 3.023.114 1.979.114 1.979l.467 6.169h5.583s2.212-8.844 1.979-16.177c-.233-7.332-4.305-20.987-4.305-20.987z"/><path fill="#263238" stroke="#263238" stroke-linecap="round" stroke-linejoin="round" d="M7.381 80.966s.285 13.608 1.147 16.763c.862 3.154 2.853 7.018 2.853 8.02s1.274 12.737 2.148 15.905-2.437 12.894-1.575 18.482 3.295 19.632 3.295 19.632-.573-.14-.573 1.864v4.157l.144 4.87h6.16s-.424-1.002 1.003-1.002 2.292.849 3.01 1.002 10.029 0 10.029 0 .717-1.147.424-1.864-1.274-.713-3.15-1.72c-1.877-1.006-4.157-2.577-4.874-3.294-.718-.718-1.003-2.578-1.431-3.44-.43-.861-1.147-1.859-1.147-2.432 0-.574.85-13.761.85-21.501s1.146-12.466 2.437-19.628 1.146-20.49 1.273-24.359c.128-3.868.425-10.614.425-10.614zm20.308-43.922s2.437 2.649 2.017 4.45a12 12 0 0 0-.319 3.285s2.548 4.246 2.756 11.978 1.588 18.55 1.588 18.55l-2.437 5.298-2.972-5.83s.849-14.095.955-17.594c.106-3.498.212-6.466-.212-8.585a32 32 0 0 1-.531-3.923l-1.698-6.148z"/><path fill="url(#e)" stroke="#263238" stroke-linecap="round" stroke-linejoin="round" d="m15.53 26.268 12.856 9.264-1.542 5.855-12.474-12.11z"/><path fill="url(#f)" stroke="#263238" stroke-linecap="round" stroke-linejoin="round" d="M14.353 29.278S6.791 39.892 5.734 44.253s-.318 12.504-.212 13.586.53 23.637 1.061 24.592 3.6 1.274 3.6 1.274h19.718s1.482-.743 1.376-3.074-.425-4.874-.425-4.874.106-22.894-.106-25.968-3.919-9.765-3.919-9.765z"/><path fill="#fff" stroke="#263238" stroke-linecap="round" stroke-linejoin="round" d="M12.01 109.527a.85.85 0 0 1-.85-.849v-3.443a1.91 1.91 0 0 1 1.187-1.764c.232-.095.481-.143.732-.142h2.68a.85.85 0 1 1 0 1.698h-2.68a.21.21 0 0 0-.208.208v3.443a.85.85 0 0 1-.862.849"/><path fill="#FFBE9D" stroke="#263238" stroke-linecap="round" stroke-linejoin="round" d="M18.964 96.697s1.108 1.698 1.626 2.08.718 1.108 1.303 2.547a8.4 8.4 0 0 1 .65 2.34c.238.544.412 1.114.518 1.698 0 .454-2.08 1.367-2.08 1.367s.063.85-.327 1.041a2.5 2.5 0 0 1-1.699.195 10 10 0 0 1-1.562-1.236 7.5 7.5 0 0 1-1.885-.39c-.85-.327-1.822-.523-2.344-1.24-.522-.718-.713-1.236-.518-2.925.195-1.69 1.168-5.596 1.168-5.596z"/><path fill="url(#g)" stroke="#263238" stroke-linecap="round" stroke-linejoin="round" d="M13.304 93.767s.132 3.125.455 3.32a7.4 7.4 0 0 0 3.396.65 9.5 9.5 0 0 0 2.735-.781l-.068-3.057s-5.414.454-6.518-.132"/><path fill="url(#h)" d="M12 38.687s-3.192 6.505-3.31 9.464c-.12 2.96 1.303 19.87 1.303 26.846s1.537 17.624 2.122 18.682c.586 1.057 2.013 1.299 3.074 1.299 1.062 0 4.497.59 5.206-.947s0-17.268 0-19.87 4.02-17.625 2.483-26.494"/><path stroke="#263238" stroke-linecap="round" stroke-linejoin="round" d="M12 38.687s-3.192 6.505-3.31 9.464c-.12 2.96 1.303 19.87 1.303 26.846s1.537 17.624 2.122 18.682c.586 1.057 2.013 1.299 3.074 1.299 1.062 0 4.497.59 5.206-.947s0-17.268 0-19.87 4.02-17.625 2.483-26.494"/><path fill="#fff" stroke="#263238" stroke-linecap="round" stroke-linejoin="round" d="M23.974 103.329h-2.675a.85.85 0 0 0-.446.127v1.444a.85.85 0 0 0 .446.131h2.675a.21.21 0 0 1 .208.208v3.444a.848.848 0 0 0 1.698 0v-3.444a1.9 1.9 0 0 0-.556-1.351 1.9 1.9 0 0 0-1.35-.559"/><path fill="url(#i)" stroke="#263238" stroke-linecap="round" stroke-linejoin="round" d="M33.807 108.623H3.047c-1.13 0-2.047.916-2.047 2.047v21.144c0 1.13.916 2.046 2.046 2.046h30.761c1.13 0 2.047-.916 2.047-2.046V110.67a2.046 2.046 0 0 0-2.047-2.047"/><path stroke="#263238" stroke-linecap="round" stroke-linejoin="round" d="m20.713 102.938.072 2.585"/><defs><linearGradient id="a" x1="40.317" x2="45.682" y1="68.575" y2="69.233" gradientUnits="userSpaceOnUse"><stop stop-color="#BBA061"/><stop offset="1" stop-color="#F6D787"/></linearGradient><linearGradient id="b" x1="31.204" x2="47.498" y1="63.252" y2="66.551" gradientUnits="userSpaceOnUse"><stop stop-color="#BBA061"/><stop offset="1" stop-color="#F6D787"/></linearGradient><linearGradient id="c" x1="63.418" x2="104.03" y1="32.736" y2="37.724" gradientUnits="userSpaceOnUse"><stop stop-color="#BBA061"/><stop offset="1" stop-color="#F6D787"/></linearGradient><linearGradient id="d" x1="54.146" x2="99.494" y1="43.814" y2="54.325" gradientUnits="userSpaceOnUse"><stop stop-color="#BBA061"/><stop offset="1" stop-color="#F6D787"/></linearGradient><linearGradient id="e" x1="13.529" x2="34.957" y1="25.738" y2="30.656" gradientUnits="userSpaceOnUse"><stop stop-color="#BBA061"/><stop offset="1" stop-color="#F6D787"/></linearGradient><linearGradient id="f" x1="3.605" x2="45.043" y1="27.373" y2="32.294" gradientUnits="userSpaceOnUse"><stop stop-color="#BBA061"/><stop offset="1" stop-color="#F6D787"/></linearGradient><linearGradient id="g" x1="12.909" x2="21.983" y1="93.628" y2="97.347" gradientUnits="userSpaceOnUse"><stop stop-color="#BBA061"/><stop offset="1" stop-color="#F6D787"/></linearGradient><linearGradient id="h" x1="7.809" x2="31.126" y1="36.713" y2="38.202" gradientUnits="userSpaceOnUse"><stop stop-color="#BBA061"/><stop offset="1" stop-color="#F6D787"/></linearGradient><linearGradient id="i" x1="-1.091" x2="49.131" y1="107.74" y2="124.912" gradientUnits="userSpaceOnUse"><stop stop-color="#BBA061"/><stop offset="1" stop-color="#F6D787"/></linearGradient></defs></svg>