<svg xmlns="http://www.w3.org/2000/svg" width="213" height="251" fill="none"><path fill="url(#a)" d="M106.125 125.5a61.3 61.3 0 0 0 34.393-10.575c10.181-6.895 18.115-16.696 22.801-28.162a63.56 63.56 0 0 0 3.523-36.255c-2.389-12.172-8.285-23.353-16.943-32.129-8.657-8.776-19.688-14.752-31.697-17.173a61.13 61.13 0 0 0-35.767 3.57c-11.312 4.75-20.98 12.793-27.783 23.112A63.36 63.36 0 0 0 44.219 62.75c0 16.642 6.522 32.603 18.132 44.371S89.706 125.5 106.125 125.5m0-107.571a43.8 43.8 0 0 1 24.567 7.553c7.271 4.925 12.939 11.926 16.286 20.116a45.4 45.4 0 0 1 2.516 25.896 45 45 0 0 1-12.102 22.95c-6.184 6.268-14.063 10.537-22.64 12.266a43.67 43.67 0 0 1-25.549-2.55c-8.08-3.393-14.986-9.138-19.844-16.509a45.26 45.26 0 0 1-7.453-24.901c0-11.887 4.659-23.288 12.952-31.693s19.54-13.128 31.267-13.128"/><path fill="url(#b)" d="M114.969 143.429H97.281c-25.8 0-50.544 10.389-68.788 28.881S0 215.884 0 242.036a9.03 9.03 0 0 0 2.59 6.339A8.78 8.78 0 0 0 8.844 251h194.562a8.79 8.79 0 0 0 6.254-2.625 9.03 9.03 0 0 0 2.59-6.339c0-26.152-10.249-51.234-28.493-69.726s-42.988-28.881-68.788-28.881m-96.75 89.643c2.174-19.716 11.439-37.928 26.023-51.158 14.585-13.229 33.468-20.547 53.04-20.557h17.687c19.572.01 38.454 7.328 53.039 20.557 14.584 13.23 23.849 31.442 26.024 51.158z"/><defs><linearGradient id="a" x1="44.219" x2="168.031" y1="62.75" y2="62.75" gradientUnits="userSpaceOnUse"><stop stop-color="#715126"/><stop offset="1" stop-color="#D0B672"/></linearGradient><linearGradient id="b" x1="0" x2="212.25" y1="197.214" y2="197.214" gradientUnits="userSpaceOnUse"><stop stop-color="#715126"/><stop offset="1" stop-color="#D0B672"/></linearGradient></defs></svg>