<svg xmlns="http://www.w3.org/2000/svg" width="181" height="206" fill="none"><path fill="url(#a)" d="M165.578 0H15.323C6.853 0 0 6.564 0 14.54v176.32c0 8.037 6.918 14.54 15.323 14.54h150.255c8.469 0 15.322-6.565 15.322-14.54V14.54C180.9 6.503 174.047 0 165.578 0m5.624 190.86c0 2.945-2.521 5.337-5.624 5.337H15.323c-3.104 0-5.625-2.392-5.625-5.337V14.54c0-2.945 2.521-5.337 5.625-5.337h150.255c3.103 0 5.624 2.392 5.624 5.337z"/><path fill="url(#b)" d="M30.71 64.602h119.545c2.65 0 4.849-2.086 4.849-4.602V22.393c0-2.516-2.199-4.602-4.849-4.602H30.71c-2.65 0-4.849 2.086-4.849 4.602V60c0 2.516 2.134 4.602 4.85 4.602m4.85-37.608h109.846v28.405H35.559z"/><path fill="url(#c)" d="M44.417 73.13H26.121c-2.651 0-4.85 2.085-4.85 4.6v17.363c0 2.515 2.199 4.601 4.85 4.601h18.296c2.651 0 4.85-2.086 4.85-4.601V77.73c0-2.577-2.199-4.602-4.85-4.602m-4.849 17.3H30.97v-8.16h8.598z"/><path fill="url(#d)" d="M81.205 73.13H62.908c-2.651 0-4.85 2.085-4.85 4.6v17.363c0 2.515 2.199 4.601 4.85 4.601h18.296c2.651 0 4.85-2.086 4.85-4.601V77.73c0-2.577-2.199-4.602-4.85-4.602m-4.85 17.3h-8.598v-8.16h8.599z"/><path fill="url(#e)" d="M117.993 73.13H99.696c-2.651 0-4.85 2.085-4.85 4.6v17.363c0 2.515 2.199 4.601 4.85 4.601h18.297c2.65 0 4.849-2.086 4.849-4.601V77.73c0-2.577-2.199-4.602-4.849-4.602m-4.849 17.3h-8.599v-8.16h8.599z"/><path fill="url(#f)" d="M154.78 73.13h-18.297c-2.651 0-4.849 2.085-4.849 4.6v17.363c0 2.515 2.198 4.601 4.849 4.601h18.297c2.651 0 4.849-2.086 4.849-4.601V77.73c0-2.577-2.198-4.602-4.849-4.602m-4.849 17.3h-8.599v-8.16h8.599z"/><path fill="url(#g)" d="M44.417 106.258H26.121c-2.651 0-4.85 2.086-4.85 4.602v17.362c0 2.515 2.199 4.601 4.85 4.601h18.296c2.651 0 4.85-2.086 4.85-4.601V110.86c0-2.577-2.199-4.602-4.85-4.602m-4.849 17.301H30.97v-8.16h8.598z"/><path fill="url(#h)" d="M81.205 106.258H62.908c-2.651 0-4.85 2.086-4.85 4.602v17.362c0 2.515 2.199 4.601 4.85 4.601h18.296c2.651 0 4.85-2.086 4.85-4.601V110.86c0-2.577-2.199-4.602-4.85-4.602m-4.85 17.301h-8.598v-8.16h8.599z"/><path fill="url(#i)" d="M117.993 106.258H99.696c-2.651 0-4.85 2.086-4.85 4.602v17.362c0 2.515 2.199 4.601 4.85 4.601h18.297c2.65 0 4.849-2.086 4.849-4.601V110.86c0-2.577-2.199-4.602-4.849-4.602m-4.849 17.301h-8.599v-8.16h8.599z"/><path fill="url(#j)" d="M154.78 106.258h-18.297c-2.651 0-4.849 2.086-4.849 4.602v17.362c0 2.515 2.198 4.601 4.849 4.601h18.297c2.651 0 4.849-2.086 4.849-4.601V110.86c0-2.577-2.198-4.602-4.849-4.602m-4.849 17.301h-8.599v-8.16h8.599z"/><path fill="url(#k)" d="M44.417 150.246H26.121c-2.651 0-4.85 2.086-4.85 4.601v17.362c0 2.516 2.199 4.602 4.85 4.602h18.296c2.651 0 4.85-2.086 4.85-4.602v-17.362c0-2.576-2.199-4.601-4.85-4.601m-4.849 17.301H30.97v-8.16h8.598z"/><path fill="url(#l)" d="M81.205 150.246H62.908c-2.651 0-4.85 2.086-4.85 4.601v17.362c0 2.516 2.199 4.602 4.85 4.602h18.296c2.651 0 4.85-2.086 4.85-4.602v-17.362c0-2.576-2.199-4.601-4.85-4.601m-4.85 17.301h-8.598v-8.16h8.599z"/><path fill="url(#m)" d="M117.993 150.246H99.696c-2.651 0-4.85 2.086-4.85 4.601v17.362c0 2.516 2.199 4.602 4.85 4.602h18.297c2.65 0 4.849-2.086 4.849-4.602v-17.362c0-2.576-2.199-4.601-4.849-4.601m-4.849 17.301h-8.599v-8.16h8.599z"/><path fill="url(#n)" d="M154.78 139.387h-18.297c-2.651 0-4.849 2.086-4.849 4.601v39.019c0 2.515 2.198 4.601 4.849 4.601h18.297c2.651 0 4.849-2.086 4.849-4.601v-39.019c0-2.515-2.198-4.601-4.849-4.601m-4.849 39.019h-8.599V148.59h8.599z"/><defs><linearGradient id="a" x1="0" x2="180.9" y1="102.7" y2="102.7" gradientUnits="userSpaceOnUse"><stop stop-color="#715126"/><stop offset="1" stop-color="#D0B672"/></linearGradient><linearGradient id="b" x1="25.861" x2="155.104" y1="41.197" y2="41.197" gradientUnits="userSpaceOnUse"><stop stop-color="#715126"/><stop offset="1" stop-color="#D0B672"/></linearGradient><linearGradient id="c" x1="21.271" x2="49.266" y1="86.412" y2="86.412" gradientUnits="userSpaceOnUse"><stop stop-color="#715126"/><stop offset="1" stop-color="#D0B672"/></linearGradient><linearGradient id="d" x1="58.059" x2="86.053" y1="86.412" y2="86.412" gradientUnits="userSpaceOnUse"><stop stop-color="#715126"/><stop offset="1" stop-color="#D0B672"/></linearGradient><linearGradient id="e" x1="94.847" x2="122.842" y1="86.412" y2="86.412" gradientUnits="userSpaceOnUse"><stop stop-color="#715126"/><stop offset="1" stop-color="#D0B672"/></linearGradient><linearGradient id="f" x1="131.634" x2="159.629" y1="86.412" y2="86.412" gradientUnits="userSpaceOnUse"><stop stop-color="#715126"/><stop offset="1" stop-color="#D0B672"/></linearGradient><linearGradient id="g" x1="21.271" x2="49.266" y1="119.541" y2="119.541" gradientUnits="userSpaceOnUse"><stop stop-color="#715126"/><stop offset="1" stop-color="#D0B672"/></linearGradient><linearGradient id="h" x1="58.059" x2="86.053" y1="119.541" y2="119.541" gradientUnits="userSpaceOnUse"><stop stop-color="#715126"/><stop offset="1" stop-color="#D0B672"/></linearGradient><linearGradient id="i" x1="94.847" x2="122.842" y1="119.541" y2="119.541" gradientUnits="userSpaceOnUse"><stop stop-color="#715126"/><stop offset="1" stop-color="#D0B672"/></linearGradient><linearGradient id="j" x1="131.634" x2="159.629" y1="119.541" y2="119.541" gradientUnits="userSpaceOnUse"><stop stop-color="#715126"/><stop offset="1" stop-color="#D0B672"/></linearGradient><linearGradient id="k" x1="21.271" x2="49.266" y1="163.528" y2="163.528" gradientUnits="userSpaceOnUse"><stop stop-color="#715126"/><stop offset="1" stop-color="#D0B672"/></linearGradient><linearGradient id="l" x1="58.059" x2="86.053" y1="163.528" y2="163.528" gradientUnits="userSpaceOnUse"><stop stop-color="#715126"/><stop offset="1" stop-color="#D0B672"/></linearGradient><linearGradient id="m" x1="94.847" x2="122.842" y1="163.528" y2="163.528" gradientUnits="userSpaceOnUse"><stop stop-color="#715126"/><stop offset="1" stop-color="#D0B672"/></linearGradient><linearGradient id="n" x1="131.634" x2="159.629" y1="163.498" y2="163.498" gradientUnits="userSpaceOnUse"><stop stop-color="#715126"/><stop offset="1" stop-color="#D0B672"/></linearGradient></defs></svg>