<svg xmlns="http://www.w3.org/2000/svg" width="367" height="302" fill="none"><path fill="url(#a)" d="M57.39 57.532h53.49C115.43 24.732 143.745 0 176.942 0h12.412c33.197 0 61.512 24.733 66.062 57.532h53.49c31.584 0 57.39 25.806 57.39 57.394v129.199c0 31.589-25.806 57.395-57.39 57.395H57.39C25.806 301.52 0 275.714 0 244.125V114.926c0-31.588 25.806-57.394 57.39-57.394m43.785 155.044L76.376 247.84c-6.909 9.824-21.861-.698-14.953-10.517l24.804-35.273c-8.296-8.618-13.398-20.342-13.398-33.25 0-26.486 21.473-47.963 47.959-47.963s47.959 21.477 47.959 47.963c0 26.483-21.472 47.96-47.959 47.96a47.8 47.8 0 0 1-19.613-4.184m19.613-73.42c-16.37 0-29.645 13.274-29.645 29.644 0 16.371 13.275 29.641 29.645 29.641 16.371 0 29.645-13.27 29.645-29.641s-13.274-29.644-29.645-29.644m80.445 117.572c-12.046 0-12.046-18.319 0-18.319h84.844c12.046 0 12.046 18.319 0 18.319zm0-53.976c-12.046 0-12.046-18.318 0-18.318h84.844c12.046 0 12.046 18.318 0 18.318zm0 26.986c-12.046 0-12.046-18.314 0-18.314h84.844c12.046 0 12.046 18.314 0 18.314zm0-53.976c-12.046 0-12.046-18.319 0-18.319h84.844c12.046 0 12.046 18.319 0 18.319zm0-50.821c-12.046 0-12.046-18.315 0-18.315h68.045c12.05 0 12.05 18.315 0 18.315zm-71.787-67.41H236.85c-4.382-22.598-24.393-39.212-47.496-39.212h-12.412c-23.103 0-43.114 16.614-47.496 39.213m179.46 18.315H57.39c-21.468 0-39.076 17.608-39.076 39.08v129.199c0 21.473 17.603 39.076 39.076 39.076h251.516c21.468 0 39.076-17.603 39.076-39.076V114.926c0-21.472-17.608-39.08-39.076-39.08"/><defs><linearGradient id="a" x1="0" x2="366.296" y1="150.76" y2="150.76" gradientUnits="userSpaceOnUse"><stop stop-color="#715126"/><stop offset="1" stop-color="#D0B672"/></linearGradient></defs></svg>