<svg xmlns="http://www.w3.org/2000/svg" width="200" height="200" fill="none"><path stroke="url(#a)" stroke-linecap="round" stroke-linejoin="round" stroke-width="16" d="M127.4 15.665a80.1 80.1 0 0 1 56.6 56.6"/><path stroke="url(#b)" stroke-linecap="round" stroke-linejoin="round" stroke-width="16" d="M119.1 46.565a47.9 47.9 0 0 1 34 34"/><path stroke="url(#c)" stroke-linecap="round" stroke-linejoin="round" stroke-width="16" d="M60.5 100.464a83.6 83.6 0 0 0 39 38.9 8 8 0 0 0 7.9-.6l25-16.7a7.9 7.9 0 0 1 7.6-.7l46.8 20.1a7.9 7.9 0 0 1 4.8 8.3 47.996 47.996 0 0 1-47.6 41.9 136 136 0 0 1-136-136 48 48 0 0 1 41.9-47.6 7.9 7.9 0 0 1 8.3 4.8l20.1 46.9a8 8 0 0 1-.6 7.5L61 92.664a8 8 0 0 0-.5 7.8"/><defs><linearGradient id="a" x1="127.4" x2="184" y1="43.965" y2="43.965" gradientUnits="userSpaceOnUse"><stop stop-color="#715126"/><stop offset="1" stop-color="#D0B672"/></linearGradient><linearGradient id="b" x1="119.1" x2="153.1" y1="63.565" y2="63.565" gradientUnits="userSpaceOnUse"><stop stop-color="#715126"/><stop offset="1" stop-color="#D0B672"/></linearGradient><linearGradient id="c" x1="8" x2="191.664" y1="99.832" y2="99.832" gradientUnits="userSpaceOnUse"><stop stop-color="#715126"/><stop offset="1" stop-color="#D0B672"/></linearGradient></defs></svg>