<svg width="45" height="50" viewBox="0 0 45 50" fill="none" xmlns="http://www.w3.org/2000/svg">
<path d="M44.3918 5.28722C44.8513 4.08833 44.6929 2.74222 43.9674 1.685C43.2429 0.629444 42.0463 0 40.7646 0H14.9529C12.3263 0 9.9757 1.46556 8.81903 3.82611L1.06737 19.6633C-0.247631 22.3456 -0.352075 25.4717 0.779036 28.2411L3.20348 34.1722C3.49015 34.8756 4.16348 35.3394 4.92292 35.355C10.309 35.4617 14.3163 36.8928 16.8318 39.6056C19.7751 42.78 19.8846 46.8517 19.7957 48.4528C19.7718 48.8517 19.9168 49.2494 20.1913 49.5406C20.4674 49.8317 20.8563 50 21.2585 50H42.5396C43.0157 50 43.4674 49.7694 43.7485 49.3839C44.0263 49.0006 44.1074 48.5017 43.9624 48.0533C40.3913 36.9206 41.1174 21.0728 42.1085 13.4639C42.4724 10.6733 43.5513 7.47667 44.3918 5.28722ZM42.2224 48.2756H21.5296C21.5985 46.2939 21.3296 41.9206 18.0963 38.4333C15.2507 35.3633 10.829 33.7472 4.95681 33.63C4.89126 33.6294 4.82904 33.5867 4.80181 33.5211L2.3757 27.5889C1.42904 25.2744 1.51681 22.6628 2.61626 20.4217L10.3685 4.58444C11.234 2.82 12.9901 1.72389 14.9529 1.72389H40.7646C41.4868 1.72389 42.1368 2.06556 42.5457 2.66111C42.9568 3.25889 43.0429 3.99056 42.7818 4.66889C41.9079 6.94611 40.7846 10.2822 40.3974 13.2406C40.1213 15.3617 37.8435 34.2394 42.2224 48.2756Z" fill="url(#paint0_linear_339_2376)"/>
<path d="M40.3288 4.41692C40.0111 3.90747 39.4616 3.60303 38.8605 3.60303H15.9044C14.1922 3.60303 12.6166 4.6058 11.8872 6.15803L4.80385 21.313C4.54773 21.8619 4.58996 22.4947 4.91496 23.0053C5.2394 23.5153 5.79551 23.8202 6.40162 23.8202H36.1616C36.6616 23.8202 37.13 23.598 37.4466 23.2108C37.765 22.8202 37.8894 22.3108 37.7883 21.8158C36.45 15.233 39.1788 8.62303 40.415 6.08692C40.6777 5.55025 40.6461 4.92525 40.3288 4.41692ZM36.105 22.0958L6.36662 22.0419L13.45 6.88914C13.8944 5.93969 14.8577 5.32636 15.9044 5.32636L38.8661 5.33025C37.5544 8.02192 34.6633 15.043 36.105 22.0958Z" fill="url(#paint1_linear_339_2376)"/>
<path d="M34.8667 27.7659C34.8667 28.4804 34.2856 29.0621 33.57 29.0621H29C28.2845 29.0621 27.7034 28.4804 27.7034 27.7659V27.0415H25.9795V27.7659C25.9795 29.4309 27.3345 30.7865 29 30.7865H33.57C35.235 30.7865 36.5906 29.4315 36.5906 27.7659V27.0415H34.8667V27.7659Z" fill="url(#paint2_linear_339_2376)"/>
<defs>
<linearGradient id="paint0_linear_339_2376" x1="0" y1="25" x2="44.6507" y2="25" gradientUnits="userSpaceOnUse">
<stop stop-color="#715126"/>
<stop offset="1" stop-color="#D0B672"/>
</linearGradient>
<linearGradient id="paint1_linear_339_2376" x1="4.6377" y1="13.7116" x2="40.5916" y2="13.7116" gradientUnits="userSpaceOnUse">
<stop stop-color="#715126"/>
<stop offset="1" stop-color="#D0B672"/>
</linearGradient>
<linearGradient id="paint2_linear_339_2376" x1="25.9795" y1="28.914" x2="36.5906" y2="28.914" gradientUnits="userSpaceOnUse">
<stop stop-color="#715126"/>
<stop offset="1" stop-color="#D0B672"/>
</linearGradient>
</defs>
</svg>
