<svg width="44" height="51" viewBox="0 0 44 51" fill="none" xmlns="http://www.w3.org/2000/svg">
<path d="M41.5993 36.284L38.6818 34.6C38.0069 34.2114 37.2055 34.1057 36.453 34.3061C35.7004 34.5065 35.0577 34.9966 34.6654 35.6694L31.2678 41.5635H22.5488V9.56698H30.2953L29.6133 10.7458C29.4192 11.081 29.2932 11.4513 29.2423 11.8353C29.1915 12.2193 29.2168 12.6095 29.3169 12.9837C29.417 13.358 29.5899 13.7088 29.8257 14.0161C30.0615 14.3234 30.3555 14.5812 30.6911 14.7748L33.6086 16.4589C33.9441 16.6527 34.3146 16.7786 34.6988 16.8291C35.0829 16.8796 35.4733 16.8539 35.8475 16.7534C36.2218 16.6529 36.5725 16.4796 36.8797 16.2434C37.1869 16.0072 37.4444 15.7127 37.6377 15.3769L42.6897 6.62836C42.8826 6.29254 43.0074 5.92199 43.057 5.53791C43.1066 5.15383 43.08 4.76374 42.9787 4.38995C42.8775 4.01616 42.7035 3.66599 42.4668 3.35946C42.2301 3.05294 41.9354 2.79607 41.5993 2.60354L38.6818 0.91951C38.0069 0.530882 37.2055 0.425209 36.453 0.625585C35.7004 0.82596 35.0577 1.31609 34.6654 1.98887L31.2678 7.88295H13.3372L14.0613 6.61994C14.4482 5.94247 14.5507 5.13925 14.3463 4.38636C14.1419 3.63347 13.6473 2.99234 12.9709 2.60354L10.0533 0.91951C9.37842 0.530882 8.57712 0.425209 7.82453 0.625585C7.07194 0.82596 6.42926 1.31609 6.03694 1.98887L0.984865 10.7374C0.790807 11.0726 0.664745 11.4428 0.613889 11.8268C0.563032 12.2109 0.588379 12.6011 0.688479 12.9753C0.78858 13.3495 0.961471 13.7003 1.19726 14.0077C1.43305 14.315 1.72712 14.5728 2.06264 14.7664L4.98021 16.4504C5.31571 16.6443 5.68615 16.7701 6.07033 16.8207C6.45451 16.8712 6.84489 16.8455 7.21912 16.745C7.59335 16.6445 7.94409 16.4712 8.25127 16.235C8.55844 15.9988 8.81601 15.7043 9.00924 15.3684L12.3773 9.55856H20.8648V41.555H13.3372L14.0613 40.292C14.4455 39.6153 14.5465 38.8141 14.3422 38.0633C14.138 37.3124 13.645 36.6728 12.9709 36.284L10.0533 34.6C9.37842 34.2114 8.57712 34.1057 7.82453 34.3061C7.07194 34.5065 6.42926 34.9966 6.03694 35.6694L0.984865 44.4179C0.790807 44.7531 0.664745 45.1233 0.613889 45.5073C0.563032 45.8914 0.588379 46.2816 0.688479 46.6558C0.78858 47.03 0.961471 47.3808 1.19726 47.6882C1.43305 47.9955 1.72712 48.2533 2.06264 48.4469L4.98021 50.1309C5.31571 50.3248 5.68615 50.4506 6.07033 50.5012C6.45451 50.5517 6.84489 50.526 7.21912 50.4255C7.59335 50.325 7.94409 50.1517 8.25127 49.9155C8.55844 49.6793 8.81601 49.3848 9.00924 49.0489L12.3773 43.2391H30.2953L29.6133 44.4179C29.4192 44.7531 29.2932 45.1233 29.2423 45.5073C29.1915 45.8914 29.2168 46.2816 29.3169 46.6558C29.417 47.03 29.5899 47.3808 29.8257 47.6882C30.0615 47.9955 30.3555 48.2533 30.6911 48.4469L33.6086 50.1309C33.9441 50.3248 34.3146 50.4506 34.6988 50.5012C35.0829 50.5517 35.4733 50.526 35.8475 50.4255C36.2218 50.325 36.5725 50.1517 36.8797 49.9155C37.1869 49.6793 37.4444 49.3848 37.6377 49.0489L42.6897 40.3004C43.0766 39.623 43.1791 38.8198 42.9747 38.0669C42.7703 37.314 42.2757 36.6728 41.5993 36.284ZM36.1263 2.83088C36.2936 2.54157 36.5688 2.33038 36.8915 2.24357C37.2143 2.15677 37.5583 2.20143 37.8482 2.36777L40.7657 4.0518C40.9096 4.13466 41.0356 4.24506 41.1368 4.37668C41.2379 4.5083 41.3121 4.65856 41.3551 4.81887C41.3981 4.97918 41.4091 5.1464 41.3874 5.31096C41.3658 5.47552 41.3119 5.6342 41.2289 5.77792L36.1768 14.5264C36.0946 14.6721 35.9844 14.7999 35.8524 14.9026C35.7204 15.0053 35.5694 15.0808 35.408 15.1247C35.2467 15.1685 35.0782 15.1799 34.9124 15.1582C34.7466 15.1364 34.5868 15.082 34.4422 14.998L31.5247 13.3139C31.2363 13.1445 31.027 12.8676 30.9426 12.544C30.8581 12.2204 30.9054 11.8765 31.0742 11.5878L36.1263 2.83088ZM7.54835 14.5349C7.46549 14.6798 7.35471 14.8069 7.22243 14.9087C7.09015 15.0106 6.93899 15.0852 6.77769 15.1282C6.61639 15.1713 6.44815 15.182 6.2827 15.1596C6.11726 15.1372 5.95789 15.0823 5.81381 14.998L2.89623 13.3139C2.60792 13.1445 2.39858 12.8676 2.31414 12.544C2.22969 12.2204 2.27702 11.8765 2.44576 11.5878L7.49783 2.83088C7.66517 2.54157 7.94036 2.33038 8.26311 2.24357C8.58586 2.15677 8.92986 2.20143 9.21975 2.36777L12.1373 4.0518C12.2811 4.13466 12.4072 4.24506 12.5083 4.37668C12.6095 4.5083 12.6836 4.65856 12.7266 4.81887C12.7697 4.97918 12.7806 5.1464 12.759 5.31096C12.7373 5.47552 12.6835 5.6342 12.6004 5.77792L7.54835 14.5349ZM7.54835 48.2154C7.46549 48.3592 7.35509 48.4852 7.22347 48.5864C7.09185 48.6875 6.94159 48.7617 6.78128 48.8047C6.62097 48.8477 6.45375 48.8587 6.28919 48.837C6.12463 48.8154 5.96595 48.7615 5.82223 48.6785L2.90465 46.9944C2.61492 46.8264 2.4038 46.5501 2.31774 46.2264C2.23168 45.9027 2.27773 45.5581 2.44576 45.2683L7.49783 36.5114C7.66517 36.2221 7.94036 36.0109 8.26311 35.9241C8.58586 35.8373 8.92986 35.8819 9.21975 36.0483L12.1373 37.7323C12.2811 37.8152 12.4072 37.9256 12.5083 38.0572C12.6095 38.1888 12.6836 38.3391 12.7266 38.4994C12.7697 38.6597 12.7806 38.8269 12.759 38.9915C12.7373 39.156 12.6835 39.3147 12.6004 39.4584L7.54835 48.2154ZM41.2289 39.4668L36.1768 48.2154C36.0939 48.3592 35.9835 48.4852 35.8519 48.5864C35.7203 48.6875 35.57 48.7617 35.4097 48.8047C35.2494 48.8477 35.0822 48.8587 34.9176 48.837C34.7531 48.8154 34.5944 48.7615 34.4507 48.6785L31.5331 46.9944C31.2433 46.8264 31.0322 46.5501 30.9462 46.2264C30.8601 45.9027 30.9062 45.5581 31.0742 45.2683L36.1263 36.5114C36.2936 36.2221 36.5688 36.0109 36.8915 35.9241C37.2143 35.8373 37.5583 35.8819 37.8482 36.0483L40.7657 37.7323C40.9096 37.8152 41.0356 37.9256 41.1368 38.0572C41.2379 38.1888 41.3121 38.3391 41.3551 38.4994C41.3981 38.6597 41.4091 38.8269 41.3874 38.9915C41.3658 39.156 41.3119 39.3147 41.2289 39.4584V39.4668Z" fill="url(#paint0_linear_339_2385)"/>
<defs>
<linearGradient id="paint0_linear_339_2385" x1="0.588379" y1="25.5264" x2="43.0813" y2="25.5264" gradientUnits="userSpaceOnUse">
<stop stop-color="#715126"/>
<stop offset="1" stop-color="#D0B672"/>
</linearGradient>
</defs>
</svg>
