<svg width="43" height="50" viewBox="0 0 43 50" fill="none" xmlns="http://www.w3.org/2000/svg">
<path fill-rule="evenodd" clip-rule="evenodd" d="M31.697 34.7432C31.1175 34.1638 30.3167 33.8057 29.4313 33.8057C28.5459 33.8057 27.745 34.1638 27.1656 34.7432C26.5862 35.3227 26.2281 36.1235 26.2281 37.0089C26.2281 37.8943 26.5862 38.6952 27.1656 39.2746C27.7451 39.8541 28.5459 40.2121 29.4313 40.2121C30.3167 40.2121 31.1176 39.8541 31.697 39.2746C32.2765 38.6951 32.6345 37.8943 32.6345 37.0089C32.6345 36.1235 32.2764 35.3226 31.697 34.7432ZM19.1855 28.7514L17.9506 28.1828C17.0717 27.8638 16.1233 27.688 15.1337 27.688C12.8593 27.688 10.8019 28.6081 9.31293 30.0991C7.82416 31.5878 6.90185 33.6474 6.90185 35.9198C6.90185 38.1923 7.82199 40.2516 9.31293 41.7406C10.8039 43.2293 12.8612 44.1516 15.1337 44.1516C17.4061 44.1516 19.4654 43.2315 20.9544 41.7406C22.4432 40.2518 23.3655 38.1923 23.3655 35.9198C23.3655 33.6474 22.4454 31.5881 20.9544 30.0991C20.4292 29.5739 19.8346 29.1203 19.1835 28.7514L19.1855 28.7514ZM21.5771 42.7341C21.64 42.6733 21.7051 42.6125 21.7659 42.5496C23.463 40.8525 24.5133 38.5087 24.5133 35.9194C24.5133 33.8425 23.8384 31.924 22.6947 30.3701L28.1051 32.8659C27.4388 33.0786 26.8399 33.4497 26.3559 33.9336C25.5681 34.7214 25.082 35.8087 25.082 37.0088C25.082 38.209 25.5681 39.2963 26.3559 40.0841C26.9809 40.7091 27.7947 41.1453 28.7063 41.2972C28.1832 41.562 27.6233 41.7985 27.0135 41.9982C25.5616 42.4756 23.8146 42.7534 21.5793 42.7339L21.5771 42.7341ZM22.5905 43.8648C24.4873 43.804 26.0368 43.5219 27.3672 43.0857C27.8794 42.9164 28.359 42.7276 28.8104 42.5171L28.8126 42.5345C28.8386 42.6907 28.8581 42.834 28.8581 42.9229C28.8581 43.8084 28.5001 44.6092 27.9206 45.1886C27.3411 45.7681 26.5403 46.1261 25.6549 46.1261C24.8302 46.1261 24.0794 45.8158 23.5129 45.3058C23.0854 44.9217 22.762 44.4247 22.5905 43.8648ZM29.8697 41.968C29.8935 42.0895 29.9196 42.2175 29.9413 42.3456C29.9782 42.5648 30.0042 42.7731 30.0042 42.9207C30.0042 44.1209 29.5181 45.2081 28.7303 45.9959C27.9425 46.7816 26.8552 47.2699 25.6551 47.2699C24.5374 47.2699 23.5196 46.8488 22.7491 46.1544C22.0916 45.5619 21.6141 44.7698 21.4123 43.8735C21.013 43.867 20.6007 43.8539 20.1731 43.8279C18.7191 44.7568 16.9894 45.2949 15.1361 45.2949C12.547 45.2949 10.2032 44.2446 8.50584 42.5475C6.80873 40.8504 5.75836 38.5066 5.75836 35.9173C5.75836 33.3282 6.80873 30.9844 8.50584 29.287C10.203 27.5899 12.5468 26.5396 15.1361 26.5396C16.8071 26.5396 18.3762 26.9758 19.7347 27.7419L31.1584 33.0133C31.6641 33.2325 32.122 33.545 32.5061 33.9313C33.2939 34.7191 33.7801 35.8064 33.7801 37.0065C33.7801 38.2067 33.2939 39.2939 32.5061 40.0817C32.3455 40.2423 32.1697 40.3921 31.9853 40.5266C31.3169 41.0431 30.6267 41.5314 29.8693 41.9654L29.8697 41.968ZM37.0727 29.8931C36.8665 29.687 36.58 29.5589 36.2654 29.5589C35.9507 29.5589 35.6642 29.687 35.4581 29.8931C35.2519 30.0993 35.1239 30.3858 35.1239 30.7004C35.1239 31.0151 35.2519 31.3016 35.4581 31.5077C35.6642 31.7139 35.9507 31.842 36.2654 31.842C36.58 31.842 36.8665 31.7139 37.0727 31.5077C37.2788 31.3016 37.4069 31.0151 37.4069 30.7004C37.4069 30.3858 37.2788 30.0993 37.0727 29.8931ZM34.2926 42.0008C34.119 41.8271 33.8781 41.7186 33.6133 41.7186C33.3485 41.7186 33.1077 41.8271 32.934 42.0008C32.7604 42.1744 32.6519 42.4153 32.6519 42.6801C32.6519 42.9448 32.7604 43.1857 32.934 43.3594C33.1077 43.533 33.3485 43.6415 33.6133 43.6415C33.8781 43.6415 34.119 43.533 34.2926 43.3594C34.4663 43.1857 34.5748 42.9448 34.5748 42.6801C34.5748 42.4153 34.4662 42.1744 34.2926 42.0008ZM7.01119 26.9658C7.1848 27.1394 7.29331 27.3803 7.29331 27.6451C7.29331 27.9099 7.1848 28.1508 7.01119 28.3244C6.83757 28.4981 6.59668 28.6065 6.33189 28.6065C6.06712 28.6065 5.82622 28.498 5.65259 28.3244C5.47895 28.1508 5.37046 27.9099 5.37046 27.6451C5.37046 27.3804 5.47897 27.1395 5.65259 26.9658C5.8262 26.7922 6.06709 26.6837 6.33189 26.6837C6.59665 26.6837 6.83755 26.7922 7.01119 26.9658ZM18.5999 19.3722C18.0942 18.8666 17.3932 18.5519 16.6207 18.5519C15.8481 18.5519 15.1493 18.8644 14.6414 19.3722C14.1358 19.8779 13.8211 20.5789 13.8211 21.3515C13.8211 22.124 14.1336 22.8228 14.6414 23.3307C15.1471 23.8364 15.8481 24.1511 16.6207 24.1511C17.3932 24.1511 18.092 23.8385 18.5999 23.3307C19.1056 22.825 19.4203 22.124 19.4203 21.3515C19.4203 20.5789 19.1077 19.8801 18.5999 19.3722ZM6.64228 42.7563C6.49471 42.6088 6.29071 42.5176 6.06499 42.5176C5.83926 42.5176 5.63528 42.6088 5.48769 42.7563C5.3401 42.9039 5.24897 43.1079 5.24897 43.3336C5.24897 43.5594 5.34011 43.7633 5.48769 43.9109C5.63527 44.0585 5.83926 44.1497 6.06499 44.1497C6.29071 44.1497 6.49469 44.0585 6.64228 43.9109C6.78988 43.7634 6.88101 43.5594 6.88101 43.3336C6.88101 43.1079 6.78986 42.9039 6.64228 42.7563ZM6.06499 41.3717C6.60754 41.3717 7.09802 41.5909 7.45176 41.9469C7.80767 42.3028 8.02689 42.7932 8.02689 43.3336C8.02689 43.874 7.80769 44.3667 7.45176 44.7204C7.09584 45.0763 6.60539 45.2955 6.06499 45.2955C5.52244 45.2955 5.03195 45.0763 4.67822 44.7204C4.32231 44.3645 4.10309 43.874 4.10309 43.3336C4.10309 42.7932 4.32228 42.3006 4.67822 41.9469C5.03416 41.5931 5.52458 41.3717 6.06499 41.3717ZM17.1437 20.8266C17.2782 20.9612 17.3607 21.1456 17.3607 21.3496C17.3607 21.5536 17.2782 21.7403 17.1437 21.8727C17.0091 22.0072 16.8247 22.0897 16.6207 22.0897C16.4167 22.0897 16.23 22.0072 16.0976 21.8727C15.9631 21.7381 15.8806 21.5536 15.8806 21.3496C15.8806 21.1456 15.9631 20.959 16.0976 20.8266C16.2322 20.6921 16.4167 20.6096 16.6207 20.6096C16.8247 20.6096 17.0113 20.6921 17.1437 20.8266ZM16.6207 19.4659C17.1415 19.4659 17.6125 19.6764 17.9531 20.0171C18.2939 20.3579 18.5044 20.8309 18.5044 21.3496C18.5044 21.8705 18.2939 22.3414 17.9531 22.6821C17.6124 23.0228 17.1393 23.2334 16.6207 23.2334C16.0998 23.2334 15.6289 23.0228 15.2882 22.6821C14.9475 22.3414 14.7369 21.8683 14.7369 21.3496C14.7369 20.8288 14.9475 20.3578 15.2882 20.0171C15.6289 19.6764 16.102 19.4659 16.6207 19.4659ZM22.6909 27.6717C24.6527 28.1275 26.6081 28.7026 28.5611 29.3927C30.4513 30.0611 32.3372 30.8381 34.219 31.7257C34.3297 31.9449 34.4751 32.1467 34.6465 32.3182C35.0611 32.7327 35.6318 32.9887 36.2634 32.9887C36.2959 32.9887 36.3263 32.9887 36.3589 32.9866C36.157 34.2909 35.8576 35.5474 35.4604 36.754C35.022 38.0887 34.4686 39.3648 33.798 40.5823C33.7372 40.5757 33.6743 40.5736 33.6135 40.5736C33.0319 40.5736 32.5067 40.8101 32.1248 41.1899C31.7515 41.5632 31.5171 42.0776 31.5084 42.6461C30.5427 49.478 24.5571 49.0719 18.2591 48.6447C16.881 48.5514 15.4877 48.4559 14.1313 48.4298C14.1335 48.3821 14.1357 48.3365 14.1357 48.2909C14.1357 47.5162 13.821 46.813 13.3132 46.3052C12.8053 45.7974 12.1022 45.4827 11.3274 45.4827C10.5527 45.4827 9.84949 45.7974 9.3417 46.3052C9.03786 46.609 8.80131 46.9845 8.6624 47.4012C8.23269 47.1625 7.83337 46.9368 7.52086 46.7566L7.41886 46.698C6.76128 46.316 6.43361 46.1251 6.02126 46.5808C5.89973 46.7154 5.83462 46.8608 5.76301 47.017C5.73479 47.0778 5.70658 47.1407 5.6979 47.1581C5.65449 47.2427 5.56552 47.3057 5.19441 47.1169C5.0859 47.0604 4.99258 46.9736 4.90794 46.8673C4.80811 46.7414 4.72131 46.5808 4.64318 46.405C4.61063 46.3312 4.57807 46.2553 4.54769 46.1815C4.36756 45.7475 4.18527 45.3091 3.72516 45.0074C3.38661 44.7839 3.05892 44.6754 2.74641 44.5712C2.24292 44.4019 1.80238 44.2565 1.78065 43.1909C1.77197 42.8242 1.84793 42.3836 1.91087 42.0082C1.96512 41.6978 2.0107 41.4265 2.0107 41.2074C2.0107 40.6084 1.75027 40.4413 1.43779 40.2394C1.34013 40.1765 1.22294 40.1027 1.17086 39.8618C1.12528 39.6578 1.14047 39.545 1.1969 39.4907C1.2989 39.3909 1.51592 39.3258 1.78503 39.2759C1.85014 39.265 1.97167 39.2498 2.10405 39.2368C2.91135 39.1478 4.029 39.0241 4.029 37.9086C4.029 37.7025 3.97909 37.4811 3.88143 37.2532C3.79896 37.0579 3.67526 36.8539 3.51684 36.6434C3.33454 36.4025 3.25858 36.307 3.18914 36.218C2.81586 35.7362 2.61623 35.4802 2.58145 35.2827C2.54673 35.0765 2.64438 34.7596 2.86141 34.152H2.88962C3.58409 34.152 4.21344 33.8698 4.66701 33.4163C5.12276 32.9605 5.4027 32.3333 5.4027 31.6389C5.4027 31.3416 5.34845 31.0529 5.25079 30.7838C5.20087 30.6471 5.14011 30.5147 5.06849 30.391C5.15313 30.2629 5.2356 30.1284 5.32458 29.9873C5.3962 29.868 5.47215 29.7443 5.55028 29.6075C5.79117 29.703 6.05377 29.7573 6.32936 29.7573C6.91099 29.7573 7.43618 29.5207 7.81813 29.1409C8.20009 28.759 8.43449 28.2338 8.43449 27.6522C8.43449 27.2659 8.33032 26.9012 8.14802 26.5909L9.4089 25.5557C9.55864 25.4515 9.65847 25.2801 9.65847 25.0826V19.058C9.65847 18.7411 9.40239 18.485 9.08556 18.485C9.02263 18.485 8.96403 18.4959 8.90761 18.5133L6.89149 19.0536L6.39451 17.1959L11.7072 15.7723C11.9633 15.705 12.2237 15.7462 12.4364 15.8678V15.8699C12.6491 15.9936 12.8162 16.1976 12.8856 16.4537C12.9529 16.7098 12.9116 16.9702 12.7901 17.1829H12.7879C12.6642 17.3956 12.4602 17.5627 12.2041 17.6321L11.5205 17.8144C11.2601 17.8687 11.0648 18.0987 11.0648 18.3743V22.4674C11.0648 22.7842 11.3209 23.0403 11.6377 23.0403C11.6594 23.0403 11.6811 23.0381 11.7028 23.0359L13.0331 22.9969C13.2306 23.4266 13.5019 23.8129 13.8317 24.1427C14.5458 24.8568 15.531 25.2973 16.6204 25.2973C17.7099 25.2973 18.6952 24.8567 19.4091 24.1427C19.6848 23.8671 19.9191 23.5524 20.1036 23.2074L20.9739 24.5225C21.052 24.6593 21.1844 24.7613 21.3406 24.7981L34.6616 29.0756L34.6486 29.0886C34.3101 29.4272 34.0757 29.8721 34.004 30.3691C32.32 29.5987 30.6315 28.915 28.9431 28.3182C26.9487 27.6129 24.9521 27.027 22.9534 26.5625C22.6453 26.4909 22.3393 26.6819 22.2676 26.99C22.196 27.2982 22.387 27.6042 22.6952 27.6758L22.6909 27.6717ZM23.7716 22.958L33.4442 25.9529C33.7458 26.0462 34.0648 25.8769 34.1582 25.5753C34.2515 25.2736 34.0822 24.9546 33.7806 24.8613L24.108 21.8664C23.8064 21.7731 23.4873 21.9423 23.394 22.244C23.3007 22.5457 23.47 22.8647 23.7716 22.958ZM23.7673 20.293L34.0954 23.5765C34.3949 23.672 34.7161 23.5049 34.8116 23.2054C34.9071 22.9059 34.74 22.5847 34.4405 22.4892L24.1124 19.2057C23.8129 19.1102 23.4917 19.2773 23.3962 19.5768C23.3007 19.8763 23.4678 20.1975 23.7673 20.293ZM23.7781 18.0056L34.924 21.3195C35.2279 21.4084 35.5447 21.2348 35.6337 20.9332C35.7227 20.6293 35.549 20.3125 35.2474 20.2235L24.1015 16.9096C23.7976 16.8207 23.4808 16.9943 23.3918 17.2959C23.3029 17.5998 23.4765 17.9166 23.7781 18.0056ZM23.7803 15.3189L36.1051 18.9171C36.409 19.0039 36.7237 18.8303 36.8126 18.5286C36.8994 18.227 36.7258 17.9101 36.4241 17.8212L24.0993 14.2229C23.7955 14.1361 23.4808 14.3098 23.3918 14.6114C23.305 14.9131 23.4786 15.2299 23.7803 15.3189ZM24.8263 12.949L37.1512 16.5473C37.455 16.6341 37.7697 16.4604 37.8586 16.1588C37.9455 15.8571 37.7718 15.5403 37.4702 15.4513L25.1453 11.8531C24.8415 11.7663 24.5268 11.9399 24.4379 12.2416C24.3511 12.5454 24.5247 12.8601 24.8263 12.949ZM34.8767 8.65633L33.924 12.0571C33.8979 12.1525 33.835 12.2285 33.7547 12.2741C33.6744 12.3196 33.5767 12.3348 33.4791 12.3088L29.3687 11.2063C29.2711 11.1803 29.1951 11.1173 29.1474 11.0392C29.0996 10.9589 29.0844 10.8591 29.1105 10.7614L30.0219 7.3607L34.8745 8.65413L34.8767 8.65633ZM42.5502 10.0561C42.5481 10.0648 42.5481 10.0735 42.5459 10.0821C42.4287 10.6898 42.2508 11.3843 41.9947 12.1916C41.387 14.1165 40.3345 16.7035 39.3361 19.1624C38.6005 20.9723 37.8929 22.7128 37.4242 24.0388C36.8795 25.5753 36.6429 26.5736 36.5626 27.2985C36.5105 27.7564 36.5257 28.1145 36.5583 28.4357C37.0726 28.5008 37.5327 28.7373 37.8821 29.0868C38.2966 29.5013 38.5527 30.072 38.5527 30.7036C38.5527 31.3352 38.2966 31.9059 37.8821 32.3204C37.7866 32.4159 37.6846 32.5006 37.5761 32.5787C37.3677 34.1499 37.0249 35.6604 36.5496 37.11C36.1068 38.4556 35.5491 39.7512 34.8742 40.9947C34.9545 41.0555 35.0326 41.1228 35.102 41.1922C35.484 41.5742 35.7184 42.0994 35.7184 42.681C35.7184 43.2626 35.4818 43.7878 35.102 44.1698C34.7201 44.5517 34.1949 44.7861 33.6133 44.7861C33.1293 44.7861 32.6822 44.6212 32.3263 44.3456C30.6119 50.6285 24.5439 50.2158 18.1831 49.7841C16.6054 49.6778 15.0081 49.5693 13.4499 49.5693C13.133 49.5693 12.877 49.3132 12.877 48.9964C12.877 48.9161 12.8922 48.8423 12.9226 48.7728C12.9421 48.7056 12.9594 48.6339 12.9703 48.5602C12.9833 48.4799 12.9898 48.3909 12.9898 48.2911C12.9898 47.831 12.8032 47.4143 12.5015 47.1148C12.1999 46.8131 11.7832 46.6265 11.3253 46.6265C10.8652 46.6265 10.4485 46.8131 10.149 47.1148C9.84735 47.4164 9.66071 47.8331 9.66071 48.2911C9.66071 48.6079 9.40462 48.864 9.0878 48.864C8.97061 48.864 8.8621 48.8292 8.77095 48.7685C8.06998 48.38 7.37552 47.9937 6.94578 47.7441L6.84378 47.6855C6.72008 47.6139 7.07817 47.1148 6.86765 47.3469C6.86331 47.3513 6.8351 47.4164 6.80255 47.488C6.78085 47.5358 6.75914 47.5857 6.7114 47.6768C6.41191 48.2606 5.94965 48.7858 4.67355 48.1326C4.40445 47.9958 4.18743 47.8005 4.00731 47.5705C3.84238 47.3578 3.70999 47.1234 3.59931 46.876C3.56242 46.7914 3.52553 46.7067 3.49081 46.6199C3.37578 46.3443 3.26076 46.0665 3.098 45.9602C2.88749 45.8213 2.62923 45.7345 2.38397 45.652C1.47467 45.3482 0.680363 45.0834 0.63914 43.2106C0.628289 42.7223 0.712925 42.2318 0.784544 41.8129C0.827948 41.559 0.867014 41.3355 0.867014 41.2031C0.867014 41.1792 0.847481 41.2139 0.821439 41.1966C0.54148 41.0165 0.207252 40.8038 0.0531919 40.1006C-0.0878739 39.456 0.0597026 39.0025 0.400425 38.6704C0.693402 38.384 1.10789 38.2407 1.58535 38.1518C1.71991 38.1279 1.84578 38.1127 1.9825 38.0975C2.36228 38.0563 2.88747 37.9977 2.88747 37.9044C2.88747 37.8479 2.87011 37.7785 2.83322 37.696C2.7833 37.581 2.70951 37.4573 2.61186 37.3271C2.5576 37.2555 2.41654 37.0732 2.29067 36.9104C1.80237 36.2811 1.54192 35.9447 1.46164 35.465C1.37266 34.9355 1.54628 34.4472 1.92172 33.4034L1.9304 33.3795C2.00853 33.0887 2.30368 32.9064 2.60315 32.9715C2.65523 32.9823 2.70298 32.991 2.74855 32.9953C2.78979 32.9997 2.83753 33.0019 2.89612 33.0019C3.27374 33.0019 3.61665 32.8478 3.86404 32.6004C4.11145 32.353 4.26554 32.0101 4.26554 31.6324C4.26554 31.4653 4.23732 31.3069 4.18524 31.1659C4.13098 31.0161 4.05068 30.8772 3.94869 30.7557C3.77507 30.5495 3.7729 30.2565 3.92698 30.0504C4.07455 29.8334 4.21345 29.6207 4.35669 29.3863C4.45001 29.2322 4.54549 29.0716 4.6475 28.898C4.38707 28.5464 4.23299 28.1145 4.23299 27.6436C4.23299 27.062 4.46954 26.5368 4.84934 26.1549C5.2313 25.7729 5.75648 25.5385 6.33811 25.5385C6.6962 25.5385 7.03475 25.6275 7.32992 25.7859L8.52135 24.8072V19.7962L6.64196 20.2996C6.33596 20.3821 6.02344 20.1998 5.94099 19.8938L5.14668 16.9315C5.06421 16.6255 5.24652 16.313 5.55251 16.2305L11.4188 14.6593C11.9766 14.5096 12.5451 14.6029 13.0139 14.872L13.0161 14.8742V14.872C13.4827 15.1411 13.8473 15.5882 13.9992 16.1481C14.1489 16.7058 14.0556 17.2744 13.7865 17.7432L13.7843 17.7454H13.7865C13.5174 18.212 13.0703 18.5766 12.5104 18.7285L12.2218 18.8066V21.8752L12.7187 21.86C12.697 21.6929 12.6862 21.5237 12.6862 21.35C12.6862 20.2606 13.1267 19.2753 13.8407 18.5613C14.5548 17.8473 15.54 17.4068 16.6294 17.4068C17.7189 17.4068 18.7042 17.8474 19.4181 18.5613C20.1321 19.2753 20.5727 20.2606 20.5727 21.35C20.5727 21.4998 20.564 21.6452 20.5488 21.7906L20.9069 22.3332V15.0346C20.9069 14.3966 20.9069 13.9625 20.538 13.739C20.08 13.459 19.1273 13.2615 18.2137 13.0706C17.9749 13.0207 17.7384 12.9707 17.6798 12.9599C17.1003 12.834 16.5621 12.7016 16.0977 12.4976C15.5703 12.2676 15.1515 11.9529 14.8889 11.4777C14.598 10.9503 14.4244 9.48759 14.5937 8.05088C14.6783 7.33685 14.8433 6.60983 15.1167 5.98703C15.4119 5.3099 15.8373 4.74782 16.4232 4.42448C16.8399 4.19444 17.3239 4.09027 17.8838 4.15537C18.4827 4.22699 19.5765 4.61546 20.6638 5.0039H20.666C21.2498 5.21224 21.8314 5.41841 22.3045 5.56814C22.452 5.21006 22.5888 4.85412 22.7168 4.5156C23.4937 2.48209 24.0471 1.03244 26.6709 0.322745C29.6354 -0.480225 32.4784 0.368319 35.2651 1.1995L35.4865 1.2646L35.5125 1.27328L35.7187 1.33405C38.6354 2.19997 41.027 2.91177 42.2989 6.09115C42.542 6.69884 42.7438 7.35853 42.7416 8.32861C42.7395 8.81691 42.6852 9.37898 42.5572 10.0518L42.5502 10.0561ZM35.8706 13.561L39.9072 14.6417C39.4058 15.9504 38.8329 17.361 38.2752 18.7304C37.5373 20.5447 36.8298 22.2874 36.3437 23.6568C35.7664 25.2867 35.5146 26.3674 35.4235 27.1725C35.3844 27.5328 35.3758 27.8366 35.3844 28.1079L22.0418 23.8239V15.0392C22.0418 14.6833 22.0418 14.3686 22.0027 14.0843C22.3217 13.2986 22.2501 13.4744 22.2783 13.4028C23.7128 9.89576 24.3682 8.29632 23.2571 6.22814C23.3461 6.0198 23.4285 5.82231 23.5045 5.63134L28.9148 7.07455L28.0034 10.4731C27.897 10.8724 27.9621 11.2804 28.1553 11.6146C28.3484 11.951 28.6696 12.2114 29.0689 12.3199L33.1793 13.4224C33.5764 13.5288 33.9801 13.4637 34.3122 13.2749C34.6464 13.0839 34.9068 12.7692 35.0175 12.3742L35.9745 8.95833L41.3089 10.3798C41.259 10.5925 41.2026 10.8139 41.1353 11.0504L37.0271 9.95008C36.7211 9.86761 36.4086 10.0499 36.3262 10.3559C36.2437 10.6619 36.426 10.9744 36.732 11.0569L40.8011 12.1485C40.6557 12.5955 40.4864 13.073 40.302 13.5765L36.1569 12.4653C35.8509 12.3828 35.5384 12.5651 35.4559 12.8711C35.3735 13.1771 35.5558 13.4897 35.8618 13.5721L35.8706 13.561ZM24.6919 8.08553L27.3157 8.78867C27.6217 8.87114 27.9342 8.68884 28.0167 8.38284C28.0991 8.07684 27.9168 7.76432 27.6108 7.68187L24.987 6.97873C24.681 6.89627 24.3685 7.07857 24.2861 7.38457C24.2036 7.69056 24.3859 8.00309 24.6919 8.08553ZM24.7266 10.2883L26.7666 10.8352C27.0726 10.9176 27.3851 10.7353 27.4676 10.4293C27.55 10.1233 27.3678 9.81082 27.0618 9.72837L25.0217 9.18148C24.7157 9.09901 24.4032 9.28131 24.3208 9.58731C24.2383 9.89331 24.4206 10.2058 24.7266 10.2883ZM40.3782 5.03204L39.8921 6.75304C39.8075 7.05688 39.4906 7.23483 39.1868 7.14802C38.883 7.06339 38.705 6.74653 38.7918 6.44272L39.4429 4.13143C38.7506 3.61275 37.9368 3.25467 37.0405 2.9465L36.2983 5.80248C36.2202 6.10848 35.9077 6.29078 35.6017 6.21265C35.2957 6.13452 35.1134 5.82201 35.1915 5.51601L35.9511 2.59925C35.7666 2.54283 35.5778 2.48857 35.389 2.42997L35.1807 2.36704L35.1546 2.36053L34.9333 2.29542C34.4211 2.14351 33.9046 1.98942 33.3903 1.84619L32.5742 4.83673C32.4918 5.14056 32.1771 5.31852 31.8733 5.23822C31.5694 5.15575 31.3915 4.84108 31.4739 4.53726L32.2878 1.56188C31.4262 1.36005 30.5624 1.20814 29.6987 1.16256L28.8675 3.88615C28.7763 4.18781 28.4573 4.35709 28.1557 4.26594C27.854 4.17479 27.6847 3.85577 27.7759 3.55414L28.5051 1.16906C27.9907 1.20595 27.4785 1.28842 26.9664 1.42731C25.0588 1.94382 24.5162 3.03325 23.9259 4.55458L29.7467 6.1063C29.7554 6.10847 29.7619 6.11064 29.7705 6.11281C29.7792 6.11498 29.7857 6.11715 29.7944 6.11932L35.7213 7.69926C35.7278 7.70143 35.7343 7.7036 35.7408 7.70577L35.7473 7.70794L41.5308 9.24877C41.5764 8.90805 41.596 8.60641 41.5981 8.33513C41.6003 7.55605 41.4332 7.01997 41.2357 6.52301C41.0013 5.93705 40.7148 5.44875 40.3828 5.03424L40.3782 5.03204ZM19.5225 31.5346C20.6445 32.6566 21.339 34.2083 21.339 35.9206C21.339 37.6328 20.6445 39.1845 19.5225 40.3065C18.4006 41.4285 16.8488 42.123 15.1366 42.123C13.4243 42.123 11.8726 41.4285 10.7506 40.3065C9.62861 39.1845 8.93415 37.6328 8.93415 35.9206C8.93415 34.2083 9.62861 32.6566 10.7506 31.5346C11.8726 30.4126 13.4243 29.7181 15.1366 29.7181C16.8488 29.7181 18.4006 30.4126 19.5225 31.5346ZM15.1366 28.5723C17.1657 28.5723 19.0039 29.3948 20.3321 30.7251C21.6624 32.0554 22.4849 33.8914 22.4849 35.9206C22.4849 37.9498 21.6624 39.7879 20.3321 41.1161C19.0018 42.4464 17.1657 43.269 15.1366 43.269C13.1074 43.269 11.2693 42.4464 9.94107 41.1161C8.61075 39.7858 7.78822 37.9498 7.78822 35.9206C7.78822 33.8914 8.61075 32.0533 9.94107 30.7251C11.2714 29.3948 13.1074 28.5723 15.1366 28.5723ZM16.5906 11.4711C17.1136 10.3947 17.4413 9.34002 17.5715 8.30915C17.6996 7.28701 17.6366 6.2822 17.3784 5.29255C17.2265 5.31208 17.0876 5.35983 16.966 5.42711C16.6232 5.61808 16.3562 5.98485 16.1566 6.44275C15.933 6.95275 15.7942 7.5669 15.7225 8.18109C15.5793 9.40074 15.6813 10.5618 15.8831 10.9286C16.0068 11.1543 16.2412 11.317 16.5472 11.4516C16.5624 11.4581 16.5776 11.4646 16.5928 11.4711L16.5906 11.4711ZM18.6002 5.50539C18.7934 6.47115 18.8281 7.45207 18.7022 8.44604C18.5633 9.54852 18.2291 10.664 17.6996 11.7925C17.769 11.8077 17.8407 11.825 17.9123 11.8402C18.2009 11.9032 18.3181 11.927 18.4353 11.9509C19.4444 12.1614 20.497 12.3806 21.122 12.7626C21.1741 12.7929 21.2218 12.8255 21.2674 12.858C22.5283 9.77633 23.0926 8.35484 22.2375 6.74229C21.6689 6.57952 20.9701 6.32995 20.2713 6.08038C19.6788 5.8677 19.0842 5.65718 18.598 5.50525L18.6002 5.50539ZM30.239 36.2031C30.4451 36.4092 30.5732 36.6957 30.5732 37.0104C30.5732 37.325 30.4451 37.6115 30.239 37.8177C30.0328 38.0238 29.7463 38.1519 29.4317 38.1519C29.117 38.1519 28.8305 38.0238 28.6243 37.8177C28.4182 37.6115 28.2901 37.325 28.2901 37.0104C28.2901 36.6957 28.4182 36.4092 28.6243 36.2031C28.8305 35.9969 29.117 35.8689 29.4317 35.8689C29.7463 35.8689 30.0328 35.9969 30.239 36.2031ZM29.4317 34.723C30.0632 34.723 30.634 34.979 31.0485 35.3935C31.463 35.808 31.7191 36.3788 31.7191 37.0104C31.7191 37.6419 31.463 38.2127 31.0485 38.6272C30.634 39.0417 30.0632 39.2978 29.4317 39.2978C28.8001 39.2978 28.2293 39.0417 27.8148 38.6272C27.4003 38.2127 27.1442 37.6419 27.1442 37.0104C27.1442 36.3788 27.4003 35.8081 27.8148 35.3935C28.2293 34.979 28.8001 34.723 29.4317 34.723Z" fill="url(#paint0_linear_339_2197)"/>
<defs>
<linearGradient id="paint0_linear_339_2197" x1="0" y1="25" x2="42.7416" y2="25" gradientUnits="userSpaceOnUse">
<stop stop-color="#715126"/>
<stop offset="1" stop-color="#D0B672"/>
</linearGradient>
</defs>
</svg>
