<svg xmlns="http://www.w3.org/2000/svg" width="33" height="33" fill="none"><path fill="#BBA061" d="m17.595 16.257 4.702-3.568 8.595-6.648c-.081 0-.162-.041-.243-.041H1.784c-.081 0-.122.04-.203.04l13.297 10.217c.73.567 1.946.567 2.717 0M9.203 13.905.243 6.932C.122 7.175 0 7.42 0 7.742v17.474c0 .203.04.405.122.567L10.784 15.04zM32.19 6.932l-10.582 8.149 10.703 10.743c.08-.203.121-.365.121-.568V7.743c0-.284-.08-.568-.243-.81"/><path fill="#BBA061" d="M18.527 17.473c-.69.487-1.5.73-2.31.73-.812 0-1.622-.243-2.271-.77l-1.905-1.46L1.216 26.878c.162.082.365.122.568.122h28.865c.202 0 .405-.08.567-.122L20.392 16.014z"/></svg>