<svg xmlns="http://www.w3.org/2000/svg" width="21" height="21" fill="none"><path fill="url(#a)" d="M11.016 2.28H4.522a.637.637 0 0 0-.637.638v4.5c0 .351.285.637.637.637h6.494a.64.64 0 0 0 .638-.638v-4.5a.64.64 0 0 0-.638-.637m-.637 4.5h-5.22V3.555h5.22z"/><path fill="url(#b)" d="M20.06 3.433 17.34.857a.638.638 0 0 0-.877.926l1.413 1.337a2.325 2.325 0 0 0-1.517 2.177c0 1.038.684 1.919 1.625 2.215V15.4a.384.384 0 0 1-.765 0V11.39a1.915 1.915 0 0 0-1.913-1.912h-1.479V1.913A1.914 1.914 0 0 0 11.914 0h-8.29a1.915 1.915 0 0 0-1.912 1.913V16.1h-.22C.668 16.1 0 16.77 0 17.591v2.342c0 .352.285.638.638.638H14.9a.637.637 0 0 0 .638-.638v-2.341c0-.823-.67-1.492-1.492-1.492h-.22v-5.346h1.478c.351 0 .637.286.637.637V15.4a1.66 1.66 0 0 0 1.659 1.659 1.66 1.66 0 0 0 1.658-1.658V7.544a2.32 2.32 0 0 0 .802-4.112M12.552 16.1H2.987V1.913c0-.352.286-.638.637-.638h8.29c.352 0 .637.286.637.638zm1.712 1.491v1.705H1.275v-1.704a.216.216 0 0 1 .216-.217h12.556c.12 0 .216.097.216.216M18.68 6.344a1.047 1.047 0 1 1 1.046-1.046c0 .577-.47 1.046-1.046 1.046"/><defs><linearGradient id="a" x1="3.885" x2="11.654" y1="5.168" y2="5.168" gradientUnits="userSpaceOnUse"><stop stop-color="#715126"/><stop offset="1" stop-color="#D0B672"/></linearGradient><linearGradient id="b" x1="0" x2="21" y1="10.285" y2="10.285" gradientUnits="userSpaceOnUse"><stop stop-color="#715126"/><stop offset="1" stop-color="#D0B672"/></linearGradient></defs></svg>