<svg xmlns="http://www.w3.org/2000/svg" width="228" height="198" fill="none"><path fill="url(#a)" d="M118.653 1.628a7.666 7.666 0 0 0-9.444 0L0 86.963l9.445 11.969L22.8 88.497v94.272a15.28 15.28 0 0 0 4.461 10.761A15.22 15.22 0 0 0 38 198h152a15.2 15.2 0 0 0 10.74-4.469 15.27 15.27 0 0 0 4.46-10.762V88.567L218.555 99 228 87.03zM129.2 182.769H98.8v-60.923h30.4zm15.2 0v-60.923a15.27 15.27 0 0 0-4.457-10.765 15.2 15.2 0 0 0-10.743-4.466H98.8a15.2 15.2 0 0 0-10.744 4.466 15.26 15.26 0 0 0-4.456 10.765v60.923H38V76.622l76-59.324 76 59.404v106.067z"/><defs><linearGradient id="a" x1="0" x2="228" y1="99" y2="99" gradientUnits="userSpaceOnUse"><stop stop-color="#715126"/><stop offset="1" stop-color="#D0B672"/></linearGradient></defs></svg>