<svg xmlns="http://www.w3.org/2000/svg" width="36" height="45" fill="none"><path fill="#fff" d="M34.617 5.472h-4.612V1.149zM2.5 39.97V3.74H1.293A1.293 1.293 0 0 0 0 5.03v38.676A1.29 1.29 0 0 0 1.293 45h29.12a1.293 1.293 0 0 0 1.293-1.293v-.693H5.545A3.047 3.047 0 0 1 2.5 39.97M35.956 7.225V39.97a1.29 1.29 0 0 1-1.293 1.293H5.545a1.293 1.293 0 0 1-1.293-1.293V1.293A1.293 1.293 0 0 1 5.545 0H28.25v6.348a.877.877 0 0 0 .877.877zM9.63 6.358a.877.877 0 0 0 .876.876h8.244a.876.876 0 1 0 0-1.753h-8.244a.877.877 0 0 0-.876.877m0 3.118a.877.877 0 0 0 .876.877h11.307a.878.878 0 0 0 0-1.754H10.506a.877.877 0 0 0-.876.877m1.2 25.263a.877.877 0 0 0-.878-.877h-.41a.877.877 0 0 0 0 1.753h.41a.877.877 0 0 0 .877-.876m0-5.683a.876.876 0 0 0-.878-.876h-.41a.876.876 0 1 0 0 1.753h.41a.877.877 0 0 0 .877-.875zm0-5.682a.877.877 0 0 0-.878-.877h-.41a.877.877 0 0 0 0 1.753h.41a.877.877 0 0 0 .877-.876m0-5.683a.877.877 0 0 0-.878-.876h-.41a.877.877 0 0 0 0 1.753h.41a.877.877 0 0 0 .877-.877M31.544 34.74a.874.874 0 0 0-.877-.877H13.501a.877.877 0 0 0 0 1.753h17.167a.876.876 0 0 0 .877-.876m0-5.683a.874.874 0 0 0-.877-.876H13.501a.877.877 0 1 0 0 1.753h17.167a.877.877 0 0 0 .877-.875zm0-5.682a.876.876 0 0 0-.877-.877H13.501a.877.877 0 0 0 0 1.753h17.167a.876.876 0 0 0 .877-.876m0-5.683a.877.877 0 0 0-.877-.876H13.501a.877.877 0 0 0 0 1.753h17.167a.876.876 0 0 0 .877-.877m0-5.097a.877.877 0 0 0-.877-.876H10.506a.877.877 0 0 0 0 1.753h20.162a.877.877 0 0 0 .877-.877"/></svg>