<svg xmlns="http://www.w3.org/2000/svg" width="22" height="17" fill="none"><path fill="url(#a)" fill-rule="evenodd" d="m2.81 11.747.004.03H.024l-.021-.224h.012c-.09-1.734.234-3.464.943-5.048l2.424 1.399a8.2 8.2 0 0 0-.586 3.62zM1.165 6.06l.082-.176.01.006A11.05 11.05 0 0 1 4.86 1.871l1.394 2.415a8.26 8.26 0 0 0-2.578 2.975l-.097.19v.003zm4.102-4.458.09-.06.006.01A10.95 10.95 0 0 1 10.756 0v2.78a8.2 8.2 0 0 0-3.998 1.176l-.099.06zM11.244 0c1.902.039 3.762.573 5.394 1.55l.005-.01.092.06-1.394 2.414-.099-.06a8.2 8.2 0 0 0-3.998-1.175zM2.878 12.266c.156 1 .496 1.963 1.005 2.84l.235.405-2.41 1.392-.234-.405a10.9 10.9 0 0 1-1.4-4.232zM17.141 1.87a11.05 11.05 0 0 1 3.603 4.02l.01-.007.082.176-2.413 1.394-.001-.002-.098-.19a8.26 8.26 0 0 0-2.577-2.976zm3.901 4.633a11 11 0 0 1 .943 5.049h.013l-.022.223h-2.79l.003-.03.014-.222a8.2 8.2 0 0 0-.585-3.62zm.884 5.761a10.9 10.9 0 0 1-1.4 4.233l-.233.405-2.407-1.39.235-.406a8.2 8.2 0 0 0 1.002-2.841z" clip-rule="evenodd"/><path fill="url(#b)" d="M11 13.67a1.65 1.65 0 1 0 0-3.299 1.65 1.65 0 0 0 0 3.3"/><path fill="url(#c)" fill-rule="evenodd" d="M13.114 12.344 17.95 8.01l-6.172 2.018a2.14 2.14 0 0 1 1.337 2.317" clip-rule="evenodd"/><defs><linearGradient id="a" x1="0" x2="22" y1="8.452" y2="8.452" gradientUnits="userSpaceOnUse"><stop stop-color="#715126"/><stop offset="1" stop-color="#D0B672"/></linearGradient><linearGradient id="b" x1="9.35" x2="12.65" y1="12.021" y2="12.021" gradientUnits="userSpaceOnUse"><stop stop-color="#715126"/><stop offset="1" stop-color="#D0B672"/></linearGradient><linearGradient id="c" x1="11.777" x2="17.949" y1="10.176" y2="10.176" gradientUnits="userSpaceOnUse"><stop stop-color="#715126"/><stop offset="1" stop-color="#D0B672"/></linearGradient></defs></svg>