<svg width="54" height="50" viewBox="0 0 54 50" fill="none" xmlns="http://www.w3.org/2000/svg">
<path d="M26.9232 0C22.4904 6.41028e-06 18.7502 1.22569 16.146 3.76603C13.5417 6.30636 12.1796 10.0737 12.1796 14.7436C12.1796 16.4794 12.4427 18.1109 12.8807 19.6314C13.5847 22.0748 15.2023 24.0289 16.2061 25.6611C17.5497 27.846 18.0637 29.2911 19.2309 31.1498V35.1563C17.4881 36.3559 15.9651 36.8406 14.303 37.0593C12.4758 37.2997 10.4367 37.2648 8.03298 37.8405C5.86132 38.3607 3.84652 39.2724 2.32385 40.7452C2.18172 40.8551 2.06428 40.9937 1.97916 41.152C1.89404 41.3102 1.84313 41.4846 1.82973 41.6638C1.81634 41.843 1.84076 42.023 1.90141 42.1921C1.96206 42.3613 2.05758 42.5158 2.18179 42.6456C2.30599 42.7755 2.45611 42.8778 2.62239 42.9459C2.78868 43.014 2.96742 43.0464 3.14703 43.041C3.32664 43.0355 3.5031 42.9924 3.66497 42.9144C3.82685 42.8364 3.97052 42.7252 4.08667 42.5881C5.1551 41.5547 6.76844 40.7913 8.63394 40.3446C10.6907 39.8519 12.5765 39.8754 14.6436 39.6034C16.7106 39.3314 18.9471 38.707 21.2942 36.9191C21.4507 36.7988 21.5773 36.644 21.6641 36.4668C21.751 36.2896 21.7958 36.0948 21.795 35.8974V33.1731C23.2076 33.7779 24.8966 33.9744 26.9232 33.9744C28.9498 33.9744 30.6388 33.7779 32.0514 33.1731V35.8974C32.0506 36.0948 32.0954 36.2896 32.1823 36.4668C32.2691 36.644 32.3957 36.7988 32.5522 36.9191C34.8993 38.707 37.1358 39.3314 39.2028 39.6034C41.2699 39.8754 43.1557 39.8519 45.2125 40.3446C46.9891 40.7701 48.559 41.4737 49.6195 42.4279C50.6801 43.3821 51.2822 44.5256 51.2822 46.1538V47.4359H2.56423V46.1538C2.56663 45.984 2.53525 45.8153 2.4719 45.6576C2.40855 45.5 2.31449 45.3565 2.19521 45.2355C2.07592 45.1145 1.93377 45.0185 1.77703 44.9529C1.62029 44.8873 1.45208 44.8535 1.28218 44.8535C1.11228 44.8535 0.944066 44.8873 0.787326 44.9529C0.630586 45.0185 0.488441 45.1145 0.369154 45.2355C0.249866 45.3565 0.155814 45.5 0.0924628 45.6576C0.0291119 45.8153 -0.00227441 45.984 0.000128215 46.1538V48.718C0.000162211 49.058 0.135246 49.384 0.37567 49.6245C0.616094 49.8649 0.942169 50 1.28218 50H52.5642C52.9042 50 53.2303 49.8649 53.4707 49.6245C53.7112 49.384 53.8462 49.058 53.8463 48.718V46.1538C53.8463 43.8313 52.8468 41.8785 51.3423 40.5248C49.8377 39.1711 47.8789 38.3353 45.8134 37.8405C43.4097 37.2648 41.3706 37.2997 39.5434 37.0593C37.8813 36.8406 36.3583 36.3559 34.6155 35.1563V31.1498C35.7827 29.2911 36.2967 27.846 37.6403 25.6611C38.6441 24.0289 40.2617 22.0748 40.9657 19.6314C41.4037 18.1109 41.6668 16.4794 41.6668 14.7436C41.6668 10.0737 40.3047 6.30636 37.7004 3.76603C35.0962 1.22569 31.356 -6.41023e-06 26.9232 0ZM26.9232 2.5641C30.8866 2.5641 33.8701 3.63122 35.8976 5.60897C36.9633 6.64853 37.793 7.97419 38.3415 9.59535C36.8568 9.5439 35.8717 9.40894 35.2565 9.25481C34.4635 9.05609 34.2897 8.8872 33.9545 8.61378C33.6192 8.34037 33.0684 7.8293 32.1716 7.51202C31.2748 7.19474 30.0992 7.05128 28.2053 7.05128C28.1652 7.0494 28.1251 7.0494 28.0851 7.05128C27.752 7.08193 27.4441 7.24152 27.227 7.496C27.0099 7.75049 26.9009 8.07972 26.9232 8.41346C27.0114 9.65231 26.7151 9.96655 25.8615 10.4367C25.0079 10.9069 23.5171 11.2209 21.8551 11.5184C20.1931 11.8159 18.3499 12.1068 16.6868 12.8405C16.002 13.1427 15.3484 13.5548 14.7637 14.0625C14.8886 10.2466 16.0362 7.47471 17.9488 5.60897C19.9763 3.63122 22.9598 2.5641 26.9232 2.5641ZM29.3471 9.73558C30.0919 9.79769 31.0181 9.83254 31.3102 9.9359C31.7723 10.0994 31.8811 10.2293 32.3319 10.597C32.7827 10.9646 33.5099 11.4567 34.6355 11.7388C35.6222 11.986 36.9735 12.1456 38.9224 12.1795C39.0325 12.9837 39.1027 13.8254 39.1027 14.7436C39.1027 16.2206 38.881 17.5938 38.5017 18.9103C38.002 20.6449 36.5737 22.4702 35.4368 24.3189C33.9294 26.7702 33.4282 28.2356 32.3118 29.9679C31.1948 31.087 29.8295 31.4103 26.9232 31.4103C24.0169 31.4103 22.6516 31.087 21.5346 29.9679C21.528 29.9612 21.5213 29.9545 21.5145 29.9479C20.4091 28.2261 19.91 26.7587 18.4096 24.3189C17.2727 22.4702 15.8444 20.6449 15.3447 18.9103C15.2694 18.6489 15.2067 18.3952 15.1444 18.129C15.2338 17.9886 15.295 17.8321 15.3246 17.6683C15.7047 16.4036 16.4879 15.7517 17.7285 15.2043C18.9691 14.657 20.6228 14.3419 22.2958 14.0425C23.9688 13.743 25.6677 13.4712 27.1035 12.6803C28.1633 12.0965 29.0198 11.0563 29.3471 9.73558Z" fill="url(#paint0_linear_339_2327)"/>
<defs>
<linearGradient id="paint0_linear_339_2327" x1="0" y1="25" x2="53.8463" y2="25" gradientUnits="userSpaceOnUse">
<stop stop-color="#715126"/>
<stop offset="1" stop-color="#D0B672"/>
</linearGradient>
</defs>
</svg>
