<svg width="60" height="50" viewBox="0 0 60 50" fill="none" xmlns="http://www.w3.org/2000/svg">
<path d="M57.2732 4.96635H54.0642C53.2432 1.93682 51.6696 0 50.0006 0H28.6202C27.9098 0 27.2836 0.322237 26.7435 0.885301L21.3776 4.70511V2.76406C21.3776 2.50493 21.1676 2.29484 20.9084 2.29484H14.5815C14.3223 2.29484 14.1122 2.50493 14.1122 2.76406V4.70511H12.2605L11.7881 2.65848C11.7389 2.44558 11.5494 2.29472 11.3309 2.29472H8.76547C8.54694 2.29472 8.35737 2.44546 8.30834 2.65848L7.76956 4.9925L5.98018 7.86261C5.93373 7.9371 5.90921 8.02308 5.90921 8.11082V14.2827C5.59577 14.5551 5.29876 14.8421 5.0177 15.1416L2.51452 15.0139C2.32308 15.0051 2.14607 15.1111 2.06536 15.2843L0.0439601 19.619C-0.0367458 19.7922 -0.00448694 19.997 0.125604 20.1368L1.83263 21.9724C1.77597 22.4476 1.74606 22.9286 1.74606 23.4135C1.74606 27.1885 3.48499 30.5645 6.20353 32.7841L6.25081 35.2971C6.25444 35.4881 6.37339 35.6578 6.55181 35.7263L11.1852 37.4715C11.3128 37.4715 11.4377 37.4195 11.5281 37.3226L13.2397 35.4922C13.4386 35.5019 13.6387 35.5071 13.84 35.5071C14.9812 35.5071 16.086 35.348 17.1336 35.0511V39.7149C17.1336 42.7171 18.451 45.3904 20.8433 47.2426C23.1734 49.0465 26.4672 50 30.3686 50C34.5855 50 38.2464 48.8233 40.9554 46.597C43.9861 44.1064 45.588 40.5175 45.588 36.2184C45.588 29.3474 41.4781 26.8315 38.7585 25.1669C36.58 23.8332 36.4761 23.5786 36.4761 22.9744V20.7244H50.0008C51.6698 20.7244 53.2435 18.7877 54.0644 15.7582H57.2734C58.7325 15.7582 59.1218 12.3663 59.1218 10.3621C59.1218 8.35799 58.7324 4.96635 57.2732 4.96635ZM32.9816 0.938441H48.0745C46.5397 2.59702 45.7156 6.2201 45.6509 9.89316H29.5706C29.6595 4.91391 31.1554 0.938441 32.9816 0.938441ZM28.6202 0.938441H31.0556C30.2595 1.79864 29.6545 3.18706 29.2476 4.83731H25.8559C26.4773 2.47725 27.4846 0.938441 28.6202 0.938441ZM36.921 28.1685C39.4518 29.7177 42.0687 31.3196 42.0687 36.2186C42.0687 43.7851 36.0248 46.481 30.3685 46.481C24.6038 46.481 20.9414 44.0814 20.6705 40.1843H22.3194C22.603 43.1086 25.5651 44.8387 30.3685 44.8387C31.62 44.8387 34.0447 44.6708 36.2216 43.5472C38.9724 42.1272 40.4264 39.5929 40.4264 36.2185C40.4264 32.2397 38.501 31.0611 36.0633 29.5689C33.9475 28.2736 31.3144 26.6617 31.3144 22.9744V20.7244H32.9567V22.9743C32.9567 25.7415 34.8824 26.9205 36.921 28.1685ZM22.2949 35.7527H21.591V32.6889C21.834 32.4856 22.0687 32.2729 22.2949 32.0514V35.7527ZM35.5736 30.3695C37.9307 31.8124 39.4879 32.7658 39.4879 36.2186C39.4879 39.2618 38.2441 41.4469 35.791 42.7132C33.7904 43.7461 31.5349 43.9003 30.3684 43.9003C25.9006 43.9003 23.2332 42.3356 23.2332 39.715V31.3768L25.4513 31.4125C25.4538 31.4127 25.4563 31.4127 25.4589 31.4127C25.647 31.4127 25.8172 31.3003 25.8908 31.1267L27.7597 26.7239C27.8344 26.548 27.7949 26.3445 27.66 26.2092L25.89 24.4346C25.9183 24.0979 25.9335 23.7573 25.9335 23.4133C25.9335 20.0896 24.6 16.9825 22.2373 14.7101H24.6372C25.2434 18.0864 26.5869 20.7244 28.6201 20.7244H30.3759V22.9744C30.376 27.1877 33.5037 29.1023 35.5736 30.3695ZM23.6733 30.4455C24.6889 29.0293 25.4065 27.3856 25.7338 25.6069L26.7724 26.6483L25.1505 30.4693L23.6733 30.4455ZM16.1846 12.8333H24.3825C24.4126 13.1497 24.4485 13.4629 24.4902 13.7717H16.1846C16.2149 13.6199 16.2314 13.4631 16.2314 13.3025C16.2314 13.1419 16.2148 12.9852 16.1846 12.8333ZM28.6202 19.7862C26.737 19.7862 25.2048 15.5588 25.2048 10.3624C25.2048 10.0122 25.2124 9.66699 25.226 9.32658H28.6482C28.6347 9.6711 28.6278 10.0169 28.6278 10.3624C28.6278 14.1925 29.4554 18.057 31.0556 19.7862H28.6202ZM29.0431 5.77575C28.8833 6.60779 28.7693 7.48817 28.7016 8.38813H25.2809C25.3529 7.45943 25.4748 6.58152 25.6382 5.77575H29.0431ZM15.0507 3.23328H20.4392V4.70511H15.0507V3.23328ZM9.13874 3.23328H10.9577L11.2974 4.70522H8.79902L9.13874 3.23328ZM8.46951 5.64355H21.3321V7.6416H7.22385L8.46951 5.64355ZM1.02803 19.7293L2.78233 15.9673L4.25193 16.0424C3.1692 17.4488 2.41059 19.0735 2.02923 20.8059L1.02803 19.7293ZM11.0583 36.4509L7.18303 34.9635L7.15535 33.4867C8.60324 34.4507 10.2696 35.1112 12.0632 35.3763L11.0583 36.4509ZM13.8397 34.5688C7.68861 34.5688 2.68438 29.5645 2.68438 23.4134C2.68438 20.1042 4.14061 16.9862 6.67967 14.8588C6.78607 14.7695 6.84754 14.6379 6.84754 14.4991V8.58016H21.8014C22.0605 8.58016 22.2706 8.37007 22.2706 8.11094V5.40905L25.4619 3.01814C24.6712 4.9884 24.2664 7.68372 24.2664 10.3623C24.2664 10.8743 24.2814 11.3868 24.3109 11.8947H15.7688C15.3334 11.2996 14.6319 10.9108 13.8397 10.9108C12.521 10.9108 11.4482 11.9837 11.4482 13.3024C11.4482 14.0946 11.837 14.7959 12.4321 15.2314V20.7005C11.4595 21.074 10.7396 22.3019 10.7857 23.5512L8.59327 24.8171C7.91865 24.5193 7.11663 24.5333 6.43063 24.9294C5.87742 25.2489 5.48175 25.7645 5.31635 26.3816C5.15107 26.9987 5.23588 27.6432 5.5553 28.1964C5.87473 28.7496 6.3904 29.1454 7.00742 29.3107C7.21341 29.3659 7.42257 29.3931 7.63031 29.3931C8.04475 29.3931 8.4538 29.2844 8.82225 29.0717C9.50837 28.6757 9.9214 27.9882 10.0009 27.255L12.1948 25.9885C12.6701 26.2932 13.2344 26.4708 13.8399 26.4708C14.4453 26.4708 15.0096 26.2932 15.4849 25.9885L17.6775 27.2543C17.6908 27.3765 17.7107 27.4985 17.7432 27.6196C17.9086 28.2366 18.3043 28.7523 18.8575 29.0717C19.226 29.2845 19.6348 29.3931 20.0494 29.3931C20.2572 29.3931 20.4662 29.3659 20.6723 29.3107C21.2893 29.1454 21.805 28.7496 22.1244 28.1964C22.7837 27.0544 22.3909 25.5888 21.249 24.9294C20.5627 24.5331 19.7608 24.5191 19.0861 24.8169L16.8939 23.5512C16.9394 22.222 16.3305 21.1738 15.2475 20.7005V15.2314C15.4471 15.0853 15.6229 14.9096 15.7689 14.7101H20.817C23.474 16.8414 24.9952 20.0038 24.9952 23.4133C24.9951 29.5645 19.9909 34.5688 13.8397 34.5688ZM13.8397 21.2944C15.0082 21.2944 15.9587 22.245 15.9587 23.4134C15.9587 24.5817 15.0081 25.5324 13.8397 25.5324C12.6714 25.5324 11.7207 24.5817 11.7207 23.4134C11.7207 22.245 12.6714 21.2944 13.8397 21.2944ZM13.3705 20.3921V15.6473C13.5223 15.6777 13.6792 15.6941 13.8397 15.6941C14.0003 15.6941 14.1572 15.6777 14.309 15.6473V20.3921C14.156 20.3684 13.9993 20.3561 13.8397 20.3561C13.6802 20.3561 13.5236 20.3684 13.3705 20.3921ZM13.8397 14.7556C13.0384 14.7556 12.3867 14.1037 12.3867 13.3025C12.3867 12.5012 13.0385 11.8493 13.8397 11.8493C14.6409 11.8493 15.2928 12.5012 15.2928 13.3025C15.2929 14.1037 14.6411 14.7556 13.8397 14.7556ZM11.4596 25.3295L9.89172 26.2347C9.8421 26.0881 9.77793 25.944 9.6977 25.8049C9.61746 25.6659 9.52479 25.5384 9.42262 25.422L10.9895 24.5173C11.1043 24.8131 11.2636 25.0865 11.4596 25.3295ZM6.89986 25.7422C7.59395 25.3419 8.48429 25.5804 8.88477 26.2741C9.28537 26.968 9.04677 27.8585 8.35291 28.2591C8.01672 28.4531 7.62515 28.5048 7.25025 28.4043C6.87534 28.3038 6.56202 28.0634 6.36799 27.7273C6.17397 27.3912 6.12236 26.9995 6.22289 26.6247C6.32342 26.2497 6.56389 25.9364 6.89986 25.7422ZM16.22 25.3295C16.416 25.0865 16.5753 24.813 16.6901 24.5173L18.257 25.422C18.1548 25.5383 18.0623 25.6658 17.982 25.8049C17.9024 25.943 17.8373 26.0867 17.7871 26.2341L16.22 25.3295ZM18.7948 26.2741C19.0637 25.8084 19.553 25.548 20.0556 25.548C20.302 25.548 20.5516 25.6105 20.7797 25.7422C21.4736 26.143 21.7122 27.0334 21.3117 27.7273C21.1176 28.0634 20.8043 28.3038 20.4294 28.4043C20.0548 28.5048 19.663 28.4532 19.3268 28.2591C18.9907 28.0651 18.7502 27.7517 18.6498 27.3768C18.5491 27.002 18.6007 26.6103 18.7948 26.2741ZM20.6526 33.4004V35.7527H19.7141V33.9814C20.0361 33.8016 20.3494 33.6079 20.6526 33.4004ZM18.7757 34.4533V35.7528H18.0719V34.7426C18.31 34.6532 18.5448 34.5569 18.7757 34.4533ZM18.0719 36.6912H22.2949V39.2458H18.0719V36.6912ZM38.2683 25.9674C40.8094 27.5228 44.6493 29.8734 44.6493 36.2186C44.6493 40.2275 43.1659 43.5657 40.3594 45.8721C37.8202 47.9588 34.3654 49.0617 30.3685 49.0617C26.6769 49.0617 23.5817 48.1761 21.4176 46.5007C19.3856 44.9275 18.2138 42.6983 18.0843 40.1843H19.7297C19.8534 42.2003 20.7773 43.9279 22.4231 45.2021C24.2967 46.6526 27.0442 47.4193 30.3685 47.4193C33.9807 47.4193 37.0749 46.4454 39.3168 44.6031C41.731 42.6192 43.0072 39.7197 43.0072 36.2184C43.0072 30.7936 39.9042 28.8941 37.411 27.3679C35.4467 26.1654 33.8953 25.2155 33.8953 22.9743V20.7244H35.5375V22.9744C35.5374 24.1932 36.2045 24.7041 38.2683 25.9674ZM32.9816 19.7862C31.1554 19.7862 29.6595 15.8108 29.5706 10.8316H45.651C45.7158 14.5047 46.5398 18.1276 48.0745 19.7862H32.9816ZM50.0006 19.7862C48.1173 19.7862 46.5852 15.5588 46.5852 10.3624C46.5852 5.166 48.1173 0.938441 50.0006 0.938441C51.187 0.938441 52.4522 2.65497 53.1439 5.15919C52.1401 5.90209 51.8527 8.64233 51.8527 10.3624C51.8527 12.0824 52.1402 14.8227 53.1439 15.5656C52.4522 18.0697 51.1871 19.7862 50.0006 19.7862ZM56.1539 14.82H53.7136C53.3879 14.6751 52.791 13.0366 52.791 10.3624C52.791 7.68817 53.3879 6.04966 53.7136 5.90479H56.1539C55.6 7.05602 55.4247 9.01994 55.4247 10.3624C55.4247 11.7048 55.6 13.6687 56.1539 14.82ZM57.2732 14.8138C56.945 14.6333 56.3632 13.0027 56.3632 10.3624C56.3632 7.72208 56.9449 6.09142 57.2732 5.911C57.6016 6.09142 58.1833 7.72208 58.1833 10.3624C58.1833 13.0027 57.6016 14.6333 57.2732 14.8138Z" fill="url(#paint0_linear_339_2360)"/>
<path d="M5.5823 22.8314C5.60224 22.8339 5.62207 22.835 5.64178 22.835C5.87463 22.835 6.07674 22.6618 6.10666 22.4247C6.40602 20.0578 7.8165 17.9168 9.87966 16.6975C10.1028 16.5657 10.1767 16.2779 10.0448 16.0548C9.91297 15.8317 9.62534 15.7577 9.40211 15.8896C7.09108 17.2555 5.5111 19.6545 5.17561 22.3069C5.14323 22.5639 5.32517 22.7988 5.5823 22.8314Z" fill="url(#paint1_linear_339_2360)"/>
<path d="M16.8499 30.6046C14.6505 31.5287 12.0911 31.3777 10.0035 30.2007C9.77777 30.0734 9.49155 30.1534 9.36427 30.379C9.23699 30.6048 9.31688 30.8909 9.54257 31.0182C10.8655 31.7641 12.358 32.1421 13.8511 32.1421C14.9969 32.1421 16.1431 31.9195 17.2133 31.4698C17.4522 31.3695 17.5645 31.0944 17.4641 30.8555C17.3638 30.6166 17.0888 30.5039 16.8499 30.6046Z" fill="url(#paint2_linear_339_2360)"/>
<path d="M19.1299 16.4632C18.9234 16.3065 18.6291 16.3468 18.4725 16.5532C18.3158 16.7596 18.356 17.0539 18.5625 17.2106C20.4625 18.6533 21.6115 20.9453 21.6359 23.3417C21.6385 23.5992 21.8481 23.8061 22.105 23.8061C22.1066 23.8061 22.1083 23.8061 22.1099 23.8061C22.369 23.8036 22.577 23.5912 22.5743 23.3321C22.5468 20.6478 21.2591 18.0799 19.1299 16.4632Z" fill="url(#paint3_linear_339_2360)"/>
<defs>
<linearGradient id="paint0_linear_339_2360" x1="0" y1="25" x2="59.1218" y2="25" gradientUnits="userSpaceOnUse">
<stop stop-color="#715126"/>
<stop offset="1" stop-color="#D0B672"/>
</linearGradient>
<linearGradient id="paint1_linear_339_2360" x1="5.17187" y1="19.3296" x2="10.1102" y2="19.3296" gradientUnits="userSpaceOnUse">
<stop stop-color="#715126"/>
<stop offset="1" stop-color="#D0B672"/>
</linearGradient>
<linearGradient id="paint2_linear_339_2360" x1="9.30371" y1="31.1411" x2="17.5008" y2="31.1411" gradientUnits="userSpaceOnUse">
<stop stop-color="#715126"/>
<stop offset="1" stop-color="#D0B672"/>
</linearGradient>
<linearGradient id="paint3_linear_339_2360" x1="18.377" y1="20.0869" x2="22.5743" y2="20.0869" gradientUnits="userSpaceOnUse">
<stop stop-color="#715126"/>
<stop offset="1" stop-color="#D0B672"/>
</linearGradient>
</defs>
</svg>
