<svg width="35" height="52" viewBox="0 0 35 52" fill="none" xmlns="http://www.w3.org/2000/svg">
<path d="M29.0634 43.7302L29.0711 43.7224L29.0783 43.7142C29.3735 43.3724 29.6625 42.7797 29.9442 42.0368C30.2298 41.2834 30.5202 40.3408 30.8068 39.2705C31.3801 37.1291 31.943 34.4572 32.423 31.725C32.903 28.9924 33.3009 26.1941 33.5435 23.7989C33.785 21.4138 33.8757 19.3998 33.7293 18.2516C33.5177 16.5817 32.5199 15.4123 31.007 15.0223V13.2169L31.8799 13.0086C31.8801 13.0086 31.8803 13.0085 31.8805 13.0085C33.2146 12.6954 34.0359 11.3557 33.7238 10.0243L33.7236 10.0236L32.0643 3.01626C32.0642 3.01605 32.0642 3.01585 32.0641 3.01564C31.7509 1.68132 30.4054 0.860154 29.0796 1.17248L29.0794 1.17254L25.7834 1.9517C25.7833 1.95171 25.7832 1.95173 25.7831 1.95175C24.4488 2.26472 23.6273 3.60453 23.9395 4.93605L23.9397 4.93665L25.599 11.9497C25.8673 13.093 26.8886 13.8575 28.0103 13.8575C28.1987 13.8575 28.39 13.8386 28.583 13.7936L28.5839 13.7934L29.566 13.5611V14.8942C27.3943 15.039 24.9554 16.625 24.2441 19.3459L23.9752 20.3712C22.8273 24.721 20.9291 31.9302 20.6602 38.3268C13.6397 36.5961 6.07481 36.3902 4.20592 36.4625C3.4659 36.4886 2.77782 36.8652 2.20036 37.5028L2.19999 37.5033C1.26542 38.539 0.688207 40.2111 0.7835 41.5932C0.844669 42.4832 1.28651 43.4749 1.89312 44.3977C2.41816 45.1964 3.08134 45.9658 3.77316 46.6032C3.22939 46.9543 2.86277 47.5591 2.86277 48.2611V49.7187C2.86277 50.8144 3.7533 51.7062 4.84468 51.7062H26.519C27.6154 51.7062 28.5065 50.8151 28.5065 49.7187V48.2611C28.5065 47.5482 28.1237 46.924 27.5613 46.5748L27.762 45.3444C28.3726 44.9748 28.827 44.4058 29.063 43.7306C29.0631 43.7305 29.0633 43.7303 29.0634 43.7302ZM28.2556 12.3908L28.2536 12.3913C27.6998 12.5254 27.1372 12.1794 27.0014 11.6208C27.0013 11.6205 27.0013 11.6202 27.0012 11.6199L25.3422 4.6141C25.3422 4.61403 25.3422 4.61395 25.3422 4.61388C25.2117 4.05656 25.5559 3.49485 26.1123 3.35967C26.1126 3.35961 26.1128 3.35955 26.1131 3.35949L29.4041 2.58148C29.4047 2.58135 29.4053 2.58121 29.406 2.58107C29.4843 2.56381 29.5683 2.55499 29.6474 2.55499C30.1167 2.55499 30.543 2.87711 30.6561 3.35557L30.6561 3.35564L32.3155 10.3686C32.3155 10.3688 32.3156 10.369 32.3156 10.3692C32.4461 10.9273 32.1009 11.4872 31.5468 11.6171L31.5466 11.6172L28.2556 12.3908ZM25.3738 20.7431L25.3741 20.7421L25.6432 19.7105L25.6432 19.7104C26.2328 17.4468 28.3896 16.2146 30.0935 16.3237L30.1127 16.0243L30.0935 16.3237C30.7358 16.3648 31.2414 16.5807 31.6056 16.9287C31.9703 17.2771 32.216 17.7796 32.2987 18.4334L32.2987 18.4337C32.4132 19.3336 32.358 20.9519 32.173 22.9704C31.9889 24.9797 31.6791 27.3595 31.2951 29.7674C30.5944 34.1618 29.6524 38.6145 28.7879 41.0802C28.2406 40.1681 27.2487 39.5515 26.1041 39.5515C25.769 39.5515 25.4508 39.6111 25.1548 39.711C24.1698 39.3356 23.1407 39.002 22.0886 38.7061C22.3016 32.4036 24.2092 25.1463 25.3738 20.7431ZM4.26358 37.903L4.26539 37.9029C4.26397 37.903 4.30589 37.9021 4.40006 37.9016C4.48942 37.9011 4.61893 37.901 4.78523 37.902C5.11781 37.904 5.59722 37.9106 6.19665 37.9284C7.39563 37.964 9.07394 38.0443 11.0174 38.2216C14.7764 38.5647 19.5116 39.2694 23.6868 40.7083C23.3875 41.0718 23.1707 41.5029 23.0593 41.9734H21.2154C20.2816 41.9734 19.5194 42.7357 19.5194 43.6694V44.1628C19.5194 44.5583 19.8443 44.8833 20.2398 44.8833C20.63 44.8833 20.9547 44.5749 20.9547 44.174V43.675C20.9547 43.5324 21.0671 43.42 21.2098 43.42H23.0594C23.3875 44.8045 24.623 45.842 26.1097 45.842C26.1527 45.842 26.1948 45.8407 26.2362 45.8384L26.1635 46.2791H5.66514C4.8953 45.7525 4.06891 44.9403 3.41593 44.0641C2.73554 43.1512 2.27874 42.2161 2.22865 41.496C2.16138 40.5009 2.60447 39.2187 3.27881 38.4716C3.52968 38.1941 3.87909 37.9199 4.26358 37.903ZM26.1097 44.401C25.4307 44.401 24.8427 43.9997 24.5697 43.42H26.1097C26.5053 43.42 26.8302 43.0951 26.8302 42.6995C26.8302 42.304 26.5053 41.979 26.1097 41.979H24.5697C24.8427 41.3993 25.4307 40.998 26.1097 40.998C27.0485 40.998 27.8112 41.7607 27.8112 42.6995C27.8112 43.6383 27.0485 44.401 26.1097 44.401ZM27.0768 49.7187C27.0768 50.0184 26.8299 50.2653 26.5302 50.2653H4.8559C4.55884 50.2653 4.31494 50.021 4.31494 49.7187V48.2611C4.31494 47.9588 4.55884 47.7145 4.8559 47.7145H26.5302C26.8299 47.7145 27.0768 47.9614 27.0768 48.2611V49.7187Z" fill="url(#paint0_linear_339_2190)" stroke="url(#paint1_linear_339_2190)" stroke-width="0.6"/>
<path d="M26.9111 37.3034C27.8569 37.3034 28.6183 36.5348 28.6183 35.5962V31.9184C28.6183 30.9727 27.8497 30.2112 26.9111 30.2112C25.9717 30.2112 25.2039 30.9791 25.2039 31.9184V35.5962C25.2039 36.5356 25.9717 37.3034 26.9111 37.3034ZM26.6449 31.9128C26.6449 31.7665 26.7665 31.6466 26.9111 31.6466C27.0538 31.6466 27.1774 31.7702 27.1774 31.9128V35.5906C27.1774 35.737 27.0557 35.8569 26.9111 35.8569C26.7684 35.8569 26.6449 35.7333 26.6449 35.5906V31.9128Z" fill="url(#paint2_linear_339_2190)" stroke="url(#paint3_linear_339_2190)" stroke-width="0.6"/>
<defs>
<linearGradient id="paint0_linear_339_2190" x1="1.07324" y1="26.4063" x2="33.4999" y2="26.4063" gradientUnits="userSpaceOnUse">
<stop stop-color="#715126"/>
<stop offset="1" stop-color="#D0B672"/>
</linearGradient>
<linearGradient id="paint1_linear_339_2190" x1="1.07324" y1="26.4063" x2="33.4999" y2="26.4063" gradientUnits="userSpaceOnUse">
<stop stop-color="#715126"/>
<stop offset="1" stop-color="#D0B672"/>
</linearGradient>
<linearGradient id="paint2_linear_339_2190" x1="25.5039" y1="33.7573" x2="28.3183" y2="33.7573" gradientUnits="userSpaceOnUse">
<stop stop-color="#715126"/>
<stop offset="1" stop-color="#D0B672"/>
</linearGradient>
<linearGradient id="paint3_linear_339_2190" x1="25.5039" y1="33.7573" x2="28.3183" y2="33.7573" gradientUnits="userSpaceOnUse">
<stop stop-color="#715126"/>
<stop offset="1" stop-color="#D0B672"/>
</linearGradient>
</defs>
</svg>
