<svg width="50" height="50" viewBox="0 0 50 50" fill="none" xmlns="http://www.w3.org/2000/svg">
<path d="M16.9218 16.925C12.4827 21.3751 12.4827 28.6171 16.924 33.0695C22.258 38.5899 32.0225 36.9406 35.251 29.9989C35.9748 28.4264 33.6587 27.31 32.88 28.8562C30.3929 34.1902 22.8831 35.4535 18.7843 31.2096C10.9041 22.6079 22.605 10.9113 31.2024 18.7848C32.6697 20.2587 33.5711 22.2085 33.7465 24.2745C33.9154 25.9962 36.4859 25.7791 36.3696 24.0552C35.648 14.4754 23.6838 10.0886 16.922 16.9273L16.9218 16.925Z" fill="url(#paint0_linear_339_2168)"/>
<path d="M48.5178 25.3472L44.5393 23.0509C44.3287 20.9169 43.7782 18.8574 42.8965 16.9079L45.1928 12.9337C45.8617 11.7757 45.6687 10.3084 44.7235 9.36531L40.6308 5.2727C39.6855 4.3274 38.2183 4.13443 37.0624 4.80334L33.0883 7.09964C31.1406 6.21797 29.079 5.66744 26.9452 5.45689L24.6489 1.47837C23.9822 0.320337 22.6136 -0.245513 21.324 0.101026L15.7334 1.59903C14.4416 1.94556 13.5424 3.11893 13.5424 4.45461V9.04289C11.8119 10.2864 10.2832 11.813 9.04185 13.5434H4.45357C3.11789 13.5434 1.94447 14.4449 1.59799 15.7344L0.0999842 21.3272C-0.244354 22.6168 0.321501 23.9854 1.47733 24.6522L5.45585 26.9485C5.6664 29.0825 6.21692 31.142 7.0986 33.0915L4.8023 37.0656C4.13336 38.2237 4.32636 39.691 5.27165 40.6341L9.36427 44.7267C10.3096 45.672 11.7768 45.865 12.9327 45.196L16.9068 42.8997C18.8545 43.7814 20.9161 44.3319 23.0499 44.5425L25.3462 48.521C26.0129 49.6856 27.4057 50.2449 28.6712 49.8984L34.2639 48.4004C35.5535 48.0538 36.4549 46.8805 36.4549 45.5448V40.9565C38.1854 39.7129 39.7097 38.1864 40.9554 36.456H45.5437C46.8794 36.456 48.0528 35.5567 48.3993 34.2649L49.8973 28.6722C50.2416 27.3826 49.6758 26.014 48.52 25.3472H48.5178ZM45.8552 33.5829C45.8179 33.7254 45.6885 33.8241 45.5415 33.8241H40.2646C39.8238 33.8241 39.4137 34.0435 39.168 34.4119C37.9178 36.2938 36.2861 37.9233 34.4065 39.1735C34.0402 39.4169 33.8187 39.8293 33.8187 40.2679V45.5448C33.8187 45.6918 33.72 45.8212 33.5774 45.8585L27.9868 47.3565C27.8443 47.3959 27.6951 47.3323 27.6228 47.2051L24.9821 42.6279C24.7606 42.2462 24.3636 42.0006 23.925 41.9721C21.6506 41.8295 19.4639 41.2461 17.4288 40.235C17.034 40.0398 16.5668 40.0529 16.1852 40.2745L11.6123 42.9151C11.4851 42.9875 11.325 42.9677 11.2219 42.8647L7.12713 38.7699C7.02405 38.6668 7.00211 38.5067 7.07668 38.3795L9.71733 33.8066C9.93885 33.4249 9.95201 32.9578 9.75681 32.563C8.74572 30.5277 8.16235 28.3432 8.01974 26.0668C7.99342 25.626 7.74558 25.229 7.36394 25.0097L2.78666 22.369C2.65946 22.2966 2.59804 22.1453 2.63533 22.0049L4.13333 16.4144C4.17062 16.2718 4.30002 16.1731 4.44697 16.1731H9.72389C10.1647 16.1731 10.5749 15.9538 10.8205 15.5853C12.0685 13.7057 13.7024 12.0718 15.582 10.8238C15.9483 10.5803 16.1698 10.168 16.1698 9.72717V4.45024C16.1698 4.3033 16.2685 4.17609 16.4111 4.13661L22.0017 2.63861C22.1442 2.59913 22.2934 2.66273 22.3657 2.78994L25.0064 7.36722C25.2279 7.74884 25.6249 7.99449 26.0635 8.02301C28.3401 8.16558 30.5246 8.74899 32.5575 9.76009C32.9523 9.95529 33.4172 9.94213 33.801 9.72061L38.3739 7.07996C38.5011 7.00758 38.6613 7.02732 38.7643 7.13041L42.8591 11.2252C42.9622 11.3283 42.9842 11.4884 42.9096 11.6156L40.2689 16.1885C40.0474 16.5701 40.0342 17.0373 40.2294 17.432C41.2405 19.4674 41.8239 21.6518 41.9665 23.926C41.9928 24.3669 42.2407 24.7638 42.6223 24.9831L47.1996 27.6238C47.3268 27.6962 47.3882 27.8475 47.3509 27.9879L45.8529 33.5784L45.8552 33.5829Z" fill="url(#paint1_linear_339_2168)"/>
<defs>
<linearGradient id="paint0_linear_339_2168" x1="13.5928" y1="24.9902" x2="36.3735" y2="24.9902" gradientUnits="userSpaceOnUse">
<stop stop-color="#715126"/>
<stop offset="1" stop-color="#D0B672"/>
</linearGradient>
<linearGradient id="paint1_linear_339_2168" x1="0" y1="25" x2="49.9973" y2="25" gradientUnits="userSpaceOnUse">
<stop stop-color="#715126"/>
<stop offset="1" stop-color="#D0B672"/>
</linearGradient>
</defs>
</svg>
