<svg width="54" height="51" viewBox="0 0 54 51" fill="none" xmlns="http://www.w3.org/2000/svg">
<path d="M42.8023 8.44629C41.5647 8.44629 40.5576 9.45338 40.5576 10.691C40.5576 11.9286 41.5647 12.9351 42.8023 12.9351C44.0399 12.9351 45.047 11.9286 45.047 10.691C45.047 9.45338 44.0399 8.44629 42.8023 8.44629ZM42.8023 11.7714C42.2068 11.7714 41.7219 11.2871 41.7219 10.6916C41.7219 10.0961 42.2068 9.61114 42.8023 9.61114C43.3978 9.61114 43.8828 10.0961 43.8828 10.6916C43.8828 11.2871 43.3978 11.7714 42.8023 11.7714Z" fill="url(#paint0_linear_339_2345)"/>
<path d="M53.5514 2.46656C53.5514 1.13638 52.4698 0.0541992 51.1396 0.0541992H34.447C33.1168 0.0541992 32.0346 1.1358 32.0346 2.46656V18.0439C32.0346 18.3658 32.2954 18.626 32.6167 18.626H35.3417C35.5495 18.626 35.7422 18.5154 35.8458 18.3349L36.6853 16.8808C37.0596 16.2328 37.7564 15.83 38.505 15.83H39.5144L27.6331 35.7349C27.3566 35.7023 27.0766 35.6813 26.7913 35.6813C26.5061 35.6813 26.2261 35.7023 25.9496 35.7349L14.0682 15.83H15.0776C15.8263 15.83 16.5231 16.2323 16.8974 16.8808L17.7368 18.3349C17.841 18.5154 18.0331 18.626 18.241 18.626H20.9659C21.2873 18.626 21.5481 18.3658 21.5481 18.0439V2.46656C21.5481 1.13638 20.4659 0.0541992 19.1357 0.0541992H2.44303C1.11285 0.0541992 0.03125 1.1358 0.03125 2.46656V18.0439C0.03125 18.3658 0.292046 18.626 0.613383 18.626H3.33835C3.54617 18.626 3.73886 18.5154 3.84248 18.3349L4.68133 16.8808C5.05622 16.2328 5.75304 15.83 6.50166 15.83H6.84104L20.3605 39.6783C19.8808 40.6411 19.6043 41.7215 19.6043 42.8678C19.6043 46.8303 22.8282 50.0542 26.7907 50.0542C30.7533 50.0542 33.9772 46.8303 33.9772 42.8678C33.9772 41.7215 33.7007 40.6405 33.221 39.6783L46.7405 15.83H47.0798C47.8285 15.83 48.5253 16.2323 48.8996 16.8808L49.739 18.3349C49.8432 18.5154 50.0353 18.626 50.2431 18.626H52.9681C53.2895 18.626 53.5502 18.3658 53.5502 18.0439V2.46656H53.5514ZM33.1989 3.99757H52.3871V5.53382H33.1989V3.99757ZM34.447 1.21905H51.1396C51.8277 1.21905 52.3871 1.77906 52.3871 2.46714V2.83389H33.1989V2.46714C33.1989 1.77906 33.7583 1.21905 34.447 1.21905ZM1.19552 3.99757H20.3838V5.53382H1.19552V3.99757ZM2.44303 1.21905H19.1357C19.8238 1.21905 20.3838 1.77906 20.3838 2.46714V2.83389H1.19552V2.46714C1.19552 1.77906 1.75495 1.21905 2.44303 1.21905ZM3.67307 16.2986L3.00188 17.4617H1.19552V6.69808H20.3838V17.4617H18.5768L17.9056 16.2986C17.3241 15.2915 16.2402 14.6657 15.0776 14.6657H6.50224C5.33914 14.6657 4.25579 15.291 3.67366 16.2986H3.67307ZM8.17937 15.83H12.7113L24.7411 35.9829C23.2543 36.4265 21.973 37.3404 21.0596 38.5501L8.17937 15.83ZM26.7907 48.8899C23.4697 48.8899 20.7686 46.1883 20.7686 42.8678C20.7686 39.5473 23.4703 36.845 26.7907 36.845C30.1112 36.845 32.8129 39.5467 32.8129 42.8678C32.8129 46.1888 30.1112 48.8899 26.7907 48.8899ZM32.5219 38.5501C31.6085 37.3404 30.3272 36.4265 28.8404 35.9829L40.8702 15.83H45.4021L32.5219 38.5501ZM50.5796 17.4617L49.9078 16.2986C49.3263 15.2915 48.2424 14.6657 47.0798 14.6657H38.5044C37.3413 14.6657 36.258 15.291 35.6764 16.2986L35.0052 17.4617H33.1983V6.69808H52.3866V17.4617H50.5796Z" fill="url(#paint1_linear_339_2345)"/>
<path d="M10.7808 8.44629C9.54322 8.44629 8.53613 9.45338 8.53613 10.691C8.53613 11.9286 9.54322 12.9351 10.7808 12.9351C12.0185 12.9351 13.0255 11.9286 13.0255 10.691C13.0255 9.45338 12.0185 8.44629 10.7808 8.44629ZM10.7808 11.7714C10.1853 11.7714 9.7004 11.2871 9.7004 10.6916C9.7004 10.0961 10.1853 9.61114 10.7808 9.61114C11.3764 9.61114 11.8613 10.0961 11.8613 10.6916C11.8613 11.2871 11.3764 11.7714 10.7808 11.7714Z" fill="url(#paint2_linear_339_2345)"/>
<path d="M26.7909 39.3188C24.8343 39.3188 23.2422 40.911 23.2422 42.8681C23.2422 44.8252 24.8343 46.4168 26.7909 46.4168C28.7474 46.4168 30.3396 44.8252 30.3396 42.8681C30.3396 40.911 28.7474 39.3188 26.7909 39.3188ZM26.7909 45.2519C25.4758 45.2519 24.4065 44.1826 24.4065 42.8675C24.4065 41.5525 25.4758 40.4825 26.7909 40.4825C28.1059 40.4825 29.1753 41.5525 29.1753 42.8675C29.1753 44.1826 28.1059 45.2519 26.7909 45.2519Z" fill="url(#paint3_linear_339_2345)"/>
<path d="M40.1006 19.7207L33.154 32.0695C32.9963 32.3495 33.0958 32.7046 33.3758 32.8618C33.4661 32.913 33.5638 32.9369 33.6605 32.9369C33.8642 32.9369 34.0616 32.8298 34.1687 32.64L41.1153 20.2912C41.273 20.0112 41.1735 19.6561 40.8935 19.4989C40.6135 19.34 40.2578 19.4401 40.1006 19.7207Z" fill="url(#paint4_linear_339_2345)"/>
<path d="M13.4822 19.7208C13.3244 19.4408 12.9693 19.3407 12.6893 19.499C12.4093 19.6568 12.3097 20.0113 12.4675 20.2913L19.4141 32.6401C19.5212 32.8299 19.7186 32.937 19.9223 32.937C20.0189 32.937 20.1167 32.9131 20.207 32.8619C20.487 32.7041 20.5865 32.3496 20.4288 32.0696L13.4822 19.7208Z" fill="url(#paint5_linear_339_2345)"/>
<defs>
<linearGradient id="paint0_linear_339_2345" x1="40.5576" y1="10.6907" x2="45.047" y2="10.6907" gradientUnits="userSpaceOnUse">
<stop stop-color="#715126"/>
<stop offset="1" stop-color="#D0B672"/>
</linearGradient>
<linearGradient id="paint1_linear_339_2345" x1="0.03125" y1="25.0542" x2="53.5514" y2="25.0542" gradientUnits="userSpaceOnUse">
<stop stop-color="#715126"/>
<stop offset="1" stop-color="#D0B672"/>
</linearGradient>
<linearGradient id="paint2_linear_339_2345" x1="8.53613" y1="10.6907" x2="13.0255" y2="10.6907" gradientUnits="userSpaceOnUse">
<stop stop-color="#715126"/>
<stop offset="1" stop-color="#D0B672"/>
</linearGradient>
<linearGradient id="paint3_linear_339_2345" x1="23.2422" y1="42.8678" x2="30.3396" y2="42.8678" gradientUnits="userSpaceOnUse">
<stop stop-color="#715126"/>
<stop offset="1" stop-color="#D0B672"/>
</linearGradient>
<linearGradient id="paint4_linear_339_2345" x1="33.0791" y1="26.1801" x2="41.1902" y2="26.1801" gradientUnits="userSpaceOnUse">
<stop stop-color="#715126"/>
<stop offset="1" stop-color="#D0B672"/>
</linearGradient>
<linearGradient id="paint5_linear_339_2345" x1="12.3926" y1="26.1804" x2="20.5037" y2="26.1804" gradientUnits="userSpaceOnUse">
<stop stop-color="#715126"/>
<stop offset="1" stop-color="#D0B672"/>
</linearGradient>
</defs>
</svg>
