<svg width="79" height="31" viewBox="0 0 79 31" fill="none" xmlns="http://www.w3.org/2000/svg">
<path d="M77.9973 15.3853L77.1535 13.6353C76.7434 12.7838 76.0051 12.2056 74.9621 11.9165C67.1105 9.73295 63.6181 9.48294 61.5321 9.33064C60.2079 9.23689 59.661 9.19392 58.9423 8.72126C53.0634 4.83066 46.9303 2.08457 40.1883 0.330666C38.0555 -0.224024 30.7391 0.00254562 24.6063 0.400979C18.7782 0.779889 10.9383 1.52988 8.02431 2.38928C7.84462 2.44397 7.70009 2.57287 7.62587 2.74084C7.55166 2.91272 7.55556 3.10412 7.6415 3.27209L8.23134 4.45179L2.10634 9.02209C1.3954 9.55334 0.961839 10.2994 0.856339 11.1783L0.0243092 18.0299C-0.0538158 18.6861 0.0555591 19.2955 0.364149 19.8815L2.01255 23.0338C2.55552 24.069 3.57505 24.7057 4.74695 24.733L6.77425 24.7799C7.62191 28.1705 10.6844 30.6901 14.3328 30.6901C17.8484 30.6901 20.8251 28.3503 21.7977 25.151H56.6847C57.6573 28.3541 60.6339 30.6901 64.1495 30.6901C67.4737 30.6901 70.3096 28.5963 71.4306 25.6628L75.0401 25.7878C75.0791 25.7878 75.1182 25.7917 75.1572 25.7917C75.9893 25.7917 76.747 25.4831 77.3525 24.901C77.9853 24.2917 78.3213 23.5026 78.3213 22.6198V16.7643C78.3213 16.2683 78.2197 15.8308 78.0049 15.3854L77.9973 15.3853ZM4.77026 23.4791C4.05542 23.4635 3.45386 23.0885 3.12186 22.4518L1.58666 19.5104L7.14136 19.8659C6.74683 20.7956 6.52808 21.819 6.52808 22.8932C6.52808 23.1042 6.54371 23.3112 6.55933 23.5221L4.77026 23.4791ZM14.3289 29.4361C10.7234 29.4361 7.78976 26.5025 7.78976 22.897C7.78976 19.2915 10.7234 16.3579 14.3289 16.3579C17.9344 16.3579 20.868 19.2915 20.868 22.897C20.868 23.3385 20.8211 23.772 20.7391 24.19C20.6766 24.2877 20.6297 24.401 20.6297 24.526C20.6297 24.5455 20.6414 24.565 20.6414 24.5846C19.8953 27.3737 17.3523 29.4401 14.3289 29.4401L14.3289 29.4361ZM22.0555 23.897C22.0984 23.5689 22.1258 23.2369 22.1258 22.897C22.1258 22.0377 21.9812 21.2095 21.7195 20.4361L56.3795 22.1002C56.3522 22.362 56.3405 22.6276 56.3405 22.8971C56.3405 23.237 56.3678 23.569 56.4108 23.8971H22.0518L22.0555 23.897ZM64.1415 29.4361C60.536 29.4361 57.6024 26.5025 57.6024 22.897C57.6024 19.2915 60.536 16.3579 64.1415 16.3579C67.747 16.3579 70.6806 19.2915 70.6806 22.897C70.6806 26.5025 67.747 29.4361 64.1415 29.4361ZM75.0795 24.5299L71.7904 24.4167C71.888 23.9245 71.9427 23.4128 71.9427 22.8933C71.9427 18.5925 68.4427 15.0925 64.1419 15.0925C60.5481 15.0925 57.5247 17.5378 56.6224 20.8464L21.1614 19.1433C19.8333 16.7331 17.2669 15.0925 14.3255 15.0925C11.5911 15.0925 9.1849 16.5105 7.7903 18.6472L1.2669 18.2292C1.27081 18.2136 1.263 18.1979 1.2669 18.1784L2.09893 11.3268C2.16534 10.7799 2.41143 10.3542 2.85284 10.026L9.39974 5.13931C9.64193 4.95572 9.72396 4.62759 9.58724 4.35415L9.11068 3.40103C15.2865 1.98693 36.4737 0.658834 39.8687 1.54163C46.4742 3.26433 52.4857 5.95183 58.2477 9.76433C59.236 10.4206 60.0211 10.4753 61.4391 10.5768C63.4782 10.7253 66.8961 10.9675 74.6231 13.1198C75.3106 13.3112 75.7676 13.655 76.0176 14.1745L76.1856 14.5222C76.0684 14.3386 75.9356 14.1589 75.7949 13.9714C75.6973 13.8464 75.5567 13.7605 75.4004 13.7331L70.7598 12.9519C70.5606 12.9206 70.3614 12.9831 70.2168 13.1238C70.0723 13.2644 70.0059 13.4636 70.0332 13.6628C70.4551 16.6198 73.0644 16.7566 75.166 16.862C75.5606 16.8816 75.9356 16.9011 76.2949 16.9362C76.3145 16.9401 76.334 16.9401 76.3574 16.9401C76.5449 16.9401 76.7207 16.8581 76.8418 16.7136C76.9629 16.5651 76.9981 16.3737 76.9629 16.1901C77.0215 16.3698 77.0606 16.5534 77.0606 16.7605V19.4246C76.9824 19.3308 76.8809 19.2527 76.7598 19.2136L75.1504 18.7175C74.8301 18.6199 74.4902 18.7878 74.3731 19.1003L73.3067 21.9948C73.2402 22.1784 73.2598 22.3855 73.3652 22.5495C73.4707 22.7136 73.6465 22.823 73.8418 22.8386L76.5059 23.0651C76.5254 23.0691 76.5411 23.0691 76.5606 23.0691C76.7168 23.0691 76.8692 23.0105 76.9864 22.905C77.0098 22.8855 77.0215 22.8542 77.0411 22.8308C76.9942 23.28 76.8145 23.6628 76.4786 23.991C76.084 24.3699 75.6309 24.5457 75.0841 24.5261L75.0795 24.5299ZM75.3802 15.6197C75.3295 15.6158 75.2826 15.6158 75.2318 15.6119C73.3841 15.5143 72.1107 15.3893 71.5521 14.3697L74.9427 14.94C75.1146 15.1744 75.2552 15.401 75.3763 15.6197L75.3802 15.6197ZM75.9388 20.2838L75.931 21.7604L74.7708 21.6628L75.345 20.1042L75.9388 20.2878L75.9388 20.2838ZM9.41883 9.01384L4.93443 8.88104C4.80943 8.87713 4.68834 8.90838 4.58287 8.97479L4.36021 9.1115C3.82505 9.44353 3.36412 9.7287 2.97741 10.0685C2.27038 10.6857 2.2196 11.4982 2.18444 12.0919C2.17663 12.1896 2.17273 12.2872 2.16491 12.3771C2.14538 12.5607 2.21179 12.7443 2.34069 12.881C2.45788 13.0021 2.62194 13.0724 2.78991 13.0724C2.80554 13.0724 2.82116 13.0724 2.83679 13.0685C3.24304 13.0373 3.67273 13.0216 4.08289 13.006C6.41879 12.924 9.06729 12.8302 10.0009 9.82241C10.0595 9.63491 10.0282 9.43179 9.91104 9.27163C9.79776 9.11147 9.61417 9.01382 9.41885 9.00991L9.41883 9.01384ZM4.03603 11.7521C3.84853 11.76 3.65712 11.7639 3.46962 11.7756C3.50869 11.4436 3.58681 11.2053 3.80165 11.0178C4.11415 10.7443 4.53602 10.4865 5.02045 10.1818L5.08295 10.1428L8.44625 10.2443C7.59078 11.631 5.92285 11.6896 4.03605 11.756L4.03603 11.7521ZM34.196 1.96304C34.0242 1.97086 33.8601 2.04898 33.7468 2.17788C33.6335 2.30679 33.5788 2.47866 33.5945 2.65054L34.239 9.67004C34.2663 9.98645 34.532 10.2325 34.8484 10.2404L53.4464 10.7091H53.462C53.7159 10.7091 53.9425 10.5607 54.0401 10.3263C54.1417 10.088 54.087 9.81458 53.9034 9.63099C49.8175 5.58799 42.137 1.65054 34.196 1.96304ZM35.4382 8.99424L34.907 3.20514C41.4539 3.15046 47.884 6.17394 51.778 9.40434L35.4382 8.99424ZM31.114 2.07235C27.8406 2.06844 23.9773 2.1661 20.161 2.90048C20.0126 2.92782 19.8798 3.00984 19.786 3.12703L16.5555 7.19733C16.4227 7.3653 16.3837 7.59186 16.454 7.79889C16.5243 8.00201 16.6962 8.15436 16.9071 8.20514C20.8759 9.10748 24.9423 9.43955 28.8761 9.76375C29.7902 9.83796 30.7355 9.91609 31.6613 10.002C31.6808 10.0059 31.7004 10.0059 31.7199 10.0059C31.8839 10.0059 32.0441 9.93952 32.1652 9.82234C32.298 9.68953 32.3644 9.50593 32.3488 9.31843L31.7433 2.64653C31.716 2.32231 31.4425 2.07622 31.1183 2.07622L31.114 2.07235ZM28.9812 8.50594C25.4187 8.21297 21.7468 7.91219 18.1692 7.18564L20.6262 4.09184C24.0481 3.45512 27.5207 3.33793 30.5403 3.33012L31.0247 8.67782C30.3411 8.61923 29.6531 8.56063 28.9812 8.50594ZM17.6572 3.38485C17.5361 3.18954 17.3213 3.07234 17.0908 3.08406C15.0205 3.17781 12.8252 3.83406 10.7392 4.98246C10.54 5.09184 10.415 5.30277 10.415 5.52934C10.4111 5.7559 10.5361 5.96684 10.7314 6.08012C11.8603 6.72465 13.2353 7.29892 14.9228 7.83012C14.9853 7.84966 15.0478 7.85747 15.1103 7.85747C15.333 7.85747 15.5439 7.74028 15.6572 7.54106L17.665 4.02546C17.7783 3.82624 17.7744 3.58017 17.6572 3.38485ZM14.8174 6.47464C13.9229 6.17776 13.1299 5.86917 12.4268 5.54105C13.6065 5.00589 14.8018 4.63871 15.9659 4.45905L14.8136 6.47466L14.8174 6.47464ZM39.7004 12.0957C39.6926 12.4395 39.4114 12.709 39.0715 12.709H39.0559L35.6848 12.627C35.3371 12.6192 35.0637 12.3301 35.0715 11.9825C35.0793 11.6348 35.3684 11.3614 35.716 11.3692L39.0871 11.4512C39.4348 11.459 39.7082 11.7481 39.7004 12.0957ZM68.2084 25.4397C68.2436 25.3929 68.2709 25.346 68.2866 25.2952C68.3178 25.2444 68.3412 25.1897 68.3725 25.1351C68.4428 25.0022 68.5248 24.8733 68.5834 24.7366C68.642 24.596 68.6733 24.4515 68.7162 24.3069C68.7358 24.2483 68.7553 24.1936 68.7709 24.135C68.7983 24.0882 68.81 24.0335 68.8217 23.9788C68.8334 23.928 68.8491 23.8811 68.8608 23.8343C68.8959 23.6624 68.8998 23.4866 68.9155 23.3108C68.9272 23.1741 68.9584 23.0413 68.9584 22.9007C68.9584 22.76 68.9272 22.6272 68.9155 22.4905C68.8998 22.3147 68.8959 22.1389 68.8608 21.9671C68.8491 21.9163 68.8334 21.8694 68.8217 21.8225C68.8139 21.7639 68.7983 21.7132 68.7709 21.6663C68.7553 21.6077 68.7358 21.5491 68.7162 21.4905C68.6733 21.346 68.642 21.2014 68.5834 21.0608C68.5248 20.9202 68.4428 20.7913 68.3725 20.6585C68.3452 20.6038 68.3178 20.553 68.2905 20.5022C68.2748 20.4475 68.2475 20.4007 68.2123 20.3577C68.185 20.3147 68.1655 20.2718 68.1381 20.2288C68.0366 20.0803 67.9155 19.9514 67.7983 19.8147C67.7123 19.7132 67.642 19.5999 67.5405 19.5022C67.2788 19.2405 66.9897 19.0257 66.6889 18.8343C66.642 18.7991 66.5952 18.7718 66.5444 18.7561C66.3959 18.6702 66.2475 18.5842 66.0913 18.5139C66.0639 18.5022 66.0405 18.4827 66.0131 18.471C65.81 18.385 65.5952 18.3304 65.3803 18.2718C65.3335 18.2483 65.2827 18.2327 65.2241 18.2249C65.185 18.2171 65.146 18.1975 65.1069 18.1897C64.7944 18.1272 64.4741 18.0921 64.146 18.0921H64.142C63.8139 18.0921 63.4936 18.1272 63.1811 18.1897C63.142 18.1975 63.103 18.2171 63.0639 18.2249C63.0092 18.2327 62.9584 18.2483 62.9077 18.2718C62.6928 18.3303 62.478 18.385 62.2748 18.471C62.2514 18.4827 62.2319 18.4983 62.2084 18.5061C62.0483 18.5764 61.8959 18.6663 61.7436 18.7561C61.6928 18.7718 61.642 18.7991 61.5991 18.8343C61.2944 19.0257 61.0053 19.2405 60.7436 19.5022C60.642 19.6038 60.5678 19.721 60.478 19.8264C60.3647 19.9593 60.2475 20.0843 60.1499 20.2288C60.1225 20.2718 60.0991 20.3147 60.0756 20.3577C60.0405 20.4046 60.0131 20.4514 60.0014 20.5022C59.9702 20.553 59.9467 20.6077 59.9155 20.6624C59.8452 20.7952 59.7631 20.9241 59.7045 21.0608C59.646 21.2014 59.6147 21.346 59.5717 21.4905C59.5522 21.5491 59.5327 21.6038 59.517 21.6663C59.4897 21.7132 59.478 21.7679 59.4663 21.8225C59.4545 21.8733 59.4389 21.9163 59.4272 21.9671C59.392 22.139 59.3881 22.3147 59.3725 22.4905C59.3608 22.6272 59.3295 22.76 59.3295 22.9007C59.3295 23.0413 59.3608 23.1741 59.3725 23.3108C59.3881 23.4866 59.392 23.6624 59.4272 23.8343C59.4389 23.8851 59.4545 23.9319 59.4663 23.9788C59.4741 24.0374 59.4897 24.0882 59.517 24.1351C59.5327 24.1936 59.5522 24.2483 59.5717 24.3069C59.6147 24.4515 59.646 24.596 59.7045 24.7366C59.7631 24.8772 59.8452 25.0022 59.9155 25.1351C59.9428 25.1897 59.9702 25.2444 60.0014 25.2952C60.017 25.346 60.0444 25.3968 60.0756 25.4398C60.103 25.4827 60.1225 25.5296 60.1499 25.5687C60.2475 25.7093 60.3647 25.8343 60.4741 25.9671C60.5639 26.0765 60.6381 26.1937 60.7436 26.2952C61.0053 26.5569 61.2944 26.7718 61.5991 26.9632C61.646 26.9983 61.6928 27.0257 61.7436 27.0413C61.8999 27.1312 62.0522 27.2249 62.2163 27.2952C62.2358 27.303 62.2553 27.3187 62.2749 27.3265C62.478 27.4124 62.6967 27.4671 62.9116 27.5257C62.9585 27.5491 63.0131 27.5648 63.0678 27.5726C63.1069 27.5804 63.1421 27.5999 63.185 27.6077C63.4975 27.6702 63.8218 27.7054 64.146 27.7054C64.4741 27.7054 64.7944 27.6702 65.1069 27.6077C65.146 27.5999 65.1811 27.5804 65.2241 27.5726C65.2788 27.5648 65.3335 27.5491 65.3803 27.5257C65.5952 27.4671 65.81 27.4124 66.0132 27.3265C66.0366 27.3148 66.0561 27.303 66.0796 27.2913C66.2397 27.221 66.396 27.1312 66.5483 27.0413C66.5991 27.0257 66.6499 26.9984 66.6928 26.9632C66.9975 26.7718 67.2866 26.5569 67.5483 26.2952C67.646 26.1976 67.7202 26.0804 67.81 25.9749C67.9233 25.8421 68.0444 25.7132 68.1421 25.5687C68.1694 25.5257 68.1928 25.4827 68.2163 25.4398L68.2084 25.4397ZM64.142 19.0295C64.3295 19.0295 64.5053 19.0569 64.685 19.0842V20.4436C64.685 20.5061 64.6967 20.5647 64.7202 20.6233C64.767 20.7366 64.8608 20.8304 64.9741 20.8772C65.0327 20.9007 65.0913 20.9124 65.1538 20.9124C65.2163 20.9124 65.2749 20.9007 65.3335 20.8772C65.392 20.8538 65.4428 20.8186 65.4858 20.7757L66.4467 19.8147C66.6772 19.9905 66.8842 20.1897 67.0717 20.4085C67.1225 20.4671 67.1694 20.5257 67.2163 20.5843L66.2553 21.5452C66.2124 21.5882 66.1772 21.6429 66.1538 21.6975C66.1069 21.8108 66.1069 21.9436 66.1538 22.0569C66.2006 22.1741 66.2944 22.2639 66.4077 22.3108C66.4663 22.3343 66.5249 22.346 66.5874 22.346H67.9468C67.9585 22.4163 67.9624 22.4866 67.9663 22.5569C67.9858 22.7796 67.9858 22.9983 67.9663 23.221C67.9585 23.2913 67.9546 23.3655 67.9429 23.4358H66.5835C66.521 23.4358 66.4624 23.4475 66.4038 23.471C66.2905 23.5179 66.1967 23.6116 66.1499 23.7249C66.103 23.8382 66.103 23.971 66.1499 24.0843C66.1733 24.1429 66.2085 24.1937 66.2514 24.2366L67.2124 25.1976C67.1694 25.2561 67.1225 25.3108 67.0756 25.3655C66.8881 25.5882 66.6772 25.7913 66.4428 25.9671L65.4819 25.0061C65.4389 24.9632 65.3842 24.928 65.3295 24.9046C65.2163 24.8577 65.0835 24.8577 64.9702 24.9046C64.853 24.9515 64.7631 25.0452 64.7163 25.1585C64.6928 25.2171 64.6811 25.2757 64.6811 25.3382V26.6937C64.5014 26.721 64.3217 26.7484 64.1381 26.7484C63.9506 26.7484 63.7748 26.721 63.5952 26.6937V25.3343C63.5952 25.2718 63.5834 25.2132 63.56 25.1546C63.5131 25.0413 63.4194 24.9476 63.3061 24.9007C63.2514 24.8772 63.1928 24.8655 63.1342 24.8655C63.1303 24.8655 63.1303 24.8616 63.1264 24.8616C63.1225 24.8616 63.1186 24.8655 63.1186 24.8655C63.06 24.8655 63.0014 24.8772 62.9467 24.9007C62.8881 24.9241 62.8373 24.9593 62.7944 25.0022L61.8334 25.9632C61.5951 25.7835 61.3842 25.5765 61.1928 25.3499C61.1498 25.2991 61.103 25.2483 61.0639 25.1937L62.0248 24.2327C62.0678 24.1897 62.1029 24.1351 62.1264 24.0804C62.1733 23.9671 62.1733 23.8343 62.1264 23.721C62.0795 23.6038 61.9858 23.514 61.8725 23.4671C61.8139 23.4436 61.7553 23.4319 61.6928 23.4319H60.3373C60.3256 23.3616 60.3217 23.2913 60.3138 23.2171C60.2943 22.9944 60.2943 22.7757 60.3138 22.553C60.3217 22.4827 60.3256 22.4124 60.3334 22.3421H61.6928C61.7553 22.3421 61.8139 22.3304 61.8725 22.3069C61.9858 22.2601 62.0795 22.1663 62.1264 22.053C62.1733 21.9397 62.1733 21.8069 62.1264 21.6936C62.1029 21.635 62.0678 21.5843 62.0248 21.5413L61.0639 20.5804C61.1068 20.5218 61.1537 20.471 61.2006 20.4163C61.3881 20.1897 61.599 19.9866 61.8334 19.8108L62.7943 20.7718C62.8373 20.8147 62.892 20.8499 62.9467 20.8733C63.0053 20.8968 63.0639 20.9085 63.1264 20.9085C63.1889 20.9085 63.2475 20.8968 63.3061 20.8733C63.4194 20.8265 63.5131 20.7327 63.56 20.6194C63.5834 20.5608 63.5951 20.5022 63.5951 20.4397V19.0803C63.7748 19.053 63.9545 19.0256 64.1381 19.0256H64.142L64.142 19.0295ZM64.4702 21.2131C64.4116 21.2014 64.3569 21.2014 64.2983 21.1936C64.2436 21.1897 64.1928 21.178 64.1381 21.178C64.0834 21.178 64.0326 21.1897 63.9819 21.1936C63.9233 21.1975 63.8647 21.2014 63.8061 21.2131C63.7475 21.2249 63.6928 21.2444 63.6342 21.2639C63.5834 21.2795 63.5326 21.2913 63.4819 21.3108C63.4311 21.3303 63.3881 21.3616 63.3412 21.385C63.2866 21.4124 63.2358 21.4358 63.185 21.471C63.1342 21.5022 63.0912 21.5452 63.0483 21.5842C63.0092 21.6155 62.9623 21.6467 62.9272 21.6819C62.892 21.721 62.8608 21.7639 62.8295 21.803C62.7905 21.8499 62.7514 21.8928 62.7162 21.9397C62.6811 21.9905 62.6577 22.0452 62.6303 22.096C62.6069 22.1428 62.5756 22.1858 62.5561 22.2366C62.5366 22.2874 62.5248 22.3381 62.5092 22.3928C62.4936 22.4475 62.4701 22.5022 62.4584 22.5608C62.4467 22.6233 62.4428 22.6858 62.4389 22.7483C62.435 22.7991 62.4233 22.842 62.4233 22.8928C62.4233 22.9436 62.435 22.9905 62.4389 23.0413C62.4428 23.1038 62.4467 23.1663 62.4584 23.2288C62.4701 23.2874 62.4897 23.342 62.5092 23.3967C62.5248 23.4475 62.5366 23.5022 62.5561 23.5491C62.5756 23.5999 62.6069 23.6428 62.6303 23.6897C62.6577 23.7444 62.6811 23.7952 62.7162 23.8459C62.7514 23.8967 62.7905 23.9397 62.8295 23.9866C62.8608 24.0256 62.8881 24.0686 62.9272 24.1038C62.9623 24.1389 63.0053 24.1663 63.0405 24.1975C63.0873 24.2366 63.1342 24.2795 63.185 24.3147C63.2358 24.3459 63.2866 24.3733 63.3412 24.4006C63.3881 24.4241 63.435 24.4553 63.4858 24.4748C63.5366 24.4944 63.5873 24.5061 63.6381 24.5217C63.6928 24.5373 63.7475 24.5608 63.81 24.5725C63.8725 24.5842 63.935 24.5881 63.9975 24.592C64.0483 24.5959 64.0912 24.6077 64.142 24.6077C64.1928 24.6077 64.2397 24.5959 64.2905 24.592C64.353 24.5881 64.4155 24.5842 64.478 24.5725C64.5366 24.5608 64.5912 24.5413 64.6498 24.5217C64.7006 24.5061 64.7514 24.4944 64.8022 24.4748C64.853 24.4553 64.8998 24.4241 64.9467 24.4006C64.9975 24.3733 65.0522 24.3498 65.0991 24.3186C65.1537 24.2834 65.2006 24.2366 65.2514 24.1936C65.2866 24.1623 65.3256 24.1389 65.3569 24.1077C65.5092 23.9553 65.6264 23.7795 65.7084 23.5881C65.7123 23.5803 65.7201 23.5725 65.7241 23.5608C65.7592 23.4748 65.7826 23.3889 65.8061 23.2991C65.81 23.2795 65.8217 23.26 65.8256 23.2366C65.8491 23.1272 65.8608 23.01 65.8608 22.8967V22.8928C65.8608 22.7756 65.8491 22.6624 65.8256 22.5491C65.8217 22.5295 65.8139 22.5139 65.81 22.4944C65.7866 22.4045 65.7631 22.3147 65.728 22.2288C65.7241 22.2209 65.7201 22.217 65.7162 22.2092C65.6303 22.0139 65.5131 21.8381 65.3608 21.6819C65.3256 21.6467 65.2865 21.6233 65.2514 21.592C65.2006 21.5491 65.1537 21.5061 65.103 21.471C65.0522 21.4397 65.0014 21.4163 64.9506 21.3889C64.9037 21.3616 64.8569 21.3342 64.8061 21.3147C64.7553 21.2952 64.7084 21.2835 64.6576 21.2678C64.599 21.2483 64.5444 21.2288 64.4819 21.217L64.4702 21.2131ZM64.4311 22.1819C64.5092 22.2131 64.5834 22.2678 64.6498 22.3264C64.6811 22.3577 64.7084 22.3889 64.7358 22.4241C64.7787 22.4788 64.8217 22.5295 64.8491 22.592C64.8842 22.6819 64.9077 22.7796 64.9077 22.8811C64.9077 22.885 64.9116 22.8889 64.9116 22.8928C64.9116 22.8967 64.9077 22.9045 64.9077 22.9085C64.9037 23.01 64.8881 23.1038 64.8491 23.1897C64.8217 23.2522 64.7787 23.3069 64.7358 23.3616C64.7084 23.3967 64.685 23.428 64.6537 23.4592C64.5873 23.5178 64.5131 23.5725 64.435 23.6038C64.3608 23.635 64.2788 23.6467 64.1928 23.6546C64.1577 23.6585 64.1264 23.6585 64.0912 23.6546C64.0053 23.6467 63.9233 23.635 63.8491 23.6038C63.7709 23.5725 63.7045 23.5217 63.6381 23.4632C63.6147 23.4436 63.5951 23.4202 63.5717 23.3967C63.5131 23.3303 63.4623 23.2639 63.4311 23.1858C63.3998 23.1077 63.3842 23.0256 63.3803 22.9358C63.3764 22.9046 63.3764 22.8772 63.3803 22.846C63.3842 22.7561 63.3998 22.6702 63.4311 22.596C63.4623 22.5217 63.5131 22.4514 63.5717 22.385C63.5912 22.3616 63.6147 22.3381 63.6381 22.3186C63.7045 22.26 63.7709 22.2092 63.8491 22.178C63.9272 22.1467 64.0131 22.1311 64.0991 22.1272C64.1147 22.1272 64.1264 22.1194 64.142 22.1194C64.1577 22.1194 64.1733 22.1272 64.1889 22.1272C64.2748 22.1311 64.3608 22.1467 64.435 22.178L64.4311 22.1819ZM19.0331 23.8538C19.0956 23.5413 19.1307 23.2171 19.1307 22.8929C19.1307 22.5647 19.0956 22.2444 19.0331 21.9319C19.0253 21.8929 19.0057 21.8538 18.9979 21.8147C18.9901 21.76 18.9745 21.7093 18.9511 21.6585C18.8925 21.4436 18.8378 21.2288 18.7518 21.0257C18.7401 21.0022 18.7245 20.9827 18.7167 20.9593C18.6464 20.7991 18.5565 20.6468 18.4667 20.4944C18.4511 20.4397 18.4237 20.3929 18.3886 20.3499C18.1972 20.0452 17.9823 19.7561 17.7206 19.4983C17.6229 19.4007 17.5097 19.3304 17.4081 19.2444C17.2714 19.1272 17.1425 19.0061 16.994 18.9046C16.9511 18.8772 16.9081 18.8538 16.8651 18.8304C16.8182 18.7952 16.7714 18.7679 16.7206 18.7522C16.6698 18.7249 16.6151 18.6975 16.5643 18.6702C16.4315 18.5999 16.3026 18.5179 16.162 18.4593C16.0214 18.4007 15.8768 18.3694 15.7323 18.3265C15.6737 18.3069 15.619 18.2874 15.5565 18.2718C15.5097 18.2444 15.455 18.2327 15.4003 18.221C15.3495 18.2093 15.3026 18.1936 15.2557 18.1819C15.0839 18.1468 14.9081 18.1429 14.7323 18.1272C14.5956 18.1155 14.4628 18.0843 14.3222 18.0843C14.1815 18.0843 14.0487 18.1155 13.912 18.1233C13.7362 18.139 13.5604 18.1429 13.3886 18.178C13.3378 18.1897 13.2909 18.2054 13.244 18.2171C13.1854 18.2249 13.1346 18.2405 13.0878 18.2679C13.0292 18.2835 12.9745 18.303 12.9159 18.3225C12.7714 18.3655 12.6268 18.3968 12.4862 18.4554C12.3456 18.5139 12.2206 18.596 12.0878 18.6663C12.0331 18.6936 11.9823 18.721 11.9276 18.7522C11.8768 18.7679 11.826 18.7952 11.7831 18.8265C11.7401 18.8538 11.6932 18.8733 11.6542 18.9007C11.5096 18.9983 11.3846 19.1194 11.2518 19.2288C11.1464 19.3186 11.0292 19.3929 10.9276 19.4905C10.6659 19.7522 10.451 20.0413 10.2596 20.346C10.2245 20.3929 10.1971 20.4397 10.1815 20.4905C10.0917 20.6468 10.0018 20.7991 9.92759 20.9632C9.91978 20.9827 9.90416 21.0022 9.89634 21.0257C9.81041 21.2288 9.75572 21.4475 9.69713 21.6585C9.67369 21.7054 9.65806 21.76 9.65025 21.8147C9.64244 21.8538 9.62291 21.8889 9.61509 21.9319C9.55259 22.2444 9.51744 22.5686 9.51744 22.8929C9.51744 23.221 9.55259 23.5413 9.61509 23.8538C9.62291 23.8929 9.64244 23.9319 9.65025 23.971C9.65806 24.0257 9.67369 24.0765 9.69713 24.1233C9.75572 24.3382 9.8104 24.553 9.89634 24.7601C9.90416 24.7796 9.91978 24.7991 9.92759 24.8226C9.99791 24.9866 10.0917 25.139 10.1815 25.2952C10.1971 25.3499 10.2245 25.3968 10.2596 25.4397C10.451 25.7444 10.6659 26.0335 10.9276 26.2913C11.1893 26.553 11.4784 26.7679 11.7792 26.9593C11.826 26.9944 11.8729 27.0218 11.9237 27.0374C12.076 27.1272 12.2284 27.2171 12.3885 27.2874C12.412 27.2991 12.4315 27.3147 12.4549 27.3226C12.6581 27.4085 12.8729 27.4632 13.0877 27.5218C13.1346 27.5452 13.1893 27.5608 13.244 27.5686C13.2831 27.5765 13.3182 27.596 13.3612 27.6038C13.6737 27.6663 13.9979 27.7015 14.3221 27.7015H14.326C14.6503 27.7015 14.9745 27.6663 15.287 27.6038C15.326 27.596 15.3651 27.5765 15.4042 27.5686C15.4589 27.5608 15.5135 27.5452 15.5604 27.5218C15.7753 27.4632 15.9901 27.4085 16.1932 27.3226C16.2167 27.3108 16.2401 27.2952 16.2635 27.2835C16.4237 27.2132 16.5721 27.1233 16.7245 27.0374C16.7753 27.0218 16.826 26.9944 16.869 26.9593C17.1737 26.7679 17.4628 26.553 17.7245 26.2913C17.9862 26.0296 18.201 25.7405 18.3924 25.4397C18.4276 25.3929 18.4549 25.346 18.4706 25.2952C18.5604 25.1429 18.6503 24.9905 18.7206 24.8304C18.7323 24.8069 18.7479 24.7874 18.7557 24.764C18.8417 24.5608 18.8964 24.346 18.9549 24.1312C18.9784 24.0843 18.994 24.0335 19.0018 23.9749C19.0096 23.9358 19.0292 23.8968 19.037 23.8577L19.0331 23.8538ZM14.3222 26.7561C14.1347 26.7561 13.9589 26.7288 13.7792 26.7014V25.342C13.7792 25.2795 13.7675 25.2209 13.7441 25.1623C13.6972 25.049 13.6034 24.9553 13.4902 24.9084C13.3769 24.8615 13.2441 24.8615 13.1308 24.9084C13.0722 24.9318 13.0214 24.967 12.9784 25.01L12.0175 25.9709C11.7245 25.7522 11.4667 25.4943 11.248 25.2014L12.2089 24.2404C12.2519 24.1975 12.287 24.1428 12.3105 24.0881C12.3573 23.9748 12.3573 23.842 12.3105 23.7287C12.2636 23.6115 12.1698 23.5217 12.0566 23.4748C11.998 23.4514 11.9394 23.4397 11.8769 23.4397H10.5214C10.494 23.26 10.4667 23.0803 10.4667 22.8967C10.4667 22.7092 10.494 22.5334 10.5214 22.3537H11.8769C11.9394 22.3537 11.998 22.342 12.0566 22.3186C12.1698 22.2717 12.2636 22.1779 12.3105 22.0646C12.3573 21.9514 12.3573 21.8186 12.3105 21.7053C12.287 21.6467 12.2519 21.5959 12.2089 21.5529L11.248 20.592C11.4237 20.3576 11.6269 20.1506 11.8495 19.9592C11.9042 19.9123 11.9589 19.8654 12.0175 19.8225L12.9784 20.7834C13.0214 20.8264 13.0761 20.8615 13.1308 20.885C13.1894 20.9084 13.248 20.9201 13.3105 20.9201C13.373 20.9201 13.4316 20.9084 13.4902 20.885C13.6034 20.8381 13.6972 20.7443 13.7441 20.631C13.7675 20.5725 13.7792 20.5139 13.7792 20.4514V19.092C13.8495 19.0802 13.9198 19.0763 13.9941 19.0685C14.1034 19.0607 14.2128 19.0373 14.3261 19.0373C14.4394 19.0373 14.5488 19.0607 14.6581 19.0685C14.7284 19.0763 14.7987 19.0802 14.8691 19.0881V20.4474C14.8691 20.5099 14.8808 20.5685 14.9042 20.6271C14.9511 20.7404 15.0448 20.8342 15.1581 20.8811C15.2167 20.9045 15.2753 20.9162 15.3378 20.9162C15.4003 20.9162 15.4589 20.9045 15.5175 20.8811C15.5761 20.8576 15.6269 20.8225 15.6698 20.7795L16.6308 19.8186C16.6933 19.8654 16.7519 19.9162 16.8105 19.9631C17.0292 20.1506 17.2284 20.3576 17.4042 20.5842L16.4433 21.5451C16.4003 21.5881 16.3652 21.6428 16.3417 21.6974C16.2949 21.8107 16.2949 21.9435 16.3417 22.0568C16.3886 22.1701 16.4823 22.2639 16.5956 22.3107C16.6542 22.3342 16.7128 22.3459 16.7753 22.3459H18.1347C18.1582 22.5217 18.1855 22.6936 18.1894 22.8732C18.1894 22.881 18.1933 22.885 18.1933 22.8928C18.1933 22.9006 18.1894 22.9045 18.1894 22.9123C18.1894 23.092 18.1621 23.2639 18.1347 23.4396H16.7753C16.7128 23.4396 16.6542 23.4514 16.5956 23.4748C16.4824 23.5217 16.3886 23.6154 16.3417 23.7287C16.2949 23.842 16.2949 23.9748 16.3417 24.0881C16.3652 24.1467 16.4003 24.1975 16.4433 24.2404L17.4042 25.2014C17.1855 25.4943 16.9277 25.7521 16.6347 25.9709L15.6738 25.01C15.6308 24.967 15.5761 24.9318 15.5214 24.9084C15.4081 24.8615 15.2753 24.8615 15.162 24.9084C15.0488 24.9553 14.955 25.049 14.9081 25.1623C14.8847 25.2209 14.873 25.2795 14.873 25.342V26.7014C14.6933 26.7287 14.5175 26.7561 14.33 26.7561H14.3261L14.3222 26.7561ZM13.9902 24.5725C14.0527 24.5842 14.1152 24.5881 14.1777 24.592C14.2284 24.5959 14.2714 24.6077 14.3222 24.6077C14.373 24.6077 14.4198 24.5959 14.4706 24.592C14.5331 24.5881 14.5956 24.5842 14.6542 24.5725C14.7128 24.5608 14.7675 24.5412 14.8261 24.5217C14.8769 24.5061 14.9277 24.4944 14.9784 24.4748C15.0292 24.4553 15.0761 24.4241 15.123 24.3967C15.1738 24.3694 15.2245 24.3459 15.2753 24.3147C15.3339 24.2756 15.3847 24.2287 15.4355 24.1819C15.4667 24.1545 15.5019 24.1311 15.5331 24.0998C15.5644 24.0686 15.5878 24.0334 15.6152 24.0022C15.662 23.9514 15.7089 23.9006 15.748 23.842C15.7792 23.7952 15.8027 23.7405 15.83 23.6897C15.8573 23.6389 15.8847 23.5959 15.9081 23.5452C15.9277 23.4944 15.9394 23.4475 15.955 23.3967C15.9745 23.3381 15.9941 23.2834 16.0058 23.2209C16.0175 23.1623 16.0175 23.1077 16.0253 23.0491C16.0292 22.9944 16.0409 22.9436 16.0409 22.8889C16.0409 22.8342 16.0292 22.7834 16.0253 22.7326C16.0214 22.674 16.0175 22.6155 16.0058 22.5569C15.9941 22.4983 15.9745 22.4436 15.955 22.385C15.9394 22.3342 15.9277 22.2834 15.9081 22.2326C15.8886 22.1819 15.8573 22.135 15.8339 22.0881C15.8066 22.0373 15.7831 21.9826 15.7519 21.9358C15.7167 21.8811 15.6698 21.8303 15.6269 21.7834C15.5995 21.7483 15.5722 21.7131 15.5409 21.678C15.5097 21.6467 15.4706 21.6194 15.4355 21.592C15.3847 21.5491 15.3378 21.5022 15.2831 21.467C15.2363 21.4358 15.1816 21.4123 15.1308 21.385C15.08 21.3577 15.037 21.3303 14.9823 21.3069C14.9355 21.2873 14.8847 21.2756 14.8378 21.26C14.7792 21.2405 14.7206 21.2209 14.6581 21.2053C14.6034 21.1936 14.5448 21.1936 14.4902 21.1897C14.4355 21.1858 14.3808 21.1741 14.3261 21.1741C14.2714 21.1741 14.2167 21.1858 14.1659 21.1897C14.1073 21.1936 14.0527 21.1975 13.9941 21.2053C13.9355 21.217 13.8769 21.2405 13.8183 21.2561C13.7675 21.2717 13.7167 21.2834 13.6698 21.303C13.6191 21.3225 13.5761 21.3537 13.5253 21.3772C13.4745 21.4045 13.4198 21.428 13.3691 21.4631C13.3183 21.4983 13.2753 21.5373 13.2284 21.5803C13.1894 21.6116 13.1464 21.6389 13.1112 21.678C13.0761 21.7131 13.0487 21.7561 13.0136 21.7952C12.9745 21.842 12.9316 21.885 12.9003 21.9358C12.8652 21.9866 12.8417 22.0412 12.8144 22.092C12.7909 22.1389 12.7597 22.1819 12.7402 22.2326C12.7206 22.2834 12.7089 22.3381 12.6933 22.3889C12.6777 22.4436 12.6542 22.4983 12.6425 22.5569C12.6308 22.6194 12.6269 22.6819 12.623 22.7444C12.6191 22.7951 12.6073 22.8381 12.6073 22.8889C12.6073 22.9397 12.6191 22.9866 12.623 23.0373C12.6269 23.0998 12.6308 23.1623 12.6425 23.2209C12.6542 23.2795 12.6737 23.3342 12.6933 23.3889C12.7089 23.4397 12.7206 23.4944 12.7402 23.5412C12.7597 23.592 12.7909 23.635 12.8144 23.6819C12.8417 23.7366 12.8652 23.7873 12.9003 23.8381C12.9355 23.8889 12.9784 23.9358 13.0175 23.9826C13.0488 24.0178 13.0761 24.0608 13.1113 24.0959C13.1464 24.1311 13.1855 24.1545 13.2206 24.1858C13.2714 24.2248 13.3144 24.2717 13.3691 24.3069C13.4199 24.3381 13.4706 24.3655 13.5253 24.3928C13.5722 24.4162 13.6191 24.4475 13.6659 24.467C13.7167 24.4865 13.7675 24.4983 13.8183 24.5139C13.873 24.5295 13.9277 24.553 13.9863 24.5647L13.9902 24.5725ZM14.0292 23.6037C13.9511 23.5725 13.8808 23.5217 13.8144 23.4631C13.7909 23.4436 13.7714 23.4202 13.7519 23.3967C13.6933 23.3303 13.6464 23.2639 13.6113 23.1858C13.58 23.1077 13.5644 23.0256 13.5605 22.9397C13.5566 22.9084 13.5566 22.8811 13.5605 22.8498C13.5644 22.76 13.58 22.6741 13.6113 22.5998C13.6425 22.5256 13.6933 22.4592 13.748 22.3967C13.7714 22.3694 13.7949 22.3459 13.8222 22.3225C13.8847 22.2678 13.955 22.217 14.0292 22.1858C14.1074 22.1545 14.1933 22.1389 14.2831 22.135C14.2988 22.135 14.3105 22.1272 14.3261 22.1272C14.3417 22.1272 14.3574 22.135 14.373 22.135C14.4589 22.1389 14.5449 22.1545 14.6191 22.1858C14.6972 22.217 14.7714 22.2717 14.8378 22.3303C14.8574 22.3459 14.873 22.3655 14.8925 22.3811C14.955 22.4475 15.0058 22.5217 15.037 22.5998C15.0683 22.6741 15.08 22.76 15.0878 22.842C15.0917 22.8772 15.0917 22.9084 15.0878 22.9436C15.08 23.0295 15.0683 23.1116 15.037 23.1858C15.0019 23.2678 14.9511 23.342 14.8886 23.4084C14.873 23.4241 14.8613 23.4397 14.8417 23.4553C14.7753 23.5178 14.7011 23.5686 14.6191 23.6038C14.5449 23.635 14.4628 23.6467 14.3769 23.6545C14.3417 23.6584 14.3105 23.6584 14.2753 23.6545C14.1894 23.6467 14.1073 23.635 14.0331 23.6038L14.0292 23.6037Z" fill="url(#paint0_linear_339_2124)"/>
<defs>
<linearGradient id="paint0_linear_339_2124" x1="0" y1="15.345" x2="78.3213" y2="15.345" gradientUnits="userSpaceOnUse">
<stop stop-color="#715126"/>
<stop offset="1" stop-color="#D0B672"/>
</linearGradient>
</defs>
</svg>
