<svg width="236" height="234" viewBox="0 0 236 234" fill="none" xmlns="http://www.w3.org/2000/svg">
<path fill-rule="evenodd" clip-rule="evenodd" d="M199.913 116.734C198.738 116.742 192.627 117.958 192.661 124.266C192.702 131.823 198.738 131.789 199.913 131.797H199.928H211.27C213.662 131.797 215.955 132.746 217.646 134.44C219.34 136.131 220.289 138.424 220.289 140.816V141.606C220.289 143.997 219.34 146.291 217.646 147.982C215.955 149.676 213.662 150.625 211.27 150.625H199.985H199.913C198.738 150.633 192.627 151.6 192.661 158.156C192.695 164.833 198.738 165.68 199.913 165.688H199.928H211.27C213.662 165.688 215.955 166.636 217.646 168.331C219.34 170.022 220.289 172.315 220.289 174.706V175.497C220.289 177.888 219.34 180.181 217.646 181.872C215.955 183.567 213.662 184.516 211.27 184.516H199.928H199.913C198.738 184.523 192.679 185.144 192.661 192.047C192.642 198.968 198.738 199.571 199.913 199.578H199.928H211.27C213.662 199.578 215.955 200.527 217.646 202.222C219.34 203.912 220.289 206.206 220.289 208.597V209.388C220.289 211.779 219.34 214.072 217.646 215.763C215.955 217.457 213.662 218.406 211.27 218.406H107.32C103.758 218.406 100.26 217.438 97.2058 215.605L81.8797 206.409C76.4836 203.171 70.308 201.461 64.0156 201.461C60.2613 201.461 56.4844 203.344 56.4844 208.992C56.4844 213.149 59.8584 216.523 64.0156 216.523C67.5779 216.523 71.0762 217.491 74.1301 219.325L89.4562 228.521C94.8523 231.759 101.028 233.469 107.32 233.469H211.27C217.657 233.469 223.784 230.931 228.299 226.416C232.814 221.901 235.352 215.774 235.352 209.388V208.597C235.352 202.432 232.987 196.513 228.762 192.047C232.987 187.581 235.352 181.661 235.352 175.497V174.706C235.352 168.542 232.987 162.622 228.762 158.156C232.987 153.69 235.352 147.771 235.352 141.606V140.816C235.352 134.651 232.987 128.732 228.762 124.266C232.987 119.8 235.352 113.88 235.352 107.716V106.925C235.352 100.538 232.814 94.4117 228.299 89.8968C223.784 85.3818 217.657 82.8438 211.27 82.8438H164.238C162.125 82.8438 160.099 82.004 158.608 80.5091C157.113 79.0179 156.273 76.992 156.273 74.8795V24.0812C156.273 17.6947 153.735 11.568 149.22 7.05302C144.705 2.53803 138.579 0 132.192 0H131.401C125.015 0 118.888 2.53803 114.373 7.05302C109.858 11.568 107.32 17.6947 107.32 24.0812V47.2812C107.32 71.4151 94.7394 93.8017 74.1263 106.349L74.0623 106.386C71.0347 108.228 67.5591 109.203 64.0156 109.203C60.2613 109.203 56.4844 112.969 56.4844 116.734C56.4844 120.892 59.8584 124.266 64.0156 124.266C70.323 124.266 76.51 122.53 81.8948 119.254L81.9551 119.216C107.06 103.935 122.383 76.6719 122.383 47.2812V24.0812C122.383 21.69 123.332 19.3967 125.026 17.706C126.717 16.0114 129.01 15.0625 131.401 15.0625H132.192C134.583 15.0625 136.877 16.0114 138.567 17.706C140.262 19.3967 141.211 21.69 141.211 24.0812V74.8795C141.211 80.9835 143.636 86.8428 147.955 91.162C152.274 95.4812 158.134 97.9062 164.238 97.9062H211.27C213.662 97.9062 215.955 98.8552 217.646 100.55C219.34 102.24 220.289 104.534 220.289 106.925V107.716C220.289 110.107 219.34 112.4 217.646 114.091C215.955 115.785 213.662 116.734 211.27 116.734H199.928H199.913ZM52.7188 105.438C52.7188 101.276 49.3485 97.9062 45.1875 97.9062H7.53125C3.37023 97.9062 0 101.276 0 105.438V218.406C0 222.567 3.37023 225.938 7.53125 225.938H45.1875C49.3485 225.938 52.7188 222.567 52.7188 218.406V105.438ZM37.6562 112.969V210.875H15.0625V112.969H37.6562Z" fill="url(#paint0_linear_438_78)"/>
<defs>
<linearGradient id="paint0_linear_438_78" x1="0" y1="116.734" x2="235.352" y2="116.734" gradientUnits="userSpaceOnUse">
<stop stop-color="#715126"/>
<stop offset="1" stop-color="#D0B672"/>
</linearGradient>
</defs>
</svg>
