<svg width="107" height="40" viewBox="0 0 107 40" fill="none" xmlns="http://www.w3.org/2000/svg">
<path d="M20 40C8.97333 40 0 31.0267 0 20C0 8.97333 8.97333 0 20 0C31.0267 0 40 8.97333 40 20C40 31.0267 31.0267 40 20 40ZM20 6.66667C12.6489 6.66667 6.66667 12.6489 6.66667 20C6.66667 27.3511 12.6489 33.3333 20 33.3333C27.3511 33.3333 33.3333 27.3511 33.3333 20C33.3333 12.6489 27.3511 6.66667 20 6.66667Z" fill="black"/>
<path d="M42.2223 40C31.1956 40 22.2223 31.0267 22.2223 20C22.2223 8.97333 31.1956 0 42.2223 0C53.249 0 62.2223 8.97333 62.2223 20C62.2223 31.0267 53.249 40 42.2223 40ZM42.2223 6.66667C34.8712 6.66667 28.889 12.6489 28.889 20C28.889 27.3511 34.8712 33.3333 42.2223 33.3333C49.5734 33.3333 55.5556 27.3511 55.5556 20C55.5556 12.6489 49.5734 6.66667 42.2223 6.66667Z" fill="black"/>
<path d="M64.4446 40C53.4179 40 44.4446 31.0267 44.4446 20C44.4446 8.97333 53.4179 0 64.4446 0C75.4712 0 84.4446 8.97333 84.4446 20C84.4446 31.0267 75.4712 40 64.4446 40ZM64.4446 6.66667C57.0935 6.66667 51.1112 12.6489 51.1112 20C51.1112 27.3511 57.0935 33.3333 64.4446 33.3333C71.7957 33.3333 77.7779 27.3511 77.7779 20C77.7779 12.6489 71.7957 6.66667 64.4446 6.66667Z" fill="black"/>
<path d="M86.6667 40C75.6401 40 66.6667 31.0267 66.6667 20C66.6667 8.97333 75.6401 0 86.6667 0C97.6934 0 106.667 8.97333 106.667 20C106.667 31.0267 97.6934 40 86.6667 40ZM86.6667 6.66667C79.3156 6.66667 73.3334 12.6489 73.3334 20C73.3334 27.3511 79.3156 33.3333 86.6667 33.3333C94.0179 33.3333 100 27.3511 100 20C100 12.6489 94.0179 6.66667 86.6667 6.66667Z" fill="black"/>
</svg>
