<svg width="62" height="80" viewBox="0 0 62 80" fill="none" xmlns="http://www.w3.org/2000/svg">
<path fill-rule="evenodd" clip-rule="evenodd" d="M30.7142 47.7102H31.0367C37.54 47.0988 43.5071 44.6903 48.3663 40.0692C52.6534 35.9922 55.5424 30.4484 55.601 24.1401C55.6922 14.2637 49.7498 5.02023 36.9405 1.27302L37.8771 0.491699L38.0172 0.532918L38.385 0.64146L38.7702 0.759161L39.1658 0.886022L39.5744 1.02204L39.9934 1.16814L40.4193 1.32477L40.8636 1.49239L41.3124 1.671L41.7722 1.86153L42.2398 2.06395L42.7116 2.27921L43.1961 2.50728L43.6797 2.74864L44.1766 3.00419L44.6708 3.27349L45.1663 3.55789L45.6687 3.85696L46.1707 4.17205L46.6781 4.50271L47.1851 4.85032L47.6852 5.21442L47.8666 5.34952L48.0475 5.48692L48.2344 5.62614L48.4139 5.76812L48.5953 5.91193L48.7766 6.05756L48.9529 6.20595L49.132 6.35617L49.3134 6.50914L49.4947 6.66393L49.6738 6.82194L49.8501 6.98177L50.0255 7.14436L50.2064 7.30923L50.3805 7.47685L50.5563 7.64677L50.7322 7.81942L50.9049 7.99437L51.0816 8.17253L51.2511 8.35297L51.4251 8.53617L51.5941 8.72211L51.764 8.9108L51.9321 9.10178L52.1007 9.29642L52.2632 9.49335L52.4272 9.69349L52.5912 9.89638L52.7533 10.1025L52.9172 10.3113L53.0743 10.5229L53.2319 10.7377L53.4705 11.0729L53.7091 11.4141L53.9381 11.7613L54.1652 12.1144L54.3869 12.4744L54.6017 12.8398L54.8124 13.2117L55.0162 13.59L55.2149 13.9756L55.4078 14.3677L55.5928 14.7666L55.7737 15.1723L55.9436 15.5854L56.1066 16.0054L56.2646 16.4327L56.4144 16.8673L56.5568 17.3097L56.6901 17.7595L56.8179 18.2175L56.9342 18.6832L57.0386 19.1568L57.138 19.6386L57.2264 20.1282L57.3079 20.626L57.3785 21.1325L57.4357 21.6478L57.4888 22.1717L57.5232 22.7039L57.552 23.2452L57.5713 23.7952L57.5758 24.3544L57.5713 24.9228L57.5648 25.2145L57.552 25.5012L57.5406 25.7833L57.5296 26.0609L57.5117 26.3343L57.4888 26.6036L57.4659 26.8692L57.4421 27.1307L57.4133 27.3895L57.3839 27.6446L57.3478 27.8965L57.3143 28.1452L57.2736 28.392L57.2314 28.6357L57.1861 28.8775L57.138 29.1165L57.0922 29.3547L57.0386 29.591L56.9882 29.8255L56.9287 30.0586L56.8715 30.2908L56.8064 30.5216L56.7428 30.7525L56.6782 30.9819L56.6072 31.2114L56.539 31.4413L56.4629 31.6707L56.3865 31.9002L56.3104 32.1305L56.2307 32.3614L56.1479 32.5931L56.0608 32.8257L55.8273 33.4239L55.5813 34.0138L55.3134 34.5959L55.0331 35.1697L54.7418 35.7358L54.4327 36.2931L54.1057 36.8423L53.7686 37.3827L53.4192 37.9144L53.0514 38.437L52.6713 38.9508L52.282 39.455L51.8795 39.9501L51.4599 40.4351L51.0345 40.911L50.5953 41.3767L50.1469 41.8324L49.6871 42.2781L49.214 42.7131L48.7349 43.1372L48.2467 43.5512L47.7507 43.9543L47.2437 44.3458L46.7304 44.7264L46.206 45.0965L45.6747 45.4542L45.1393 45.8004L44.5916 46.1347L44.0424 46.4571L43.4828 46.7677L42.9218 47.0658L42.3511 47.3511L41.9202 47.5604L41.4842 47.7615L41.045 47.9552L40.6076 48.1407L40.1711 48.3188L39.7283 48.4897L39.2895 48.6523L38.8521 48.808L38.4152 48.9559L37.9792 49.097L37.5418 49.2302L37.1031 49.3557L36.6721 49.4743L36.2407 49.5856L35.8098 49.69L35.3847 49.7867L34.9584 49.8764L34.5334 49.9589L34.1134 50.0345L33.6934 50.1027L33.2794 50.1645L32.8713 50.2186L32.4633 50.2662L32.0589 50.3092L31.6554 50.3436L31.2647 50.3706L30.8727 50.3908L30.7142 50.3967V47.7102Z" fill="#59595B"/>
<path fill-rule="evenodd" clip-rule="evenodd" d="M23.5289 0.491699L24.465 1.27302C11.6561 5.02023 5.71336 14.2637 5.8045 24.1401C5.86267 30.4484 8.75208 35.9922 13.0393 40.0692C17.8985 44.6903 23.8651 47.0988 30.3689 47.7102H30.6913V50.3963L30.5328 50.3903L30.1408 50.3702L29.7501 50.3431L29.3467 50.3088L28.9445 50.2685L28.5365 50.2208L28.1284 50.1668L27.7144 50.105L27.2944 50.0367L26.8745 49.9612L26.4499 49.8787L26.0235 49.789L25.5981 49.6923L25.1671 49.5879L24.7357 49.4766L24.3047 49.358L23.866 49.2325L23.4286 49.0993L22.9921 48.9582L22.5557 48.8103L22.1183 48.6545L21.6796 48.492L21.2367 48.3211L20.8002 48.143L20.3629 47.9575L19.9237 47.7638L19.4872 47.5627L19.0562 47.3534L18.4851 47.0681L17.9246 46.77L17.3654 46.4594L16.8162 46.137L16.2685 45.8027L15.7331 45.4565L15.2014 45.0988L14.6775 44.7287L14.1636 44.3481L13.6566 43.9566L13.1606 43.5535L12.672 43.1395L12.1929 42.7154L11.7198 42.2803L11.26 41.8347L10.8116 41.379L10.3729 40.9133L9.94742 40.4374L9.5279 39.9524L9.12579 39.4573L8.73651 38.9531L8.35593 38.4392L7.98862 37.9167L7.63918 37.385L7.30165 36.8445L6.97511 36.2954L6.66597 35.7381L6.37423 35.172L6.09395 34.5981L5.82603 34.016L5.58009 33.4262L5.34698 32.828L5.2595 32.5954L5.17707 32.3636L5.09738 32.1319L5.02089 31.9015L4.94441 31.6721L4.86839 31.4426L4.80015 31.2127L4.7287 30.9833L4.66458 30.7538L4.60138 30.523L4.53635 30.2922L4.4791 30.0591L4.41956 29.826L4.36918 29.5915L4.31514 29.3552L4.2698 29.117L4.22171 28.8779L4.17637 28.6361L4.13424 28.3925L4.09394 28.1456L4.06005 27.8969L4.02432 27.645L3.99501 27.3899L3.96616 27.1312L3.94143 26.8697L3.91853 26.604L3.89563 26.3348L3.87777 26.0613L3.86678 25.7838L3.85533 25.5017L3.8425 25.215L3.83609 24.9233L3.83105 24.3549L3.83609 23.7957L3.85533 23.2457L3.88418 22.7043L3.91899 22.1721L3.97211 21.6482L4.02936 21.133L4.09989 20.6265L4.18095 20.1286L4.2698 19.639L4.36918 19.1572L4.4736 18.6837L4.58993 18.2179L4.71771 17.7599L4.85098 17.3102L4.99342 16.8678L5.14318 16.4332L5.30118 16.0059L5.46376 15.5859L5.63368 15.1728L5.81504 14.767L6.00006 14.3681L6.19287 13.9761L6.39118 13.5905L6.59498 13.2126L6.80565 12.8407L7.01999 12.4753L7.24165 12.1153L7.46927 11.7622L7.69826 11.415L7.93641 11.0739L8.17502 10.7386L8.33257 10.5238L8.4892 10.3122L8.65316 10.1034L8.81528 9.89729L8.97924 9.69441L9.1432 9.49427L9.30578 9.29734L9.47478 9.10269L9.64331 8.91171L9.81323 8.72303L9.98222 8.53708L10.1558 8.35389L10.3257 8.17345L10.502 7.99529L10.6747 7.82034L10.851 7.64768L11.0264 7.47777L11.2005 7.31015L11.3814 7.14527L11.5563 6.98269L11.7326 6.82285L11.9122 6.66485L12.0935 6.51005L12.2749 6.35709L12.454 6.20687L12.6298 6.05848L12.8112 5.91284L12.9925 5.76904L13.1716 5.62706L13.3585 5.48783L13.5398 5.35044L13.7212 5.21533L14.2209 4.85124L14.7283 4.50363L15.2357 4.17297L15.7377 3.85787L16.2401 3.55835L16.7356 3.27395L17.2298 3.00465L17.7267 2.7491L18.2103 2.50774L18.6949 2.27966L19.1666 2.06441L19.6342 1.86198L20.094 1.67146L20.5433 1.49285L20.9875 1.32523L21.4135 1.1686L21.8325 1.0225L22.2406 0.88648L22.6367 0.759619L23.0219 0.641918L23.3897 0.533376L23.5289 0.491699Z" fill="#808183"/>
<path fill-rule="evenodd" clip-rule="evenodd" d="M30.7142 50.4345H30.7339C34.2595 50.3021 38.3996 49.3312 42.3671 47.3884C48.4652 44.4024 53.7073 39.2679 56.0929 32.8415C57.0198 30.3478 57.5507 28.0647 57.6102 24.9244C57.7316 18.8025 55.8479 14.2666 53.2653 10.7154C51.5795 8.404 49.644 6.61466 47.7086 5.18392C44.1221 2.52991 40.4422 1.18848 37.9123 0.462573L37.9261 0.451123L39.3229 1.02509e-05C39.3371 -0.00456958 46.5769 1.52418 52.3777 7.17706C56.6109 11.3026 60.1071 17.854 59.5937 26.825C59.1563 34.4756 54.9246 42.0209 48.0562 47.0623C43.4576 50.4377 37.6911 52.707 31.0389 53.0802H30.7147L30.7142 50.4345Z" fill="#929496"/>
<path fill-rule="evenodd" clip-rule="evenodd" d="M22.0826 1.02509e-05L23.4795 0.450665L23.4932 0.462115C20.9638 1.18802 17.2839 2.52991 13.6969 5.18346C11.762 6.6142 9.82607 8.40354 8.14024 10.715C5.55767 14.2662 3.67445 18.802 3.79581 24.9239C3.85535 28.0643 4.38615 30.3473 5.31311 32.841C7.69874 39.2675 12.9399 44.4033 19.0389 47.388C23.0064 49.3321 27.1465 50.3016 30.6721 50.434H30.6918V53.0798H30.3675C23.7153 52.707 17.9484 50.4372 13.3503 47.0619C6.48142 42.0209 2.24966 34.4756 1.81183 26.825C1.29889 17.854 4.79513 11.3021 9.02781 7.17706C14.8291 1.52418 22.0684 -0.00456958 22.0826 1.02509e-05Z" fill="#BBBCBF"/>
<path fill-rule="evenodd" clip-rule="evenodd" d="M31.8503 40.9777L32.0935 40.9077L32.3518 40.8335L32.6262 40.7556L32.9165 40.6732L33.2206 40.5866L33.5385 40.4964L33.8687 40.4021L34.2094 40.304L34.5607 40.2033L34.9206 40.0989L35.2889 39.9912L35.6635 39.8813L36.0445 39.7687L36.4302 39.6537L36.8199 39.536L37.2119 39.4165L37.6053 39.2951L38.0001 39.1719L38.394 39.0473L38.7869 38.9205L39.1771 38.7932L39.5641 38.6645L39.9466 38.5349L40.3235 38.4039L40.6935 38.2729L41.0562 38.141L41.4112 38.0096L41.757 37.8767L42.0913 37.7444L42.4146 37.612L42.7265 37.4792L43.0237 37.3469L43.1836 37.2736L43.3384 37.1994L43.4881 37.1247L43.6333 37.0496L43.7739 36.9741L43.9099 36.898L44.04 36.822L44.1659 36.746L44.2859 36.669L44.4013 36.5926L44.5117 36.5147L44.6166 36.4368L44.7164 36.3585L44.8117 36.2784L44.901 36.1969L44.983 36.1163L45.0819 36.0109L45.1758 35.906L45.2656 35.7998L45.3521 35.6912L45.4355 35.5809L45.5156 35.4678L45.5921 35.3523L45.6654 35.2342L45.7345 35.1137L45.8009 34.991L45.8637 34.8655L45.9228 34.7373L45.9786 34.6067L46.0313 34.473L46.0799 34.3374L46.1266 34.1987L46.1696 34.0562L46.2095 33.912L46.2466 33.765L46.2818 33.6134L46.3139 33.459L46.3437 33.301L46.3716 33.1394L46.3977 32.9736L46.4211 32.8032L46.443 32.6292L46.4627 32.4506L46.4815 32.2669L46.4985 32.0782L46.514 31.884L46.5282 31.6853L46.5415 31.4815L47.1392 21.5355L50.4467 15.9146L30.7026 13.7017L10.959 15.9146L14.2665 21.5355L14.8637 31.4815L14.8766 31.6853L14.8912 31.884L14.9068 32.0782L14.9237 32.2669L14.9421 32.4506L14.9622 32.6292L14.9842 32.8032L15.008 32.9736L15.0337 33.1394L15.0611 33.301L15.0914 33.459L15.1234 33.6138L15.1587 33.7654L15.1958 33.912L15.2361 34.0562L15.2791 34.1987L15.3254 34.3379L15.3744 34.4735L15.4271 34.6067L15.4825 34.7373L15.542 34.8655L15.6043 34.991L15.6707 35.1137L15.7399 35.2342L15.8131 35.3523L15.8901 35.4682L15.9698 35.5809L16.0531 35.6917L16.1401 35.7998L16.2299 35.906L16.3238 36.0109L16.4227 36.1163L16.5047 36.1969L16.5945 36.2784L16.6893 36.3585L16.7891 36.4368L16.894 36.5147L17.0044 36.5926L17.1198 36.669L17.2402 36.746L17.3657 36.822L17.4958 36.898L17.6318 36.9741L17.7724 37.0496L17.9176 37.1247L18.0678 37.1994L18.2226 37.2736L18.382 37.3469L18.6792 37.4792L18.9906 37.612L19.3144 37.7444L19.6488 37.8767L19.9941 38.0096L20.349 38.141L20.7117 38.2729L21.0822 38.4039L21.4592 38.5349L21.8416 38.6645L22.2281 38.7932L22.6183 38.9205L23.0113 39.0473L23.4056 39.1719L23.7999 39.2951L24.1933 39.4165L24.5858 39.536L24.9751 39.6537L25.3607 39.7687L25.7418 39.8813L26.1168 39.9912L26.4846 40.0989L26.845 40.2033L27.1959 40.304L27.5366 40.4021L27.8673 40.4964L28.1846 40.5866L28.4892 40.6732L28.7796 40.7556L29.0539 40.8335L29.3117 40.9077L29.5554 40.9777L30.7026 41.2988L31.8503 40.9777Z" fill="#A6A8AA"/>
<path fill-rule="evenodd" clip-rule="evenodd" d="M24.4015 1.29248L24.5874 1.44819C12.0291 5.13816 6.20264 14.2397 6.29286 23.9645C6.35011 30.1761 9.18228 35.6348 13.3856 39.6495C18.1496 44.1995 23.9999 46.5705 30.3759 47.1732H31.0303C37.4064 46.571 43.2562 44.1995 48.0206 39.6495C52.224 35.6348 55.0561 30.1761 55.1134 23.9645C55.2031 14.2397 49.3767 5.13816 36.8183 1.44819L37.0047 1.29248C49.7692 5.0516 55.6927 14.2804 55.6011 24.1403C55.5425 30.4486 52.6536 35.9925 48.3664 40.0694C43.5072 44.6905 37.5401 47.099 31.0368 47.7104H30.369C23.8652 47.099 17.8986 44.6905 13.0394 40.0694C8.75223 35.9925 5.86328 30.4486 5.80511 24.1403C5.71397 14.2804 11.6371 5.0516 24.4015 1.29248Z" fill="#BBBCBF"/>
<path fill-rule="evenodd" clip-rule="evenodd" d="M7.23435 40.9096C10.4682 41.6556 11.762 42.3696 13.8604 44.2799C13.8678 44.2872 9.51327 44.5368 7.23435 40.9096ZM7.22198 37.1852C6.76766 36.9741 3.38363 35.7403 2.54552 31.0739C3.39828 31.9606 4.24738 32.4286 5.22426 33.6853C5.82971 34.4648 6.48554 35.5851 7.22198 37.1852ZM3.58331 26.1607C3.32317 25.7485 1.23385 22.9342 2.68566 18.4455C3.69734 20.6828 3.7752 23.1888 3.58331 26.1607ZM5.54485 14.6951C5.51645 14.2618 4.83085 11.5139 8.121 8.28012C7.88422 10.9057 6.88903 12.4171 5.54485 14.6951ZM11.1945 6.99868C11.3406 6.62634 11.5618 4.40879 15.7762 2.48389C14.5575 4.69732 13.1194 5.39757 11.1945 6.99868Z" fill="#E6E6E7"/>
<path fill-rule="evenodd" clip-rule="evenodd" d="M16.1025 3.66907C16.097 3.66907 19.8205 1.18177 22.8569 1.64616C21.8827 2.16185 18.4012 3.57748 16.1025 3.66907Z" fill="#434244"/>
<path fill-rule="evenodd" clip-rule="evenodd" d="M4.40527 19.2124C5.03683 18.5291 6.65809 17.5156 8.24546 13.2705C4.78631 15.8298 4.95897 17.0878 4.40527 19.2124ZM8.03341 11.0296C8.69382 10.6944 11.1175 9.69049 12.9828 7.19678C9.83283 8.05229 9.08357 9.56821 8.03341 11.0296Z" fill="black"/>
<path fill-rule="evenodd" clip-rule="evenodd" d="M5.07647 32.0137C5.38423 31.1152 6.27547 29.5764 5.61002 24.2944C3.72771 28.0609 4.48155 29.9308 5.07647 32.0137ZM9.47494 39.8242C9.48868 38.9307 9.84773 37.2828 7.64713 32.834C7.04305 36.7708 8.30021 38.1777 9.47494 39.8242ZM16.7573 46.044C16.4445 45.1812 16.0772 42.758 12.5008 39.826C13.24 43.777 15.0582 44.7841 16.7573 46.044ZM26.0516 49.7441C25.742 49.2957 24.1505 46.4255 19.6074 44.8519C21.6564 47.9813 23.7686 49.1345 26.0516 49.7441ZM22.1166 48.8391C21.6472 48.5964 18.2897 46.7864 14.1821 47.5797C16.6305 49.3292 19.29 49.1963 22.1166 48.8391ZM30.3782 50.6271C29.8387 50.5149 25.7429 49.4377 21.955 51.4235C25.683 52.5199 27.5918 51.7052 30.3782 50.6271Z" fill="#E6E6E7"/>
<path fill-rule="evenodd" clip-rule="evenodd" d="M30.3781 50.6274C29.8386 50.5152 25.7447 49.4385 21.9571 51.4225C24.1293 51.4119 29.0252 50.888 30.3726 50.6297C30.3745 50.6291 30.3763 50.6284 30.3781 50.6274ZM22.1161 48.8394C21.6457 48.5958 18.2887 46.7868 14.182 47.58L14.1833 47.5809C15.1616 47.8332 16.6789 48.1364 18.133 48.4076C18.5639 48.4877 21.0476 48.7611 22.1161 48.8394ZM7.23436 40.9095C10.4677 41.6555 11.7615 42.3695 13.8591 44.2788C10.2795 43.0982 7.86592 41.5955 7.23436 40.9095ZM2.54919 31.0775C3.40104 31.9614 4.24831 32.4299 5.22381 33.6848C5.79355 34.418 6.4077 35.4521 7.09101 36.9035C4.94399 34.87 3.89429 33.808 2.54919 31.0775ZM9.47481 39.8231C9.48901 38.9291 9.84624 37.2813 7.64792 32.8371C7.68089 33.5753 7.84577 34.8687 8.28909 36.4844C8.56663 37.492 8.97332 38.5618 9.47481 39.8231ZM5.07634 32.0131C5.38411 31.1146 6.27443 29.5753 5.60989 24.298C5.40609 24.8929 5.09329 26.3502 4.99574 28.3951C4.9449 29.4585 4.99574 30.6291 5.07634 32.0131ZM16.7572 46.0444C16.4444 45.1815 16.0771 42.7583 12.5012 39.8263C12.7201 40.4428 13.3264 41.726 14.427 43.2662C15.0448 44.1309 15.8257 45.0107 16.7572 46.0444C16.7567 46.0444 16.7567 46.0444 16.7572 46.0444ZM2.68613 18.4468C3.66484 20.6117 3.7688 23.028 3.60072 25.8753C3.04473 23.4924 2.58446 20.771 2.68613 18.4468Z" fill="black"/>
<path fill-rule="evenodd" clip-rule="evenodd" d="M4.40527 19.2124C5.03683 18.5291 6.65763 17.5156 8.245 13.2719C5.95555 15.5325 5.41329 16.9674 4.51473 18.7668C4.48084 18.9115 4.44512 19.0594 4.40527 19.2124ZM8.03341 11.0296C8.69337 10.6948 11.1138 9.69229 12.9778 7.20361C10.2821 8.41544 9.56995 9.40743 8.31874 10.6234C8.22439 10.7594 8.13051 10.8945 8.03341 11.0296Z" fill="#E6E6E7"/>
<path fill-rule="evenodd" clip-rule="evenodd" d="M26.0516 49.7443C25.742 49.296 24.1505 46.4258 19.6073 44.8522L19.6119 44.8595C20.2059 45.4874 21.5359 46.6594 23.0944 47.8355C23.9229 48.4601 24.9144 49.0587 26.0484 49.7434L26.0516 49.7443ZM5.54492 14.6949V14.6903C6.08626 12.6363 6.50806 11.0819 8.1197 8.28176L8.12153 8.28039C7.8843 10.9055 6.8891 12.4169 5.54492 14.6949ZM11.1946 6.9985C12.3762 5.48303 13.4346 4.3912 15.774 2.48828C14.5557 4.69759 13.1186 5.3983 11.1946 6.9985Z" fill="black"/>
<path fill-rule="evenodd" clip-rule="evenodd" d="M16.1025 3.66894L16.1044 3.66756C18.1149 2.76808 19.5136 2.10447 22.855 1.64648C21.8795 2.16309 18.4002 3.57734 16.1025 3.66894ZM54.0418 40.9094C50.8076 41.6554 49.5138 42.3694 47.4153 44.2796C47.408 44.287 51.7625 44.537 54.0418 40.9094ZM54.0542 37.185C54.5085 36.9739 57.8926 35.7401 58.7307 31.0737C57.8779 31.9604 57.0288 32.4284 56.0515 33.6851C55.446 34.4646 54.7906 35.5848 54.0542 37.185ZM57.6929 26.1605C57.9526 25.7483 60.0423 22.934 58.5905 18.4453C57.5788 20.6825 57.501 23.1886 57.6929 26.1605ZM55.7309 14.6949C55.7593 14.2616 56.4453 11.5137 53.1547 8.27991C53.392 10.9055 54.3867 12.4169 55.7309 14.6949ZM50.0817 6.99847C49.9356 6.62613 49.7144 4.40858 45.4995 2.48368C46.7187 4.69711 48.1563 5.39736 50.0817 6.99847Z" fill="#E6E6E7"/>
<path fill-rule="evenodd" clip-rule="evenodd" d="M45.1734 3.66907C45.1794 3.66907 41.456 1.18177 38.4196 1.64616C39.3928 2.16185 42.8748 3.57748 45.1734 3.66907Z" fill="#434244"/>
<path fill-rule="evenodd" clip-rule="evenodd" d="M56.871 19.2124C56.2394 18.5291 54.6182 17.5156 53.0308 13.2705C56.4899 15.8298 56.3173 17.0878 56.871 19.2124ZM53.2428 11.0296C52.5824 10.6944 50.1583 9.69049 48.293 7.19678C51.4434 8.05229 52.1922 9.56821 53.2428 11.0296Z" fill="black"/>
<path fill-rule="evenodd" clip-rule="evenodd" d="M56.2002 32.0137C55.8924 31.1152 55.0012 29.5764 55.6666 24.2944C57.5489 28.0609 56.7951 29.9308 56.2002 32.0137ZM51.8012 39.8242C51.788 38.9307 51.4284 37.2828 53.629 32.834C54.2331 36.7708 52.976 38.1777 51.8012 39.8242ZM44.5193 46.044C44.8316 45.1812 45.199 42.758 48.7753 39.826C48.0366 43.777 46.218 44.7841 44.5193 46.044ZM35.225 49.7441C35.5346 49.2957 37.1256 46.4255 41.6693 44.8519C39.6198 47.9813 37.5071 49.1345 35.225 49.7441ZM39.16 48.8391C39.6294 48.5964 42.9869 46.7864 47.0945 47.5797C44.6462 49.3292 41.9867 49.1963 39.16 48.8391ZM30.8984 50.6271C31.4379 50.5149 35.5337 49.4377 39.3217 51.4235C35.5932 52.5199 33.6848 51.7052 30.8984 50.6271Z" fill="#E6E6E7"/>
<path fill-rule="evenodd" clip-rule="evenodd" d="M30.8984 50.6274C31.4375 50.5152 35.5318 49.4385 39.3194 51.4225C37.1472 51.4119 32.2513 50.888 30.9035 50.6297L30.8984 50.6274ZM39.1604 48.8394C39.6308 48.5958 42.9878 46.7868 47.0945 47.58L47.0932 47.5809C46.1145 47.8332 44.5976 48.1364 43.1435 48.4076C42.7126 48.4877 40.2289 48.7611 39.1604 48.8394ZM54.0421 40.9095C50.8088 41.6555 49.515 42.3695 47.417 44.2788C50.9966 43.0982 53.4101 41.5955 54.0421 40.9095ZM58.7269 31.0775C57.8755 31.9614 57.0277 32.4299 56.0518 33.6848C55.4825 34.418 54.8683 35.4521 54.185 36.9035C56.3325 34.87 57.3822 33.808 58.7269 31.0775ZM51.8012 39.8231C51.7875 38.9291 51.4298 37.2813 53.6277 32.8371C53.5952 33.5753 53.4303 34.8687 52.9865 36.4844C52.7099 37.492 52.3027 38.5618 51.8012 39.8231ZM56.1997 32.0131C55.8919 31.1146 55.0021 29.5753 55.6661 24.298C55.87 24.8929 56.1828 26.3502 56.2808 28.3951C56.3316 29.4585 56.2808 30.6291 56.1997 32.0131ZM44.5193 46.0444C44.8316 45.1815 45.199 42.7583 48.7753 39.8263C48.5564 40.4428 47.9496 41.726 46.8495 43.2662C46.2317 44.1309 45.4504 45.0107 44.5193 46.0444ZM58.5899 18.4468C57.6112 20.6117 57.5077 23.028 57.6758 25.8753C58.2313 23.4924 58.6916 20.771 58.5899 18.4468Z" fill="black"/>
<path fill-rule="evenodd" clip-rule="evenodd" d="M56.8708 19.2124C56.2393 18.5291 54.6185 17.5156 53.0311 13.2719C55.3206 15.5325 55.8628 16.9674 56.7614 18.7668C56.7953 18.9115 56.831 19.0594 56.8708 19.2124ZM53.2427 11.0296C52.5827 10.6948 50.1623 9.69229 48.2979 7.20361C50.9935 8.41544 51.7057 9.40743 52.9569 10.6234C53.0513 10.7594 53.1456 10.8945 53.2427 11.0296Z" fill="#E6E6E7"/>
<path fill-rule="evenodd" clip-rule="evenodd" d="M35.225 49.7443C35.5346 49.296 37.1256 46.4258 41.6693 44.8522L41.6642 44.8595C41.0702 45.4874 39.7402 46.6594 38.1817 47.8355C37.3532 48.4601 36.3612 49.0587 35.2277 49.7434L35.225 49.7443ZM55.7312 14.6949L55.7316 14.6903C55.1903 12.6363 54.7685 11.0819 53.1564 8.28176L53.155 8.28039C53.3922 10.9055 54.387 12.4169 55.7312 14.6949ZM50.0819 6.9985L50.0815 6.99804C48.8999 5.48257 47.841 4.3912 45.5026 2.48828C46.7208 4.69759 48.158 5.3983 50.0819 6.9985Z" fill="black"/>
<path fill-rule="evenodd" clip-rule="evenodd" d="M45.1737 3.66894L45.1719 3.66756C43.1613 2.76808 41.7622 2.10447 38.4212 1.64648C39.3962 2.16309 42.876 3.57734 45.1737 3.66894ZM30.6767 13.7697L11.0654 15.9676L14.3308 21.5161L14.9285 31.4772L14.9418 31.681L14.956 31.8789L14.9716 32.0726L14.9885 32.2608L15.0073 32.4435L15.027 32.6217L15.0485 32.7948L15.0723 32.9643L15.098 33.1287L15.125 33.2894L15.1552 33.4461L15.1873 33.5995L15.2221 33.7497L15.2587 33.8954L15.2986 34.0382L15.3412 34.1788L15.387 34.3167L15.4355 34.4504L15.4873 34.5819L15.5422 34.711L15.6004 34.837L15.6622 34.9611L15.7277 35.0824L15.7959 35.2001L15.8683 35.3174L15.9439 35.431L16.0226 35.5423L16.1046 35.6517L16.1907 35.7584L16.2791 35.8638L16.3721 35.9668L16.4696 36.0708L16.5498 36.15L16.6372 36.2292L16.7307 36.308L16.8287 36.3854L16.9322 36.4623L17.0412 36.5388L17.1552 36.6149L17.2743 36.6904L17.3989 36.7664L17.528 36.8416L17.6631 36.9171L17.8028 36.9918L17.9475 37.0669L18.0964 37.1411L18.2503 37.2148L18.4087 37.2876L18.7055 37.4195L19.016 37.5519L19.3393 37.6838L19.6728 37.8161L20.0176 37.9485L20.3712 38.0799L20.7339 38.2118L21.104 38.3428L21.4804 38.4733L21.8624 38.6025L22.2489 38.7312L22.6387 38.859L23.0311 38.9854L23.425 39.1099L23.8193 39.2331L24.2127 39.3545L24.6048 39.474L24.9941 39.5913L25.3797 39.7067L25.7603 39.8189L26.1349 39.9293L26.5031 40.036L26.8631 40.1404L27.2139 40.2412L27.5551 40.3396L27.8848 40.4335L28.2027 40.5237L28.5072 40.6108L28.7971 40.6932L29.0719 40.771L29.3302 40.8452L29.5734 40.9149L30.6767 41.224V13.7697Z" fill="#E6E6E7"/>
<path fill-rule="evenodd" clip-rule="evenodd" d="M31.8326 40.9151L32.0758 40.8455L32.3341 40.7713L32.6084 40.6935L32.8988 40.611L33.2029 40.524L33.5207 40.4338L33.8509 40.3399L34.1916 40.2414L34.5425 40.1407L34.9024 40.0362L35.2707 39.9295L35.6453 39.8192L36.0259 39.707L36.4115 39.5915L36.8008 39.4743L37.1928 39.3548L37.5862 39.2334L37.9805 39.1102L38.3744 38.9856L38.7669 38.8592L39.1566 38.7315L39.5436 38.6028L39.9256 38.4736L40.3021 38.3431L40.6721 38.2121L41.0344 38.0802L41.3884 37.9488L41.7333 37.8164L42.0671 37.684L42.39 37.5522L42.7005 37.4198L42.9977 37.2879L43.1558 37.2151L43.3096 37.1409L43.4589 37.0671L43.6032 36.992L43.7429 36.9174L43.878 36.8418L44.0071 36.7667L44.1317 36.6907L44.2508 36.6151L44.3648 36.5391L44.4738 36.4626L44.5773 36.3857L44.6758 36.3083L44.7688 36.2295L44.8562 36.1503L44.9364 36.071L45.0344 35.9671L45.1264 35.864L45.2158 35.7587L45.3014 35.6515L45.3834 35.5425L45.4622 35.4312L45.5377 35.3172L45.6101 35.2004L45.6783 35.0827L45.7438 34.9613L45.8056 34.8372L45.8638 34.7113L45.9188 34.5821L45.9705 34.4502L46.0186 34.3165L46.0644 34.1791L46.1074 34.0385L46.1473 33.8956L46.1839 33.7495L46.2183 33.5993L46.2503 33.4463L46.2806 33.2897L46.3076 33.129L46.3332 32.9645L46.357 32.7951L46.3786 32.622L46.3987 32.4438L46.4175 32.2606L46.434 32.0728L46.4496 31.8791L46.4638 31.6813L46.4766 31.4775L47.0752 21.5163L50.3401 15.9679L30.7288 13.77V41.2243L31.8326 40.9151ZM30.6766 14.4231L12.1324 16.5014L14.9692 21.3212L15.5765 31.4367C15.7065 33.6011 16.0157 34.6659 16.9339 35.6172C17.244 35.9387 17.8641 36.3275 18.6766 36.6962C21.664 38.0532 27.2679 39.5737 29.7501 40.2904L30.6766 40.5497V14.4231Z" fill="#D0D1D3"/>
<path fill-rule="evenodd" clip-rule="evenodd" d="M31.6554 40.2907C34.1376 39.5744 39.7411 38.0539 42.7299 36.6964C43.5419 36.3277 44.1615 35.9389 44.472 35.6174C45.3903 34.6662 45.6994 33.6014 45.8295 31.4369L46.4368 21.3215L49.2731 16.5017L30.7289 14.4233V40.5499L31.6554 40.2907Z" fill="#A6A8AA"/>
<path fill-rule="evenodd" clip-rule="evenodd" d="M30.7028 38.4986L29.7772 38.3049C24.1578 37.1325 24.8022 37.41 19.1131 35.7343C16.9963 35.1109 16.7659 33.9646 16.694 31.6348L16.4696 21.0532L14.4623 17.4429H46.9433L44.936 21.0532L44.7116 31.6348C44.6401 33.9646 44.4098 35.1105 42.293 35.7343C36.6039 37.41 37.2483 37.1325 31.6289 38.3049L30.7028 38.4986Z" fill="#808183"/>
<path fill-rule="evenodd" clip-rule="evenodd" d="M44.6152 30.6621L44.5946 31.6316L44.579 32.053L44.5571 32.4468L44.5268 32.8132L44.4874 33.1357H30.7548V31.9504H31.2751V31.8473H30.7548V30.6621H44.6152ZM16.6407 23.6142L16.5885 21.1406H30.6509V23.6142H16.6407Z" fill="black"/>
<path fill-rule="evenodd" clip-rule="evenodd" d="M44.4704 33.2391L44.4306 33.469L44.3596 33.7593L44.2721 34.0268L44.1645 34.2714L44.0344 34.4962L43.8801 34.7019L43.6978 34.8906L43.4844 35.0637L43.2371 35.2231L42.9522 35.3687L42.627 35.5015L42.2579 35.6224L41.744 35.7736L41.2641 35.9142L40.8162 36.0451L40.3989 36.1656L40.0092 36.2773L39.6451 36.3808L39.3044 36.4766L38.9852 36.5654L38.6843 36.6478L38.3998 36.7243L38.1292 36.7953L37.8709 36.8617L37.6213 36.9245L37.3799 36.9835L37.1427 37.0399L36.9082 37.0944L36.6737 37.1475L36.4374 37.1997L36.1956 37.2515L35.9478 37.3037L35.6909 37.3573L35.4225 37.4122L35.1404 37.4695L34.8422 37.5299L34.5258 37.5936L34.1882 37.6614L33.8283 37.7342L33.4431 37.812L33.0305 37.8963L32.588 37.9865L32.1136 38.0845L31.6048 38.1903L30.7547 38.368V33.2391H44.4704ZM44.6866 27.294L44.6174 30.558H30.7547V27.294H44.6866ZM16.5861 21.037L16.5857 21.0215L14.6608 17.5596H30.6508V21.037H16.5861ZM16.7167 27.19L16.6429 23.7176H30.6508V27.19H16.7167Z" fill="#D4A950"/>
<path fill-rule="evenodd" clip-rule="evenodd" d="M30.7549 25.5532V24.0693H37.8102V25.5532H30.7549ZM45.8294 19.2056L45.0046 20.6899H37.9137V19.2056H45.8294ZM30.651 28.8278V30.3121H23.5957V28.8278H30.651ZM17.9534 35.0843L17.9209 35.0637L17.7079 34.8906L17.5256 34.7019L17.3713 34.4962L17.2412 34.2714L17.1336 34.0268L17.0457 33.7593L17.0072 33.6004H23.4918V35.0843H17.9534Z" fill="#3A529A"/>
<path fill-rule="evenodd" clip-rule="evenodd" d="M30.7551 23.9654V22.4284H37.8103V23.9654H30.7551ZM37.8103 27.19H30.7551V25.6572H37.8103V27.19ZM44.9471 20.7934L44.8197 21.0215L44.7923 22.3249H37.9138V20.7934H44.9471ZM37.9138 17.5596H46.7446L45.8873 19.1016H37.9138V17.5596ZM30.6511 30.4161V31.8468H23.5959V30.4161H30.6511ZM23.5959 27.294H30.6511V28.7238H23.5959V27.294ZM16.9822 33.4965L16.9753 33.469L16.9203 33.1539L16.8791 32.8131L16.8489 32.4468L16.8269 32.0529L16.8232 31.9508H23.4919V33.4965H16.9822ZM23.4919 36.8507L23.2767 36.7953L23.006 36.7243L22.7216 36.6478L22.4207 36.5654L22.101 36.4766L21.7603 36.3808L21.3967 36.2773L21.0069 36.1656L20.5897 36.0451L20.1418 35.9142L19.6618 35.7736L19.148 35.6224L18.7784 35.5015L18.4532 35.3687L18.1688 35.2231L18.1148 35.1882H23.4919V36.8507Z" fill="#BBBCBF"/>
<path fill-rule="evenodd" clip-rule="evenodd" d="M44.7903 22.4284L44.689 27.19H37.9136V22.4284H44.7903ZM30.7549 17.5596H37.8101V22.3249H30.7549V17.5596ZM16.819 31.8468L16.8112 31.6316L16.7191 27.294H23.4918V31.8468H16.819ZM30.651 38.368L29.8009 38.1903L29.2921 38.0845L28.8176 37.9865L28.3752 37.8963L27.9621 37.812L27.577 37.7342L27.217 37.6614L26.8799 37.5936L26.5635 37.5299L26.2658 37.4695L25.9832 37.4122L25.7148 37.3573L25.4574 37.3037L25.2097 37.2515L24.9688 37.1997L24.732 37.1475L24.4975 37.0944L24.263 37.0399L24.0258 36.9835L23.784 36.9245L23.5957 36.8773V31.9508H30.651V38.368Z" fill="#C03B35"/>
<path fill-rule="evenodd" clip-rule="evenodd" d="M31.8115 40.8399L32.0542 40.7703L32.3125 40.6961L32.5869 40.6183L32.8772 40.5358L33.1818 40.4493L33.4996 40.3591L33.8294 40.2647L34.1701 40.1667L34.5209 40.0655L34.8809 39.962L35.2487 39.8544L35.6233 39.7444L36.0039 39.6322L36.3895 39.5168L36.7783 39.3996L37.1699 39.28L37.5633 39.1587L37.9572 39.0359L38.3506 38.9109L38.7431 38.785L39.1324 38.6576L39.5184 38.529L39.8999 38.3998L40.2759 38.2693L40.6455 38.1388L41.0073 38.0073L41.3609 37.8759L41.7048 37.744L42.0378 37.6121L42.3598 37.4802L42.6694 37.3483L42.9652 37.2168L43.1228 37.1445L43.2757 37.0707L43.4232 36.9975L43.567 36.9233L43.7053 36.8491L43.8395 36.774L43.9673 36.6998L44.0905 36.6247L44.2082 36.5496L44.3204 36.4749L44.4285 36.3993L44.5297 36.3238L44.6263 36.2477L44.7175 36.1708L44.8026 36.0934L44.8805 36.0165L44.9767 35.9143L45.0678 35.8127L45.1558 35.7092L45.2396 35.6038L45.3202 35.4966L45.398 35.3872L45.4722 35.275L45.5432 35.1605L45.6105 35.0446L45.6742 34.9255L45.7346 34.8037L45.7923 34.6796L45.8464 34.5527L45.8977 34.4227L45.9449 34.2908L45.9902 34.1557L46.0323 34.0164L46.0717 33.8754L46.1084 33.7311L46.1422 33.5827L46.1738 33.4311L46.2036 33.2759L46.2306 33.1165L46.2563 32.953L46.2796 32.7845L46.3016 32.6123L46.3213 32.4355L46.3396 32.2532L46.3561 32.0664L46.3717 31.8735L46.3859 31.6757L46.3992 31.4724L46.9987 21.4929L50.211 16.0347L49.3573 16.461L46.4876 21.3372L45.8807 31.4398L45.8675 31.6404L45.8542 31.8342L45.8386 32.0219L45.8226 32.2038L45.8047 32.3805L45.7859 32.5514L45.7649 32.7167L45.7429 32.877L45.7182 33.0322L45.6925 33.1834L45.6646 33.3295L45.6353 33.4714L45.6032 33.6088L45.5698 33.7421L45.5336 33.8717L45.4956 33.9981L45.4548 34.12L45.4113 34.2395L45.366 34.3563L45.3179 34.4685L45.267 34.5788L45.2135 34.6865L45.1571 34.7914L45.0976 34.8939L45.0348 34.9947L44.9694 35.0936L44.9011 35.1903L44.8297 35.2855L44.7546 35.3789L44.6762 35.4715L44.5943 35.5631L44.5091 35.6537L44.4459 35.716L44.3753 35.7801L44.2984 35.8456L44.2146 35.9111L44.1239 35.9784L44.0277 36.0462L43.9247 36.1145L43.8162 36.1841L43.7017 36.2532L43.5821 36.3233L43.4557 36.3938L43.3252 36.4639L43.1887 36.534L43.0477 36.6045L42.902 36.6741L42.7513 36.7437L42.4624 36.8724L42.1601 37.0011L41.8436 37.1303L41.5162 37.2599L41.1773 37.3899L40.8283 37.52L40.4706 37.6501L40.1047 37.7792L39.7319 37.9084L39.3536 38.0366L38.9698 38.1644L38.5828 38.2908L38.193 38.4167L37.8015 38.5404L37.4094 38.6627L37.0179 38.7836L36.6277 38.9027L36.2402 39.0195L35.856 39.1344L35.4767 39.2466L35.1026 39.3561L34.7362 39.4632L34.3771 39.5672L34.0268 39.668L33.6865 39.7655L33.3572 39.8594L33.0398 39.9496L32.7357 40.0362L32.4454 40.1191L32.1701 40.1974L31.9113 40.2711L31.6695 40.3407L30.7027 40.6114L29.7364 40.3407L29.4941 40.2711L29.2358 40.1974L28.9606 40.1191L28.6702 40.0362L28.3661 39.9496L28.0483 39.8594L27.719 39.7655L27.3787 39.668L27.0288 39.5672L26.6693 39.4632L26.3029 39.3561L25.9287 39.2466L25.5495 39.1344L25.1653 39.0195L24.7783 38.9027L24.3876 38.7836L23.9965 38.6627L23.6045 38.5404L23.2129 38.4167L22.8227 38.2908L22.4357 38.1644L22.0523 38.0366L21.6741 37.9084L21.3008 37.7792L20.9353 37.6501L20.5776 37.52L20.2282 37.3899L19.8898 37.2599L19.5618 37.1303L19.2458 37.0011L18.9436 36.8724L18.655 36.7437L18.5044 36.6746L18.3583 36.6045L18.2172 36.534L18.0807 36.4639L17.9502 36.3938L17.8238 36.3233L17.7043 36.2532L17.5898 36.1841L17.4812 36.1145L17.3782 36.0462L17.282 35.9784L17.1913 35.9111L17.108 35.8456L17.031 35.7801L16.96 35.716L16.8968 35.6537L16.8116 35.5631L16.7297 35.4715L16.6514 35.3789L16.5762 35.2855L16.5048 35.1903L16.4361 35.0936L16.3711 34.9952L16.3083 34.8939L16.2488 34.7914L16.1925 34.6865L16.1389 34.5788L16.0876 34.4685L16.0395 34.3558L15.9941 34.2399L15.9511 34.1204L15.9099 33.9981L15.8719 33.8717L15.8357 33.7421L15.8023 33.6093L15.7707 33.4714L15.7409 33.3295L15.7129 33.1834L15.6873 33.0322L15.6626 32.877L15.6406 32.7171L15.6195 32.5509L15.6007 32.3805L15.5829 32.2038L15.5664 32.0219L15.5513 31.8342L15.5375 31.6404L15.5243 31.4398L14.9179 21.3372L12.0491 16.4615L11.1949 16.0347L14.4072 21.4929L15.0063 31.4724L15.0196 31.6757L15.0333 31.8735L15.0489 32.0664L15.0658 32.2537L15.0846 32.4355L15.1038 32.6123L15.1258 32.7845L15.1492 32.953L15.1748 33.1165L15.2018 33.2759L15.2316 33.4311L15.2632 33.5832L15.2976 33.7316L15.3337 33.8754L15.3731 34.0164L15.4153 34.1557L15.4606 34.2912L15.5082 34.4231L15.5591 34.5527L15.6131 34.6796L15.6708 34.8037L15.7313 34.9255L15.7954 35.0446L15.8627 35.1605L15.9337 35.2754L16.0079 35.3876L16.0857 35.4966L16.1664 35.6038L16.2506 35.7092L16.3381 35.8127L16.4292 35.9143L16.5254 36.0165L16.6028 36.0934L16.6885 36.1708L16.7796 36.2477L16.8758 36.3238L16.9779 36.3993L17.0851 36.4749L17.1977 36.5496L17.3154 36.6247L17.4386 36.6998L17.5664 36.774L17.7006 36.8491L17.8389 36.9233L17.9827 36.9975L18.1302 37.0707L18.2831 37.1445L18.4412 37.2168L18.7366 37.3483L19.0457 37.4802L19.3681 37.6121L19.7011 37.744L20.045 37.8759L20.3981 38.0073L20.7599 38.1388L21.1295 38.2693L21.5055 38.3998L21.887 38.529L22.2731 38.6576L22.6624 38.785L23.0549 38.9109L23.4483 39.0359L23.8426 39.1587L24.2356 39.28L24.6271 39.3996L25.0164 39.5168L25.4016 39.6322L25.7822 39.7444L26.1568 39.8544L26.525 39.962L26.8845 40.0655L27.2353 40.1667L27.5761 40.2647L27.9063 40.3591L28.2237 40.4493L28.5282 40.5358L28.8186 40.6183L29.0929 40.6961L29.3512 40.7703L29.5944 40.8399L30.7027 41.1504L31.8115 40.8399Z" fill="#6D6E70"/>
<path fill-rule="evenodd" clip-rule="evenodd" d="M35.4488 71.2917C35.8193 71.2917 36.2296 71.0013 36.3638 70.6455C36.498 70.2901 36.3052 69.9997 35.9352 69.9997C35.5651 69.9997 35.1543 70.2901 35.0201 70.6455C34.8868 71.0013 35.0792 71.2917 35.4488 71.2917ZM44.5979 76.9281C44.5979 77.365 44.848 77.6521 45.0962 77.7886C45.6467 78.0913 46.6982 77.3677 47.1347 77.0655C47.365 76.9061 47.5863 76.7293 47.7759 76.5397C48.5521 75.7634 48.6936 75.7987 48.6936 75.7987C48.6936 75.7987 48.4115 76.3991 48.4115 76.9638C48.4115 77.5642 48.6584 77.8468 49.1883 77.8468C49.6824 77.8468 50.8475 77.2464 51.6953 76.3991C52.543 75.5871 52.7898 75.5514 52.7898 75.5514C52.7898 75.5514 52.7193 75.7634 52.7193 76.1518C52.7193 76.5402 52.6492 78.1289 54.9799 78.1289C57.5222 78.1289 59.3935 76.0103 59.3935 76.0103L59.252 75.9049C59.252 75.9049 57.2392 77.7763 55.0853 77.7763C53.785 77.7763 53.5496 76.9166 53.8927 75.8971C54.4519 74.236 56.1318 72.3391 57.9028 71.9324C58.5229 71.7895 59.208 71.9049 59.0001 72.6821C58.9012 73.0526 58.5994 73.5646 57.9101 74.0332V74.351C57.9101 74.351 59.7462 73.7506 59.7462 72.444C59.7462 71.8435 59.2167 71.561 58.5806 71.561C57.9211 71.561 56.445 71.8642 54.7216 73.1712C53.9334 73.7689 53.306 74.4701 52.6131 75.1635C52.101 75.675 50.516 77.1731 49.6188 77.4497C49.0669 77.6187 48.7747 77.3577 48.9639 76.8346C49.0623 76.5617 49.3115 76.2067 49.894 75.5514C50.7766 74.5978 52.9305 72.2676 52.9305 72.2676C52.9305 72.2676 52.5068 71.8083 51.518 71.8083C50.494 71.8083 47.8812 72.4087 45.9389 74.351C44.1376 76.1518 42.5494 77.5995 41.7369 77.5285C40.7834 77.458 40.5013 76.9281 40.5361 76.3281C41.2686 75.8609 41.9804 75.3618 42.6693 74.8323C44.3162 73.5555 46.0515 72.1151 47.1264 70.2969C47.654 69.4052 47.9829 68.454 47.0335 68.454C46.3621 68.454 44.4907 69.4071 42.4074 71.4556C40.324 73.539 39.7593 74.8099 39.7593 76.1165C39.7593 76.2223 39.7941 76.3286 39.7941 76.3991C38.6996 77.07 37.6402 77.5289 36.7572 77.5289C35.6274 77.5289 35.3096 76.9642 35.3448 76.3286C37.4305 74.9917 39.7254 73.1717 41.3371 71.2624C41.6732 70.8639 43.295 68.454 41.807 68.454C41.1713 68.454 39.2642 69.4071 37.2166 71.4556C35.1332 73.539 34.5685 74.8099 34.5685 76.1165C34.5685 76.2223 34.5685 76.3286 34.6038 76.4344C33.5088 77.1053 32.4146 77.5289 31.5317 77.5289C31.1428 77.5289 31.037 77.3874 31.037 76.9285C31.037 76.3638 31.5669 75.5866 32.0611 75.0572C32.5905 74.563 35.0627 71.9851 35.0627 71.9851H33.8633C33.8633 71.9851 33.3201 72.5635 32.7261 73.1877C32.3327 73.6031 31.935 74.0144 31.533 74.4215C30.5987 75.3558 28.4925 77.599 27.2958 77.599C26.776 77.599 26.9248 76.9326 27.0846 76.6185C27.9745 74.8671 30.5053 72.487 31.9874 71.0677C33.0728 70.0276 34.3231 68.8419 34.3231 68.8419H33.158C30.8974 70.9958 29.9443 71.9493 29.8738 72.0199C29.8738 72.0199 29.5207 71.8078 28.8497 71.8078C28.1788 71.8078 26.0606 72.0904 23.8005 74.3505C21.5403 76.6102 20.4105 77.599 19.7395 77.599C19.3141 77.599 19.3928 77.1887 19.5678 76.798C20.3294 75.0957 22.2227 73.6082 23.4826 72.2672C23.4826 72.2672 23.2133 71.9754 22.6037 71.8568C20.8542 71.5175 18.7091 72.5076 17.2412 73.6778C16.8391 73.9979 16.4846 74.367 16.1004 74.7069C14.5762 76.0542 9.92769 79.7882 6.53313 79.7882C4.8734 79.7882 4.02613 79.0467 4.02613 77.2807C4.02613 76.0098 4.94392 74.2443 6.88623 72.0551C7.53046 72.0575 8.17454 72.0354 8.81709 71.9887C12.2208 71.7309 16.557 70.7197 19.9635 69.0169C21.4281 68.2846 23.5751 67.0924 24.3995 65.6301C25.0338 64.5048 24.3537 63.5444 23.0233 63.5444C18.8565 63.5444 10.1347 67.1817 5.61487 71.6306C3.53151 71.5953 1.27182 71.2069 1.27182 69.1236C1.23655 66.6161 6.67464 64.2859 11.7239 64.2859L11.6181 63.9685C11.6181 63.9685 4.3087 64.0391 1.02497 67.3228C0.423634 67.9241 0 68.5236 0 69.3008C0 70.0423 0.105794 71.6663 5.22604 72.0199C3.70783 73.6091 2.71904 75.3389 2.71904 76.9986C2.71904 78.5525 3.56631 80.0002 6.39115 80.0002C10.311 80.0002 15.4308 75.6572 15.4308 75.6572C15.4308 75.9397 15.1482 76.3986 15.1482 76.9991C15.1482 77.5638 15.3956 77.882 15.925 77.882C17.1006 77.882 18.1847 76.5878 19.1029 75.9755C18.9701 76.2979 18.8556 76.5397 18.8556 77.07C18.8556 77.5642 19.1382 77.882 19.7033 77.882C20.2328 77.882 21.3273 77.2464 22.2809 76.2928C22.7045 75.8339 22.8456 75.7987 22.8456 75.7987C22.6262 76.4018 22.4462 77.882 23.4107 77.882C23.9401 77.882 24.7173 77.5289 25.8472 76.3991C26.4476 75.7987 26.6949 75.7987 26.6949 75.7987C26.6824 75.8805 26.6628 75.9611 26.6363 76.0396C26.4934 76.4907 26.3148 76.9285 26.4833 77.4007C26.5763 77.6608 26.7833 77.882 27.2248 77.882C27.931 77.882 28.9903 77.2111 29.8023 76.3991C30.6143 75.5871 30.65 75.7987 30.65 75.7987C30.65 76.046 30.4733 76.1161 30.4733 76.6459C30.4733 77.1406 30.5085 77.882 31.6388 77.882C32.345 77.882 33.4749 77.3874 34.6753 76.7165C34.9578 77.5642 35.8761 77.882 36.7238 77.882H36.8649C37.5363 77.882 38.6661 77.3874 39.8665 76.7165C40.1491 77.5285 40.9968 77.8468 41.7735 77.882C42.6561 77.9173 44.8805 75.5866 44.8805 75.9049C44.88 76.2571 44.5979 76.2924 44.5979 76.9281ZM22.917 63.8627C24.6459 63.8627 24.4595 65.0746 23.5174 66.0166C23.2394 66.2946 22.8726 66.5914 22.4315 66.8969C19.6612 68.8176 13.9744 71.1066 9.10699 71.5532C8.49755 71.607 7.88596 71.633 7.27414 71.631C7.69823 71.2069 8.08569 70.7696 8.54321 70.3785C11.6882 67.6873 18.8909 63.8627 22.917 63.8627ZM18.4324 76.0455C17.7968 76.6808 16.5607 77.599 16.0312 77.599C15.9254 77.599 15.7839 77.4575 15.7839 77.2459C15.7839 76.3629 17.0905 75.092 18.1851 73.997C19.2797 72.9024 20.9042 72.1609 21.5399 72.1609C21.9282 72.1609 22.0693 72.1962 22.0693 72.3725C22.0693 72.6555 19.1034 75.3741 18.4324 76.0455ZM23.6232 77.528C22.6244 77.528 24.1499 75.4708 24.3647 75.2679C24.9651 74.6675 27.2953 72.1609 28.6725 72.1609C29.0256 72.1609 29.2729 72.302 29.2729 72.3725C29.2729 72.514 29.2024 72.6904 28.7077 73.1493C28.2488 73.6439 27.8252 74.1733 27.2248 74.7737C26.6244 75.3741 24.4352 77.528 23.6232 77.528ZM38.2416 71.4194C39.1246 70.5365 40.8196 68.8062 41.7378 68.8062C42.2943 68.8062 42.2214 69.7437 39.9013 72.0199C38.8777 73.0435 37.147 74.6679 35.4167 75.8688C35.6869 74.3194 37.1827 72.4783 38.2416 71.4194ZM40.7133 75.4804C41.1021 74.3505 42.4436 72.4435 43.4323 71.4199C44.2187 70.6336 45.649 69.1753 46.6011 68.8657C47.1205 68.6967 47.4278 68.917 47.1516 69.4932C46.9341 69.9457 46.3895 70.7581 45.1273 72.0203C44.1033 73.0439 42.373 74.6684 40.6075 75.8692C40.6428 75.763 40.678 75.6214 40.7133 75.4804ZM47.6701 73.9617C48.4463 73.2102 49.4896 72.6006 50.2448 72.3102C50.439 72.2356 51.2959 71.964 51.507 72.226C51.6289 72.3775 51.475 72.5246 51.3774 72.6381C50.7239 73.3993 48.4596 75.4373 47.9169 76.0094C47.246 76.645 46.0456 77.5633 45.5157 77.5633C45.3747 77.5633 45.2689 77.4218 45.2689 77.2102C45.2689 76.3629 46.575 75.0568 47.6701 73.9617ZM60.6997 76.6808C61.088 76.716 61.4059 76.3986 61.4059 76.0098C61.4059 75.6567 61.088 75.3389 60.6997 75.3389C60.3466 75.3389 60.0287 75.6567 60.0287 76.0098C60.0287 76.3982 60.3466 76.716 60.6997 76.6808ZM60.6997 75.4447C61.0171 75.4447 61.3001 75.692 61.3001 76.0094C61.3001 76.3272 61.0175 76.6098 60.6997 76.6098C60.3818 76.6098 60.1345 76.3277 60.1345 76.0094C60.1345 75.692 60.3818 75.4447 60.6997 75.4447ZM60.5229 76.0803H60.6997C60.876 76.0803 60.9113 76.0803 60.9113 76.2571V76.3986H61.0171V76.2223C61.0171 76.1518 60.9818 76.1165 60.9465 76.046L60.9113 76.0103C60.9818 75.9755 61.0171 75.9402 61.0171 75.8692C61.0171 75.7277 60.9113 75.6572 60.7345 75.6572H60.4171V76.3986H60.5229V76.0803ZM60.5229 75.7277H60.7345C60.8403 75.7277 60.9113 75.7982 60.9113 75.8692C60.9113 75.9402 60.8407 75.975 60.6997 75.975H60.5229V75.7277Z" fill="black"/>
</svg>
