<svg width="50" height="50" viewBox="0 0 50 50" fill="none" xmlns="http://www.w3.org/2000/svg">
<path fill-rule="evenodd" clip-rule="evenodd" d="M25 0C38.7701 0 50 11.2299 50 25C50 38.7701 38.7701 50 25 50C11.2299 50 0 38.7689 0 25C0 11.2311 11.2299 0 25 0Z" fill="black"/>
<path d="M10.4751 17.502L4.57605 12.4283L6.78505 9.85995C7.13751 9.42149 7.56386 9.04797 8.04487 8.75624C8.40591 8.54896 8.82117 8.45565 9.23618 8.48854C9.60722 8.51025 9.96144 8.65073 10.2465 8.88921C10.5017 9.11154 10.6789 9.40974 10.7523 9.74012C10.8363 10.134 10.8092 10.5434 10.6742 10.9228C11.0649 10.6239 11.5376 10.4513 12.0291 10.4281C12.4637 10.4188 12.8858 10.574 13.2109 10.8626C13.4825 11.0938 13.688 11.3927 13.8066 11.7291C13.924 12.0396 13.9643 12.374 13.9242 12.7035C13.867 13.0547 13.7475 13.3929 13.5713 13.7021C13.3306 14.1275 13.0454 14.5261 12.7206 14.8913L10.4751 17.502ZM7.83498 13.6541L9.10864 12.1734C9.36738 11.8922 9.59353 11.5827 9.78278 11.2508C9.91294 11.0156 9.96636 10.7456 9.93555 10.4786C9.89332 10.235 9.76377 10.0152 9.57114 9.8603C9.38875 9.69768 9.1584 9.59881 8.91487 9.57859C8.66258 9.56248 8.4125 9.63436 8.20727 9.78199C7.84415 10.0671 7.51538 10.3933 7.22759 10.7543L6.05187 12.1208L7.83498 13.6541ZM10.5585 15.9966L12.0233 14.2932C12.2047 14.0909 12.3727 13.877 12.5261 13.6527C12.6583 13.4497 12.7554 13.226 12.8134 12.9908C12.8591 12.7829 12.8489 12.5667 12.784 12.364C12.713 12.144 12.581 11.9487 12.4033 11.8009C12.1983 11.6177 11.9355 11.5123 11.6607 11.5031C11.3707 11.4989 11.0868 11.5868 10.8499 11.754C10.4927 12.0173 10.1708 12.3254 9.89192 12.6706L8.5305 14.2529L10.5585 15.9966ZM20.2833 8.78602V2.11328H22.0424L24.1305 6.8377C24.3232 7.27744 24.4655 7.6068 24.551 7.82579C24.6517 7.58344 24.8085 7.22663 25.0216 6.75536L27.136 2.11328H28.7081V8.78602H27.582V3.2007L25.0161 8.78602H23.9618L21.4093 3.10592V8.78602H20.2833ZM36.2411 12.6823L40.324 7.14622L40.8811 7.83385L38.116 11.3524C37.8314 11.7181 37.5362 12.0752 37.2304 12.4237C37.8882 12.1056 38.2674 11.9234 38.372 11.8776L42.6453 10.0111L43.301 10.8202L41.2705 13.6671C40.8082 14.325 40.3034 14.9521 39.7593 15.5443C40.1374 15.3435 40.5827 15.1238 41.0887 14.885L45.0557 12.9852L45.6025 13.6597L39.3043 16.4628L38.7807 15.8163L41.8562 11.5558C42.1131 11.1988 42.2724 10.9818 42.3341 10.9048C42.0538 11.0439 41.8113 11.1583 41.6065 11.248L36.7954 13.3663L36.2411 12.6823Z" fill="white"/>
<path fill-rule="evenodd" clip-rule="evenodd" d="M39.7672 25.2471C39.7598 29.0957 38.2276 32.7846 35.5062 35.5061C32.7848 38.2275 29.0959 39.7596 25.2472 39.767V25.2471H39.7672Z" fill="#00ACEC"/>
<path fill-rule="evenodd" clip-rule="evenodd" d="M39.7672 24.7519C39.7598 20.9032 38.2276 17.2143 35.5062 14.4929C32.7848 11.7715 29.0959 10.2393 25.2472 10.2319V24.7519H39.7672Z" fill="white"/>
<path fill-rule="evenodd" clip-rule="evenodd" d="M10.2319 24.7519C10.2393 20.9032 11.7715 17.2143 14.4929 14.4929C17.2143 11.7715 20.9032 10.2393 24.7519 10.2319V24.7519H10.2319Z" fill="#00ACEC"/>
<path fill-rule="evenodd" clip-rule="evenodd" d="M10.2319 25.2471C10.2393 29.0957 11.7715 32.7846 14.4929 35.5061C17.2143 38.2275 20.9032 39.7596 24.7519 39.767V25.2471H10.2319Z" fill="white"/>
</svg>
